<?xml version="1.0" encoding="UTF-8" standalone="no"?>
<!DOCTYPE svg PUBLIC "-//W3C//DTD SVG 1.1//EN"
 "http://www.w3.org/Graphics/SVG/1.1/DTD/svg11.dtd">
<!-- Generated by graphviz version 2.42.3 (20191010.1750)
 -->
<!-- Title: %3 Pages: 1 -->
<svg width="434pt" height="116pt"
 viewBox="0.00 0.00 433.85 116.00" xmlns="http://www.w3.org/2000/svg" xmlns:xlink="http://www.w3.org/1999/xlink">
<g id="graph0" class="graph" transform="scale(1 1) rotate(0) translate(4 112)">
<title>%3</title>
<polygon fill="white" stroke="transparent" points="-4,4 -4,-112 429.85,-112 429.85,4 -4,4"/>
<!-- openjdk -->
<g id="node1" class="node">
<title>openjdk</title>
<g id="a_node1"><a xlink:href="https://github.com/conda-forge/openjdk-feedstock/pull/71" xlink:title="openjdk">
<ellipse fill="#31688e" stroke="black" cx="381" cy="-54" rx="44.69" ry="18"/>
<text text-anchor="middle" x="381" y="-50.3" font-family="Times,serif" font-size="14.00" fill="white">openjdk</text>
</a>
</g>
</g>
<!-- portaudio -->
<g id="node2" class="node">
<title>portaudio</title>
<g id="a_node2"><a xlink:href="https://github.com/conda-forge/portaudio-feedstock" xlink:title="portaudio">
<ellipse fill="#35b779" stroke="black" cx="274" cy="-90" rx="54.69" ry="18"/>
<text text-anchor="middle" x="274" y="-86.3" font-family="Times,serif" font-size="14.00">portaudio</text>
</a>
</g>
</g>
<!-- gnuradio -->
<g id="node5" class="node">
<title>gnuradio</title>
<g id="a_node5"><a xlink:href="https://github.com/conda-forge/gnuradio-feedstock" xlink:title="gnuradio">
<ellipse fill="#fde725" stroke="black" cx="274" cy="-18" rx="50.09" ry="18"/>
<text text-anchor="middle" x="274" y="-14.3" font-family="Times,serif" font-size="14.00">gnuradio</text>
</a>
</g>
</g>
<!-- portaudio&#45;&gt;gnuradio -->
<g id="edge1" class="edge">
<title>portaudio&#45;&gt;gnuradio</title>
<path fill="none" stroke="black" d="M274,-71.7C274,-63.98 274,-54.71 274,-46.11"/>
<polygon fill="black" stroke="black" points="277.5,-46.1 274,-36.1 270.5,-46.1 277.5,-46.1"/>
</g>
<!-- pulseaudio -->
<g id="node3" class="node">
<title>pulseaudio</title>
<g id="a_node3"><a xlink:href="https://github.com/conda-forge/pulseaudio-feedstock/pull/1" xlink:title="pulseaudio">
<ellipse fill="#31688e" stroke="black" cx="84" cy="-90" rx="59.59" ry="18"/>
<text text-anchor="middle" x="84" y="-86.3" font-family="Times,serif" font-size="14.00" fill="white">pulseaudio</text>
</a>
</g>
</g>
<!-- mlt -->
<g id="node4" class="node">
<title>mlt</title>
<g id="a_node4"><a xlink:href="https://github.com/conda-forge/mlt-feedstock" xlink:title="mlt">
<ellipse fill="#fde725" stroke="black" cx="27" cy="-18" rx="27" ry="18"/>
<text text-anchor="middle" x="27" y="-14.3" font-family="Times,serif" font-size="14.00">mlt</text>
</a>
</g>
</g>
<!-- pulseaudio&#45;&gt;mlt -->
<g id="edge3" class="edge">
<title>pulseaudio&#45;&gt;mlt</title>
<path fill="none" stroke="black" d="M70.49,-72.41C63.19,-63.44 54.05,-52.21 46.03,-42.37"/>
<polygon fill="black" stroke="black" points="48.66,-40.06 39.63,-34.51 43.23,-44.48 48.66,-40.06"/>
</g>
<!-- alsa&#45;plugins -->
<g id="node6" class="node">
<title>alsa&#45;plugins</title>
<g id="a_node6"><a xlink:href="https://github.com/conda-forge/alsa-plugins-feedstock" xlink:title="alsa plugins">
<ellipse fill="#fde725" stroke="black" cx="142" cy="-18" rx="69.59" ry="18"/>
<text text-anchor="middle" x="142" y="-14.3" font-family="Times,serif" font-size="14.00">alsa plugins</text>
</a>
</g>
</g>
<!-- pulseaudio&#45;&gt;alsa&#45;plugins -->
<g id="edge2" class="edge">
<title>pulseaudio&#45;&gt;alsa&#45;plugins</title>
<path fill="none" stroke="black" d="M97.75,-72.41C104.79,-63.91 113.52,-53.37 121.36,-43.91"/>
<polygon fill="black" stroke="black" points="124.27,-45.89 127.95,-35.96 118.88,-41.42 124.27,-45.89"/>
</g>
</g>
</svg>
