<?xml version="1.0" encoding="UTF-8" standalone="no"?>
<!DOCTYPE svg PUBLIC "-//W3C//DTD SVG 1.1//EN"
 "http://www.w3.org/Graphics/SVG/1.1/DTD/svg11.dtd">
<!-- Generated by graphviz version 2.42.3 (20191010.1750)
 -->
<!-- Title: %3 Pages: 1 -->
<svg width="714pt" height="188pt"
 viewBox="0.00 0.00 714.14 188.00" xmlns="http://www.w3.org/2000/svg" xmlns:xlink="http://www.w3.org/1999/xlink">
<g id="graph0" class="graph" transform="scale(1 1) rotate(0) translate(4 184)">
<title>%3</title>
<polygon fill="white" stroke="transparent" points="-4,4 -4,-184 710.14,-184 710.14,4 -4,4"/>
<!-- pyarrow -->
<g id="node1" class="node">
<title>pyarrow</title>
<g id="a_node1"><a xlink:href="https://github.com/conda-forge/pyarrow-feedstock" xlink:title="pyarrow">
<ellipse fill="#35b779" stroke="black" cx="256.05" cy="-162" rx="44.69" ry="18"/>
<text text-anchor="middle" x="256.05" y="-158.3" font-family="Times,serif" font-size="14.00">pyarrow</text>
</a>
</g>
</g>
<!-- turbodbc -->
<g id="node2" class="node">
<title>turbodbc</title>
<g id="a_node2"><a xlink:href="https://github.com/conda-forge/turbodbc-feedstock" xlink:title="turbodbc">
<ellipse fill="#fde725" stroke="black" cx="50.05" cy="-90" rx="50.09" ry="18"/>
<text text-anchor="middle" x="50.05" y="-86.3" font-family="Times,serif" font-size="14.00">turbodbc</text>
</a>
</g>
</g>
<!-- pyarrow&#45;&gt;turbodbc -->
<g id="edge2" class="edge">
<title>pyarrow&#45;&gt;turbodbc</title>
<path fill="none" stroke="black" d="M222.95,-149.75C188.29,-137.97 133.63,-119.4 95.06,-106.3"/>
<polygon fill="black" stroke="black" points="95.72,-102.83 85.13,-102.92 93.47,-109.45 95.72,-102.83"/>
</g>
<!-- snowflake&#45;connector&#45;python -->
<g id="node3" class="node">
<title>snowflake&#45;connector&#45;python</title>
<g id="a_node3"><a xlink:href="https://github.com/conda-forge/snowflake-connector-python-feedstock" xlink:title="snowflake connector python">
<ellipse fill="#fde725" stroke="black" cx="256.05" cy="-90" rx="137.58" ry="18"/>
<text text-anchor="middle" x="256.05" y="-86.3" font-family="Times,serif" font-size="14.00">snowflake connector python</text>
</a>
</g>
</g>
<!-- pyarrow&#45;&gt;snowflake&#45;connector&#45;python -->
<g id="edge1" class="edge">
<title>pyarrow&#45;&gt;snowflake&#45;connector&#45;python</title>
<path fill="none" stroke="black" d="M256.05,-143.7C256.05,-135.98 256.05,-126.71 256.05,-118.11"/>
<polygon fill="black" stroke="black" points="259.55,-118.1 256.05,-108.1 252.55,-118.1 259.55,-118.1"/>
</g>
<!-- conda&#45;forge&#45;pinning -->
<g id="node6" class="node">
<title>conda&#45;forge&#45;pinning</title>
<ellipse fill="none" stroke="black" cx="422.05" cy="-18" rx="103.18" ry="18"/>
<text text-anchor="middle" x="422.05" y="-14.3" font-family="Times,serif" font-size="14.00">conda&#45;forge&#45;pinning</text>
</g>
<!-- pyarrow&#45;&gt;conda&#45;forge&#45;pinning -->
<g id="edge3" class="edge">
<title>pyarrow&#45;&gt;conda&#45;forge&#45;pinning</title>
<path fill="none" stroke="black" d="M299.04,-156.7C332.25,-151.06 376.82,-138.05 403.05,-108 417.77,-91.13 422.02,-65.65 422.87,-46.27"/>
<polygon fill="black" stroke="black" points="426.37,-46.29 423.04,-36.23 419.37,-46.17 426.37,-46.29"/>
</g>
<!-- turbodbc&#45;&gt;conda&#45;forge&#45;pinning -->
<g id="edge4" class="edge">
<title>turbodbc&#45;&gt;conda&#45;forge&#45;pinning</title>
<path fill="none" stroke="black" d="M86.7,-77.74C94.06,-75.68 101.77,-73.66 109.05,-72 184.28,-54.85 270.84,-40.61 333.84,-31.22"/>
<polygon fill="black" stroke="black" points="334.36,-34.68 343.74,-29.75 333.34,-27.75 334.36,-34.68"/>
</g>
<!-- snowflake&#45;connector&#45;python&#45;&gt;conda&#45;forge&#45;pinning -->
<g id="edge5" class="edge">
<title>snowflake&#45;connector&#45;python&#45;&gt;conda&#45;forge&#45;pinning</title>
<path fill="none" stroke="black" d="M294.97,-72.59C318.93,-62.48 349.8,-49.47 375.11,-38.79"/>
<polygon fill="black" stroke="black" points="376.66,-41.94 384.51,-34.83 373.94,-35.49 376.66,-41.94"/>
</g>
<!-- r&#45;arrow -->
<g id="node4" class="node">
<title>r&#45;arrow</title>
<g id="a_node4"><a xlink:href="https://github.com/conda-forge/r-arrow-feedstock" xlink:title="r arrow">
<ellipse fill="#35b779" stroke="black" cx="495.05" cy="-90" rx="44.69" ry="18"/>
<text text-anchor="middle" x="495.05" y="-86.3" font-family="Times,serif" font-size="14.00">r arrow</text>
</a>
</g>
</g>
<!-- r&#45;arrow&#45;&gt;conda&#45;forge&#45;pinning -->
<g id="edge6" class="edge">
<title>r&#45;arrow&#45;&gt;conda&#45;forge&#45;pinning</title>
<path fill="none" stroke="black" d="M478.48,-73.12C469.14,-64.16 457.28,-52.79 446.85,-42.79"/>
<polygon fill="black" stroke="black" points="449.2,-40.19 439.56,-35.8 444.36,-45.24 449.2,-40.19"/>
</g>
<!-- omniscidb&#45;cpu -->
<g id="node5" class="node">
<title>omniscidb&#45;cpu</title>
<g id="a_node5"><a xlink:href="https://github.com/conda-forge/omniscidb-cpu-feedstock" xlink:title="omniscidb cpu">
<ellipse fill="#35b779" stroke="black" cx="632.05" cy="-90" rx="74.19" ry="18"/>
<text text-anchor="middle" x="632.05" y="-86.3" font-family="Times,serif" font-size="14.00">omniscidb cpu</text>
</a>
</g>
</g>
<!-- omniscidb&#45;cpu&#45;&gt;conda&#45;forge&#45;pinning -->
<g id="edge7" class="edge">
<title>omniscidb&#45;cpu&#45;&gt;conda&#45;forge&#45;pinning</title>
<path fill="none" stroke="black" d="M590.31,-75.09C557.94,-64.3 512.8,-49.25 477.42,-37.46"/>
<polygon fill="black" stroke="black" points="478.31,-34.06 467.71,-34.22 476.09,-40.71 478.31,-34.06"/>
</g>
</g>
</svg>
