<?xml version="1.0" encoding="UTF-8" standalone="no"?>
<!DOCTYPE svg PUBLIC "-//W3C//DTD SVG 1.1//EN"
 "http://www.w3.org/Graphics/SVG/1.1/DTD/svg11.dtd">
<!-- Generated by graphviz version 2.42.3 (20191010.1750)
 -->
<!-- Title: %3 Pages: 1 -->
<svg width="989pt" height="404pt"
 viewBox="0.00 0.00 989.10 404.00" xmlns="http://www.w3.org/2000/svg" xmlns:xlink="http://www.w3.org/1999/xlink">
<g id="graph0" class="graph" transform="scale(1 1) rotate(0) translate(4 400)">
<title>%3</title>
<polygon fill="white" stroke="transparent" points="-4,4 -4,-400 985.1,-400 985.1,4 -4,4"/>
<!-- avrocpp -->
<g id="node1" class="node">
<title>avrocpp</title>
<g id="a_node1"><a xlink:href="https://github.com/conda-forge/avrocpp-feedstock/pull/8" xlink:title="avrocpp">
<ellipse fill="#31688e" stroke="black" cx="45" cy="-90" rx="45" ry="18"/>
<text text-anchor="middle" x="45" y="-86.3" font-family="Times,serif" font-size="14.00" fill="white">avrocpp</text>
</a>
</g>
</g>
<!-- conda&#45;forge&#45;pinning -->
<g id="node2" class="node">
<title>conda&#45;forge&#45;pinning</title>
<ellipse fill="none" stroke="black" cx="492" cy="-18" rx="103.5" ry="18"/>
<text text-anchor="middle" x="492" y="-14.3" font-family="Times,serif" font-size="14.00">conda&#45;forge&#45;pinning</text>
</g>
<!-- avrocpp&#45;&gt;conda&#45;forge&#45;pinning -->
<g id="edge1" class="edge">
<title>avrocpp&#45;&gt;conda&#45;forge&#45;pinning</title>
<path fill="none" stroke="black" d="M79.42,-78.18C87.43,-75.91 95.97,-73.7 104,-72 201.4,-51.43 314.32,-37.05 393.13,-28.51"/>
<polygon fill="black" stroke="black" points="393.97,-31.94 403.54,-27.4 393.22,-24.98 393.97,-31.94"/>
</g>
<!-- caffe -->
<g id="node3" class="node">
<title>caffe</title>
<g id="a_node3"><a xlink:href="https://github.com/conda-forge/caffe-feedstock/pull/57" xlink:title="caffe">
<ellipse fill="#31688e" stroke="black" cx="106" cy="-162" rx="35.19" ry="18"/>
<text text-anchor="middle" x="106" y="-158.3" font-family="Times,serif" font-size="14.00" fill="white">caffe</text>
</a>
</g>
</g>
<!-- caffe&#45;&gt;conda&#45;forge&#45;pinning -->
<g id="edge2" class="edge">
<title>caffe&#45;&gt;conda&#45;forge&#45;pinning</title>
<path fill="none" stroke="black" d="M110.45,-143.81C116.74,-123.21 130.31,-89.32 155,-72 191.4,-46.46 301.03,-32.65 385.46,-25.59"/>
<polygon fill="black" stroke="black" points="385.95,-29.07 395.63,-24.77 385.38,-22.09 385.95,-29.07"/>
</g>
<!-- gap -->
<g id="node4" class="node">
<title>gap</title>
<g id="a_node4"><a xlink:href="https://github.com/conda-forge/gap-feedstock" xlink:title="gap">
<ellipse fill="#fde725" stroke="black" cx="224" cy="-162" rx="27" ry="18"/>
<text text-anchor="middle" x="224" y="-158.3" font-family="Times,serif" font-size="14.00">gap</text>
</a>
</g>
</g>
<!-- gap&#45;&gt;conda&#45;forge&#45;pinning -->
<g id="edge3" class="edge">
<title>gap&#45;&gt;conda&#45;forge&#45;pinning</title>
<path fill="none" stroke="black" d="M218.72,-144.08C213.71,-124.38 209.21,-92.01 226,-72 246.88,-47.13 322.47,-33.67 387.75,-26.55"/>
<polygon fill="black" stroke="black" points="388.14,-30.03 397.72,-25.5 387.41,-23.07 388.14,-30.03"/>
</g>
<!-- sagelib -->
<g id="node5" class="node">
<title>sagelib</title>
<g id="a_node5"><a xlink:href="https://github.com/conda-forge/sagelib-feedstock" xlink:title="sagelib">
<ellipse fill="#fde725" stroke="black" cx="280" cy="-90" rx="45" ry="18"/>
<text text-anchor="middle" x="280" y="-86.3" font-family="Times,serif" font-size="14.00">sagelib</text>
</a>
</g>
</g>
<!-- gap&#45;&gt;sagelib -->
<g id="edge4" class="edge">
<title>gap&#45;&gt;sagelib</title>
<path fill="none" stroke="black" d="M236.15,-145.81C243.19,-137.02 252.22,-125.73 260.25,-115.69"/>
<polygon fill="black" stroke="black" points="263.18,-117.62 266.7,-107.63 257.72,-113.25 263.18,-117.62"/>
</g>
<!-- sagelib&#45;&gt;conda&#45;forge&#45;pinning -->
<g id="edge5" class="edge">
<title>sagelib&#45;&gt;conda&#45;forge&#45;pinning</title>
<path fill="none" stroke="black" d="M313.59,-77.91C346.53,-67.03 397.33,-50.26 436.31,-37.39"/>
<polygon fill="black" stroke="black" points="437.55,-40.66 445.95,-34.21 435.35,-34.02 437.55,-40.66"/>
</g>
<!-- pyne -->
<g id="node6" class="node">
<title>pyne</title>
<g id="a_node6"><a xlink:href="https://github.com/conda-forge/pyne-feedstock/pull/39" xlink:title="pyne">
<ellipse fill="#31688e" stroke="black" cx="332" cy="-234" rx="30.59" ry="18"/>
<text text-anchor="middle" x="332" y="-230.3" font-family="Times,serif" font-size="14.00" fill="white">pyne</text>
</a>
</g>
</g>
<!-- pyne&#45;&gt;conda&#45;forge&#45;pinning -->
<g id="edge6" class="edge">
<title>pyne&#45;&gt;conda&#45;forge&#45;pinning</title>
<path fill="none" stroke="black" d="M332.25,-215.8C333.62,-183.77 340.86,-114.41 377,-72 390.3,-56.4 409.16,-45.13 427.78,-37.11"/>
<polygon fill="black" stroke="black" points="429.2,-40.31 437.16,-33.32 426.58,-33.82 429.2,-40.31"/>
</g>
<!-- zwatershed -->
<g id="node7" class="node">
<title>zwatershed</title>
<g id="a_node7"><a xlink:href="https://github.com/conda-forge/zwatershed-feedstock/pull/15" xlink:title="zwatershed">
<ellipse fill="#31688e" stroke="black" cx="341" cy="-306" rx="60" ry="18"/>
<text text-anchor="middle" x="341" y="-302.3" font-family="Times,serif" font-size="14.00" fill="white">zwatershed</text>
</a>
</g>
</g>
<!-- zwatershed&#45;&gt;conda&#45;forge&#45;pinning -->
<g id="edge7" class="edge">
<title>zwatershed&#45;&gt;conda&#45;forge&#45;pinning</title>
<path fill="none" stroke="black" d="M352.69,-288C359.17,-277.91 366.92,-264.66 372,-252 402.65,-175.67 368.47,-139.83 415,-72 423.73,-59.28 436.59,-48.7 449.31,-40.42"/>
<polygon fill="black" stroke="black" points="451.36,-43.27 458.05,-35.06 447.69,-37.31 451.36,-43.27"/>
</g>
<!-- alps -->
<g id="node8" class="node">
<title>alps</title>
<g id="a_node8"><a xlink:href="https://github.com/conda-forge/alps-feedstock/pull/30" xlink:title="alps">
<ellipse fill="#31688e" stroke="black" cx="429" cy="-378" rx="30.59" ry="18"/>
<text text-anchor="middle" x="429" y="-374.3" font-family="Times,serif" font-size="14.00" fill="white">alps</text>
</a>
</g>
</g>
<!-- alps&#45;&gt;conda&#45;forge&#45;pinning -->
<g id="edge8" class="edge">
<title>alps&#45;&gt;conda&#45;forge&#45;pinning</title>
<path fill="none" stroke="black" d="M429,-359.95C429,-333.29 429,-280.11 429,-235 429,-235 429,-235 429,-161 429,-120.55 430.35,-108.39 448,-72 452.9,-61.89 460.14,-52.06 467.33,-43.67"/>
<polygon fill="black" stroke="black" points="470.05,-45.88 474.13,-36.1 464.84,-41.2 470.05,-45.88"/>
</g>
<!-- clfft -->
<g id="node9" class="node">
<title>clfft</title>
<g id="a_node9"><a xlink:href="https://github.com/conda-forge/clfft-feedstock/pull/10" xlink:title="clfft">
<ellipse fill="#31688e" stroke="black" cx="492" cy="-90" rx="35.19" ry="18"/>
<text text-anchor="middle" x="492" y="-86.3" font-family="Times,serif" font-size="14.00" fill="white">clfft</text>
</a>
</g>
</g>
<!-- clfft&#45;&gt;conda&#45;forge&#45;pinning -->
<g id="edge9" class="edge">
<title>clfft&#45;&gt;conda&#45;forge&#45;pinning</title>
<path fill="none" stroke="black" d="M492,-71.7C492,-63.98 492,-54.71 492,-46.11"/>
<polygon fill="black" stroke="black" points="495.5,-46.1 492,-36.1 488.5,-46.1 495.5,-46.1"/>
</g>
<!-- spdlib -->
<g id="node10" class="node">
<title>spdlib</title>
<g id="a_node10"><a xlink:href="https://github.com/conda-forge/spdlib-feedstock/pull/16" xlink:title="spdlib">
<ellipse fill="#31688e" stroke="black" cx="524" cy="-162" rx="40.5" ry="18"/>
<text text-anchor="middle" x="524" y="-158.3" font-family="Times,serif" font-size="14.00" fill="white">spdlib</text>
</a>
</g>
</g>
<!-- spdlib&#45;&gt;conda&#45;forge&#45;pinning -->
<g id="edge10" class="edge">
<title>spdlib&#45;&gt;conda&#45;forge&#45;pinning</title>
<path fill="none" stroke="black" d="M530.9,-144.1C537.32,-125.81 544.68,-96.05 536,-72 532.25,-61.6 525.46,-51.8 518.33,-43.52"/>
<polygon fill="black" stroke="black" points="520.83,-41.06 511.47,-36.08 515.68,-45.81 520.83,-41.06"/>
</g>
<!-- helics -->
<g id="node11" class="node">
<title>helics</title>
<g id="a_node11"><a xlink:href="https://github.com/conda-forge/helics-feedstock/pull/18" xlink:title="helics">
<ellipse fill="#31688e" stroke="black" cx="562" cy="-234" rx="40.5" ry="18"/>
<text text-anchor="middle" x="562" y="-230.3" font-family="Times,serif" font-size="14.00" fill="white">helics</text>
</a>
</g>
</g>
<!-- helics&#45;&gt;conda&#45;forge&#45;pinning -->
<g id="edge11" class="edge">
<title>helics&#45;&gt;conda&#45;forge&#45;pinning</title>
<path fill="none" stroke="black" d="M566.46,-215.95C568.94,-205.63 571.75,-192.15 573,-180 577.99,-131.36 578.2,-113.29 552,-72 544.83,-60.7 534.57,-50.41 524.55,-41.96"/>
<polygon fill="black" stroke="black" points="526.63,-39.13 516.64,-35.59 522.24,-44.59 526.63,-39.13"/>
</g>
<!-- normaliz -->
<g id="node12" class="node">
<title>normaliz</title>
<g id="a_node12"><a xlink:href="https://github.com/conda-forge/normaliz-feedstock/pull/19" xlink:title="normaliz">
<ellipse fill="#31688e" stroke="black" cx="197" cy="-234" rx="50.09" ry="18"/>
<text text-anchor="middle" x="197" y="-230.3" font-family="Times,serif" font-size="14.00" fill="white">normaliz</text>
</a>
</g>
</g>
<!-- normaliz&#45;&gt;conda&#45;forge&#45;pinning -->
<g id="edge12" class="edge">
<title>normaliz&#45;&gt;conda&#45;forge&#45;pinning</title>
<path fill="none" stroke="black" d="M191.96,-215.85C183.28,-182.3 170.12,-108.15 211,-72 237.36,-48.69 320.71,-34.94 389.84,-27.32"/>
<polygon fill="black" stroke="black" points="390.36,-30.78 399.93,-26.23 389.61,-23.82 390.36,-30.78"/>
</g>
<!-- normaliz&#45;&gt;gap -->
<g id="edge13" class="edge">
<title>normaliz&#45;&gt;gap</title>
<path fill="none" stroke="black" d="M203.54,-216.05C206.62,-208.06 210.37,-198.33 213.82,-189.4"/>
<polygon fill="black" stroke="black" points="217.19,-190.38 217.52,-179.79 210.66,-187.86 217.19,-190.38"/>
</g>
<!-- esys&#45;escript -->
<g id="node13" class="node">
<title>esys&#45;escript</title>
<g id="a_node13"><a xlink:href="https://github.com/conda-forge/esys-escript-feedstock" xlink:title="esys escript">
<ellipse fill="#35b779" stroke="black" cx="631" cy="-306" rx="69.59" ry="18"/>
<text text-anchor="middle" x="631" y="-302.3" font-family="Times,serif" font-size="14.00">esys escript</text>
</a>
</g>
</g>
<!-- esys&#45;escript&#45;&gt;conda&#45;forge&#45;pinning -->
<g id="edge14" class="edge">
<title>esys&#45;escript&#45;&gt;conda&#45;forge&#45;pinning</title>
<path fill="none" stroke="black" d="M631.24,-287.98C630.97,-246.88 625.24,-140.51 576,-72 566.51,-58.79 552.6,-48.12 538.83,-39.91"/>
<polygon fill="black" stroke="black" points="540.28,-36.71 529.84,-34.87 536.85,-42.81 540.28,-36.71"/>
</g>
<!-- xmsinterp -->
<g id="node14" class="node">
<title>xmsinterp</title>
<g id="a_node14"><a xlink:href="https://github.com/conda-forge/xmsinterp-feedstock/pull/6" xlink:title="xmsinterp">
<ellipse fill="#31688e" stroke="black" cx="757" cy="-234" rx="54.69" ry="18"/>
<text text-anchor="middle" x="757" y="-230.3" font-family="Times,serif" font-size="14.00" fill="white">xmsinterp</text>
</a>
</g>
</g>
<!-- xmsinterp&#45;&gt;conda&#45;forge&#45;pinning -->
<g id="edge15" class="edge">
<title>xmsinterp&#45;&gt;conda&#45;forge&#45;pinning</title>
<path fill="none" stroke="black" d="M731.25,-218.07C716.91,-208.67 699.66,-195.42 688,-180 656.84,-138.79 682.35,-107.69 645,-72 625.8,-53.65 599.94,-41.63 574.95,-33.76"/>
<polygon fill="black" stroke="black" points="575.64,-30.32 565.06,-30.84 573.66,-37.03 575.64,-30.32"/>
</g>
<!-- xmsstamper -->
<g id="node15" class="node">
<title>xmsstamper</title>
<g id="a_node15"><a xlink:href="https://github.com/conda-forge/xmsstamper-feedstock" xlink:title="xmsstamper">
<ellipse fill="#fde725" stroke="black" cx="757" cy="-162" rx="60" ry="18"/>
<text text-anchor="middle" x="757" y="-158.3" font-family="Times,serif" font-size="14.00">xmsstamper</text>
</a>
</g>
</g>
<!-- xmsinterp&#45;&gt;xmsstamper -->
<g id="edge16" class="edge">
<title>xmsinterp&#45;&gt;xmsstamper</title>
<path fill="none" stroke="black" d="M757,-215.7C757,-207.98 757,-198.71 757,-190.11"/>
<polygon fill="black" stroke="black" points="760.5,-190.1 757,-180.1 753.5,-190.1 760.5,-190.1"/>
</g>
<!-- xmsmesher -->
<g id="node16" class="node">
<title>xmsmesher</title>
<g id="a_node16"><a xlink:href="https://github.com/conda-forge/xmsmesher-feedstock" xlink:title="xmsmesher">
<ellipse fill="#fde725" stroke="black" cx="798" cy="-90" rx="54.69" ry="18"/>
<text text-anchor="middle" x="798" y="-86.3" font-family="Times,serif" font-size="14.00">xmsmesher</text>
</a>
</g>
</g>
<!-- xmsinterp&#45;&gt;xmsmesher -->
<g id="edge17" class="edge">
<title>xmsinterp&#45;&gt;xmsmesher</title>
<path fill="none" stroke="black" d="M786.51,-218.66C801.27,-209.76 817.72,-196.8 826,-180 836.11,-159.49 826.56,-134.54 815.95,-116.28"/>
<polygon fill="black" stroke="black" points="818.84,-114.29 810.58,-107.65 812.89,-117.99 818.84,-114.29"/>
</g>
<!-- xmsstamper&#45;&gt;conda&#45;forge&#45;pinning -->
<g id="edge18" class="edge">
<title>xmsstamper&#45;&gt;conda&#45;forge&#45;pinning</title>
<path fill="none" stroke="black" d="M747.27,-143.9C734.91,-123.71 711.69,-90.55 683,-72 652.49,-52.27 614.66,-39.8 580.73,-31.96"/>
<polygon fill="black" stroke="black" points="581.33,-28.51 570.81,-29.77 579.82,-35.34 581.33,-28.51"/>
</g>
<!-- xmsmesher&#45;&gt;conda&#45;forge&#45;pinning -->
<g id="edge19" class="edge">
<title>xmsmesher&#45;&gt;conda&#45;forge&#45;pinning</title>
<path fill="none" stroke="black" d="M754.57,-79.01C744.53,-76.71 733.89,-74.27 724,-72 669.6,-59.54 608.01,-45.47 561.97,-34.96"/>
<polygon fill="black" stroke="black" points="562.62,-31.52 552.09,-32.71 561.06,-38.34 562.62,-31.52"/>
</g>
<!-- libsdformat -->
<g id="node17" class="node">
<title>libsdformat</title>
<g id="a_node17"><a xlink:href="https://github.com/conda-forge/libsdformat-feedstock/pull/12" xlink:title="libsdformat">
<ellipse fill="#31688e" stroke="black" cx="883" cy="-378" rx="64.5" ry="18"/>
<text text-anchor="middle" x="883" y="-374.3" font-family="Times,serif" font-size="14.00" fill="white">libsdformat</text>
</a>
</g>
</g>
<!-- libsdformat&#45;&gt;conda&#45;forge&#45;pinning -->
<g id="edge20" class="edge">
<title>libsdformat&#45;&gt;conda&#45;forge&#45;pinning</title>
<path fill="none" stroke="black" d="M883,-359.95C883,-333.29 883,-280.11 883,-235 883,-235 883,-235 883,-161 883,-120.36 891.99,-99.42 862,-72 825.21,-38.36 699.29,-26.01 604.49,-21.51"/>
<polygon fill="black" stroke="black" points="604.4,-18 594.26,-21.05 604.09,-24.99 604.4,-18"/>
</g>
<!-- qvina -->
<g id="node18" class="node">
<title>qvina</title>
<g id="a_node18"><a xlink:href="https://github.com/conda-forge/qvina-feedstock/pull/3" xlink:title="qvina">
<ellipse fill="#31688e" stroke="black" cx="946" cy="-90" rx="35.19" ry="18"/>
<text text-anchor="middle" x="946" y="-86.3" font-family="Times,serif" font-size="14.00" fill="white">qvina</text>
</a>
</g>
</g>
<!-- qvina&#45;&gt;conda&#45;forge&#45;pinning -->
<g id="edge21" class="edge">
<title>qvina&#45;&gt;conda&#45;forge&#45;pinning</title>
<path fill="none" stroke="black" d="M918.82,-78.47C911.8,-76.05 904.19,-73.7 897,-72 795.97,-48.13 678.05,-34.23 595.59,-26.7"/>
<polygon fill="black" stroke="black" points="595.74,-23.2 585.46,-25.79 595.11,-30.17 595.74,-23.2"/>
</g>
</g>
</svg>
