<?xml version="1.0" encoding="UTF-8" standalone="no"?>
<!DOCTYPE svg PUBLIC "-//W3C//DTD SVG 1.1//EN"
 "http://www.w3.org/Graphics/SVG/1.1/DTD/svg11.dtd">
<!-- Generated by graphviz version 2.42.3 (20191010.1750)
 -->
<!-- Title: %3 Pages: 1 -->
<svg width="979pt" height="404pt"
 viewBox="0.00 0.00 979.10 404.00" xmlns="http://www.w3.org/2000/svg" xmlns:xlink="http://www.w3.org/1999/xlink">
<g id="graph0" class="graph" transform="scale(1 1) rotate(0) translate(4 400)">
<title>%3</title>
<polygon fill="white" stroke="transparent" points="-4,4 -4,-400 975.1,-400 975.1,4 -4,4"/>
<!-- avrocpp -->
<g id="node1" class="node">
<title>avrocpp</title>
<g id="a_node1"><a xlink:href="https://github.com/conda-forge/avrocpp-feedstock/pull/8" xlink:title="avrocpp">
<ellipse fill="#31688e" stroke="black" cx="45" cy="-90" rx="45" ry="18"/>
<text text-anchor="middle" x="45" y="-86.3" font-family="Times,serif" font-size="14.00" fill="white">avrocpp</text>
</a>
</g>
</g>
<!-- conda&#45;forge&#45;pinning -->
<g id="node2" class="node">
<title>conda&#45;forge&#45;pinning</title>
<ellipse fill="none" stroke="black" cx="492" cy="-18" rx="103.5" ry="18"/>
<text text-anchor="middle" x="492" y="-14.3" font-family="Times,serif" font-size="14.00">conda&#45;forge&#45;pinning</text>
</g>
<!-- avrocpp&#45;&gt;conda&#45;forge&#45;pinning -->
<g id="edge1" class="edge">
<title>avrocpp&#45;&gt;conda&#45;forge&#45;pinning</title>
<path fill="none" stroke="black" d="M79.42,-78.18C87.43,-75.91 95.97,-73.7 104,-72 201.4,-51.43 314.32,-37.05 393.13,-28.51"/>
<polygon fill="black" stroke="black" points="393.97,-31.94 403.54,-27.4 393.22,-24.98 393.97,-31.94"/>
</g>
<!-- caffe -->
<g id="node3" class="node">
<title>caffe</title>
<g id="a_node3"><a xlink:href="https://github.com/conda-forge/caffe-feedstock/pull/57" xlink:title="caffe">
<ellipse fill="#31688e" stroke="black" cx="106" cy="-162" rx="35.19" ry="18"/>
<text text-anchor="middle" x="106" y="-158.3" font-family="Times,serif" font-size="14.00" fill="white">caffe</text>
</a>
</g>
</g>
<!-- caffe&#45;&gt;conda&#45;forge&#45;pinning -->
<g id="edge2" class="edge">
<title>caffe&#45;&gt;conda&#45;forge&#45;pinning</title>
<path fill="none" stroke="black" d="M110.45,-143.81C116.74,-123.21 130.31,-89.32 155,-72 191.4,-46.46 301.03,-32.65 385.46,-25.59"/>
<polygon fill="black" stroke="black" points="385.95,-29.07 395.63,-24.77 385.38,-22.09 385.95,-29.07"/>
</g>
<!-- gap -->
<g id="node4" class="node">
<title>gap</title>
<g id="a_node4"><a xlink:href="https://github.com/conda-forge/gap-feedstock" xlink:title="gap">
<ellipse fill="#fde725" stroke="black" cx="224" cy="-162" rx="27" ry="18"/>
<text text-anchor="middle" x="224" y="-158.3" font-family="Times,serif" font-size="14.00">gap</text>
</a>
</g>
</g>
<!-- gap&#45;&gt;conda&#45;forge&#45;pinning -->
<g id="edge3" class="edge">
<title>gap&#45;&gt;conda&#45;forge&#45;pinning</title>
<path fill="none" stroke="black" d="M218.72,-144.08C213.71,-124.38 209.21,-92.01 226,-72 246.88,-47.13 322.47,-33.67 387.75,-26.55"/>
<polygon fill="black" stroke="black" points="388.14,-30.03 397.72,-25.5 387.41,-23.07 388.14,-30.03"/>
</g>
<!-- sagelib -->
<g id="node5" class="node">
<title>sagelib</title>
<g id="a_node5"><a xlink:href="https://github.com/conda-forge/sagelib-feedstock" xlink:title="sagelib">
<ellipse fill="#fde725" stroke="black" cx="280" cy="-90" rx="45" ry="18"/>
<text text-anchor="middle" x="280" y="-86.3" font-family="Times,serif" font-size="14.00">sagelib</text>
</a>
</g>
</g>
<!-- gap&#45;&gt;sagelib -->
<g id="edge4" class="edge">
<title>gap&#45;&gt;sagelib</title>
<path fill="none" stroke="black" d="M236.15,-145.81C243.19,-137.02 252.22,-125.73 260.25,-115.69"/>
<polygon fill="black" stroke="black" points="263.18,-117.62 266.7,-107.63 257.72,-113.25 263.18,-117.62"/>
</g>
<!-- sagelib&#45;&gt;conda&#45;forge&#45;pinning -->
<g id="edge5" class="edge">
<title>sagelib&#45;&gt;conda&#45;forge&#45;pinning</title>
<path fill="none" stroke="black" d="M313.59,-77.91C346.53,-67.03 397.33,-50.26 436.31,-37.39"/>
<polygon fill="black" stroke="black" points="437.55,-40.66 445.95,-34.21 435.35,-34.02 437.55,-40.66"/>
</g>
<!-- pyne -->
<g id="node6" class="node">
<title>pyne</title>
<g id="a_node6"><a xlink:href="https://github.com/conda-forge/pyne-feedstock/pull/39" xlink:title="pyne">
<ellipse fill="#31688e" stroke="black" cx="332" cy="-234" rx="30.59" ry="18"/>
<text text-anchor="middle" x="332" y="-230.3" font-family="Times,serif" font-size="14.00" fill="white">pyne</text>
</a>
</g>
</g>
<!-- pyne&#45;&gt;conda&#45;forge&#45;pinning -->
<g id="edge6" class="edge">
<title>pyne&#45;&gt;conda&#45;forge&#45;pinning</title>
<path fill="none" stroke="black" d="M332.25,-215.8C333.62,-183.77 340.86,-114.41 377,-72 390.3,-56.4 409.16,-45.13 427.78,-37.11"/>
<polygon fill="black" stroke="black" points="429.2,-40.31 437.16,-33.32 426.58,-33.82 429.2,-40.31"/>
</g>
<!-- zwatershed -->
<g id="node7" class="node">
<title>zwatershed</title>
<g id="a_node7"><a xlink:href="https://github.com/conda-forge/zwatershed-feedstock/pull/15" xlink:title="zwatershed">
<ellipse fill="#31688e" stroke="black" cx="341" cy="-306" rx="60" ry="18"/>
<text text-anchor="middle" x="341" y="-302.3" font-family="Times,serif" font-size="14.00" fill="white">zwatershed</text>
</a>
</g>
</g>
<!-- zwatershed&#45;&gt;conda&#45;forge&#45;pinning -->
<g id="edge7" class="edge">
<title>zwatershed&#45;&gt;conda&#45;forge&#45;pinning</title>
<path fill="none" stroke="black" d="M352.69,-288C359.17,-277.91 366.92,-264.66 372,-252 402.65,-175.67 368.47,-139.83 415,-72 423.73,-59.28 436.59,-48.7 449.31,-40.42"/>
<polygon fill="black" stroke="black" points="451.36,-43.27 458.05,-35.06 447.69,-37.31 451.36,-43.27"/>
</g>
<!-- alps -->
<g id="node8" class="node">
<title>alps</title>
<g id="a_node8"><a xlink:href="https://github.com/conda-forge/alps-feedstock/pull/30" xlink:title="alps">
<ellipse fill="#31688e" stroke="black" cx="429" cy="-378" rx="30.59" ry="18"/>
<text text-anchor="middle" x="429" y="-374.3" font-family="Times,serif" font-size="14.00" fill="white">alps</text>
</a>
</g>
</g>
<!-- alps&#45;&gt;conda&#45;forge&#45;pinning -->
<g id="edge8" class="edge">
<title>alps&#45;&gt;conda&#45;forge&#45;pinning</title>
<path fill="none" stroke="black" d="M429,-359.95C429,-333.29 429,-280.11 429,-235 429,-235 429,-235 429,-161 429,-120.55 430.35,-108.39 448,-72 452.9,-61.89 460.14,-52.06 467.33,-43.67"/>
<polygon fill="black" stroke="black" points="470.05,-45.88 474.13,-36.1 464.84,-41.2 470.05,-45.88"/>
</g>
<!-- clfft -->
<g id="node9" class="node">
<title>clfft</title>
<g id="a_node9"><a xlink:href="https://github.com/conda-forge/clfft-feedstock/pull/10" xlink:title="clfft">
<ellipse fill="#31688e" stroke="black" cx="492" cy="-90" rx="35.19" ry="18"/>
<text text-anchor="middle" x="492" y="-86.3" font-family="Times,serif" font-size="14.00" fill="white">clfft</text>
</a>
</g>
</g>
<!-- clfft&#45;&gt;conda&#45;forge&#45;pinning -->
<g id="edge9" class="edge">
<title>clfft&#45;&gt;conda&#45;forge&#45;pinning</title>
<path fill="none" stroke="black" d="M492,-71.7C492,-63.98 492,-54.71 492,-46.11"/>
<polygon fill="black" stroke="black" points="495.5,-46.1 492,-36.1 488.5,-46.1 495.5,-46.1"/>
</g>
<!-- spdlib -->
<g id="node10" class="node">
<title>spdlib</title>
<g id="a_node10"><a xlink:href="https://github.com/conda-forge/spdlib-feedstock/pull/16" xlink:title="spdlib">
<ellipse fill="#31688e" stroke="black" cx="524" cy="-162" rx="40.5" ry="18"/>
<text text-anchor="middle" x="524" y="-158.3" font-family="Times,serif" font-size="14.00" fill="white">spdlib</text>
</a>
</g>
</g>
<!-- spdlib&#45;&gt;conda&#45;forge&#45;pinning -->
<g id="edge10" class="edge">
<title>spdlib&#45;&gt;conda&#45;forge&#45;pinning</title>
<path fill="none" stroke="black" d="M530.9,-144.1C537.32,-125.81 544.68,-96.05 536,-72 532.25,-61.6 525.46,-51.8 518.33,-43.52"/>
<polygon fill="black" stroke="black" points="520.83,-41.06 511.47,-36.08 515.68,-45.81 520.83,-41.06"/>
</g>
<!-- helics -->
<g id="node11" class="node">
<title>helics</title>
<g id="a_node11"><a xlink:href="https://github.com/conda-forge/helics-feedstock/pull/18" xlink:title="helics">
<ellipse fill="#31688e" stroke="black" cx="562" cy="-234" rx="40.5" ry="18"/>
<text text-anchor="middle" x="562" y="-230.3" font-family="Times,serif" font-size="14.00" fill="white">helics</text>
</a>
</g>
</g>
<!-- helics&#45;&gt;conda&#45;forge&#45;pinning -->
<g id="edge11" class="edge">
<title>helics&#45;&gt;conda&#45;forge&#45;pinning</title>
<path fill="none" stroke="black" d="M566.46,-215.95C568.94,-205.63 571.75,-192.15 573,-180 577.99,-131.36 578.2,-113.29 552,-72 544.83,-60.7 534.57,-50.41 524.55,-41.96"/>
<polygon fill="black" stroke="black" points="526.63,-39.13 516.64,-35.59 522.24,-44.59 526.63,-39.13"/>
</g>
<!-- mongodb -->
<g id="node12" class="node">
<title>mongodb</title>
<g id="a_node12"><a xlink:href="https://github.com/conda-forge/mongodb-feedstock/pull/3" xlink:title="mongodb">
<ellipse fill="#31688e" stroke="black" cx="596" cy="-306" rx="45" ry="18"/>
<text text-anchor="middle" x="596" y="-302.3" font-family="Times,serif" font-size="14.00" fill="white">mongodb</text>
</a>
</g>
</g>
<!-- mongodb&#45;&gt;conda&#45;forge&#45;pinning -->
<g id="edge12" class="edge">
<title>mongodb&#45;&gt;conda&#45;forge&#45;pinning</title>
<path fill="none" stroke="black" d="M602.08,-288.07C605.45,-277.79 609.29,-264.31 611,-252 622.2,-171.28 623.56,-138.18 576,-72 566.51,-58.79 552.6,-48.12 538.83,-39.91"/>
<polygon fill="black" stroke="black" points="540.28,-36.71 529.84,-34.87 536.85,-42.81 540.28,-36.71"/>
</g>
<!-- normaliz -->
<g id="node13" class="node">
<title>normaliz</title>
<g id="a_node13"><a xlink:href="https://github.com/conda-forge/normaliz-feedstock/pull/19" xlink:title="normaliz">
<ellipse fill="#31688e" stroke="black" cx="197" cy="-234" rx="50.09" ry="18"/>
<text text-anchor="middle" x="197" y="-230.3" font-family="Times,serif" font-size="14.00" fill="white">normaliz</text>
</a>
</g>
</g>
<!-- normaliz&#45;&gt;conda&#45;forge&#45;pinning -->
<g id="edge13" class="edge">
<title>normaliz&#45;&gt;conda&#45;forge&#45;pinning</title>
<path fill="none" stroke="black" d="M191.96,-215.85C183.28,-182.3 170.12,-108.15 211,-72 237.36,-48.69 320.71,-34.94 389.84,-27.32"/>
<polygon fill="black" stroke="black" points="390.36,-30.78 399.93,-26.23 389.61,-23.82 390.36,-30.78"/>
</g>
<!-- normaliz&#45;&gt;gap -->
<g id="edge14" class="edge">
<title>normaliz&#45;&gt;gap</title>
<path fill="none" stroke="black" d="M203.54,-216.05C206.62,-208.06 210.37,-198.33 213.82,-189.4"/>
<polygon fill="black" stroke="black" points="217.19,-190.38 217.52,-179.79 210.66,-187.86 217.19,-190.38"/>
</g>
<!-- esys&#45;escript -->
<g id="node14" class="node">
<title>esys&#45;escript</title>
<g id="a_node14"><a xlink:href="https://github.com/conda-forge/esys-escript-feedstock" xlink:title="esys escript">
<ellipse fill="#35b779" stroke="black" cx="669" cy="-378" rx="69.59" ry="18"/>
<text text-anchor="middle" x="669" y="-374.3" font-family="Times,serif" font-size="14.00">esys escript</text>
</a>
</g>
</g>
<!-- esys&#45;escript&#45;&gt;conda&#45;forge&#45;pinning -->
<g id="edge15" class="edge">
<title>esys&#45;escript&#45;&gt;conda&#45;forge&#45;pinning</title>
<path fill="none" stroke="black" d="M669,-359.95C669,-333.29 669,-280.11 669,-235 669,-235 669,-235 669,-161 669,-98.51 601.04,-58.94 549.34,-37.88"/>
<polygon fill="black" stroke="black" points="550.49,-34.57 539.9,-34.16 547.92,-41.08 550.49,-34.57"/>
</g>
<!-- xmsinterp -->
<g id="node15" class="node">
<title>xmsinterp</title>
<g id="a_node15"><a xlink:href="https://github.com/conda-forge/xmsinterp-feedstock/pull/6" xlink:title="xmsinterp">
<ellipse fill="#31688e" stroke="black" cx="795" cy="-234" rx="54.69" ry="18"/>
<text text-anchor="middle" x="795" y="-230.3" font-family="Times,serif" font-size="14.00" fill="white">xmsinterp</text>
</a>
</g>
</g>
<!-- xmsinterp&#45;&gt;conda&#45;forge&#45;pinning -->
<g id="edge16" class="edge">
<title>xmsinterp&#45;&gt;conda&#45;forge&#45;pinning</title>
<path fill="none" stroke="black" d="M769.25,-218.07C754.91,-208.67 737.66,-195.42 726,-180 694.84,-138.79 721.45,-106.5 683,-72 658.05,-49.61 624.42,-36.59 592.35,-29.04"/>
<polygon fill="black" stroke="black" points="592.97,-25.6 582.45,-26.87 591.47,-32.43 592.97,-25.6"/>
</g>
<!-- xmsstamper -->
<g id="node16" class="node">
<title>xmsstamper</title>
<g id="a_node16"><a xlink:href="https://github.com/conda-forge/xmsstamper-feedstock" xlink:title="xmsstamper">
<ellipse fill="#fde725" stroke="black" cx="795" cy="-162" rx="60" ry="18"/>
<text text-anchor="middle" x="795" y="-158.3" font-family="Times,serif" font-size="14.00">xmsstamper</text>
</a>
</g>
</g>
<!-- xmsinterp&#45;&gt;xmsstamper -->
<g id="edge17" class="edge">
<title>xmsinterp&#45;&gt;xmsstamper</title>
<path fill="none" stroke="black" d="M795,-215.7C795,-207.98 795,-198.71 795,-190.11"/>
<polygon fill="black" stroke="black" points="798.5,-190.1 795,-180.1 791.5,-190.1 798.5,-190.1"/>
</g>
<!-- xmsmesher -->
<g id="node17" class="node">
<title>xmsmesher</title>
<g id="a_node17"><a xlink:href="https://github.com/conda-forge/xmsmesher-feedstock" xlink:title="xmsmesher">
<ellipse fill="#fde725" stroke="black" cx="828" cy="-90" rx="54.69" ry="18"/>
<text text-anchor="middle" x="828" y="-86.3" font-family="Times,serif" font-size="14.00">xmsmesher</text>
</a>
</g>
</g>
<!-- xmsinterp&#45;&gt;xmsmesher -->
<g id="edge18" class="edge">
<title>xmsinterp&#45;&gt;xmsmesher</title>
<path fill="none" stroke="black" d="M824.51,-218.66C839.27,-209.76 855.72,-196.8 864,-180 874.45,-158.8 862.28,-133.78 849.34,-115.68"/>
<polygon fill="black" stroke="black" points="851.87,-113.22 843.02,-107.39 846.3,-117.47 851.87,-113.22"/>
</g>
<!-- xmsstamper&#45;&gt;conda&#45;forge&#45;pinning -->
<g id="edge19" class="edge">
<title>xmsstamper&#45;&gt;conda&#45;forge&#45;pinning</title>
<path fill="none" stroke="black" d="M785.62,-144.04C773.44,-123.68 750.25,-90.03 721,-72 682.89,-48.51 635.39,-35.42 593.54,-28.13"/>
<polygon fill="black" stroke="black" points="594.03,-24.67 583.59,-26.49 592.89,-31.57 594.03,-24.67"/>
</g>
<!-- xmsmesher&#45;&gt;conda&#45;forge&#45;pinning -->
<g id="edge20" class="edge">
<title>xmsmesher&#45;&gt;conda&#45;forge&#45;pinning</title>
<path fill="none" stroke="black" d="M786.11,-78.35C777.18,-76.18 767.79,-73.95 759,-72 695.62,-57.91 623.36,-43.68 570.01,-33.51"/>
<polygon fill="black" stroke="black" points="570.42,-30.03 559.94,-31.6 569.11,-36.91 570.42,-30.03"/>
</g>
<!-- qvina -->
<g id="node18" class="node">
<title>qvina</title>
<g id="a_node18"><a xlink:href="https://github.com/conda-forge/qvina-feedstock/pull/3" xlink:title="qvina">
<ellipse fill="#31688e" stroke="black" cx="936" cy="-90" rx="35.19" ry="18"/>
<text text-anchor="middle" x="936" y="-86.3" font-family="Times,serif" font-size="14.00" fill="white">qvina</text>
</a>
</g>
</g>
<!-- qvina&#45;&gt;conda&#45;forge&#45;pinning -->
<g id="edge21" class="edge">
<title>qvina&#45;&gt;conda&#45;forge&#45;pinning</title>
<path fill="none" stroke="black" d="M909.81,-77.72C904.02,-75.55 897.87,-73.5 892,-72 793.72,-46.88 678.64,-33.22 597.21,-26.09"/>
<polygon fill="black" stroke="black" points="597.21,-22.58 586.95,-25.22 596.62,-29.56 597.21,-22.58"/>
</g>
</g>
</svg>
