<?xml version="1.0" encoding="UTF-8" standalone="no"?>
<!DOCTYPE svg PUBLIC "-//W3C//DTD SVG 1.1//EN"
 "http://www.w3.org/Graphics/SVG/1.1/DTD/svg11.dtd">
<!-- Generated by graphviz version 2.42.3 (20191010.1750)
 -->
<!-- Title: %3 Pages: 1 -->
<svg width="926pt" height="404pt"
 viewBox="0.00 0.00 926.10 404.00" xmlns="http://www.w3.org/2000/svg" xmlns:xlink="http://www.w3.org/1999/xlink">
<g id="graph0" class="graph" transform="scale(1 1) rotate(0) translate(4 400)">
<title>%3</title>
<polygon fill="white" stroke="transparent" points="-4,4 -4,-400 922.1,-400 922.1,4 -4,4"/>
<!-- avrocpp -->
<g id="node1" class="node">
<title>avrocpp</title>
<g id="a_node1"><a xlink:href="https://github.com/conda-forge/avrocpp-feedstock/pull/8" xlink:title="avrocpp">
<ellipse fill="#31688e" stroke="black" cx="45" cy="-90" rx="45" ry="18"/>
<text text-anchor="middle" x="45" y="-86.3" font-family="Times,serif" font-size="14.00" fill="white">avrocpp</text>
</a>
</g>
</g>
<!-- conda&#45;forge&#45;pinning -->
<g id="node2" class="node">
<title>conda&#45;forge&#45;pinning</title>
<ellipse fill="none" stroke="black" cx="460" cy="-18" rx="103.5" ry="18"/>
<text text-anchor="middle" x="460" y="-14.3" font-family="Times,serif" font-size="14.00">conda&#45;forge&#45;pinning</text>
</g>
<!-- avrocpp&#45;&gt;conda&#45;forge&#45;pinning -->
<g id="edge1" class="edge">
<title>avrocpp&#45;&gt;conda&#45;forge&#45;pinning</title>
<path fill="none" stroke="black" d="M79.43,-78.25C87.45,-75.98 95.98,-73.74 104,-72 191.77,-52.91 293.21,-38.55 365.3,-29.62"/>
<polygon fill="black" stroke="black" points="365.77,-33.09 375.27,-28.4 364.92,-26.14 365.77,-33.09"/>
</g>
<!-- caffe -->
<g id="node3" class="node">
<title>caffe</title>
<g id="a_node3"><a xlink:href="https://github.com/conda-forge/caffe-feedstock/pull/57" xlink:title="caffe">
<ellipse fill="#31688e" stroke="black" cx="106" cy="-162" rx="35.19" ry="18"/>
<text text-anchor="middle" x="106" y="-158.3" font-family="Times,serif" font-size="14.00" fill="white">caffe</text>
</a>
</g>
</g>
<!-- caffe&#45;&gt;conda&#45;forge&#45;pinning -->
<g id="edge2" class="edge">
<title>caffe&#45;&gt;conda&#45;forge&#45;pinning</title>
<path fill="none" stroke="black" d="M110.5,-143.87C116.83,-123.34 130.45,-89.52 155,-72 187.03,-49.14 282.2,-35.09 357.81,-27.26"/>
<polygon fill="black" stroke="black" points="358.27,-30.73 367.86,-26.24 357.56,-23.76 358.27,-30.73"/>
</g>
<!-- gap -->
<g id="node4" class="node">
<title>gap</title>
<g id="a_node4"><a xlink:href="https://github.com/conda-forge/gap-feedstock" xlink:title="gap">
<ellipse fill="#fde725" stroke="black" cx="224" cy="-162" rx="27" ry="18"/>
<text text-anchor="middle" x="224" y="-158.3" font-family="Times,serif" font-size="14.00">gap</text>
</a>
</g>
</g>
<!-- gap&#45;&gt;conda&#45;forge&#45;pinning -->
<g id="edge3" class="edge">
<title>gap&#45;&gt;conda&#45;forge&#45;pinning</title>
<path fill="none" stroke="black" d="M218.81,-144.16C213.89,-124.53 209.47,-92.22 226,-72 243.56,-50.51 306.24,-37.04 362.31,-29.05"/>
<polygon fill="black" stroke="black" points="362.9,-32.5 372.32,-27.67 361.94,-25.57 362.9,-32.5"/>
</g>
<!-- sagelib -->
<g id="node5" class="node">
<title>sagelib</title>
<g id="a_node5"><a xlink:href="https://github.com/conda-forge/sagelib-feedstock" xlink:title="sagelib">
<ellipse fill="#fde725" stroke="black" cx="280" cy="-90" rx="45" ry="18"/>
<text text-anchor="middle" x="280" y="-86.3" font-family="Times,serif" font-size="14.00">sagelib</text>
</a>
</g>
</g>
<!-- gap&#45;&gt;sagelib -->
<g id="edge4" class="edge">
<title>gap&#45;&gt;sagelib</title>
<path fill="none" stroke="black" d="M236.15,-145.81C243.19,-137.02 252.22,-125.73 260.25,-115.69"/>
<polygon fill="black" stroke="black" points="263.18,-117.62 266.7,-107.63 257.72,-113.25 263.18,-117.62"/>
</g>
<!-- sagelib&#45;&gt;conda&#45;forge&#45;pinning -->
<g id="edge5" class="edge">
<title>sagelib&#45;&gt;conda&#45;forge&#45;pinning</title>
<path fill="none" stroke="black" d="M311.35,-76.81C338.65,-66.19 378.69,-50.62 410.33,-38.31"/>
<polygon fill="black" stroke="black" points="411.81,-41.5 419.86,-34.61 409.27,-34.97 411.81,-41.5"/>
</g>
<!-- pyne -->
<g id="node6" class="node">
<title>pyne</title>
<g id="a_node6"><a xlink:href="https://github.com/conda-forge/pyne-feedstock/pull/39" xlink:title="pyne">
<ellipse fill="#31688e" stroke="black" cx="332" cy="-234" rx="30.59" ry="18"/>
<text text-anchor="middle" x="332" y="-230.3" font-family="Times,serif" font-size="14.00" fill="white">pyne</text>
</a>
</g>
</g>
<!-- pyne&#45;&gt;conda&#45;forge&#45;pinning -->
<g id="edge6" class="edge">
<title>pyne&#45;&gt;conda&#45;forge&#45;pinning</title>
<path fill="none" stroke="black" d="M332.85,-215.75C335.2,-184.24 344.01,-116.54 377,-72 386.68,-58.93 400.64,-48.25 414.35,-39.99"/>
<polygon fill="black" stroke="black" points="416.31,-42.9 423.27,-34.92 412.85,-36.82 416.31,-42.9"/>
</g>
<!-- zwatershed -->
<g id="node7" class="node">
<title>zwatershed</title>
<g id="a_node7"><a xlink:href="https://github.com/conda-forge/zwatershed-feedstock/pull/15" xlink:title="zwatershed">
<ellipse fill="#31688e" stroke="black" cx="341" cy="-306" rx="60" ry="18"/>
<text text-anchor="middle" x="341" y="-302.3" font-family="Times,serif" font-size="14.00" fill="white">zwatershed</text>
</a>
</g>
</g>
<!-- zwatershed&#45;&gt;conda&#45;forge&#45;pinning -->
<g id="edge7" class="edge">
<title>zwatershed&#45;&gt;conda&#45;forge&#45;pinning</title>
<path fill="none" stroke="black" d="M352.69,-288C359.17,-277.91 366.92,-264.66 372,-252 402.65,-175.67 377.81,-145.36 415,-72 420.13,-61.88 427.56,-52.05 434.9,-43.66"/>
<polygon fill="black" stroke="black" points="437.66,-45.83 441.84,-36.09 432.5,-41.1 437.66,-45.83"/>
</g>
<!-- alps -->
<g id="node8" class="node">
<title>alps</title>
<g id="a_node8"><a xlink:href="https://github.com/conda-forge/alps-feedstock/pull/30" xlink:title="alps">
<ellipse fill="#31688e" stroke="black" cx="429" cy="-378" rx="30.59" ry="18"/>
<text text-anchor="middle" x="429" y="-374.3" font-family="Times,serif" font-size="14.00" fill="white">alps</text>
</a>
</g>
</g>
<!-- alps&#45;&gt;conda&#45;forge&#45;pinning -->
<g id="edge8" class="edge">
<title>alps&#45;&gt;conda&#45;forge&#45;pinning</title>
<path fill="none" stroke="black" d="M429,-359.95C429,-333.29 429,-280.11 429,-235 429,-235 429,-235 429,-161 429,-120.1 441.43,-74.06 450.55,-45.79"/>
<polygon fill="black" stroke="black" points="453.89,-46.82 453.73,-36.22 447.25,-44.61 453.89,-46.82"/>
</g>
<!-- clfft -->
<g id="node9" class="node">
<title>clfft</title>
<g id="a_node9"><a xlink:href="https://github.com/conda-forge/clfft-feedstock/pull/10" xlink:title="clfft">
<ellipse fill="#31688e" stroke="black" cx="492" cy="-90" rx="35.19" ry="18"/>
<text text-anchor="middle" x="492" y="-86.3" font-family="Times,serif" font-size="14.00" fill="white">clfft</text>
</a>
</g>
</g>
<!-- clfft&#45;&gt;conda&#45;forge&#45;pinning -->
<g id="edge9" class="edge">
<title>clfft&#45;&gt;conda&#45;forge&#45;pinning</title>
<path fill="none" stroke="black" d="M484.42,-72.41C480.69,-64.25 476.1,-54.22 471.92,-45.07"/>
<polygon fill="black" stroke="black" points="475.09,-43.6 467.75,-35.96 468.73,-46.51 475.09,-43.6"/>
</g>
<!-- spdlib -->
<g id="node10" class="node">
<title>spdlib</title>
<g id="a_node10"><a xlink:href="https://github.com/conda-forge/spdlib-feedstock/pull/16" xlink:title="spdlib">
<ellipse fill="#31688e" stroke="black" cx="524" cy="-162" rx="40.5" ry="18"/>
<text text-anchor="middle" x="524" y="-158.3" font-family="Times,serif" font-size="14.00" fill="white">spdlib</text>
</a>
</g>
</g>
<!-- spdlib&#45;&gt;conda&#45;forge&#45;pinning -->
<g id="edge10" class="edge">
<title>spdlib&#45;&gt;conda&#45;forge&#45;pinning</title>
<path fill="none" stroke="black" d="M531.85,-144.24C539.37,-125.56 547.97,-94.95 536,-72 529.23,-59.03 517.69,-48.59 505.61,-40.52"/>
<polygon fill="black" stroke="black" points="507.12,-37.34 496.78,-35.05 503.44,-43.29 507.12,-37.34"/>
</g>
<!-- helics -->
<g id="node11" class="node">
<title>helics</title>
<g id="a_node11"><a xlink:href="https://github.com/conda-forge/helics-feedstock/pull/18" xlink:title="helics">
<ellipse fill="#31688e" stroke="black" cx="562" cy="-234" rx="40.5" ry="18"/>
<text text-anchor="middle" x="562" y="-230.3" font-family="Times,serif" font-size="14.00" fill="white">helics</text>
</a>
</g>
</g>
<!-- helics&#45;&gt;conda&#45;forge&#45;pinning -->
<g id="edge11" class="edge">
<title>helics&#45;&gt;conda&#45;forge&#45;pinning</title>
<path fill="none" stroke="black" d="M566.79,-215.79C574.58,-183.76 586.03,-114.4 553,-72 542.31,-58.28 527.01,-47.51 511.9,-39.37"/>
<polygon fill="black" stroke="black" points="513.06,-36.03 502.56,-34.63 509.89,-42.27 513.06,-36.03"/>
</g>
<!-- normaliz -->
<g id="node12" class="node">
<title>normaliz</title>
<g id="a_node12"><a xlink:href="https://github.com/conda-forge/normaliz-feedstock/pull/19" xlink:title="normaliz">
<ellipse fill="#31688e" stroke="black" cx="197" cy="-234" rx="50.09" ry="18"/>
<text text-anchor="middle" x="197" y="-230.3" font-family="Times,serif" font-size="14.00" fill="white">normaliz</text>
</a>
</g>
</g>
<!-- normaliz&#45;&gt;conda&#45;forge&#45;pinning -->
<g id="edge12" class="edge">
<title>normaliz&#45;&gt;conda&#45;forge&#45;pinning</title>
<path fill="none" stroke="black" d="M192.03,-215.93C183.48,-182.53 170.54,-108.62 211,-72 233.54,-51.6 303.78,-37.81 363.93,-29.43"/>
<polygon fill="black" stroke="black" points="364.44,-32.89 373.88,-28.08 363.5,-25.96 364.44,-32.89"/>
</g>
<!-- normaliz&#45;&gt;gap -->
<g id="edge13" class="edge">
<title>normaliz&#45;&gt;gap</title>
<path fill="none" stroke="black" d="M203.54,-216.05C206.62,-208.06 210.37,-198.33 213.82,-189.4"/>
<polygon fill="black" stroke="black" points="217.19,-190.38 217.52,-179.79 210.66,-187.86 217.19,-190.38"/>
</g>
<!-- esys&#45;escript -->
<g id="node13" class="node">
<title>esys&#45;escript</title>
<g id="a_node13"><a xlink:href="https://github.com/conda-forge/esys-escript-feedstock" xlink:title="esys escript">
<ellipse fill="#35b779" stroke="black" cx="631" cy="-306" rx="69.59" ry="18"/>
<text text-anchor="middle" x="631" y="-302.3" font-family="Times,serif" font-size="14.00">esys escript</text>
</a>
</g>
</g>
<!-- esys&#45;escript&#45;&gt;conda&#45;forge&#45;pinning -->
<g id="edge14" class="edge">
<title>esys&#45;escript&#45;&gt;conda&#45;forge&#45;pinning</title>
<path fill="none" stroke="black" d="M631.8,-287.85C632.85,-245.98 629.86,-137.22 576,-72 562.97,-56.23 544.24,-44.94 525.62,-36.95"/>
<polygon fill="black" stroke="black" points="526.8,-33.65 516.21,-33.17 524.19,-40.15 526.8,-33.65"/>
</g>
<!-- xmsinterp -->
<g id="node14" class="node">
<title>xmsinterp</title>
<g id="a_node14"><a xlink:href="https://github.com/conda-forge/xmsinterp-feedstock/pull/6" xlink:title="xmsinterp">
<ellipse fill="#31688e" stroke="black" cx="757" cy="-234" rx="54.69" ry="18"/>
<text text-anchor="middle" x="757" y="-230.3" font-family="Times,serif" font-size="14.00" fill="white">xmsinterp</text>
</a>
</g>
</g>
<!-- xmsinterp&#45;&gt;conda&#45;forge&#45;pinning -->
<g id="edge15" class="edge">
<title>xmsinterp&#45;&gt;conda&#45;forge&#45;pinning</title>
<path fill="none" stroke="black" d="M731.25,-218.07C716.91,-208.67 699.66,-195.42 688,-180 656.84,-138.79 683.31,-106.66 645,-72 621.08,-50.36 588.89,-37.5 558.07,-29.88"/>
<polygon fill="black" stroke="black" points="558.65,-26.42 548.12,-27.59 557.08,-33.25 558.65,-26.42"/>
</g>
<!-- xmsstamper -->
<g id="node15" class="node">
<title>xmsstamper</title>
<g id="a_node15"><a xlink:href="https://github.com/conda-forge/xmsstamper-feedstock" xlink:title="xmsstamper">
<ellipse fill="#fde725" stroke="black" cx="757" cy="-162" rx="60" ry="18"/>
<text text-anchor="middle" x="757" y="-158.3" font-family="Times,serif" font-size="14.00">xmsstamper</text>
</a>
</g>
</g>
<!-- xmsinterp&#45;&gt;xmsstamper -->
<g id="edge16" class="edge">
<title>xmsinterp&#45;&gt;xmsstamper</title>
<path fill="none" stroke="black" d="M757,-215.7C757,-207.98 757,-198.71 757,-190.11"/>
<polygon fill="black" stroke="black" points="760.5,-190.1 757,-180.1 753.5,-190.1 760.5,-190.1"/>
</g>
<!-- xmsmesher -->
<g id="node16" class="node">
<title>xmsmesher</title>
<g id="a_node16"><a xlink:href="https://github.com/conda-forge/xmsmesher-feedstock" xlink:title="xmsmesher">
<ellipse fill="#fde725" stroke="black" cx="798" cy="-90" rx="54.69" ry="18"/>
<text text-anchor="middle" x="798" y="-86.3" font-family="Times,serif" font-size="14.00">xmsmesher</text>
</a>
</g>
</g>
<!-- xmsinterp&#45;&gt;xmsmesher -->
<g id="edge17" class="edge">
<title>xmsinterp&#45;&gt;xmsmesher</title>
<path fill="none" stroke="black" d="M786.51,-218.66C801.27,-209.76 817.72,-196.8 826,-180 836.11,-159.49 826.56,-134.54 815.95,-116.28"/>
<polygon fill="black" stroke="black" points="818.84,-114.29 810.58,-107.65 812.89,-117.99 818.84,-114.29"/>
</g>
<!-- xmsstamper&#45;&gt;conda&#45;forge&#45;pinning -->
<g id="edge18" class="edge">
<title>xmsstamper&#45;&gt;conda&#45;forge&#45;pinning</title>
<path fill="none" stroke="black" d="M747.6,-144.07C735.41,-123.74 712.2,-90.11 683,-72 646.14,-49.13 600.23,-36.13 559.67,-28.74"/>
<polygon fill="black" stroke="black" points="560.2,-25.28 549.75,-27.02 559.01,-32.17 560.2,-25.28"/>
</g>
<!-- xmsmesher&#45;&gt;conda&#45;forge&#45;pinning -->
<g id="edge19" class="edge">
<title>xmsmesher&#45;&gt;conda&#45;forge&#45;pinning</title>
<path fill="none" stroke="black" d="M754.61,-78.82C744.57,-76.52 733.92,-74.14 724,-72 660.99,-58.44 589.28,-44.11 536.52,-33.78"/>
<polygon fill="black" stroke="black" points="537.05,-30.32 526.56,-31.83 535.7,-37.19 537.05,-30.32"/>
</g>
<!-- qvina -->
<g id="node17" class="node">
<title>qvina</title>
<g id="a_node17"><a xlink:href="https://github.com/conda-forge/qvina-feedstock/pull/3" xlink:title="qvina">
<ellipse fill="#31688e" stroke="black" cx="883" cy="-378" rx="35.19" ry="18"/>
<text text-anchor="middle" x="883" y="-374.3" font-family="Times,serif" font-size="14.00" fill="white">qvina</text>
</a>
</g>
</g>
<!-- qvina&#45;&gt;conda&#45;forge&#45;pinning -->
<g id="edge20" class="edge">
<title>qvina&#45;&gt;conda&#45;forge&#45;pinning</title>
<path fill="none" stroke="black" d="M883,-359.95C883,-333.29 883,-280.11 883,-235 883,-235 883,-235 883,-161 883,-120.36 892.15,-99.26 862,-72 820.75,-34.71 677.31,-23.26 573.52,-19.96"/>
<polygon fill="black" stroke="black" points="573.38,-16.45 563.28,-19.65 573.18,-23.45 573.38,-16.45"/>
</g>
</g>
</svg>
