<?xml version="1.0" encoding="UTF-8" standalone="no"?>
<!DOCTYPE svg PUBLIC "-//W3C//DTD SVG 1.1//EN"
 "http://www.w3.org/Graphics/SVG/1.1/DTD/svg11.dtd">
<!-- Generated by graphviz version 2.42.3 (20191010.1750)
 -->
<!-- Title: %3 Pages: 1 -->
<svg width="504pt" height="116pt"
 viewBox="0.00 0.00 503.54 116.00" xmlns="http://www.w3.org/2000/svg" xmlns:xlink="http://www.w3.org/1999/xlink">
<g id="graph0" class="graph" transform="scale(1 1) rotate(0) translate(4 112)">
<title>%3</title>
<polygon fill="white" stroke="transparent" points="-4,4 -4,-112 499.54,-112 499.54,4 -4,4"/>
<!-- gmt -->
<g id="node1" class="node">
<title>gmt</title>
<g id="a_node1"><a xlink:href="https://github.com/conda-forge/gmt-feedstock" xlink:title="gmt">
<ellipse fill="#35b779" stroke="black" cx="27" cy="-90" rx="27" ry="18"/>
<text text-anchor="middle" x="27" y="-86.3" font-family="Times,serif" font-size="14.00">gmt</text>
</a>
</g>
</g>
<!-- conda&#45;forge&#45;pinning -->
<g id="node6" class="node">
<title>conda&#45;forge&#45;pinning</title>
<ellipse fill="none" stroke="black" cx="201" cy="-18" rx="103.18" ry="18"/>
<text text-anchor="middle" x="201" y="-14.3" font-family="Times,serif" font-size="14.00">conda&#45;forge&#45;pinning</text>
</g>
<!-- gmt&#45;&gt;conda&#45;forge&#45;pinning -->
<g id="edge1" class="edge">
<title>gmt&#45;&gt;conda&#45;forge&#45;pinning</title>
<path fill="none" stroke="black" d="M48.2,-78.67C53.03,-76.4 58.17,-74.06 63,-72 91.04,-60.01 122.78,-47.74 148.75,-38.02"/>
<polygon fill="black" stroke="black" points="150.24,-41.2 158.39,-34.43 147.8,-34.64 150.24,-41.2"/>
</g>
<!-- nansat -->
<g id="node2" class="node">
<title>nansat</title>
<g id="a_node2"><a xlink:href="https://github.com/conda-forge/nansat-feedstock" xlink:title="nansat">
<ellipse fill="#35b779" stroke="black" cx="112" cy="-90" rx="40.09" ry="18"/>
<text text-anchor="middle" x="112" y="-86.3" font-family="Times,serif" font-size="14.00">nansat</text>
</a>
</g>
</g>
<!-- nansat&#45;&gt;conda&#45;forge&#45;pinning -->
<g id="edge2" class="edge">
<title>nansat&#45;&gt;conda&#45;forge&#45;pinning</title>
<path fill="none" stroke="black" d="M131.31,-73.81C143.17,-64.49 158.58,-52.37 171.89,-41.9"/>
<polygon fill="black" stroke="black" points="174.16,-44.56 179.86,-35.63 169.83,-39.06 174.16,-44.56"/>
</g>
<!-- qgis -->
<g id="node3" class="node">
<title>qgis</title>
<g id="a_node3"><a xlink:href="https://github.com/conda-forge/qgis-feedstock/pull/124" xlink:title="qgis">
<ellipse fill="#31688e" stroke="black" cx="201" cy="-90" rx="30.59" ry="18"/>
<text text-anchor="middle" x="201" y="-86.3" font-family="Times,serif" font-size="14.00" fill="white">qgis</text>
</a>
</g>
</g>
<!-- qgis&#45;&gt;conda&#45;forge&#45;pinning -->
<g id="edge3" class="edge">
<title>qgis&#45;&gt;conda&#45;forge&#45;pinning</title>
<path fill="none" stroke="black" d="M201,-71.7C201,-63.98 201,-54.71 201,-46.11"/>
<polygon fill="black" stroke="black" points="204.5,-46.1 201,-36.1 197.5,-46.1 204.5,-46.1"/>
</g>
<!-- entwine -->
<g id="node4" class="node">
<title>entwine</title>
<g id="a_node4"><a xlink:href="https://github.com/conda-forge/entwine-feedstock" xlink:title="entwine">
<ellipse fill="#35b779" stroke="black" cx="294" cy="-90" rx="44.69" ry="18"/>
<text text-anchor="middle" x="294" y="-86.3" font-family="Times,serif" font-size="14.00">entwine</text>
</a>
</g>
</g>
<!-- entwine&#45;&gt;conda&#45;forge&#45;pinning -->
<g id="edge4" class="edge">
<title>entwine&#45;&gt;conda&#45;forge&#45;pinning</title>
<path fill="none" stroke="black" d="M273.82,-73.81C261.43,-64.49 245.33,-52.37 231.42,-41.9"/>
<polygon fill="black" stroke="black" points="233.19,-38.85 223.09,-35.63 228.98,-44.44 233.19,-38.85"/>
</g>
<!-- esys&#45;escript -->
<g id="node5" class="node">
<title>esys&#45;escript</title>
<g id="a_node5"><a xlink:href="https://github.com/conda-forge/esys-escript-feedstock" xlink:title="esys escript">
<ellipse fill="#35b779" stroke="black" cx="426" cy="-90" rx="69.59" ry="18"/>
<text text-anchor="middle" x="426" y="-86.3" font-family="Times,serif" font-size="14.00">esys escript</text>
</a>
</g>
</g>
<!-- esys&#45;escript&#45;&gt;conda&#45;forge&#45;pinning -->
<g id="edge5" class="edge">
<title>esys&#45;escript&#45;&gt;conda&#45;forge&#45;pinning</title>
<path fill="none" stroke="black" d="M383.41,-75.75C348.18,-64.79 297.79,-49.11 258.89,-37.01"/>
<polygon fill="black" stroke="black" points="259.85,-33.64 249.27,-34.02 257.77,-40.33 259.85,-33.64"/>
</g>
</g>
</svg>
