<?xml version="1.0" encoding="UTF-8" standalone="no"?>
<!DOCTYPE svg PUBLIC "-//W3C//DTD SVG 1.1//EN"
 "http://www.w3.org/Graphics/SVG/1.1/DTD/svg11.dtd">
<!-- Generated by graphviz version 2.42.3 (20191010.1750)
 -->
<!-- Title: %3 Pages: 1 -->
<svg width="912pt" height="404pt"
 viewBox="0.00 0.00 911.69 404.00" xmlns="http://www.w3.org/2000/svg" xmlns:xlink="http://www.w3.org/1999/xlink">
<g id="graph0" class="graph" transform="scale(1 1) rotate(0) translate(4 400)">
<title>%3</title>
<polygon fill="white" stroke="transparent" points="-4,4 -4,-400 907.69,-400 907.69,4 -4,4"/>
<!-- fiona -->
<g id="node1" class="node">
<title>fiona</title>
<g id="a_node1"><a xlink:href="https://github.com/conda-forge/fiona-feedstock" xlink:title="fiona">
<ellipse fill="#fde725" stroke="black" cx="28.6" cy="-306" rx="28.7" ry="18"/>
<text text-anchor="middle" x="28.6" y="-302.3" font-family="Times,serif" font-size="14.00">fiona</text>
</a>
</g>
</g>
<!-- gdal -->
<g id="node2" class="node">
<title>gdal</title>
<g id="a_node2"><a xlink:href="https://github.com/conda-forge/gdal-feedstock/pull/403" xlink:title="gdal">
<ellipse fill="#31688e" stroke="black" cx="421.6" cy="-378" rx="27" ry="18"/>
<text text-anchor="middle" x="421.6" y="-374.3" font-family="Times,serif" font-size="14.00" fill="white">gdal</text>
</a>
</g>
</g>
<!-- gdal&#45;&gt;fiona -->
<g id="edge1" class="edge">
<title>gdal&#45;&gt;fiona</title>
<path fill="none" stroke="black" d="M394.83,-375.02C335.67,-370.21 189.68,-355.84 71.6,-324 68.16,-323.07 64.62,-321.96 61.13,-320.75"/>
<polygon fill="black" stroke="black" points="62.07,-317.36 51.48,-317.16 59.63,-323.92 62.07,-317.36"/>
</g>
<!-- gmt -->
<g id="node3" class="node">
<title>gmt</title>
<g id="a_node3"><a xlink:href="https://github.com/conda-forge/gmt-feedstock/pull/99" xlink:title="gmt">
<ellipse fill="#31688e" stroke="black" cx="77.6" cy="-234" rx="27" ry="18"/>
<text text-anchor="middle" x="77.6" y="-230.3" font-family="Times,serif" font-size="14.00" fill="white">gmt</text>
</a>
</g>
</g>
<!-- gdal&#45;&gt;gmt -->
<g id="edge2" class="edge">
<title>gdal&#45;&gt;gmt</title>
<path fill="none" stroke="black" d="M394.51,-375.44C328.54,-371.16 161.76,-357.23 118.6,-324 98.97,-308.89 88.4,-282.17 82.94,-261.94"/>
<polygon fill="black" stroke="black" points="86.3,-260.94 80.53,-252.05 79.5,-262.59 86.3,-260.94"/>
</g>
<!-- nansat -->
<g id="node4" class="node">
<title>nansat</title>
<g id="a_node4"><a xlink:href="https://github.com/conda-forge/nansat-feedstock/pull/31" xlink:title="nansat">
<ellipse fill="#31688e" stroke="black" cx="109.6" cy="-162" rx="33.29" ry="18"/>
<text text-anchor="middle" x="109.6" y="-158.3" font-family="Times,serif" font-size="14.00" fill="white">nansat</text>
</a>
</g>
</g>
<!-- gdal&#45;&gt;nansat -->
<g id="edge3" class="edge">
<title>gdal&#45;&gt;nansat</title>
<path fill="none" stroke="black" d="M394.52,-375.09C334.18,-370.29 191.27,-355.79 156.6,-324 136.9,-305.94 121.29,-231.03 114.03,-190.06"/>
<polygon fill="black" stroke="black" points="117.48,-189.46 112.33,-180.2 110.58,-190.65 117.48,-189.46"/>
</g>
<!-- ncl -->
<g id="node5" class="node">
<title>ncl</title>
<g id="a_node5"><a xlink:href="https://github.com/conda-forge/ncl-feedstock" xlink:title="ncl">
<ellipse fill="#fde725" stroke="black" cx="153.6" cy="-90" rx="27" ry="18"/>
<text text-anchor="middle" x="153.6" y="-86.3" font-family="Times,serif" font-size="14.00">ncl</text>
</a>
</g>
</g>
<!-- gdal&#45;&gt;ncl -->
<g id="edge4" class="edge">
<title>gdal&#45;&gt;ncl</title>
<path fill="none" stroke="black" d="M394.94,-374.42C341.04,-368.65 221.93,-352.88 194.6,-324 166.87,-294.7 157.56,-173.21 154.72,-118.24"/>
<polygon fill="black" stroke="black" points="158.21,-118 154.24,-108.18 151.22,-118.33 158.21,-118"/>
</g>
<!-- postgis -->
<g id="node6" class="node">
<title>postgis</title>
<g id="a_node6"><a xlink:href="https://github.com/conda-forge/postgis-feedstock" xlink:title="postgis">
<ellipse fill="#fde725" stroke="black" cx="208.6" cy="-18" rx="36" ry="18"/>
<text text-anchor="middle" x="208.6" y="-14.3" font-family="Times,serif" font-size="14.00">postgis</text>
</a>
</g>
</g>
<!-- gdal&#45;&gt;postgis -->
<g id="edge5" class="edge">
<title>gdal&#45;&gt;postgis</title>
<path fill="none" stroke="black" d="M394.32,-377.86C352.2,-377.6 271.61,-370.56 227.6,-324 199.81,-294.61 208.6,-275.45 208.6,-235 208.6,-235 208.6,-235 208.6,-161 208.6,-121 208.6,-74.65 208.6,-46.08"/>
<polygon fill="black" stroke="black" points="212.1,-46.05 208.6,-36.05 205.1,-46.05 212.1,-46.05"/>
</g>
<!-- pynio -->
<g id="node7" class="node">
<title>pynio</title>
<g id="a_node7"><a xlink:href="https://github.com/conda-forge/pynio-feedstock" xlink:title="pynio">
<ellipse fill="#fde725" stroke="black" cx="267.6" cy="-306" rx="30.59" ry="18"/>
<text text-anchor="middle" x="267.6" y="-302.3" font-family="Times,serif" font-size="14.00">pynio</text>
</a>
</g>
</g>
<!-- gdal&#45;&gt;pynio -->
<g id="edge6" class="edge">
<title>gdal&#45;&gt;pynio</title>
<path fill="none" stroke="black" d="M399.86,-367.12C373.9,-355.32 330.23,-335.47 300.21,-321.83"/>
<polygon fill="black" stroke="black" points="301.54,-318.58 290.99,-317.63 298.64,-324.96 301.54,-318.58"/>
</g>
<!-- qgis -->
<g id="node8" class="node">
<title>qgis</title>
<g id="a_node8"><a xlink:href="https://github.com/conda-forge/qgis-feedstock/pull/124" xlink:title="qgis">
<ellipse fill="#31688e" stroke="black" cx="309.6" cy="-234" rx="27" ry="18"/>
<text text-anchor="middle" x="309.6" y="-230.3" font-family="Times,serif" font-size="14.00" fill="white">qgis</text>
</a>
</g>
</g>
<!-- gdal&#45;&gt;qgis -->
<g id="edge7" class="edge">
<title>gdal&#45;&gt;qgis</title>
<path fill="none" stroke="black" d="M401.36,-365.72C385.84,-356.24 364.73,-341.45 350.6,-324 335.51,-305.37 324.61,-280.29 317.86,-261.5"/>
<polygon fill="black" stroke="black" points="321.09,-260.11 314.54,-251.79 314.46,-262.38 321.09,-260.11"/>
</g>
<!-- r&#45;rgdal -->
<g id="node9" class="node">
<title>r&#45;rgdal</title>
<g id="a_node9"><a xlink:href="https://github.com/conda-forge/r-rgdal-feedstock" xlink:title="r rgdal">
<ellipse fill="#fde725" stroke="black" cx="339.6" cy="-162" rx="34.5" ry="18"/>
<text text-anchor="middle" x="339.6" y="-158.3" font-family="Times,serif" font-size="14.00">r rgdal</text>
</a>
</g>
</g>
<!-- gdal&#45;&gt;r&#45;rgdal -->
<g id="edge8" class="edge">
<title>gdal&#45;&gt;r&#45;rgdal</title>
<path fill="none" stroke="black" d="M410.35,-361.37C403.36,-351.13 394.6,-337.23 388.6,-324 368.09,-278.83 353.23,-222.74 345.55,-190.1"/>
<polygon fill="black" stroke="black" points="348.87,-188.94 343.22,-179.98 342.05,-190.51 348.87,-188.94"/>
</g>
<!-- r&#45;sf -->
<g id="node10" class="node">
<title>r&#45;sf</title>
<g id="a_node10"><a xlink:href="https://github.com/conda-forge/r-sf-feedstock" xlink:title="r sf">
<ellipse fill="#fde725" stroke="black" cx="385.6" cy="-90" rx="27" ry="18"/>
<text text-anchor="middle" x="385.6" y="-86.3" font-family="Times,serif" font-size="14.00">r sf</text>
</a>
</g>
</g>
<!-- gdal&#45;&gt;r&#45;sf -->
<g id="edge9" class="edge">
<title>gdal&#45;&gt;r&#45;sf</title>
<path fill="none" stroke="black" d="M419.45,-359.97C413.44,-312.18 396.37,-176.54 389.02,-118.22"/>
<polygon fill="black" stroke="black" points="392.45,-117.43 387.73,-107.94 385.51,-118.3 392.45,-117.43"/>
</g>
<!-- rasterio -->
<g id="node11" class="node">
<title>rasterio</title>
<g id="a_node11"><a xlink:href="https://github.com/conda-forge/rasterio-feedstock" xlink:title="rasterio">
<ellipse fill="#fde725" stroke="black" cx="440.6" cy="-18" rx="37.09" ry="18"/>
<text text-anchor="middle" x="440.6" y="-14.3" font-family="Times,serif" font-size="14.00">rasterio</text>
</a>
</g>
</g>
<!-- gdal&#45;&gt;rasterio -->
<g id="edge10" class="edge">
<title>gdal&#45;&gt;rasterio</title>
<path fill="none" stroke="black" d="M425.35,-360.05C430.89,-333.52 440.6,-280.52 440.6,-235 440.6,-235 440.6,-235 440.6,-161 440.6,-121 440.6,-74.65 440.6,-46.08"/>
<polygon fill="black" stroke="black" points="444.1,-46.05 440.6,-36.05 437.1,-46.05 444.1,-46.05"/>
</g>
<!-- hexer -->
<g id="node12" class="node">
<title>hexer</title>
<g id="a_node12"><a xlink:href="https://github.com/conda-forge/hexer-feedstock" xlink:title="hexer">
<ellipse fill="#fde725" stroke="black" cx="499.6" cy="-306" rx="30.59" ry="18"/>
<text text-anchor="middle" x="499.6" y="-302.3" font-family="Times,serif" font-size="14.00">hexer</text>
</a>
</g>
</g>
<!-- gdal&#45;&gt;hexer -->
<g id="edge11" class="edge">
<title>gdal&#45;&gt;hexer</title>
<path fill="none" stroke="black" d="M437.01,-363.17C448.11,-353.21 463.3,-339.57 475.94,-328.23"/>
<polygon fill="black" stroke="black" points="478.31,-330.81 483.41,-321.52 473.63,-325.6 478.31,-330.81"/>
</g>
<!-- spdlib -->
<g id="node13" class="node">
<title>spdlib</title>
<g id="a_node13"><a xlink:href="https://github.com/conda-forge/spdlib-feedstock" xlink:title="spdlib">
<ellipse fill="#fde725" stroke="black" cx="535.6" cy="-234" rx="32.5" ry="18"/>
<text text-anchor="middle" x="535.6" y="-230.3" font-family="Times,serif" font-size="14.00">spdlib</text>
</a>
</g>
</g>
<!-- gdal&#45;&gt;spdlib -->
<g id="edge12" class="edge">
<title>gdal&#45;&gt;spdlib</title>
<path fill="none" stroke="black" d="M447.84,-373.51C476,-368.21 519.41,-355.2 539.6,-324 551.44,-305.7 549.03,-280.58 544.48,-261.7"/>
<polygon fill="black" stroke="black" points="547.82,-260.65 541.8,-251.93 541.07,-262.5 547.82,-260.65"/>
</g>
<!-- pdal -->
<g id="node14" class="node">
<title>pdal</title>
<g id="a_node14"><a xlink:href="https://github.com/conda-forge/pdal-feedstock" xlink:title="pdal">
<ellipse fill="#fde725" stroke="black" cx="579.6" cy="-162" rx="27" ry="18"/>
<text text-anchor="middle" x="579.6" y="-158.3" font-family="Times,serif" font-size="14.00">pdal</text>
</a>
</g>
</g>
<!-- gdal&#45;&gt;pdal -->
<g id="edge13" class="edge">
<title>gdal&#45;&gt;pdal</title>
<path fill="none" stroke="black" d="M448.15,-374.03C479.2,-369.13 529.99,-356.4 558.6,-324 591.23,-287.04 589.07,-225.43 584.43,-190.11"/>
<polygon fill="black" stroke="black" points="587.87,-189.43 582.95,-180.04 580.95,-190.45 587.87,-189.43"/>
</g>
<!-- entwine -->
<g id="node15" class="node">
<title>entwine</title>
<g id="a_node15"><a xlink:href="https://github.com/conda-forge/entwine-feedstock/pull/15" xlink:title="entwine">
<ellipse fill="#31688e" stroke="black" cx="579.6" cy="-90" rx="38.5" ry="18"/>
<text text-anchor="middle" x="579.6" y="-86.3" font-family="Times,serif" font-size="14.00" fill="white">entwine</text>
</a>
</g>
</g>
<!-- gdal&#45;&gt;entwine -->
<g id="edge14" class="edge">
<title>gdal&#45;&gt;entwine</title>
<path fill="none" stroke="black" d="M448.54,-375.75C484.31,-372.62 547.09,-361.7 582.6,-324 638.36,-264.79 639.5,-221.74 615.6,-144 612.41,-133.63 606.43,-123.48 600.24,-114.87"/>
<polygon fill="black" stroke="black" points="602.95,-112.64 594.09,-106.83 597.39,-116.9 602.95,-112.64"/>
</g>
<!-- isce2 -->
<g id="node16" class="node">
<title>isce2</title>
<g id="a_node16"><a xlink:href="https://github.com/conda-forge/isce2-feedstock" xlink:title="isce2">
<ellipse fill="#fde725" stroke="black" cx="664.6" cy="-90" rx="28.7" ry="18"/>
<text text-anchor="middle" x="664.6" y="-86.3" font-family="Times,serif" font-size="14.00">isce2</text>
</a>
</g>
</g>
<!-- gdal&#45;&gt;isce2 -->
<g id="edge15" class="edge">
<title>gdal&#45;&gt;isce2</title>
<path fill="none" stroke="black" d="M448.81,-376.48C488.92,-374.29 564.18,-364.62 610.6,-324 670.3,-271.76 670.97,-167.72 667.46,-118.3"/>
<polygon fill="black" stroke="black" points="670.93,-117.74 666.62,-108.06 663.95,-118.32 670.93,-117.74"/>
</g>
<!-- esys&#45;escript -->
<g id="node17" class="node">
<title>esys&#45;escript</title>
<g id="a_node17"><a xlink:href="https://github.com/conda-forge/esys-escript-feedstock/pull/16" xlink:title="esys escript">
<ellipse fill="#31688e" stroke="black" cx="721.6" cy="-18" rx="52" ry="18"/>
<text text-anchor="middle" x="721.6" y="-14.3" font-family="Times,serif" font-size="14.00" fill="white">esys escript</text>
</a>
</g>
</g>
<!-- gdal&#45;&gt;esys&#45;escript -->
<g id="edge16" class="edge">
<title>gdal&#45;&gt;esys&#45;escript</title>
<path fill="none" stroke="black" d="M448.75,-376.56C522.6,-373.78 721.6,-355.14 721.6,-235 721.6,-235 721.6,-235 721.6,-161 721.6,-121 721.6,-74.65 721.6,-46.08"/>
<polygon fill="black" stroke="black" points="725.1,-46.05 721.6,-36.05 718.1,-46.05 725.1,-46.05"/>
</g>
<!-- pcraster -->
<g id="node18" class="node">
<title>pcraster</title>
<g id="a_node18"><a xlink:href="https://github.com/conda-forge/pcraster-feedstock" xlink:title="pcraster">
<ellipse fill="#fde725" stroke="black" cx="788.6" cy="-306" rx="38.5" ry="18"/>
<text text-anchor="middle" x="788.6" y="-302.3" font-family="Times,serif" font-size="14.00">pcraster</text>
</a>
</g>
</g>
<!-- gdal&#45;&gt;pcraster -->
<g id="edge17" class="edge">
<title>gdal&#45;&gt;pcraster</title>
<path fill="none" stroke="black" d="M447.91,-373.85C502.18,-367.08 630.31,-349.63 735.6,-324 739.94,-322.94 744.44,-321.71 748.91,-320.41"/>
<polygon fill="black" stroke="black" points="750,-323.73 758.54,-317.46 747.95,-317.04 750,-323.73"/>
</g>
<!-- omniscidb -->
<g id="node19" class="node">
<title>omniscidb</title>
<g id="a_node19"><a xlink:href="https://github.com/conda-forge/omniscidb-feedstock" xlink:title="omniscidb">
<ellipse fill="#fde725" stroke="black" cx="855.6" cy="-234" rx="48.19" ry="18"/>
<text text-anchor="middle" x="855.6" y="-230.3" font-family="Times,serif" font-size="14.00">omniscidb</text>
</a>
</g>
</g>
<!-- gdal&#45;&gt;omniscidb -->
<g id="edge18" class="edge">
<title>gdal&#45;&gt;omniscidb</title>
<path fill="none" stroke="black" d="M448.85,-377.46C531.93,-378.27 779.87,-376.19 836.6,-324 853.35,-308.59 857.27,-282.32 857.48,-262.31"/>
<polygon fill="black" stroke="black" points="860.98,-262.16 857.3,-252.23 853.98,-262.29 860.98,-262.16"/>
</g>
<!-- pdal&#45;&gt;entwine -->
<g id="edge19" class="edge">
<title>pdal&#45;&gt;entwine</title>
<path fill="none" stroke="black" d="M579.6,-143.7C579.6,-135.98 579.6,-126.71 579.6,-118.11"/>
<polygon fill="black" stroke="black" points="583.1,-118.1 579.6,-108.1 576.1,-118.1 583.1,-118.1"/>
</g>
</g>
</svg>
