<?xml version="1.0" encoding="UTF-8" standalone="no"?>
<!DOCTYPE svg PUBLIC "-//W3C//DTD SVG 1.1//EN"
 "http://www.w3.org/Graphics/SVG/1.1/DTD/svg11.dtd">
<!-- Generated by graphviz version 2.42.3 (20191010.1750)
 -->
<!-- Title: %3 Pages: 1 -->
<svg width="2332pt" height="476pt"
 viewBox="0.00 0.00 2332.10 476.00" xmlns="http://www.w3.org/2000/svg" xmlns:xlink="http://www.w3.org/1999/xlink">
<g id="graph0" class="graph" transform="scale(1 1) rotate(0) translate(4 472)">
<title>%3</title>
<polygon fill="white" stroke="transparent" points="-4,4 -4,-472 2328.1,-472 2328.1,4 -4,4"/>
<!-- caffe -->
<g id="node1" class="node">
<title>caffe</title>
<g id="a_node1"><a xlink:href="https://github.com/conda-forge/caffe-feedstock" xlink:title="caffe">
<ellipse fill="#fde725" stroke="black" cx="1203" cy="-378" rx="35.19" ry="18"/>
<text text-anchor="middle" x="1203" y="-374.3" font-family="Times,serif" font-size="14.00">caffe</text>
</a>
</g>
</g>
<!-- conda&#45;forge&#45;pinning -->
<g id="node2" class="node">
<title>conda&#45;forge&#45;pinning</title>
<ellipse fill="none" stroke="black" cx="1272" cy="-18" rx="103.5" ry="18"/>
<text text-anchor="middle" x="1272" y="-14.3" font-family="Times,serif" font-size="14.00">conda&#45;forge&#45;pinning</text>
</g>
<!-- caffe&#45;&gt;conda&#45;forge&#45;pinning -->
<g id="edge1" class="edge">
<title>caffe&#45;&gt;conda&#45;forge&#45;pinning</title>
<path fill="none" stroke="black" d="M1205.37,-359.99C1208.87,-333.38 1215,-280.28 1215,-235 1215,-235 1215,-235 1215,-161 1215,-120.03 1222.66,-109.57 1239,-72 1243.11,-62.56 1248.71,-52.82 1254.13,-44.32"/>
<polygon fill="black" stroke="black" points="1257.06,-46.23 1259.65,-35.96 1251.22,-42.38 1257.06,-46.23"/>
</g>
<!-- cdo -->
<g id="node3" class="node">
<title>cdo</title>
<g id="a_node3"><a xlink:href="https://github.com/conda-forge/cdo-feedstock/pull/82" xlink:title="cdo">
<ellipse fill="#31688e" stroke="black" cx="27" cy="-90" rx="27" ry="18"/>
<text text-anchor="middle" x="27" y="-86.3" font-family="Times,serif" font-size="14.00" fill="white">cdo</text>
</a>
</g>
</g>
<!-- cdo&#45;&gt;conda&#45;forge&#45;pinning -->
<g id="edge2" class="edge">
<title>cdo&#45;&gt;conda&#45;forge&#45;pinning</title>
<path fill="none" stroke="black" d="M48.24,-78.54C54.47,-75.94 61.38,-73.47 68,-72 273.47,-26.37 899.6,-19.73 1158.31,-18.97"/>
<polygon fill="black" stroke="black" points="1158.49,-22.47 1168.48,-18.95 1158.47,-15.47 1158.49,-22.47"/>
</g>
<!-- cyclus -->
<g id="node4" class="node">
<title>cyclus</title>
<g id="a_node4"><a xlink:href="https://github.com/conda-forge/cyclus-feedstock/pull/56" xlink:title="cyclus">
<ellipse fill="#31688e" stroke="black" cx="66" cy="-162" rx="40.5" ry="18"/>
<text text-anchor="middle" x="66" y="-158.3" font-family="Times,serif" font-size="14.00" fill="white">cyclus</text>
</a>
</g>
</g>
<!-- cyclus&#45;&gt;conda&#45;forge&#45;pinning -->
<g id="edge3" class="edge">
<title>cyclus&#45;&gt;conda&#45;forge&#45;pinning</title>
<path fill="none" stroke="black" d="M71.05,-144.02C78.32,-122.97 93.91,-87.93 121,-72 208.73,-20.41 884.35,-17.35 1157.73,-18.26"/>
<polygon fill="black" stroke="black" points="1158.06,-21.76 1168.08,-18.3 1158.09,-14.76 1158.06,-21.76"/>
</g>
<!-- fenics -->
<g id="node5" class="node">
<title>fenics</title>
<g id="a_node5"><a xlink:href="https://github.com/conda-forge/fenics-feedstock/pull/107" xlink:title="fenics">
<ellipse fill="#31688e" stroke="black" cx="104" cy="-234" rx="40.5" ry="18"/>
<text text-anchor="middle" x="104" y="-230.3" font-family="Times,serif" font-size="14.00" fill="white">fenics</text>
</a>
</g>
</g>
<!-- fenics&#45;&gt;conda&#45;forge&#45;pinning -->
<g id="edge4" class="edge">
<title>fenics&#45;&gt;conda&#45;forge&#45;pinning</title>
<path fill="none" stroke="black" d="M107.35,-215.81C115.1,-178.03 135.39,-89.75 159,-72 198.5,-42.31 884.28,-26.24 1159.28,-20.97"/>
<polygon fill="black" stroke="black" points="1159.75,-24.47 1169.68,-20.78 1159.61,-17.47 1159.75,-24.47"/>
</g>
<!-- graph -->
<g id="node6" class="node">
<title>graph</title>
<g id="a_node6"><a xlink:href="https://github.com/conda-forge/graph-feedstock/pull/5" xlink:title="graph">
<ellipse fill="#31688e" stroke="black" cx="173" cy="-306" rx="35.19" ry="18"/>
<text text-anchor="middle" x="173" y="-302.3" font-family="Times,serif" font-size="14.00" fill="white">graph</text>
</a>
</g>
</g>
<!-- graph&#45;&gt;conda&#45;forge&#45;pinning -->
<g id="edge5" class="edge">
<title>graph&#45;&gt;conda&#45;forge&#45;pinning</title>
<path fill="none" stroke="black" d="M171.12,-287.98C167.33,-243.93 164.15,-125.9 231,-72 266.67,-43.24 897.54,-26.81 1159.45,-21.21"/>
<polygon fill="black" stroke="black" points="1159.82,-24.7 1169.75,-20.99 1159.68,-17.7 1159.82,-24.7"/>
</g>
<!-- h5py -->
<g id="node7" class="node">
<title>h5py</title>
<g id="a_node7"><a xlink:href="https://github.com/conda-forge/h5py-feedstock/pull/72" xlink:title="h5py">
<ellipse fill="#31688e" stroke="black" cx="858" cy="-450" rx="30.59" ry="18"/>
<text text-anchor="middle" x="858" y="-446.3" font-family="Times,serif" font-size="14.00" fill="white">h5py</text>
</a>
</g>
</g>
<!-- h5py&#45;&gt;caffe -->
<g id="edge6" class="edge">
<title>h5py&#45;&gt;caffe</title>
<path fill="none" stroke="black" d="M887.74,-445.25C941.47,-438.12 1058.03,-421.07 1154,-396 1157.86,-394.99 1161.85,-393.82 1165.81,-392.58"/>
<polygon fill="black" stroke="black" points="1167.1,-395.84 1175.51,-389.39 1164.91,-389.19 1167.1,-395.84"/>
</g>
<!-- h5py&#45;&gt;conda&#45;forge&#45;pinning -->
<g id="edge7" class="edge">
<title>h5py&#45;&gt;conda&#45;forge&#45;pinning</title>
<path fill="none" stroke="black" d="M888.58,-449.64C971.8,-450.69 1199.34,-448.59 1247,-396 1295.09,-342.94 1253,-306.61 1253,-235 1253,-235 1253,-235 1253,-161 1253,-120.86 1260.55,-74.9 1266.13,-46.4"/>
<polygon fill="black" stroke="black" points="1269.61,-46.88 1268.16,-36.39 1262.74,-45.5 1269.61,-46.88"/>
</g>
<!-- openmc -->
<g id="node8" class="node">
<title>openmc</title>
<g id="a_node8"><a xlink:href="https://github.com/conda-forge/openmc-feedstock" xlink:title="openmc">
<ellipse fill="#fde725" stroke="black" cx="1322" cy="-306" rx="40.5" ry="18"/>
<text text-anchor="middle" x="1322" y="-302.3" font-family="Times,serif" font-size="14.00">openmc</text>
</a>
</g>
</g>
<!-- h5py&#45;&gt;openmc -->
<g id="edge8" class="edge">
<title>h5py&#45;&gt;openmc</title>
<path fill="none" stroke="black" d="M888.51,-448.88C974.63,-447.99 1217.38,-441.41 1280,-396 1300.14,-381.39 1310.96,-354.61 1316.54,-334.22"/>
<polygon fill="black" stroke="black" points="1320.01,-334.79 1319.01,-324.25 1313.21,-333.12 1320.01,-334.79"/>
</g>
<!-- rsgislib -->
<g id="node9" class="node">
<title>rsgislib</title>
<g id="a_node9"><a xlink:href="https://github.com/conda-forge/rsgislib-feedstock" xlink:title="rsgislib">
<ellipse fill="#fde725" stroke="black" cx="251" cy="-234" rx="50.09" ry="18"/>
<text text-anchor="middle" x="251" y="-230.3" font-family="Times,serif" font-size="14.00">rsgislib</text>
</a>
</g>
</g>
<!-- h5py&#45;&gt;rsgislib -->
<g id="edge9" class="edge">
<title>h5py&#45;&gt;rsgislib</title>
<path fill="none" stroke="black" d="M827.64,-447.86C719.34,-443.57 356.16,-426.96 315,-396 272.34,-363.91 258.07,-298.93 253.33,-262.09"/>
<polygon fill="black" stroke="black" points="256.8,-261.6 252.19,-252.06 249.84,-262.39 256.8,-261.6"/>
</g>
<!-- h5utils -->
<g id="node10" class="node">
<title>h5utils</title>
<g id="a_node10"><a xlink:href="https://github.com/conda-forge/h5utils-feedstock" xlink:title="h5utils">
<ellipse fill="#fde725" stroke="black" cx="294" cy="-162" rx="45" ry="18"/>
<text text-anchor="middle" x="294" y="-158.3" font-family="Times,serif" font-size="14.00">h5utils</text>
</a>
</g>
</g>
<!-- h5py&#45;&gt;h5utils -->
<g id="edge10" class="edge">
<title>h5py&#45;&gt;h5utils</title>
<path fill="none" stroke="black" d="M827.49,-447.82C723.7,-443.55 388.78,-427.4 353,-396 291.19,-341.74 331.45,-295.4 310,-216 307.68,-207.42 304.95,-198.13 302.41,-189.76"/>
<polygon fill="black" stroke="black" points="305.73,-188.64 299.44,-180.11 299.04,-190.7 305.73,-188.64"/>
</g>
<!-- pymeep -->
<g id="node11" class="node">
<title>pymeep</title>
<g id="a_node11"><a xlink:href="https://github.com/conda-forge/pymeep-feedstock" xlink:title="pymeep">
<ellipse fill="#fde725" stroke="black" cx="318" cy="-90" rx="40.5" ry="18"/>
<text text-anchor="middle" x="318" y="-86.3" font-family="Times,serif" font-size="14.00">pymeep</text>
</a>
</g>
</g>
<!-- h5py&#45;&gt;pymeep -->
<g id="edge11" class="edge">
<title>h5py&#45;&gt;pymeep</title>
<path fill="none" stroke="black" d="M827.66,-446.85C720.61,-438.45 367,-403.39 367,-307 367,-307 367,-307 367,-233 367,-192.55 362.35,-181.82 348,-144 344.42,-134.56 339.34,-124.79 334.37,-116.25"/>
<polygon fill="black" stroke="black" points="337.27,-114.29 329.1,-107.54 331.28,-117.91 337.27,-114.29"/>
</g>
<!-- blosc&#45;hdf5&#45;plugin -->
<g id="node12" class="node">
<title>blosc&#45;hdf5&#45;plugin</title>
<g id="a_node12"><a xlink:href="https://github.com/conda-forge/blosc-hdf5-plugin-feedstock" xlink:title="blosc hdf5 plugin">
<ellipse fill="#fde725" stroke="black" cx="509" cy="-90" rx="93.68" ry="18"/>
<text text-anchor="middle" x="509" y="-86.3" font-family="Times,serif" font-size="14.00">blosc hdf5 plugin</text>
</a>
</g>
</g>
<!-- h5py&#45;&gt;blosc&#45;hdf5&#45;plugin -->
<g id="edge12" class="edge">
<title>h5py&#45;&gt;blosc&#45;hdf5&#45;plugin</title>
<path fill="none" stroke="black" d="M827.38,-448.5C750.6,-445.48 556,-426.06 556,-307 556,-307 556,-307 556,-233 556,-190.96 537.2,-145.29 523.38,-117.41"/>
<polygon fill="black" stroke="black" points="526.4,-115.63 518.74,-108.32 520.17,-118.82 526.4,-115.63"/>
</g>
<!-- isce2 -->
<g id="node13" class="node">
<title>isce2</title>
<g id="a_node13"><a xlink:href="https://github.com/conda-forge/isce2-feedstock" xlink:title="isce2">
<ellipse fill="#fde725" stroke="black" cx="656" cy="-90" rx="35.19" ry="18"/>
<text text-anchor="middle" x="656" y="-86.3" font-family="Times,serif" font-size="14.00">isce2</text>
</a>
</g>
</g>
<!-- h5py&#45;&gt;isce2 -->
<g id="edge13" class="edge">
<title>h5py&#45;&gt;isce2</title>
<path fill="none" stroke="black" d="M828.34,-445.02C778.36,-437.72 680.47,-420.62 657,-396 629.09,-366.73 638,-347.45 638,-307 638,-307 638,-307 638,-233 638,-192.68 645.23,-146.42 650.53,-117.95"/>
<polygon fill="black" stroke="black" points="654,-118.44 652.44,-107.96 647.12,-117.12 654,-118.44"/>
</g>
<!-- bitshuffle -->
<g id="node14" class="node">
<title>bitshuffle</title>
<g id="a_node14"><a xlink:href="https://github.com/conda-forge/bitshuffle-feedstock" xlink:title="bitshuffle">
<ellipse fill="#fde725" stroke="black" cx="726" cy="-378" rx="60" ry="18"/>
<text text-anchor="middle" x="726" y="-374.3" font-family="Times,serif" font-size="14.00">bitshuffle</text>
</a>
</g>
</g>
<!-- h5py&#45;&gt;bitshuffle -->
<g id="edge14" class="edge">
<title>h5py&#45;&gt;bitshuffle</title>
<path fill="none" stroke="black" d="M835.91,-437.28C816.08,-426.77 786.58,-411.13 763.13,-398.69"/>
<polygon fill="black" stroke="black" points="764.63,-395.52 754.15,-393.93 761.35,-401.71 764.63,-395.52"/>
</g>
<!-- triqs -->
<g id="node15" class="node">
<title>triqs</title>
<g id="a_node15"><a xlink:href="https://github.com/conda-forge/triqs-feedstock" xlink:title="triqs">
<ellipse fill="#fde725" stroke="black" cx="814" cy="-162" rx="35.19" ry="18"/>
<text text-anchor="middle" x="814" y="-158.3" font-family="Times,serif" font-size="14.00">triqs</text>
</a>
</g>
</g>
<!-- h5py&#45;&gt;triqs -->
<g id="edge15" class="edge">
<title>h5py&#45;&gt;triqs</title>
<path fill="none" stroke="black" d="M854.17,-432.09C848.85,-408.14 839.18,-362.91 833,-324 825.58,-277.25 819.71,-222.45 816.55,-190.34"/>
<polygon fill="black" stroke="black" points="820,-189.6 815.55,-179.98 813.03,-190.27 820,-189.6"/>
</g>
<!-- hdf5plugin -->
<g id="node16" class="node">
<title>hdf5plugin</title>
<g id="a_node16"><a xlink:href="https://github.com/conda-forge/hdf5plugin-feedstock" xlink:title="hdf5plugin">
<ellipse fill="#fde725" stroke="black" cx="902" cy="-306" rx="60" ry="18"/>
<text text-anchor="middle" x="902" y="-302.3" font-family="Times,serif" font-size="14.00">hdf5plugin</text>
</a>
</g>
</g>
<!-- h5py&#45;&gt;hdf5plugin -->
<g id="edge16" class="edge">
<title>h5py&#45;&gt;hdf5plugin</title>
<path fill="none" stroke="black" d="M863.22,-432.15C870.72,-407.94 884.63,-363.05 893.59,-334.13"/>
<polygon fill="black" stroke="black" points="897.03,-334.86 896.65,-324.27 890.35,-332.78 897.03,-334.86"/>
</g>
<!-- prismatic_split -->
<g id="node17" class="node">
<title>prismatic_split</title>
<g id="a_node17"><a xlink:href="https://github.com/conda-forge/prismatic_split-feedstock" xlink:title="prismatic_split">
<ellipse fill="#fde725" stroke="black" cx="990" cy="-234" rx="84" ry="18"/>
<text text-anchor="middle" x="990" y="-230.3" font-family="Times,serif" font-size="14.00">prismatic_split</text>
</a>
</g>
</g>
<!-- h5py&#45;&gt;prismatic_split -->
<g id="edge17" class="edge">
<title>h5py&#45;&gt;prismatic_split</title>
<path fill="none" stroke="black" d="M875.63,-434.89C900.9,-413.64 947.03,-370.88 971,-324 980.86,-304.71 985.61,-280.56 987.89,-262.28"/>
<polygon fill="black" stroke="black" points="991.38,-262.6 988.97,-252.28 984.42,-261.85 991.38,-262.6"/>
</g>
<!-- digital_rf -->
<g id="node18" class="node">
<title>digital_rf</title>
<g id="a_node18"><a xlink:href="https://github.com/conda-forge/digital_rf-feedstock" xlink:title="digital_rf">
<ellipse fill="#fde725" stroke="black" cx="1069" cy="-162" rx="60" ry="18"/>
<text text-anchor="middle" x="1069" y="-158.3" font-family="Times,serif" font-size="14.00">digital_rf</text>
</a>
</g>
</g>
<!-- h5py&#45;&gt;digital_rf -->
<g id="edge18" class="edge">
<title>h5py&#45;&gt;digital_rf</title>
<path fill="none" stroke="black" d="M881.17,-438.13C930.54,-413.43 1044.75,-347.7 1083,-252 1091,-232 1086.34,-207.75 1080.32,-189.63"/>
<polygon fill="black" stroke="black" points="1083.52,-188.19 1076.81,-179.99 1076.95,-190.59 1083.52,-188.19"/>
</g>
<!-- pp&#45;sketchlib -->
<g id="node19" class="node">
<title>pp&#45;sketchlib</title>
<g id="a_node19"><a xlink:href="https://github.com/conda-forge/pp-sketchlib-feedstock" xlink:title="pp sketchlib">
<ellipse fill="#fde725" stroke="black" cx="1117" cy="-90" rx="69.59" ry="18"/>
<text text-anchor="middle" x="1117" y="-86.3" font-family="Times,serif" font-size="14.00">pp sketchlib</text>
</a>
</g>
</g>
<!-- h5py&#45;&gt;pp&#45;sketchlib -->
<g id="edge19" class="edge">
<title>h5py&#45;&gt;pp&#45;sketchlib</title>
<path fill="none" stroke="black" d="M885.28,-441.69C913.32,-433.39 957.47,-418.08 991,-396 1028.8,-371.11 1036.24,-360.49 1063,-324 1105.68,-265.81 1120.84,-250.09 1138,-180 1141.8,-164.46 1141,-159.72 1138,-144 1136.29,-135.06 1133.1,-125.7 1129.71,-117.37"/>
<polygon fill="black" stroke="black" points="1132.91,-115.95 1125.72,-108.17 1126.49,-118.73 1132.91,-115.95"/>
</g>
<!-- openmc&#45;&gt;conda&#45;forge&#45;pinning -->
<g id="edge20" class="edge">
<title>openmc&#45;&gt;conda&#45;forge&#45;pinning</title>
<path fill="none" stroke="black" d="M1319.02,-287.97C1310.67,-240.19 1286.97,-104.62 1276.77,-46.27"/>
<polygon fill="black" stroke="black" points="1280.2,-45.55 1275.03,-36.31 1273.3,-46.76 1280.2,-45.55"/>
</g>
<!-- rsgislib&#45;&gt;conda&#45;forge&#45;pinning -->
<g id="edge21" class="edge">
<title>rsgislib&#45;&gt;conda&#45;forge&#45;pinning</title>
<path fill="none" stroke="black" d="M244.62,-215.93C233.26,-182.2 214.37,-107.22 256,-72 290.04,-43.21 902.51,-26.86 1159.72,-21.24"/>
<polygon fill="black" stroke="black" points="1159.91,-24.74 1169.84,-21.02 1159.76,-17.74 1159.91,-24.74"/>
</g>
<!-- h5utils&#45;&gt;conda&#45;forge&#45;pinning -->
<g id="edge22" class="edge">
<title>h5utils&#45;&gt;conda&#45;forge&#45;pinning</title>
<path fill="none" stroke="black" d="M281.04,-144.69C267.02,-124.97 249.06,-91.97 268,-72 298.27,-40.09 903.25,-25.58 1159.2,-20.84"/>
<polygon fill="black" stroke="black" points="1159.33,-24.34 1169.26,-20.66 1159.2,-17.34 1159.33,-24.34"/>
</g>
<!-- h5utils&#45;&gt;pymeep -->
<g id="edge23" class="edge">
<title>h5utils&#45;&gt;pymeep</title>
<path fill="none" stroke="black" d="M299.81,-144.05C302.51,-136.18 305.79,-126.62 308.81,-117.79"/>
<polygon fill="black" stroke="black" points="312.14,-118.87 312.08,-108.28 305.52,-116.6 312.14,-118.87"/>
</g>
<!-- pymeep&#45;&gt;conda&#45;forge&#45;pinning -->
<g id="edge24" class="edge">
<title>pymeep&#45;&gt;conda&#45;forge&#45;pinning</title>
<path fill="none" stroke="black" d="M348.51,-78.14C356.4,-75.73 364.94,-73.46 373,-72 520.98,-45.17 954.23,-28.74 1160.44,-22.22"/>
<polygon fill="black" stroke="black" points="1160.8,-25.71 1170.69,-21.9 1160.58,-18.72 1160.8,-25.71"/>
</g>
<!-- blosc&#45;hdf5&#45;plugin&#45;&gt;conda&#45;forge&#45;pinning -->
<g id="edge25" class="edge">
<title>blosc&#45;hdf5&#45;plugin&#45;&gt;conda&#45;forge&#45;pinning</title>
<path fill="none" stroke="black" d="M575.09,-77.25C587.34,-75.32 600.04,-73.46 612,-72 806.19,-48.22 1033.88,-32.63 1164.7,-24.86"/>
<polygon fill="black" stroke="black" points="1164.95,-28.35 1174.73,-24.26 1164.54,-21.36 1164.95,-28.35"/>
</g>
<!-- isce2&#45;&gt;conda&#45;forge&#45;pinning -->
<g id="edge26" class="edge">
<title>isce2&#45;&gt;conda&#45;forge&#45;pinning</title>
<path fill="none" stroke="black" d="M682.88,-78.37C689.98,-75.93 697.7,-73.58 705,-72 860.46,-38.28 1044.47,-26.01 1159.74,-21.55"/>
<polygon fill="black" stroke="black" points="1160.13,-25.04 1169.99,-21.17 1159.87,-18.04 1160.13,-25.04"/>
</g>
<!-- bitshuffle&#45;&gt;conda&#45;forge&#45;pinning -->
<g id="edge27" class="edge">
<title>bitshuffle&#45;&gt;conda&#45;forge&#45;pinning</title>
<path fill="none" stroke="black" d="M724.62,-359.96C722.58,-333.32 719,-280.17 719,-235 719,-235 719,-235 719,-161 719,-120.46 708.64,-98.87 739,-72 769.94,-44.62 1014.84,-29.71 1161.68,-23.15"/>
<polygon fill="black" stroke="black" points="1162.25,-26.63 1172.08,-22.7 1161.94,-19.64 1162.25,-26.63"/>
</g>
<!-- triqs&#45;&gt;conda&#45;forge&#45;pinning -->
<g id="edge28" class="edge">
<title>triqs&#45;&gt;conda&#45;forge&#45;pinning</title>
<path fill="none" stroke="black" d="M833.81,-146.93C848.41,-136.43 868.67,-121.61 886,-108 905.6,-92.6 906.29,-82.28 929,-72 1001.33,-39.25 1090.07,-26.17 1159.17,-21.19"/>
<polygon fill="black" stroke="black" points="1159.48,-24.68 1169.22,-20.52 1159.01,-17.7 1159.48,-24.68"/>
</g>
<!-- triqs_cthyb -->
<g id="node20" class="node">
<title>triqs_cthyb</title>
<g id="a_node20"><a xlink:href="https://github.com/conda-forge/triqs_cthyb-feedstock" xlink:title="triqs_cthyb">
<ellipse fill="#fde725" stroke="black" cx="812" cy="-90" rx="64.5" ry="18"/>
<text text-anchor="middle" x="812" y="-86.3" font-family="Times,serif" font-size="14.00">triqs_cthyb</text>
</a>
</g>
</g>
<!-- triqs&#45;&gt;triqs_cthyb -->
<g id="edge29" class="edge">
<title>triqs&#45;&gt;triqs_cthyb</title>
<path fill="none" stroke="black" d="M813.51,-143.7C813.29,-135.98 813.02,-126.71 812.77,-118.11"/>
<polygon fill="black" stroke="black" points="816.27,-118 812.49,-108.1 809.28,-118.2 816.27,-118"/>
</g>
<!-- hdf5plugin&#45;&gt;conda&#45;forge&#45;pinning -->
<g id="edge30" class="edge">
<title>hdf5plugin&#45;&gt;conda&#45;forge&#45;pinning</title>
<path fill="none" stroke="black" d="M897.52,-287.83C893.55,-269.57 889.46,-240.07 897,-216 920.29,-141.64 931.7,-114.51 997,-72 1026.31,-52.92 1109.53,-38.54 1176.8,-29.61"/>
<polygon fill="black" stroke="black" points="1177.57,-33.05 1187.03,-28.28 1176.66,-26.1 1177.57,-33.05"/>
</g>
<!-- prismatic_split&#45;&gt;conda&#45;forge&#45;pinning -->
<g id="edge31" class="edge">
<title>prismatic_split&#45;&gt;conda&#45;forge&#45;pinning</title>
<path fill="none" stroke="black" d="M988.07,-215.9C985.36,-182.46 984.79,-108.47 1027,-72 1049.65,-52.43 1118.68,-38.59 1177.72,-29.97"/>
<polygon fill="black" stroke="black" points="1178.45,-33.41 1187.86,-28.53 1177.46,-26.48 1178.45,-33.41"/>
</g>
<!-- digital_rf&#45;&gt;conda&#45;forge&#45;pinning -->
<g id="edge32" class="edge">
<title>digital_rf&#45;&gt;conda&#45;forge&#45;pinning</title>
<path fill="none" stroke="black" d="M1054.45,-144.29C1039.56,-125.09 1020.84,-93.48 1038,-72 1055.32,-50.32 1118.01,-36.85 1174.14,-28.92"/>
<polygon fill="black" stroke="black" points="1174.73,-32.37 1184.17,-27.55 1173.79,-25.43 1174.73,-32.37"/>
</g>
<!-- pp&#45;sketchlib&#45;&gt;conda&#45;forge&#45;pinning -->
<g id="edge33" class="edge">
<title>pp&#45;sketchlib&#45;&gt;conda&#45;forge&#45;pinning</title>
<path fill="none" stroke="black" d="M1150.25,-73.98C1172.81,-63.8 1202.89,-50.21 1227.51,-39.09"/>
<polygon fill="black" stroke="black" points="1228.97,-42.27 1236.65,-34.97 1226.09,-35.89 1228.97,-42.27"/>
</g>
<!-- triqs_cthyb&#45;&gt;conda&#45;forge&#45;pinning -->
<g id="edge55" class="edge">
<title>triqs_cthyb&#45;&gt;conda&#45;forge&#45;pinning</title>
<path fill="none" stroke="black" d="M860.35,-78C870.45,-75.87 881.05,-73.76 891,-72 988.71,-54.72 1101.34,-39.64 1178.66,-30.03"/>
<polygon fill="black" stroke="black" points="1179.36,-33.47 1188.85,-28.77 1178.5,-26.53 1179.36,-33.47"/>
</g>
<!-- hdfeos5 -->
<g id="node21" class="node">
<title>hdfeos5</title>
<g id="a_node21"><a xlink:href="https://github.com/conda-forge/hdfeos5-feedstock/pull/27" xlink:title="hdfeos5">
<ellipse fill="#31688e" stroke="black" cx="1398" cy="-234" rx="45" ry="18"/>
<text text-anchor="middle" x="1398" y="-230.3" font-family="Times,serif" font-size="14.00" fill="white">hdfeos5</text>
</a>
</g>
</g>
<!-- hdfeos5&#45;&gt;conda&#45;forge&#45;pinning -->
<g id="edge34" class="edge">
<title>hdfeos5&#45;&gt;conda&#45;forge&#45;pinning</title>
<path fill="none" stroke="black" d="M1403.71,-215.73C1413,-184.2 1427.54,-116.47 1398,-72 1386.55,-54.76 1368.27,-43.11 1349.15,-35.25"/>
<polygon fill="black" stroke="black" points="1350.31,-31.95 1339.72,-31.69 1347.84,-38.5 1350.31,-31.95"/>
</g>
<!-- ncl -->
<g id="node22" class="node">
<title>ncl</title>
<g id="a_node22"><a xlink:href="https://github.com/conda-forge/ncl-feedstock" xlink:title="ncl">
<ellipse fill="#fde725" stroke="black" cx="1453" cy="-162" rx="27" ry="18"/>
<text text-anchor="middle" x="1453" y="-158.3" font-family="Times,serif" font-size="14.00">ncl</text>
</a>
</g>
</g>
<!-- hdfeos5&#45;&gt;ncl -->
<g id="edge35" class="edge">
<title>hdfeos5&#45;&gt;ncl</title>
<path fill="none" stroke="black" d="M1411.03,-216.41C1418.01,-207.53 1426.73,-196.44 1434.4,-186.67"/>
<polygon fill="black" stroke="black" points="1437.39,-188.54 1440.81,-178.51 1431.88,-184.21 1437.39,-188.54"/>
</g>
<!-- pynio -->
<g id="node23" class="node">
<title>pynio</title>
<g id="a_node23"><a xlink:href="https://github.com/conda-forge/pynio-feedstock" xlink:title="pynio">
<ellipse fill="#fde725" stroke="black" cx="1354" cy="-90" rx="35.19" ry="18"/>
<text text-anchor="middle" x="1354" y="-86.3" font-family="Times,serif" font-size="14.00">pynio</text>
</a>
</g>
</g>
<!-- hdfeos5&#45;&gt;pynio -->
<g id="edge36" class="edge">
<title>hdfeos5&#45;&gt;pynio</title>
<path fill="none" stroke="black" d="M1392.69,-215.87C1385.16,-191.56 1371.3,-146.82 1362.37,-118.01"/>
<polygon fill="black" stroke="black" points="1365.63,-116.71 1359.33,-108.19 1358.94,-118.78 1365.63,-116.71"/>
</g>
<!-- ncl&#45;&gt;conda&#45;forge&#45;pinning -->
<g id="edge37" class="edge">
<title>ncl&#45;&gt;conda&#45;forge&#45;pinning</title>
<path fill="none" stroke="black" d="M1453.43,-144C1452.99,-124.22 1449.25,-91.76 1431,-72 1412.88,-52.38 1387.32,-40.02 1361.98,-32.23"/>
<polygon fill="black" stroke="black" points="1362.87,-28.84 1352.29,-29.46 1360.95,-35.58 1362.87,-28.84"/>
</g>
<!-- pynio&#45;&gt;conda&#45;forge&#45;pinning -->
<g id="edge38" class="edge">
<title>pynio&#45;&gt;conda&#45;forge&#45;pinning</title>
<path fill="none" stroke="black" d="M1336.61,-74.15C1325.81,-64.94 1311.7,-52.89 1299.42,-42.41"/>
<polygon fill="black" stroke="black" points="1301.55,-39.62 1291.67,-35.79 1297,-44.94 1301.55,-39.62"/>
</g>
<!-- hyperion&#45;fortran -->
<g id="node24" class="node">
<title>hyperion&#45;fortran</title>
<g id="a_node24"><a xlink:href="https://github.com/conda-forge/hyperion-fortran-feedstock/pull/18" xlink:title="hyperion fortran">
<ellipse fill="#31688e" stroke="black" cx="1508" cy="-378" rx="89.08" ry="18"/>
<text text-anchor="middle" x="1508" y="-374.3" font-family="Times,serif" font-size="14.00" fill="white">hyperion fortran</text>
</a>
</g>
</g>
<!-- hyperion&#45;fortran&#45;&gt;conda&#45;forge&#45;pinning -->
<g id="edge39" class="edge">
<title>hyperion&#45;fortran&#45;&gt;conda&#45;forge&#45;pinning</title>
<path fill="none" stroke="black" d="M1511.38,-359.92C1520.72,-307.07 1540.74,-145.31 1453,-72 1428.29,-51.35 1395.84,-38.75 1365.26,-31.05"/>
<polygon fill="black" stroke="black" points="1365.95,-27.62 1355.41,-28.72 1364.34,-34.43 1365.95,-27.62"/>
</g>
<!-- marray -->
<g id="node25" class="node">
<title>marray</title>
<g id="a_node25"><a xlink:href="https://github.com/conda-forge/marray-feedstock/pull/8" xlink:title="marray">
<ellipse fill="#31688e" stroke="black" cx="1562" cy="-90" rx="40.5" ry="18"/>
<text text-anchor="middle" x="1562" y="-86.3" font-family="Times,serif" font-size="14.00" fill="white">marray</text>
</a>
</g>
</g>
<!-- marray&#45;&gt;conda&#45;forge&#45;pinning -->
<g id="edge40" class="edge">
<title>marray&#45;&gt;conda&#45;forge&#45;pinning</title>
<path fill="none" stroke="black" d="M1530.13,-78.69C1522.58,-76.37 1514.53,-74.01 1507,-72 1453.64,-57.76 1392.79,-44.11 1346.39,-34.23"/>
<polygon fill="black" stroke="black" points="1346.92,-30.76 1336.41,-32.11 1345.47,-37.61 1346.92,-30.76"/>
</g>
<!-- pyne -->
<g id="node26" class="node">
<title>pyne</title>
<g id="a_node26"><a xlink:href="https://github.com/conda-forge/pyne-feedstock/pull/40" xlink:title="pyne">
<ellipse fill="#31688e" stroke="black" cx="1610" cy="-162" rx="30.59" ry="18"/>
<text text-anchor="middle" x="1610" y="-158.3" font-family="Times,serif" font-size="14.00" fill="white">pyne</text>
</a>
</g>
</g>
<!-- pyne&#45;&gt;conda&#45;forge&#45;pinning -->
<g id="edge41" class="edge">
<title>pyne&#45;&gt;conda&#45;forge&#45;pinning</title>
<path fill="none" stroke="black" d="M1616.31,-144.37C1622.6,-124.66 1629.09,-91.96 1612,-72 1582.96,-38.08 1471.9,-25.7 1384.51,-21.27"/>
<polygon fill="black" stroke="black" points="1384.67,-17.78 1374.52,-20.8 1384.34,-24.77 1384.67,-17.78"/>
</g>
<!-- r&#45;hdf5r -->
<g id="node27" class="node">
<title>r&#45;hdf5r</title>
<g id="a_node27"><a xlink:href="https://github.com/conda-forge/r-hdf5r-feedstock/pull/12" xlink:title="r hdf5r">
<ellipse fill="#31688e" stroke="black" cx="1634" cy="-234" rx="45" ry="18"/>
<text text-anchor="middle" x="1634" y="-230.3" font-family="Times,serif" font-size="14.00" fill="white">r hdf5r</text>
</a>
</g>
</g>
<!-- r&#45;hdf5r&#45;&gt;conda&#45;forge&#45;pinning -->
<g id="edge42" class="edge">
<title>r&#45;hdf5r&#45;&gt;conda&#45;forge&#45;pinning</title>
<path fill="none" stroke="black" d="M1640.49,-216.12C1652.11,-182.73 1671.63,-108.34 1631,-72 1595.24,-40.02 1474.98,-27.33 1383.41,-22.3"/>
<polygon fill="black" stroke="black" points="1383.41,-18.8 1373.24,-21.77 1383.04,-25.79 1383.41,-18.8"/>
</g>
<!-- shogun -->
<g id="node28" class="node">
<title>shogun</title>
<g id="a_node28"><a xlink:href="https://github.com/conda-forge/shogun-feedstock/pull/20" xlink:title="shogun">
<ellipse fill="#31688e" stroke="black" cx="1676" cy="-306" rx="40.5" ry="18"/>
<text text-anchor="middle" x="1676" y="-302.3" font-family="Times,serif" font-size="14.00" fill="white">shogun</text>
</a>
</g>
</g>
<!-- shogun&#45;&gt;conda&#45;forge&#45;pinning -->
<g id="edge43" class="edge">
<title>shogun&#45;&gt;conda&#45;forge&#45;pinning</title>
<path fill="none" stroke="black" d="M1681.06,-287.96C1692.82,-244.38 1716.55,-128.37 1655,-72 1616.47,-36.71 1483.2,-24.74 1384.65,-20.78"/>
<polygon fill="black" stroke="black" points="1384.75,-17.28 1374.62,-20.4 1384.48,-24.28 1384.75,-17.28"/>
</g>
<!-- yaafe -->
<g id="node29" class="node">
<title>yaafe</title>
<g id="a_node29"><a xlink:href="https://github.com/conda-forge/yaafe-feedstock/pull/9" xlink:title="yaafe">
<ellipse fill="#31688e" stroke="black" cx="1745" cy="-378" rx="35.19" ry="18"/>
<text text-anchor="middle" x="1745" y="-374.3" font-family="Times,serif" font-size="14.00" fill="white">yaafe</text>
</a>
</g>
</g>
<!-- yaafe&#45;&gt;conda&#45;forge&#45;pinning -->
<g id="edge44" class="edge">
<title>yaafe&#45;&gt;conda&#45;forge&#45;pinning</title>
<path fill="none" stroke="black" d="M1745,-359.95C1745,-333.29 1745,-280.11 1745,-235 1745,-235 1745,-235 1745,-161 1745,-112.28 1722.84,-96.97 1681,-72 1632.06,-42.79 1485.82,-29.41 1382.22,-23.47"/>
<polygon fill="black" stroke="black" points="1382.2,-19.97 1372.02,-22.9 1381.81,-26.96 1382.2,-19.97"/>
</g>
<!-- alps -->
<g id="node30" class="node">
<title>alps</title>
<g id="a_node30"><a xlink:href="https://github.com/conda-forge/alps-feedstock/pull/31" xlink:title="alps">
<ellipse fill="#31688e" stroke="black" cx="1804" cy="-90" rx="30.59" ry="18"/>
<text text-anchor="middle" x="1804" y="-86.3" font-family="Times,serif" font-size="14.00" fill="white">alps</text>
</a>
</g>
</g>
<!-- alps&#45;&gt;conda&#45;forge&#45;pinning -->
<g id="edge45" class="edge">
<title>alps&#45;&gt;conda&#45;forge&#45;pinning</title>
<path fill="none" stroke="black" d="M1780.06,-78.68C1773.36,-76.14 1765.99,-73.67 1759,-72 1632.05,-41.63 1482.28,-28.63 1382.68,-23.08"/>
<polygon fill="black" stroke="black" points="1382.77,-19.58 1372.59,-22.54 1382.39,-26.57 1382.77,-19.58"/>
</g>
<!-- spdlib -->
<g id="node31" class="node">
<title>spdlib</title>
<g id="a_node31"><a xlink:href="https://github.com/conda-forge/spdlib-feedstock/pull/15" xlink:title="spdlib">
<ellipse fill="#31688e" stroke="black" cx="1863" cy="-162" rx="40.5" ry="18"/>
<text text-anchor="middle" x="1863" y="-158.3" font-family="Times,serif" font-size="14.00" fill="white">spdlib</text>
</a>
</g>
</g>
<!-- spdlib&#45;&gt;conda&#45;forge&#45;pinning -->
<g id="edge46" class="edge">
<title>spdlib&#45;&gt;conda&#45;forge&#45;pinning</title>
<path fill="none" stroke="black" d="M1864.79,-144.02C1865.89,-123.63 1864.2,-89.95 1844,-72 1810.37,-42.12 1540.05,-28.03 1383.36,-22.32"/>
<polygon fill="black" stroke="black" points="1383.32,-18.82 1373.2,-21.95 1383.07,-25.81 1383.32,-18.82"/>
</g>
<!-- mpb -->
<g id="node32" class="node">
<title>mpb</title>
<g id="a_node32"><a xlink:href="https://github.com/conda-forge/mpb-feedstock/pull/22" xlink:title="mpb">
<ellipse fill="#31688e" stroke="black" cx="422" cy="-162" rx="27" ry="18"/>
<text text-anchor="middle" x="422" y="-158.3" font-family="Times,serif" font-size="14.00" fill="white">mpb</text>
</a>
</g>
</g>
<!-- mpb&#45;&gt;conda&#45;forge&#45;pinning -->
<g id="edge47" class="edge">
<title>mpb&#45;&gt;conda&#45;forge&#45;pinning</title>
<path fill="none" stroke="black" d="M411.99,-144.89C401.08,-125.08 387.5,-91.67 406,-72 431.44,-44.95 931.65,-28.12 1160.02,-21.82"/>
<polygon fill="black" stroke="black" points="1160.45,-25.31 1170.35,-21.54 1160.26,-18.31 1160.45,-25.31"/>
</g>
<!-- mpb&#45;&gt;pymeep -->
<g id="edge48" class="edge">
<title>mpb&#45;&gt;pymeep</title>
<path fill="none" stroke="black" d="M403.41,-148.49C387.94,-138.08 365.64,-123.07 347.71,-110.99"/>
<polygon fill="black" stroke="black" points="349.55,-108.02 339.3,-105.34 345.64,-113.82 349.55,-108.02"/>
</g>
<!-- openpmd&#45;api -->
<g id="node33" class="node">
<title>openpmd&#45;api</title>
<g id="a_node33"><a xlink:href="https://github.com/conda-forge/openpmd-api-feedstock" xlink:title="openpmd api">
<ellipse fill="#fde725" stroke="black" cx="1994" cy="-90" rx="64.5" ry="18"/>
<text text-anchor="middle" x="1994" y="-86.3" font-family="Times,serif" font-size="14.00">openpmd api</text>
</a>
</g>
</g>
<!-- openpmd&#45;api&#45;&gt;conda&#45;forge&#45;pinning -->
<g id="edge49" class="edge">
<title>openpmd&#45;api&#45;&gt;conda&#45;forge&#45;pinning</title>
<path fill="none" stroke="black" d="M1946.56,-77.75C1936.2,-75.58 1925.27,-73.52 1915,-72 1728.77,-44.41 1509.92,-30.2 1381.55,-23.7"/>
<polygon fill="black" stroke="black" points="1381.48,-20.19 1371.32,-23.19 1381.13,-27.18 1381.48,-20.19"/>
</g>
<!-- cmor -->
<g id="node34" class="node">
<title>cmor</title>
<g id="a_node34"><a xlink:href="https://github.com/conda-forge/cmor-feedstock/pull/23" xlink:title="cmor">
<ellipse fill="#31688e" stroke="black" cx="2066" cy="-234" rx="30.59" ry="18"/>
<text text-anchor="middle" x="2066" y="-230.3" font-family="Times,serif" font-size="14.00" fill="white">cmor</text>
</a>
</g>
</g>
<!-- cmor&#45;&gt;conda&#45;forge&#45;pinning -->
<g id="edge50" class="edge">
<title>cmor&#45;&gt;conda&#45;forge&#45;pinning</title>
<path fill="none" stroke="black" d="M2072.81,-216.21C2084.8,-183.64 2105.05,-111.6 2068,-72 2022.44,-23.3 1594.9,-17.88 1385.91,-18.18"/>
<polygon fill="black" stroke="black" points="1385.82,-14.68 1375.82,-18.2 1385.83,-21.68 1385.82,-14.68"/>
</g>
<!-- scilab -->
<g id="node35" class="node">
<title>scilab</title>
<g id="a_node35"><a xlink:href="https://github.com/conda-forge/scilab-feedstock/pull/12" xlink:title="scilab">
<ellipse fill="#31688e" stroke="black" cx="2094" cy="-306" rx="40.5" ry="18"/>
<text text-anchor="middle" x="2094" y="-302.3" font-family="Times,serif" font-size="14.00" fill="white">scilab</text>
</a>
</g>
</g>
<!-- scilab&#45;&gt;conda&#45;forge&#45;pinning -->
<g id="edge51" class="edge">
<title>scilab&#45;&gt;conda&#45;forge&#45;pinning</title>
<path fill="none" stroke="black" d="M2100.7,-287.98C2116.61,-244.47 2150.9,-128.6 2090,-72 2039.61,-25.18 1598.79,-18.85 1385.99,-18.56"/>
<polygon fill="black" stroke="black" points="1385.73,-15.06 1375.72,-18.55 1385.72,-22.06 1385.73,-15.06"/>
</g>
<!-- adios2 -->
<g id="node36" class="node">
<title>adios2</title>
<g id="a_node36"><a xlink:href="https://github.com/conda-forge/adios2-feedstock/pull/11" xlink:title="adios2">
<ellipse fill="#31688e" stroke="black" cx="1978" cy="-162" rx="40.5" ry="18"/>
<text text-anchor="middle" x="1978" y="-158.3" font-family="Times,serif" font-size="14.00" fill="white">adios2</text>
</a>
</g>
</g>
<!-- adios2&#45;&gt;conda&#45;forge&#45;pinning -->
<g id="edge52" class="edge">
<title>adios2&#45;&gt;conda&#45;forge&#45;pinning</title>
<path fill="none" stroke="black" d="M1961.19,-145.47C1935.68,-122.29 1887.97,-80.43 1867,-72 1782.11,-37.86 1531.58,-25.61 1384.07,-21.28"/>
<polygon fill="black" stroke="black" points="1384.17,-17.79 1374.07,-21 1383.97,-24.78 1384.17,-17.79"/>
</g>
<!-- adios2&#45;&gt;openpmd&#45;api -->
<g id="edge53" class="edge">
<title>adios2&#45;&gt;openpmd&#45;api</title>
<path fill="none" stroke="black" d="M1981.87,-144.05C1983.65,-136.26 1985.81,-126.82 1987.81,-118.08"/>
<polygon fill="black" stroke="black" points="1991.24,-118.8 1990.05,-108.28 1984.41,-117.24 1991.24,-118.8"/>
</g>
<!-- bonsu -->
<g id="node37" class="node">
<title>bonsu</title>
<g id="a_node37"><a xlink:href="https://github.com/conda-forge/bonsu-feedstock/pull/5" xlink:title="bonsu">
<ellipse fill="#31688e" stroke="black" cx="2163" cy="-378" rx="35.19" ry="18"/>
<text text-anchor="middle" x="2163" y="-374.3" font-family="Times,serif" font-size="14.00" fill="white">bonsu</text>
</a>
</g>
</g>
<!-- bonsu&#45;&gt;conda&#45;forge&#45;pinning -->
<g id="edge54" class="edge">
<title>bonsu&#45;&gt;conda&#45;forge&#45;pinning</title>
<path fill="none" stroke="black" d="M2163,-359.95C2163,-333.29 2163,-280.11 2163,-235 2163,-235 2163,-235 2163,-161 2163,-116.27 2153.57,-96.28 2116,-72 2056.11,-33.29 1600.98,-22.81 1385.04,-20.01"/>
<polygon fill="black" stroke="black" points="1384.98,-16.51 1374.94,-19.88 1384.9,-23.5 1384.98,-16.51"/>
</g>
<!-- dagmc -->
<g id="node38" class="node">
<title>dagmc</title>
<g id="a_node38"><a xlink:href="https://github.com/conda-forge/dagmc-feedstock/pull/1" xlink:title="dagmc">
<ellipse fill="#31688e" stroke="black" cx="2226" cy="-90" rx="35.19" ry="18"/>
<text text-anchor="middle" x="2226" y="-86.3" font-family="Times,serif" font-size="14.00" fill="white">dagmc</text>
</a>
</g>
</g>
<!-- dagmc&#45;&gt;conda&#45;forge&#45;pinning -->
<g id="edge56" class="edge">
<title>dagmc&#45;&gt;conda&#45;forge&#45;pinning</title>
<path fill="none" stroke="black" d="M2199.16,-78.2C2192.06,-75.76 2184.33,-73.46 2177,-72 2028.35,-42.45 1591.14,-27.37 1383.69,-21.71"/>
<polygon fill="black" stroke="black" points="1383.77,-18.21 1373.68,-21.43 1383.58,-25.2 1383.77,-18.21"/>
</g>
<!-- nccmp -->
<g id="node39" class="node">
<title>nccmp</title>
<g id="a_node39"><a xlink:href="https://github.com/conda-forge/nccmp-feedstock/pull/2" xlink:title="nccmp">
<ellipse fill="#31688e" stroke="black" cx="2289" cy="-162" rx="35.19" ry="18"/>
<text text-anchor="middle" x="2289" y="-158.3" font-family="Times,serif" font-size="14.00" fill="white">nccmp</text>
</a>
</g>
</g>
<!-- nccmp&#45;&gt;conda&#45;forge&#45;pinning -->
<g id="edge57" class="edge">
<title>nccmp&#45;&gt;conda&#45;forge&#45;pinning</title>
<path fill="none" stroke="black" d="M2290.9,-143.88C2292.12,-123.36 2290.55,-89.54 2270,-72 2236.79,-43.64 1638.53,-27.11 1384.54,-21.34"/>
<polygon fill="black" stroke="black" points="1384.26,-17.83 1374.18,-21.11 1384.1,-24.83 1384.26,-17.83"/>
</g>
</g>
</svg>
