<?xml version="1.0" encoding="UTF-8" standalone="no"?>
<!DOCTYPE svg PUBLIC "-//W3C//DTD SVG 1.1//EN"
 "http://www.w3.org/Graphics/SVG/1.1/DTD/svg11.dtd">
<!-- Generated by graphviz version 2.42.3 (20191010.1750)
 -->
<!-- Title: %3 Pages: 1 -->
<svg width="1228pt" height="952pt"
 viewBox="0.00 0.00 1227.60 952.00" xmlns="http://www.w3.org/2000/svg" xmlns:xlink="http://www.w3.org/1999/xlink">
<g id="graph0" class="graph" transform="scale(1 1) rotate(0) translate(4 948)">
<title>%3</title>
<polygon fill="white" stroke="transparent" points="-4,4 -4,-948 1223.6,-948 1223.6,4 -4,4"/>
<!-- caffe -->
<g id="node1" class="node">
<title>caffe</title>
<g id="a_node1"><a xlink:href="https://github.com/conda-forge/caffe-feedstock" xlink:title="caffe">
<ellipse fill="#fde725" stroke="black" cx="35.1" cy="-674" rx="35.19" ry="18"/>
<text text-anchor="middle" x="35.1" y="-670.3" font-family="Times,serif" font-size="14.00">caffe</text>
</a>
</g>
</g>
<!-- cyclus -->
<g id="node2" class="node">
<title>cyclus</title>
<g id="a_node2"><a xlink:href="https://github.com/conda-forge/cyclus-feedstock/pull/56" xlink:title="cyclus">
<ellipse fill="#31688e" stroke="black" cx="1041.1" cy="-926" rx="40.5" ry="18"/>
<text text-anchor="middle" x="1041.1" y="-922.3" font-family="Times,serif" font-size="14.00" fill="white">cyclus</text>
</a>
</g>
</g>
<!-- fenics -->
<g id="node3" class="node">
<title>fenics</title>
<g id="a_node3"><a xlink:href="https://github.com/conda-forge/fenics-feedstock/pull/107" xlink:title="fenics">
<ellipse fill="#31688e" stroke="black" cx="1041.1" cy="-854" rx="40.5" ry="18"/>
<text text-anchor="middle" x="1041.1" y="-850.3" font-family="Times,serif" font-size="14.00" fill="white">fenics</text>
</a>
</g>
</g>
<!-- cyclus&#45;&gt;fenics -->
<!-- graph -->
<g id="node4" class="node">
<title>graph</title>
<g id="a_node4"><a xlink:href="https://github.com/conda-forge/graph-feedstock/pull/5" xlink:title="graph">
<ellipse fill="#31688e" stroke="black" cx="1041.1" cy="-782" rx="35.19" ry="18"/>
<text text-anchor="middle" x="1041.1" y="-778.3" font-family="Times,serif" font-size="14.00" fill="white">graph</text>
</a>
</g>
</g>
<!-- fenics&#45;&gt;graph -->
<!-- hyperion&#45;fortran -->
<g id="node5" class="node">
<title>hyperion&#45;fortran</title>
<g id="a_node5"><a xlink:href="https://github.com/conda-forge/hyperion-fortran-feedstock/pull/18" xlink:title="hyperion fortran">
<ellipse fill="#31688e" stroke="black" cx="1041.1" cy="-710" rx="89.08" ry="18"/>
<text text-anchor="middle" x="1041.1" y="-706.3" font-family="Times,serif" font-size="14.00" fill="white">hyperion fortran</text>
</a>
</g>
</g>
<!-- graph&#45;&gt;hyperion&#45;fortran -->
<!-- marray -->
<g id="node23" class="node">
<title>marray</title>
<g id="a_node23"><a xlink:href="https://github.com/conda-forge/marray-feedstock/pull/8" xlink:title="marray">
<ellipse fill="#31688e" stroke="black" cx="1041.1" cy="-638" rx="40.5" ry="18"/>
<text text-anchor="middle" x="1041.1" y="-634.3" font-family="Times,serif" font-size="14.00" fill="white">marray</text>
</a>
</g>
</g>
<!-- hyperion&#45;fortran&#45;&gt;marray -->
<!-- h5py -->
<g id="node6" class="node">
<title>h5py</title>
<g id="a_node6"><a xlink:href="https://github.com/conda-forge/h5py-feedstock/pull/72" xlink:title="h5py">
<ellipse fill="#31688e" stroke="black" cx="422.1" cy="-746" rx="30.59" ry="18"/>
<text text-anchor="middle" x="422.1" y="-742.3" font-family="Times,serif" font-size="14.00" fill="white">h5py</text>
</a>
</g>
</g>
<!-- h5py&#45;&gt;caffe -->
<g id="edge4" class="edge">
<title>h5py&#45;&gt;caffe</title>
<path fill="none" stroke="black" d="M391.9,-742.09C332.36,-735.96 195.89,-719.92 84.1,-692 80.18,-691.02 76.13,-689.86 72.12,-688.62"/>
<polygon fill="black" stroke="black" points="72.9,-685.19 62.31,-685.41 70.72,-691.85 72.9,-685.19"/>
</g>
<!-- openmc -->
<g id="node7" class="node">
<title>openmc</title>
<g id="a_node7"><a xlink:href="https://github.com/conda-forge/openmc-feedstock" xlink:title="openmc">
<ellipse fill="#fde725" stroke="black" cx="82.1" cy="-602" rx="40.5" ry="18"/>
<text text-anchor="middle" x="82.1" y="-598.3" font-family="Times,serif" font-size="14.00">openmc</text>
</a>
</g>
</g>
<!-- h5py&#45;&gt;openmc -->
<g id="edge5" class="edge">
<title>h5py&#45;&gt;openmc</title>
<path fill="none" stroke="black" d="M391.66,-742.45C326.96,-736.55 178.31,-720.23 137.1,-692 115.08,-676.92 100.21,-649.82 91.55,-629.48"/>
<polygon fill="black" stroke="black" points="94.76,-628.09 87.79,-620.11 88.27,-630.7 94.76,-628.09"/>
</g>
<!-- rsgislib -->
<g id="node8" class="node">
<title>rsgislib</title>
<g id="a_node8"><a xlink:href="https://github.com/conda-forge/rsgislib-feedstock" xlink:title="rsgislib">
<ellipse fill="#fde725" stroke="black" cx="111.1" cy="-530" rx="50.09" ry="18"/>
<text text-anchor="middle" x="111.1" y="-526.3" font-family="Times,serif" font-size="14.00">rsgislib</text>
</a>
</g>
</g>
<!-- h5py&#45;&gt;rsgislib -->
<g id="edge6" class="edge">
<title>h5py&#45;&gt;rsgislib</title>
<path fill="none" stroke="black" d="M392.27,-742.11C333.97,-735.91 207.75,-719.61 175.1,-692 172.37,-689.7 138.56,-602.44 121.22,-557.37"/>
<polygon fill="black" stroke="black" points="124.44,-556 117.58,-547.92 117.91,-558.51 124.44,-556"/>
</g>
<!-- h5utils -->
<g id="node9" class="node">
<title>h5utils</title>
<g id="a_node9"><a xlink:href="https://github.com/conda-forge/h5utils-feedstock" xlink:title="h5utils">
<ellipse fill="#fde725" stroke="black" cx="230.1" cy="-458" rx="45" ry="18"/>
<text text-anchor="middle" x="230.1" y="-454.3" font-family="Times,serif" font-size="14.00">h5utils</text>
</a>
</g>
</g>
<!-- h5py&#45;&gt;h5utils -->
<g id="edge7" class="edge">
<title>h5py&#45;&gt;h5utils</title>
<path fill="none" stroke="black" d="M405.04,-730.76C393.53,-720.65 378.43,-706.37 367.1,-692 312.53,-622.8 264.3,-529.74 242.47,-485.07"/>
<polygon fill="black" stroke="black" points="245.49,-483.27 237.98,-475.79 239.19,-486.32 245.49,-483.27"/>
</g>
<!-- pymeep -->
<g id="node10" class="node">
<title>pymeep</title>
<g id="a_node10"><a xlink:href="https://github.com/conda-forge/pymeep-feedstock" xlink:title="pymeep">
<ellipse fill="#fde725" stroke="black" cx="230.1" cy="-386" rx="40.5" ry="18"/>
<text text-anchor="middle" x="230.1" y="-382.3" font-family="Times,serif" font-size="14.00">pymeep</text>
</a>
</g>
</g>
<!-- h5py&#45;&gt;pymeep -->
<g id="edge8" class="edge">
<title>h5py&#45;&gt;pymeep</title>
<path fill="none" stroke="black" d="M399.8,-733.64C382.18,-724.01 357.55,-709.06 339.1,-692 250.8,-610.35 214.3,-590.04 176.1,-476 171.01,-460.83 169.9,-454.75 176.1,-440 181.31,-427.58 191.02,-416.6 200.78,-407.9"/>
<polygon fill="black" stroke="black" points="203.09,-410.53 208.53,-401.44 198.61,-405.15 203.09,-410.53"/>
</g>
<!-- blosc&#45;hdf5&#45;plugin -->
<g id="node11" class="node">
<title>blosc&#45;hdf5&#45;plugin</title>
<g id="a_node11"><a xlink:href="https://github.com/conda-forge/blosc-hdf5-plugin-feedstock" xlink:title="blosc hdf5 plugin">
<ellipse fill="#fde725" stroke="black" cx="582.1" cy="-386" rx="93.68" ry="18"/>
<text text-anchor="middle" x="582.1" y="-382.3" font-family="Times,serif" font-size="14.00">blosc hdf5 plugin</text>
</a>
</g>
</g>
<!-- h5py&#45;&gt;blosc&#45;hdf5&#45;plugin -->
<g id="edge9" class="edge">
<title>h5py&#45;&gt;blosc&#45;hdf5&#45;plugin</title>
<path fill="none" stroke="black" d="M451.88,-741.37C515.95,-731.74 661.1,-699.29 661.1,-603 661.1,-603 661.1,-603 661.1,-529 661.1,-488.55 662.5,-474.92 642.1,-440 635.4,-428.54 625.36,-418.26 615.39,-409.87"/>
<polygon fill="black" stroke="black" points="617.48,-407.06 607.48,-403.56 613.11,-412.53 617.48,-407.06"/>
</g>
<!-- isce2 -->
<g id="node12" class="node">
<title>isce2</title>
<g id="a_node12"><a xlink:href="https://github.com/conda-forge/isce2-feedstock" xlink:title="isce2">
<ellipse fill="#fde725" stroke="black" cx="422.1" cy="-674" rx="35.19" ry="18"/>
<text text-anchor="middle" x="422.1" y="-670.3" font-family="Times,serif" font-size="14.00">isce2</text>
</a>
</g>
</g>
<!-- h5py&#45;&gt;isce2 -->
<g id="edge10" class="edge">
<title>h5py&#45;&gt;isce2</title>
<path fill="none" stroke="black" d="M422.1,-727.7C422.1,-719.98 422.1,-710.71 422.1,-702.11"/>
<polygon fill="black" stroke="black" points="425.6,-702.1 422.1,-692.1 418.6,-702.1 425.6,-702.1"/>
</g>
<!-- bitshuffle -->
<g id="node13" class="node">
<title>bitshuffle</title>
<g id="a_node13"><a xlink:href="https://github.com/conda-forge/bitshuffle-feedstock" xlink:title="bitshuffle">
<ellipse fill="#fde725" stroke="black" cx="485.1" cy="-602" rx="60" ry="18"/>
<text text-anchor="middle" x="485.1" y="-598.3" font-family="Times,serif" font-size="14.00">bitshuffle</text>
</a>
</g>
</g>
<!-- h5py&#45;&gt;bitshuffle -->
<g id="edge11" class="edge">
<title>h5py&#45;&gt;bitshuffle</title>
<path fill="none" stroke="black" d="M437.79,-730.19C447.38,-720.26 459.1,-706.42 466.1,-692 475.55,-672.51 480.33,-648.37 482.73,-630.15"/>
<polygon fill="black" stroke="black" points="486.21,-630.53 483.88,-620.19 479.25,-629.72 486.21,-630.53"/>
</g>
<!-- triqs -->
<g id="node14" class="node">
<title>triqs</title>
<g id="a_node14"><a xlink:href="https://github.com/conda-forge/triqs-feedstock" xlink:title="triqs">
<ellipse fill="#fde725" stroke="black" cx="395.1" cy="-530" rx="35.19" ry="18"/>
<text text-anchor="middle" x="395.1" y="-526.3" font-family="Times,serif" font-size="14.00">triqs</text>
</a>
</g>
</g>
<!-- h5py&#45;&gt;triqs -->
<g id="edge12" class="edge">
<title>h5py&#45;&gt;triqs</title>
<path fill="none" stroke="black" d="M405.35,-730.63C395.34,-720.89 383.54,-707.07 378.1,-692 361.82,-646.91 374.78,-590.45 385.24,-557.77"/>
<polygon fill="black" stroke="black" points="388.64,-558.64 388.51,-548.04 382,-556.41 388.64,-558.64"/>
</g>
<!-- hdf5plugin -->
<g id="node15" class="node">
<title>hdf5plugin</title>
<g id="a_node15"><a xlink:href="https://github.com/conda-forge/hdf5plugin-feedstock" xlink:title="hdf5plugin">
<ellipse fill="#fde725" stroke="black" cx="573.1" cy="-458" rx="60" ry="18"/>
<text text-anchor="middle" x="573.1" y="-454.3" font-family="Times,serif" font-size="14.00">hdf5plugin</text>
</a>
</g>
</g>
<!-- h5py&#45;&gt;hdf5plugin -->
<g id="edge13" class="edge">
<title>h5py&#45;&gt;hdf5plugin</title>
<path fill="none" stroke="black" d="M442.97,-732.59C473.63,-713.04 529.85,-671.9 554.1,-620 574.33,-576.7 576.08,-520.01 574.97,-486.74"/>
<polygon fill="black" stroke="black" points="578.45,-486.24 574.5,-476.41 571.46,-486.56 578.45,-486.24"/>
</g>
<!-- prismatic_split -->
<g id="node16" class="node">
<title>prismatic_split</title>
<g id="a_node16"><a xlink:href="https://github.com/conda-forge/prismatic_split-feedstock" xlink:title="prismatic_split">
<ellipse fill="#fde725" stroke="black" cx="778.1" cy="-386" rx="84" ry="18"/>
<text text-anchor="middle" x="778.1" y="-382.3" font-family="Times,serif" font-size="14.00">prismatic_split</text>
</a>
</g>
</g>
<!-- h5py&#45;&gt;prismatic_split -->
<g id="edge14" class="edge">
<title>h5py&#45;&gt;prismatic_split</title>
<path fill="none" stroke="black" d="M452.53,-743.39C524.49,-737.78 699.1,-712.84 699.1,-603 699.1,-603 699.1,-603 699.1,-529 699.1,-482.98 731.17,-437.95 754.45,-411.34"/>
<polygon fill="black" stroke="black" points="757.25,-413.46 761.34,-403.69 752.05,-408.77 757.25,-413.46"/>
</g>
<!-- digital_rf -->
<g id="node17" class="node">
<title>digital_rf</title>
<g id="a_node17"><a xlink:href="https://github.com/conda-forge/digital_rf-feedstock" xlink:title="digital_rf">
<ellipse fill="#fde725" stroke="black" cx="787.1" cy="-674" rx="60" ry="18"/>
<text text-anchor="middle" x="787.1" y="-670.3" font-family="Times,serif" font-size="14.00">digital_rf</text>
</a>
</g>
</g>
<!-- h5py&#45;&gt;digital_rf -->
<g id="edge15" class="edge">
<title>h5py&#45;&gt;digital_rf</title>
<path fill="none" stroke="black" d="M451.09,-740.17C503.53,-731.34 617.53,-711.67 713.1,-692 718.97,-690.79 725.09,-689.48 731.19,-688.13"/>
<polygon fill="black" stroke="black" points="732.38,-691.45 741.38,-685.85 730.85,-684.62 732.38,-691.45"/>
</g>
<!-- pp&#45;sketchlib -->
<g id="node18" class="node">
<title>pp&#45;sketchlib</title>
<g id="a_node18"><a xlink:href="https://github.com/conda-forge/pp-sketchlib-feedstock" xlink:title="pp sketchlib">
<ellipse fill="#fde725" stroke="black" cx="875.1" cy="-602" rx="69.59" ry="18"/>
<text text-anchor="middle" x="875.1" y="-598.3" font-family="Times,serif" font-size="14.00">pp sketchlib</text>
</a>
</g>
</g>
<!-- h5py&#45;&gt;pp&#45;sketchlib -->
<g id="edge16" class="edge">
<title>h5py&#45;&gt;pp&#45;sketchlib</title>
<path fill="none" stroke="black" d="M452.77,-745.68C541.71,-747 797.15,-745.93 856.1,-692 872.89,-676.63 876.8,-650.36 877.01,-630.34"/>
<polygon fill="black" stroke="black" points="880.51,-630.18 876.81,-620.25 873.51,-630.31 880.51,-630.18"/>
</g>
<!-- h5utils&#45;&gt;pymeep -->
<g id="edge17" class="edge">
<title>h5utils&#45;&gt;pymeep</title>
<path fill="none" stroke="black" d="M230.1,-439.7C230.1,-431.98 230.1,-422.71 230.1,-414.11"/>
<polygon fill="black" stroke="black" points="233.6,-414.1 230.1,-404.1 226.6,-414.1 233.6,-414.1"/>
</g>
<!-- triqs_cthyb -->
<g id="node19" class="node">
<title>triqs_cthyb</title>
<g id="a_node19"><a xlink:href="https://github.com/conda-forge/triqs_cthyb-feedstock" xlink:title="triqs_cthyb">
<ellipse fill="#fde725" stroke="black" cx="430.1" cy="-458" rx="64.5" ry="18"/>
<text text-anchor="middle" x="430.1" y="-454.3" font-family="Times,serif" font-size="14.00">triqs_cthyb</text>
</a>
</g>
</g>
<!-- triqs&#45;&gt;triqs_cthyb -->
<g id="edge18" class="edge">
<title>triqs&#45;&gt;triqs_cthyb</title>
<path fill="none" stroke="black" d="M403.39,-512.41C407.47,-504.25 412.49,-494.22 417.06,-485.07"/>
<polygon fill="black" stroke="black" points="420.28,-486.47 421.62,-475.96 414.02,-483.34 420.28,-486.47"/>
</g>
<!-- hdfeos5 -->
<g id="node20" class="node">
<title>hdfeos5</title>
<g id="a_node20"><a xlink:href="https://github.com/conda-forge/hdfeos5-feedstock/pull/27" xlink:title="hdfeos5">
<ellipse fill="#31688e" stroke="black" cx="467.1" cy="-162" rx="45" ry="18"/>
<text text-anchor="middle" x="467.1" y="-158.3" font-family="Times,serif" font-size="14.00" fill="white">hdfeos5</text>
</a>
</g>
</g>
<!-- ncl -->
<g id="node21" class="node">
<title>ncl</title>
<g id="a_node21"><a xlink:href="https://github.com/conda-forge/ncl-feedstock" xlink:title="ncl">
<ellipse fill="#fde725" stroke="black" cx="440.1" cy="-90" rx="27" ry="18"/>
<text text-anchor="middle" x="440.1" y="-86.3" font-family="Times,serif" font-size="14.00">ncl</text>
</a>
</g>
</g>
<!-- hdfeos5&#45;&gt;ncl -->
<g id="edge19" class="edge">
<title>hdfeos5&#45;&gt;ncl</title>
<path fill="none" stroke="black" d="M460.56,-144.05C457.48,-136.06 453.72,-126.33 450.28,-117.4"/>
<polygon fill="black" stroke="black" points="453.44,-115.86 446.57,-107.79 446.91,-118.38 453.44,-115.86"/>
</g>
<!-- pynio -->
<g id="node22" class="node">
<title>pynio</title>
<g id="a_node22"><a xlink:href="https://github.com/conda-forge/pynio-feedstock" xlink:title="pynio">
<ellipse fill="#fde725" stroke="black" cx="495.1" cy="-18" rx="35.19" ry="18"/>
<text text-anchor="middle" x="495.1" y="-14.3" font-family="Times,serif" font-size="14.00">pynio</text>
</a>
</g>
</g>
<!-- hdfeos5&#45;&gt;pynio -->
<g id="edge20" class="edge">
<title>hdfeos5&#45;&gt;pynio</title>
<path fill="none" stroke="black" d="M470.47,-143.87C475.27,-119.56 484.09,-74.82 489.77,-46.01"/>
<polygon fill="black" stroke="black" points="493.21,-46.68 491.71,-36.19 486.34,-45.32 493.21,-46.68"/>
</g>
<!-- pyne -->
<g id="node24" class="node">
<title>pyne</title>
<g id="a_node24"><a xlink:href="https://github.com/conda-forge/pyne-feedstock/pull/40" xlink:title="pyne">
<ellipse fill="#31688e" stroke="black" cx="1041.1" cy="-566" rx="30.59" ry="18"/>
<text text-anchor="middle" x="1041.1" y="-562.3" font-family="Times,serif" font-size="14.00" fill="white">pyne</text>
</a>
</g>
</g>
<!-- marray&#45;&gt;pyne -->
<!-- r&#45;hdf5r -->
<g id="node25" class="node">
<title>r&#45;hdf5r</title>
<g id="a_node25"><a xlink:href="https://github.com/conda-forge/r-hdf5r-feedstock/pull/12" xlink:title="r hdf5r">
<ellipse fill="#31688e" stroke="black" cx="1041.1" cy="-494" rx="45" ry="18"/>
<text text-anchor="middle" x="1041.1" y="-490.3" font-family="Times,serif" font-size="14.00" fill="white">r hdf5r</text>
</a>
</g>
</g>
<!-- pyne&#45;&gt;r&#45;hdf5r -->
<!-- shogun -->
<g id="node26" class="node">
<title>shogun</title>
<g id="a_node26"><a xlink:href="https://github.com/conda-forge/shogun-feedstock/pull/20" xlink:title="shogun">
<ellipse fill="#31688e" stroke="black" cx="1041.1" cy="-422" rx="40.5" ry="18"/>
<text text-anchor="middle" x="1041.1" y="-418.3" font-family="Times,serif" font-size="14.00" fill="white">shogun</text>
</a>
</g>
</g>
<!-- r&#45;hdf5r&#45;&gt;shogun -->
<!-- yaafe -->
<g id="node27" class="node">
<title>yaafe</title>
<g id="a_node27"><a xlink:href="https://github.com/conda-forge/yaafe-feedstock/pull/9" xlink:title="yaafe">
<ellipse fill="#31688e" stroke="black" cx="1041.1" cy="-350" rx="35.19" ry="18"/>
<text text-anchor="middle" x="1041.1" y="-346.3" font-family="Times,serif" font-size="14.00" fill="white">yaafe</text>
</a>
</g>
</g>
<!-- shogun&#45;&gt;yaafe -->
<!-- alps -->
<g id="node28" class="node">
<title>alps</title>
<g id="a_node28"><a xlink:href="https://github.com/conda-forge/alps-feedstock/pull/31" xlink:title="alps">
<ellipse fill="#31688e" stroke="black" cx="1041.1" cy="-278" rx="30.59" ry="18"/>
<text text-anchor="middle" x="1041.1" y="-274.3" font-family="Times,serif" font-size="14.00" fill="white">alps</text>
</a>
</g>
</g>
<!-- yaafe&#45;&gt;alps -->
<!-- spdlib -->
<g id="node29" class="node">
<title>spdlib</title>
<g id="a_node29"><a xlink:href="https://github.com/conda-forge/spdlib-feedstock/pull/15" xlink:title="spdlib">
<ellipse fill="#31688e" stroke="black" cx="1041.1" cy="-206" rx="40.5" ry="18"/>
<text text-anchor="middle" x="1041.1" y="-202.3" font-family="Times,serif" font-size="14.00" fill="white">spdlib</text>
</a>
</g>
</g>
<!-- alps&#45;&gt;spdlib -->
<!-- mpb -->
<g id="node30" class="node">
<title>mpb</title>
<g id="a_node30"><a xlink:href="https://github.com/conda-forge/mpb-feedstock/pull/22" xlink:title="mpb">
<ellipse fill="#31688e" stroke="black" cx="320.1" cy="-458" rx="27" ry="18"/>
<text text-anchor="middle" x="320.1" y="-454.3" font-family="Times,serif" font-size="14.00" fill="white">mpb</text>
</a>
</g>
</g>
<!-- mpb&#45;&gt;pymeep -->
<g id="edge28" class="edge">
<title>mpb&#45;&gt;pymeep</title>
<path fill="none" stroke="black" d="M303.17,-443.83C290.28,-433.81 272.27,-419.81 257.36,-408.21"/>
<polygon fill="black" stroke="black" points="259.49,-405.43 249.45,-402.05 255.19,-410.95 259.49,-405.43"/>
</g>
<!-- openpmd&#45;api -->
<g id="node31" class="node">
<title>openpmd&#45;api</title>
<g id="a_node31"><a xlink:href="https://github.com/conda-forge/openpmd-api-feedstock" xlink:title="openpmd api">
<ellipse fill="#fde725" stroke="black" cx="1041.1" cy="-54" rx="64.5" ry="18"/>
<text text-anchor="middle" x="1041.1" y="-50.3" font-family="Times,serif" font-size="14.00">openpmd api</text>
</a>
</g>
</g>
<!-- cmor -->
<g id="node32" class="node">
<title>cmor</title>
<g id="a_node32"><a xlink:href="https://github.com/conda-forge/cmor-feedstock/pull/23" xlink:title="cmor">
<ellipse fill="#31688e" stroke="black" cx="1179.1" cy="-710" rx="30.59" ry="18"/>
<text text-anchor="middle" x="1179.1" y="-706.3" font-family="Times,serif" font-size="14.00" fill="white">cmor</text>
</a>
</g>
</g>
<!-- scilab -->
<g id="node33" class="node">
<title>scilab</title>
<g id="a_node33"><a xlink:href="https://github.com/conda-forge/scilab-feedstock/pull/12" xlink:title="scilab">
<ellipse fill="#31688e" stroke="black" cx="1179.1" cy="-638" rx="40.5" ry="18"/>
<text text-anchor="middle" x="1179.1" y="-634.3" font-family="Times,serif" font-size="14.00" fill="white">scilab</text>
</a>
</g>
</g>
<!-- cmor&#45;&gt;scilab -->
<!-- bonsu -->
<g id="node34" class="node">
<title>bonsu</title>
<g id="a_node34"><a xlink:href="https://github.com/conda-forge/bonsu-feedstock/pull/5" xlink:title="bonsu">
<ellipse fill="#31688e" stroke="black" cx="1179.1" cy="-566" rx="35.19" ry="18"/>
<text text-anchor="middle" x="1179.1" y="-562.3" font-family="Times,serif" font-size="14.00" fill="white">bonsu</text>
</a>
</g>
</g>
<!-- scilab&#45;&gt;bonsu -->
<!-- dagmc -->
<g id="node36" class="node">
<title>dagmc</title>
<g id="a_node36"><a xlink:href="https://github.com/conda-forge/dagmc-feedstock/pull/1" xlink:title="dagmc">
<ellipse fill="#31688e" stroke="black" cx="1179.1" cy="-494" rx="35.19" ry="18"/>
<text text-anchor="middle" x="1179.1" y="-490.3" font-family="Times,serif" font-size="14.00" fill="white">dagmc</text>
</a>
</g>
</g>
<!-- bonsu&#45;&gt;dagmc -->
<!-- adios2 -->
<g id="node35" class="node">
<title>adios2</title>
<g id="a_node35"><a xlink:href="https://github.com/conda-forge/adios2-feedstock/pull/11" xlink:title="adios2">
<ellipse fill="#31688e" stroke="black" cx="1041.1" cy="-126" rx="40.5" ry="18"/>
<text text-anchor="middle" x="1041.1" y="-122.3" font-family="Times,serif" font-size="14.00" fill="white">adios2</text>
</a>
</g>
</g>
<!-- adios2&#45;&gt;openpmd&#45;api -->
<g id="edge31" class="edge">
<title>adios2&#45;&gt;openpmd&#45;api</title>
<path fill="none" stroke="black" d="M1041.1,-107.7C1041.1,-99.98 1041.1,-90.71 1041.1,-82.11"/>
<polygon fill="black" stroke="black" points="1044.6,-82.1 1041.1,-72.1 1037.6,-82.1 1044.6,-82.1"/>
</g>
<!-- nccmp -->
<g id="node37" class="node">
<title>nccmp</title>
<g id="a_node37"><a xlink:href="https://github.com/conda-forge/nccmp-feedstock/pull/2" xlink:title="nccmp">
<ellipse fill="#31688e" stroke="black" cx="1179.1" cy="-422" rx="35.19" ry="18"/>
<text text-anchor="middle" x="1179.1" y="-418.3" font-family="Times,serif" font-size="14.00" fill="white">nccmp</text>
</a>
</g>
</g>
<!-- dagmc&#45;&gt;nccmp -->
</g>
</svg>
