<?xml version="1.0" encoding="UTF-8" standalone="no"?>
<!DOCTYPE svg PUBLIC "-//W3C//DTD SVG 1.1//EN"
 "http://www.w3.org/Graphics/SVG/1.1/DTD/svg11.dtd">
<!-- Generated by graphviz version 2.42.3 (20191010.1750)
 -->
<!-- Title: %3 Pages: 1 -->
<svg width="654pt" height="548pt"
 viewBox="0.00 0.00 654.19 548.00" xmlns="http://www.w3.org/2000/svg" xmlns:xlink="http://www.w3.org/1999/xlink">
<g id="graph0" class="graph" transform="scale(1 1) rotate(0) translate(4 544)">
<title>%3</title>
<polygon fill="white" stroke="transparent" points="-4,4 -4,-544 650.19,-544 650.19,4 -4,4"/>
<!-- gdal -->
<g id="node1" class="node">
<title>gdal</title>
<g id="a_node1"><a xlink:href="https://github.com/conda-forge/gdal-feedstock" xlink:title="gdal">
<ellipse fill="#fde725" stroke="black" cx="186.09" cy="-342" rx="30.59" ry="18"/>
<text text-anchor="middle" x="186.09" y="-338.3" font-family="Times,serif" font-size="14.00">gdal</text>
</a>
</g>
</g>
<!-- qgis -->
<g id="node2" class="node">
<title>qgis</title>
<g id="a_node2"><a xlink:href="https://github.com/conda-forge/qgis-feedstock" xlink:title="qgis">
<ellipse fill="#fde725" stroke="black" cx="192.09" cy="-270" rx="30.59" ry="18"/>
<text text-anchor="middle" x="192.09" y="-266.3" font-family="Times,serif" font-size="14.00">qgis</text>
</a>
</g>
</g>
<!-- gdal&#45;&gt;qgis -->
<g id="edge1" class="edge">
<title>gdal&#45;&gt;qgis</title>
<path fill="none" stroke="black" d="M187.58,-323.7C188.24,-315.98 189.03,-306.71 189.77,-298.11"/>
<polygon fill="black" stroke="black" points="193.26,-298.37 190.63,-288.1 186.29,-297.77 193.26,-298.37"/>
</g>
<!-- libgd -->
<g id="node3" class="node">
<title>libgd</title>
<g id="a_node3"><a xlink:href="https://github.com/conda-forge/libgd-feedstock" xlink:title="libgd">
<ellipse fill="#fde725" stroke="black" cx="279.09" cy="-270" rx="35.19" ry="18"/>
<text text-anchor="middle" x="279.09" y="-266.3" font-family="Times,serif" font-size="14.00">libgd</text>
</a>
</g>
</g>
<!-- matplotlib -->
<g id="node4" class="node">
<title>matplotlib</title>
<g id="a_node4"><a xlink:href="https://github.com/conda-forge/matplotlib-feedstock" xlink:title="matplotlib">
<ellipse fill="#fde725" stroke="black" cx="317.09" cy="-198" rx="60" ry="18"/>
<text text-anchor="middle" x="317.09" y="-194.3" font-family="Times,serif" font-size="14.00">matplotlib</text>
</a>
</g>
</g>
<!-- alps -->
<g id="node5" class="node">
<title>alps</title>
<g id="a_node5"><a xlink:href="https://github.com/conda-forge/alps-feedstock" xlink:title="alps">
<ellipse fill="#fde725" stroke="black" cx="316.09" cy="-126" rx="30.59" ry="18"/>
<text text-anchor="middle" x="316.09" y="-122.3" font-family="Times,serif" font-size="14.00">alps</text>
</a>
</g>
</g>
<!-- matplotlib&#45;&gt;alps -->
<g id="edge2" class="edge">
<title>matplotlib&#45;&gt;alps</title>
<path fill="none" stroke="black" d="M316.85,-179.7C316.74,-171.98 316.6,-162.71 316.48,-154.11"/>
<polygon fill="black" stroke="black" points="319.98,-154.05 316.34,-144.1 312.98,-154.15 319.98,-154.05"/>
</g>
<!-- octave -->
<g id="node6" class="node">
<title>octave</title>
<g id="a_node6"><a xlink:href="https://github.com/conda-forge/octave-feedstock" xlink:title="octave">
<ellipse fill="#fde725" stroke="black" cx="405.09" cy="-126" rx="40.5" ry="18"/>
<text text-anchor="middle" x="405.09" y="-122.3" font-family="Times,serif" font-size="14.00">octave</text>
</a>
</g>
</g>
<!-- python&#45;igraph -->
<g id="node7" class="node">
<title>python&#45;igraph</title>
<g id="a_node7"><a xlink:href="https://github.com/conda-forge/python-igraph-feedstock/pull/31" xlink:title="python igraph">
<ellipse fill="#31688e" stroke="black" cx="74.09" cy="-522" rx="74.19" ry="18"/>
<text text-anchor="middle" x="74.09" y="-518.3" font-family="Times,serif" font-size="14.00" fill="white">python igraph</text>
</a>
</g>
</g>
<!-- root5 -->
<g id="node8" class="node">
<title>root5</title>
<g id="a_node8"><a xlink:href="https://github.com/conda-forge/root5-feedstock" xlink:title="root5">
<ellipse fill="#35b779" stroke="black" cx="74.09" cy="-450" rx="35.19" ry="18"/>
<text text-anchor="middle" x="74.09" y="-446.3" font-family="Times,serif" font-size="14.00">root5</text>
</a>
</g>
</g>
<!-- python&#45;igraph&#45;&gt;root5 -->
<!-- texlive&#45;core -->
<g id="node13" class="node">
<title>texlive&#45;core</title>
<g id="a_node13"><a xlink:href="https://github.com/conda-forge/texlive-core-feedstock/pull/38" xlink:title="texlive core">
<ellipse fill="#31688e" stroke="black" cx="74.09" cy="-378" rx="69.59" ry="18"/>
<text text-anchor="middle" x="74.09" y="-374.3" font-family="Times,serif" font-size="14.00" fill="white">texlive core</text>
</a>
</g>
</g>
<!-- root5&#45;&gt;texlive&#45;core -->
<!-- qt -->
<g id="node9" class="node">
<title>qt</title>
<g id="a_node9"><a xlink:href="https://github.com/conda-forge/qt-feedstock/pull/157" xlink:title="qt">
<ellipse fill="#31688e" stroke="black" cx="283.09" cy="-414" rx="27" ry="18"/>
<text text-anchor="middle" x="283.09" y="-410.3" font-family="Times,serif" font-size="14.00" fill="white">qt</text>
</a>
</g>
</g>
<!-- qt&#45;&gt;gdal -->
<g id="edge4" class="edge">
<title>qt&#45;&gt;gdal</title>
<path fill="none" stroke="black" d="M265.3,-400.16C250.68,-389.61 229.72,-374.49 213.04,-362.45"/>
<polygon fill="black" stroke="black" points="214.92,-359.49 204.76,-356.47 210.82,-365.16 214.92,-359.49"/>
</g>
<!-- qt&#45;&gt;qgis -->
<g id="edge5" class="edge">
<title>qt&#45;&gt;qgis</title>
<path fill="none" stroke="black" d="M273.01,-397.24C261.62,-379.45 242.53,-349.64 226.09,-324 220.16,-314.75 213.65,-304.59 207.93,-295.67"/>
<polygon fill="black" stroke="black" points="210.86,-293.76 202.51,-287.24 204.97,-297.54 210.86,-293.76"/>
</g>
<!-- qt&#45;&gt;libgd -->
<g id="edge6" class="edge">
<title>qt&#45;&gt;libgd</title>
<path fill="none" stroke="black" d="M282.61,-395.87C281.93,-371.67 280.68,-327.21 279.87,-298.39"/>
<polygon fill="black" stroke="black" points="283.36,-298.09 279.58,-288.19 276.36,-298.28 283.36,-298.09"/>
</g>
<!-- qt&#45;&gt;matplotlib -->
<g id="edge7" class="edge">
<title>qt&#45;&gt;matplotlib</title>
<path fill="none" stroke="black" d="M290.23,-396.42C299.94,-372.85 316.84,-328.07 323.09,-288 325.56,-272.19 323.99,-267.97 323.09,-252 322.62,-243.55 321.72,-234.38 320.75,-226.07"/>
<polygon fill="black" stroke="black" points="324.23,-225.64 319.53,-216.14 317.28,-226.5 324.23,-225.64"/>
</g>
<!-- qt&#45;&gt;octave -->
<g id="edge8" class="edge">
<title>qt&#45;&gt;octave</title>
<path fill="none" stroke="black" d="M296.38,-397.97C304.99,-387.74 316.06,-373.63 324.09,-360 359.47,-299.97 364.94,-282.39 386.09,-216 392.6,-195.58 397.54,-171.82 400.76,-153.99"/>
<polygon fill="black" stroke="black" points="404.23,-154.44 402.49,-143.99 397.33,-153.24 404.23,-154.44"/>
</g>
<!-- r&#45;base -->
<g id="node10" class="node">
<title>r&#45;base</title>
<g id="a_node10"><a xlink:href="https://github.com/conda-forge/r-base-feedstock/pull/130" xlink:title="r base">
<ellipse fill="#31688e" stroke="black" cx="513.09" cy="-306" rx="40.5" ry="18"/>
<text text-anchor="middle" x="513.09" y="-302.3" font-family="Times,serif" font-size="14.00" fill="white">r base</text>
</a>
</g>
</g>
<!-- r&#45;stringi -->
<g id="node11" class="node">
<title>r&#45;stringi</title>
<g id="a_node11"><a xlink:href="https://github.com/conda-forge/r-stringi-feedstock" xlink:title="r stringi">
<ellipse fill="#fde725" stroke="black" cx="508.09" cy="-234" rx="54.69" ry="18"/>
<text text-anchor="middle" x="508.09" y="-230.3" font-family="Times,serif" font-size="14.00">r stringi</text>
</a>
</g>
</g>
<!-- r&#45;base&#45;&gt;r&#45;stringi -->
<g id="edge9" class="edge">
<title>r&#45;base&#45;&gt;r&#45;stringi</title>
<path fill="none" stroke="black" d="M511.86,-287.7C511.31,-279.98 510.64,-270.71 510.03,-262.11"/>
<polygon fill="black" stroke="black" points="513.52,-261.83 509.32,-252.1 506.54,-262.33 513.52,-261.83"/>
</g>
<!-- r&#45;v8 -->
<g id="node12" class="node">
<title>r&#45;v8</title>
<g id="a_node12"><a xlink:href="https://github.com/conda-forge/r-v8-feedstock" xlink:title="r v8">
<ellipse fill="#fde725" stroke="black" cx="611.09" cy="-234" rx="30.59" ry="18"/>
<text text-anchor="middle" x="611.09" y="-230.3" font-family="Times,serif" font-size="14.00">r v8</text>
</a>
</g>
</g>
<!-- r&#45;base&#45;&gt;r&#45;v8 -->
<g id="edge10" class="edge">
<title>r&#45;base&#45;&gt;r&#45;v8</title>
<path fill="none" stroke="black" d="M533.88,-290.15C548.48,-279.73 568.15,-265.67 583.98,-254.36"/>
<polygon fill="black" stroke="black" points="586.23,-257.06 592.33,-248.4 582.16,-251.37 586.23,-257.06"/>
</g>
<!-- mdsplus -->
<g id="node14" class="node">
<title>mdsplus</title>
<g id="a_node14"><a xlink:href="https://github.com/conda-forge/mdsplus-feedstock" xlink:title="mdsplus">
<ellipse fill="#35b779" stroke="black" cx="74.09" cy="-306" rx="45" ry="18"/>
<text text-anchor="middle" x="74.09" y="-302.3" font-family="Times,serif" font-size="14.00">mdsplus</text>
</a>
</g>
</g>
<!-- texlive&#45;core&#45;&gt;mdsplus -->
<!-- scilab -->
<g id="node15" class="node">
<title>scilab</title>
<g id="a_node15"><a xlink:href="https://github.com/conda-forge/scilab-feedstock/pull/14" xlink:title="scilab">
<ellipse fill="#31688e" stroke="black" cx="74.09" cy="-234" rx="40.5" ry="18"/>
<text text-anchor="middle" x="74.09" y="-230.3" font-family="Times,serif" font-size="14.00" fill="white">scilab</text>
</a>
</g>
</g>
<!-- mdsplus&#45;&gt;scilab -->
<!-- ifcopenshell -->
<g id="node16" class="node">
<title>ifcopenshell</title>
<g id="a_node16"><a xlink:href="https://github.com/conda-forge/ifcopenshell-feedstock/pull/10" xlink:title="ifcopenshell">
<ellipse fill="#31688e" stroke="black" cx="74.09" cy="-162" rx="69.59" ry="18"/>
<text text-anchor="middle" x="74.09" y="-158.3" font-family="Times,serif" font-size="14.00" fill="white">ifcopenshell</text>
</a>
</g>
</g>
<!-- scilab&#45;&gt;ifcopenshell -->
<!-- nbin -->
<g id="node17" class="node">
<title>nbin</title>
<g id="a_node17"><a xlink:href="https://github.com/conda-forge/nbin-feedstock/pull/1" xlink:title="nbin">
<ellipse fill="#31688e" stroke="black" cx="74.09" cy="-90" rx="30.59" ry="18"/>
<text text-anchor="middle" x="74.09" y="-86.3" font-family="Times,serif" font-size="14.00" fill="white">nbin</text>
</a>
</g>
</g>
<!-- ifcopenshell&#45;&gt;nbin -->
<!-- libiio -->
<g id="node19" class="node">
<title>libiio</title>
<g id="a_node19"><a xlink:href="https://github.com/conda-forge/libiio-feedstock/pull/1" xlink:title="libiio">
<ellipse fill="#31688e" stroke="black" cx="74.09" cy="-18" rx="40.5" ry="18"/>
<text text-anchor="middle" x="74.09" y="-14.3" font-family="Times,serif" font-size="14.00" fill="white">libiio</text>
</a>
</g>
</g>
<!-- nbin&#45;&gt;libiio -->
<!-- libv8 -->
<g id="node18" class="node">
<title>libv8</title>
<g id="a_node18"><a xlink:href="https://github.com/conda-forge/libv8-feedstock/pull/12" xlink:title="libv8">
<ellipse fill="#31688e" stroke="black" cx="611.09" cy="-306" rx="35.19" ry="18"/>
<text text-anchor="middle" x="611.09" y="-302.3" font-family="Times,serif" font-size="14.00" fill="white">libv8</text>
</a>
</g>
</g>
<!-- libv8&#45;&gt;r&#45;v8 -->
<g id="edge16" class="edge">
<title>libv8&#45;&gt;r&#45;v8</title>
<path fill="none" stroke="black" d="M611.09,-287.7C611.09,-279.98 611.09,-270.71 611.09,-262.11"/>
<polygon fill="black" stroke="black" points="614.59,-262.1 611.09,-252.1 607.59,-262.1 614.59,-262.1"/>
</g>
</g>
</svg>
