<?xml version="1.0" encoding="UTF-8" standalone="no"?>
<!DOCTYPE svg PUBLIC "-//W3C//DTD SVG 1.1//EN"
 "http://www.w3.org/Graphics/SVG/1.1/DTD/svg11.dtd">
<!-- Generated by graphviz version 2.42.3 (20191010.1750)
 -->
<!-- Title: %3 Pages: 1 -->
<svg width="655pt" height="476pt"
 viewBox="0.00 0.00 654.64 476.00" xmlns="http://www.w3.org/2000/svg" xmlns:xlink="http://www.w3.org/1999/xlink">
<g id="graph0" class="graph" transform="scale(1 1) rotate(0) translate(4 472)">
<title>%3</title>
<polygon fill="white" stroke="transparent" points="-4,4 -4,-472 650.64,-472 650.64,4 -4,4"/>
<!-- gdal -->
<g id="node1" class="node">
<title>gdal</title>
<g id="a_node1"><a xlink:href="https://github.com/conda-forge/gdal-feedstock" xlink:title="gdal">
<ellipse fill="#fde725" stroke="black" cx="30.55" cy="-270" rx="30.59" ry="18"/>
<text text-anchor="middle" x="30.55" y="-266.3" font-family="Times,serif" font-size="14.00">gdal</text>
</a>
</g>
</g>
<!-- qgis -->
<g id="node2" class="node">
<title>qgis</title>
<g id="a_node2"><a xlink:href="https://github.com/conda-forge/qgis-feedstock" xlink:title="qgis">
<ellipse fill="#fde725" stroke="black" cx="36.55" cy="-198" rx="30.59" ry="18"/>
<text text-anchor="middle" x="36.55" y="-194.3" font-family="Times,serif" font-size="14.00">qgis</text>
</a>
</g>
</g>
<!-- gdal&#45;&gt;qgis -->
<g id="edge1" class="edge">
<title>gdal&#45;&gt;qgis</title>
<path fill="none" stroke="black" d="M32.03,-251.7C32.69,-243.98 33.49,-234.71 34.22,-226.11"/>
<polygon fill="black" stroke="black" points="37.71,-226.37 35.08,-216.1 30.74,-225.77 37.71,-226.37"/>
</g>
<!-- libgd -->
<g id="node3" class="node">
<title>libgd</title>
<g id="a_node3"><a xlink:href="https://github.com/conda-forge/libgd-feedstock" xlink:title="libgd">
<ellipse fill="#fde725" stroke="black" cx="123.55" cy="-198" rx="35.19" ry="18"/>
<text text-anchor="middle" x="123.55" y="-194.3" font-family="Times,serif" font-size="14.00">libgd</text>
</a>
</g>
</g>
<!-- matplotlib -->
<g id="node4" class="node">
<title>matplotlib</title>
<g id="a_node4"><a xlink:href="https://github.com/conda-forge/matplotlib-feedstock" xlink:title="matplotlib">
<ellipse fill="#fde725" stroke="black" cx="161.55" cy="-126" rx="60" ry="18"/>
<text text-anchor="middle" x="161.55" y="-122.3" font-family="Times,serif" font-size="14.00">matplotlib</text>
</a>
</g>
</g>
<!-- alps -->
<g id="node5" class="node">
<title>alps</title>
<g id="a_node5"><a xlink:href="https://github.com/conda-forge/alps-feedstock" xlink:title="alps">
<ellipse fill="#fde725" stroke="black" cx="160.55" cy="-54" rx="30.59" ry="18"/>
<text text-anchor="middle" x="160.55" y="-50.3" font-family="Times,serif" font-size="14.00">alps</text>
</a>
</g>
</g>
<!-- matplotlib&#45;&gt;alps -->
<g id="edge2" class="edge">
<title>matplotlib&#45;&gt;alps</title>
<path fill="none" stroke="black" d="M161.3,-107.7C161.19,-99.98 161.06,-90.71 160.93,-82.11"/>
<polygon fill="black" stroke="black" points="164.43,-82.05 160.79,-72.1 157.43,-82.15 164.43,-82.05"/>
</g>
<!-- mysql -->
<g id="node6" class="node">
<title>mysql</title>
<g id="a_node6"><a xlink:href="https://github.com/conda-forge/mysql-feedstock/pull/12" xlink:title="mysql">
<ellipse fill="#31688e" stroke="black" cx="127.55" cy="-414" rx="35.19" ry="18"/>
<text text-anchor="middle" x="127.55" y="-410.3" font-family="Times,serif" font-size="14.00" fill="white">mysql</text>
</a>
</g>
</g>
<!-- qt -->
<g id="node7" class="node">
<title>qt</title>
<g id="a_node7"><a xlink:href="https://github.com/conda-forge/qt-feedstock/pull/157" xlink:title="qt">
<ellipse fill="#31688e" stroke="black" cx="127.55" cy="-342" rx="27" ry="18"/>
<text text-anchor="middle" x="127.55" y="-338.3" font-family="Times,serif" font-size="14.00" fill="white">qt</text>
</a>
</g>
</g>
<!-- mysql&#45;&gt;qt -->
<g id="edge3" class="edge">
<title>mysql&#45;&gt;qt</title>
<path fill="none" stroke="black" d="M127.55,-395.7C127.55,-387.98 127.55,-378.71 127.55,-370.11"/>
<polygon fill="black" stroke="black" points="131.05,-370.1 127.55,-360.1 124.05,-370.1 131.05,-370.1"/>
</g>
<!-- qt&#45;&gt;gdal -->
<g id="edge4" class="edge">
<title>qt&#45;&gt;gdal</title>
<path fill="none" stroke="black" d="M109.76,-328.16C95.13,-317.61 74.18,-302.49 57.5,-290.45"/>
<polygon fill="black" stroke="black" points="59.37,-287.49 49.22,-284.47 55.28,-293.16 59.37,-287.49"/>
</g>
<!-- qt&#45;&gt;qgis -->
<g id="edge5" class="edge">
<title>qt&#45;&gt;qgis</title>
<path fill="none" stroke="black" d="M117.46,-325.24C106.07,-307.45 86.98,-277.64 70.55,-252 64.62,-242.75 58.1,-232.59 52.38,-223.67"/>
<polygon fill="black" stroke="black" points="55.31,-221.76 46.97,-215.24 49.42,-225.54 55.31,-221.76"/>
</g>
<!-- qt&#45;&gt;libgd -->
<g id="edge6" class="edge">
<title>qt&#45;&gt;libgd</title>
<path fill="none" stroke="black" d="M127.06,-323.87C126.38,-299.67 125.13,-255.21 124.32,-226.39"/>
<polygon fill="black" stroke="black" points="127.81,-226.09 124.03,-216.19 120.81,-226.28 127.81,-226.09"/>
</g>
<!-- qt&#45;&gt;matplotlib -->
<g id="edge7" class="edge">
<title>qt&#45;&gt;matplotlib</title>
<path fill="none" stroke="black" d="M134.68,-324.42C144.4,-300.85 161.29,-256.07 167.55,-216 170.02,-200.19 168.45,-195.97 167.55,-180 167.07,-171.55 166.17,-162.38 165.21,-154.07"/>
<polygon fill="black" stroke="black" points="168.68,-153.64 163.98,-144.14 161.73,-154.5 168.68,-153.64"/>
</g>
<!-- octave -->
<g id="node8" class="node">
<title>octave</title>
<g id="a_node8"><a xlink:href="https://github.com/conda-forge/octave-feedstock" xlink:title="octave">
<ellipse fill="#fde725" stroke="black" cx="249.55" cy="-54" rx="40.5" ry="18"/>
<text text-anchor="middle" x="249.55" y="-50.3" font-family="Times,serif" font-size="14.00">octave</text>
</a>
</g>
</g>
<!-- qt&#45;&gt;octave -->
<g id="edge8" class="edge">
<title>qt&#45;&gt;octave</title>
<path fill="none" stroke="black" d="M140.83,-325.97C149.45,-315.74 160.52,-301.63 168.55,-288 203.92,-227.97 209.39,-210.39 230.55,-144 237.05,-123.58 242,-99.82 245.21,-81.99"/>
<polygon fill="black" stroke="black" points="248.68,-82.44 246.94,-71.99 241.79,-81.24 248.68,-82.44"/>
</g>
<!-- python&#45;igraph -->
<g id="node9" class="node">
<title>python&#45;igraph</title>
<g id="a_node9"><a xlink:href="https://github.com/conda-forge/python-igraph-feedstock/pull/31" xlink:title="python igraph">
<ellipse fill="#31688e" stroke="black" cx="372.55" cy="-450" rx="74.19" ry="18"/>
<text text-anchor="middle" x="372.55" y="-446.3" font-family="Times,serif" font-size="14.00" fill="white">python igraph</text>
</a>
</g>
</g>
<!-- root5 -->
<g id="node10" class="node">
<title>root5</title>
<g id="a_node10"><a xlink:href="https://github.com/conda-forge/root5-feedstock" xlink:title="root5">
<ellipse fill="#35b779" stroke="black" cx="372.55" cy="-378" rx="35.19" ry="18"/>
<text text-anchor="middle" x="372.55" y="-374.3" font-family="Times,serif" font-size="14.00">root5</text>
</a>
</g>
</g>
<!-- python&#45;igraph&#45;&gt;root5 -->
<!-- texlive&#45;core -->
<g id="node14" class="node">
<title>texlive&#45;core</title>
<g id="a_node14"><a xlink:href="https://github.com/conda-forge/texlive-core-feedstock/pull/38" xlink:title="texlive core">
<ellipse fill="#31688e" stroke="black" cx="372.55" cy="-306" rx="69.59" ry="18"/>
<text text-anchor="middle" x="372.55" y="-302.3" font-family="Times,serif" font-size="14.00" fill="white">texlive core</text>
</a>
</g>
</g>
<!-- root5&#45;&gt;texlive&#45;core -->
<!-- r&#45;base -->
<g id="node11" class="node">
<title>r&#45;base</title>
<g id="a_node11"><a xlink:href="https://github.com/conda-forge/r-base-feedstock/pull/130" xlink:title="r base">
<ellipse fill="#31688e" stroke="black" cx="513.55" cy="-270" rx="40.5" ry="18"/>
<text text-anchor="middle" x="513.55" y="-266.3" font-family="Times,serif" font-size="14.00" fill="white">r base</text>
</a>
</g>
</g>
<!-- r&#45;stringi -->
<g id="node12" class="node">
<title>r&#45;stringi</title>
<g id="a_node12"><a xlink:href="https://github.com/conda-forge/r-stringi-feedstock" xlink:title="r stringi">
<ellipse fill="#fde725" stroke="black" cx="508.55" cy="-198" rx="54.69" ry="18"/>
<text text-anchor="middle" x="508.55" y="-194.3" font-family="Times,serif" font-size="14.00">r stringi</text>
</a>
</g>
</g>
<!-- r&#45;base&#45;&gt;r&#45;stringi -->
<g id="edge10" class="edge">
<title>r&#45;base&#45;&gt;r&#45;stringi</title>
<path fill="none" stroke="black" d="M512.31,-251.7C511.76,-243.98 511.1,-234.71 510.48,-226.11"/>
<polygon fill="black" stroke="black" points="513.97,-225.83 509.77,-216.1 506.99,-226.33 513.97,-225.83"/>
</g>
<!-- r&#45;v8 -->
<g id="node13" class="node">
<title>r&#45;v8</title>
<g id="a_node13"><a xlink:href="https://github.com/conda-forge/r-v8-feedstock" xlink:title="r v8">
<ellipse fill="#fde725" stroke="black" cx="611.55" cy="-198" rx="30.59" ry="18"/>
<text text-anchor="middle" x="611.55" y="-194.3" font-family="Times,serif" font-size="14.00">r v8</text>
</a>
</g>
</g>
<!-- r&#45;base&#45;&gt;r&#45;v8 -->
<g id="edge11" class="edge">
<title>r&#45;base&#45;&gt;r&#45;v8</title>
<path fill="none" stroke="black" d="M534.33,-254.15C548.93,-243.73 568.6,-229.67 584.44,-218.36"/>
<polygon fill="black" stroke="black" points="586.68,-221.06 592.78,-212.4 582.61,-215.37 586.68,-221.06"/>
</g>
<!-- mdsplus -->
<g id="node15" class="node">
<title>mdsplus</title>
<g id="a_node15"><a xlink:href="https://github.com/conda-forge/mdsplus-feedstock" xlink:title="mdsplus">
<ellipse fill="#35b779" stroke="black" cx="372.55" cy="-234" rx="45" ry="18"/>
<text text-anchor="middle" x="372.55" y="-230.3" font-family="Times,serif" font-size="14.00">mdsplus</text>
</a>
</g>
</g>
<!-- texlive&#45;core&#45;&gt;mdsplus -->
<!-- scilab -->
<g id="node16" class="node">
<title>scilab</title>
<g id="a_node16"><a xlink:href="https://github.com/conda-forge/scilab-feedstock/pull/14" xlink:title="scilab">
<ellipse fill="#31688e" stroke="black" cx="372.55" cy="-162" rx="40.5" ry="18"/>
<text text-anchor="middle" x="372.55" y="-158.3" font-family="Times,serif" font-size="14.00" fill="white">scilab</text>
</a>
</g>
</g>
<!-- mdsplus&#45;&gt;scilab -->
<!-- ifcopenshell -->
<g id="node17" class="node">
<title>ifcopenshell</title>
<g id="a_node17"><a xlink:href="https://github.com/conda-forge/ifcopenshell-feedstock/pull/10" xlink:title="ifcopenshell">
<ellipse fill="#31688e" stroke="black" cx="372.55" cy="-90" rx="69.59" ry="18"/>
<text text-anchor="middle" x="372.55" y="-86.3" font-family="Times,serif" font-size="14.00" fill="white">ifcopenshell</text>
</a>
</g>
</g>
<!-- scilab&#45;&gt;ifcopenshell -->
<!-- nbin -->
<g id="node18" class="node">
<title>nbin</title>
<g id="a_node18"><a xlink:href="https://github.com/conda-forge/nbin-feedstock/pull/1" xlink:title="nbin">
<ellipse fill="#31688e" stroke="black" cx="372.55" cy="-18" rx="30.59" ry="18"/>
<text text-anchor="middle" x="372.55" y="-14.3" font-family="Times,serif" font-size="14.00" fill="white">nbin</text>
</a>
</g>
</g>
<!-- ifcopenshell&#45;&gt;nbin -->
<!-- libv8 -->
<g id="node19" class="node">
<title>libv8</title>
<g id="a_node19"><a xlink:href="https://github.com/conda-forge/libv8-feedstock/pull/12" xlink:title="libv8">
<ellipse fill="#31688e" stroke="black" cx="611.55" cy="-270" rx="35.19" ry="18"/>
<text text-anchor="middle" x="611.55" y="-266.3" font-family="Times,serif" font-size="14.00" fill="white">libv8</text>
</a>
</g>
</g>
<!-- libv8&#45;&gt;r&#45;v8 -->
<g id="edge17" class="edge">
<title>libv8&#45;&gt;r&#45;v8</title>
<path fill="none" stroke="black" d="M611.55,-251.7C611.55,-243.98 611.55,-234.71 611.55,-226.11"/>
<polygon fill="black" stroke="black" points="615.05,-226.1 611.55,-216.1 608.05,-226.1 615.05,-226.1"/>
</g>
</g>
</svg>
