<?xml version="1.0" encoding="UTF-8" standalone="no"?>
<!DOCTYPE svg PUBLIC "-//W3C//DTD SVG 1.1//EN"
 "http://www.w3.org/Graphics/SVG/1.1/DTD/svg11.dtd">
<!-- Generated by graphviz version 2.42.3 (20191010.1750)
 -->
<!-- Title: %3 Pages: 1 -->
<svg width="595pt" height="592pt"
 viewBox="0.00 0.00 595.19 592.00" xmlns="http://www.w3.org/2000/svg" xmlns:xlink="http://www.w3.org/1999/xlink">
<g id="graph0" class="graph" transform="scale(1 1) rotate(0) translate(4 588)">
<title>%3</title>
<polygon fill="white" stroke="transparent" points="-4,4 -4,-588 591.19,-588 591.19,4 -4,4"/>
<!-- gdal -->
<g id="node1" class="node">
<title>gdal</title>
<g id="a_node1"><a xlink:href="https://github.com/conda-forge/gdal-feedstock" xlink:title="gdal">
<ellipse fill="#fde725" stroke="black" cx="186.09" cy="-386" rx="30.59" ry="18"/>
<text text-anchor="middle" x="186.09" y="-382.3" font-family="Times,serif" font-size="14.00">gdal</text>
</a>
</g>
</g>
<!-- qgis -->
<g id="node2" class="node">
<title>qgis</title>
<g id="a_node2"><a xlink:href="https://github.com/conda-forge/qgis-feedstock" xlink:title="qgis">
<ellipse fill="#fde725" stroke="black" cx="193.09" cy="-314" rx="30.59" ry="18"/>
<text text-anchor="middle" x="193.09" y="-310.3" font-family="Times,serif" font-size="14.00">qgis</text>
</a>
</g>
</g>
<!-- gdal&#45;&gt;qgis -->
<g id="edge1" class="edge">
<title>gdal&#45;&gt;qgis</title>
<path fill="none" stroke="black" d="M187.82,-367.7C188.6,-359.98 189.52,-350.71 190.38,-342.11"/>
<polygon fill="black" stroke="black" points="193.87,-342.4 191.38,-332.1 186.91,-341.71 193.87,-342.4"/>
</g>
<!-- libgd -->
<g id="node3" class="node">
<title>libgd</title>
<g id="a_node3"><a xlink:href="https://github.com/conda-forge/libgd-feedstock" xlink:title="libgd">
<ellipse fill="#fde725" stroke="black" cx="283.09" cy="-314" rx="35.19" ry="18"/>
<text text-anchor="middle" x="283.09" y="-310.3" font-family="Times,serif" font-size="14.00">libgd</text>
</a>
</g>
</g>
<!-- matplotlib -->
<g id="node4" class="node">
<title>matplotlib</title>
<g id="a_node4"><a xlink:href="https://github.com/conda-forge/matplotlib-feedstock" xlink:title="matplotlib">
<ellipse fill="#fde725" stroke="black" cx="74.09" cy="-90" rx="60" ry="18"/>
<text text-anchor="middle" x="74.09" y="-86.3" font-family="Times,serif" font-size="14.00">matplotlib</text>
</a>
</g>
</g>
<!-- alps -->
<g id="node5" class="node">
<title>alps</title>
<g id="a_node5"><a xlink:href="https://github.com/conda-forge/alps-feedstock" xlink:title="alps">
<ellipse fill="#fde725" stroke="black" cx="74.09" cy="-18" rx="30.59" ry="18"/>
<text text-anchor="middle" x="74.09" y="-14.3" font-family="Times,serif" font-size="14.00">alps</text>
</a>
</g>
</g>
<!-- matplotlib&#45;&gt;alps -->
<g id="edge2" class="edge">
<title>matplotlib&#45;&gt;alps</title>
<path fill="none" stroke="black" d="M74.09,-71.7C74.09,-63.98 74.09,-54.71 74.09,-46.11"/>
<polygon fill="black" stroke="black" points="77.59,-46.1 74.09,-36.1 70.59,-46.1 77.59,-46.1"/>
</g>
<!-- octave -->
<g id="node6" class="node">
<title>octave</title>
<g id="a_node6"><a xlink:href="https://github.com/conda-forge/octave-feedstock" xlink:title="octave">
<ellipse fill="#fde725" stroke="black" cx="346.09" cy="-242" rx="40.5" ry="18"/>
<text text-anchor="middle" x="346.09" y="-238.3" font-family="Times,serif" font-size="14.00">octave</text>
</a>
</g>
</g>
<!-- python&#45;igraph -->
<g id="node7" class="node">
<title>python&#45;igraph</title>
<g id="a_node7"><a xlink:href="https://github.com/conda-forge/python-igraph-feedstock/pull/31" xlink:title="python igraph">
<ellipse fill="#31688e" stroke="black" cx="74.09" cy="-566" rx="74.19" ry="18"/>
<text text-anchor="middle" x="74.09" y="-562.3" font-family="Times,serif" font-size="14.00" fill="white">python igraph</text>
</a>
</g>
</g>
<!-- root5 -->
<g id="node8" class="node">
<title>root5</title>
<g id="a_node8"><a xlink:href="https://github.com/conda-forge/root5-feedstock" xlink:title="root5">
<ellipse fill="#35b779" stroke="black" cx="74.09" cy="-494" rx="35.19" ry="18"/>
<text text-anchor="middle" x="74.09" y="-490.3" font-family="Times,serif" font-size="14.00">root5</text>
</a>
</g>
</g>
<!-- python&#45;igraph&#45;&gt;root5 -->
<!-- texlive&#45;core -->
<g id="node13" class="node">
<title>texlive&#45;core</title>
<g id="a_node13"><a xlink:href="https://github.com/conda-forge/texlive-core-feedstock/pull/38" xlink:title="texlive core">
<ellipse fill="#31688e" stroke="black" cx="74.09" cy="-422" rx="69.59" ry="18"/>
<text text-anchor="middle" x="74.09" y="-418.3" font-family="Times,serif" font-size="14.00" fill="white">texlive core</text>
</a>
</g>
</g>
<!-- root5&#45;&gt;texlive&#45;core -->
<!-- qt -->
<g id="node9" class="node">
<title>qt</title>
<g id="a_node9"><a xlink:href="https://github.com/conda-forge/qt-feedstock/pull/157" xlink:title="qt">
<ellipse fill="#31688e" stroke="black" cx="264.09" cy="-458" rx="27" ry="18"/>
<text text-anchor="middle" x="264.09" y="-454.3" font-family="Times,serif" font-size="14.00" fill="white">qt</text>
</a>
</g>
</g>
<!-- qt&#45;&gt;gdal -->
<g id="edge4" class="edge">
<title>qt&#45;&gt;gdal</title>
<path fill="none" stroke="black" d="M248.68,-443.17C237.58,-433.21 222.39,-419.57 209.75,-408.23"/>
<polygon fill="black" stroke="black" points="212.06,-405.6 202.28,-401.52 207.38,-410.81 212.06,-405.6"/>
</g>
<!-- qt&#45;&gt;qgis -->
<g id="edge5" class="edge">
<title>qt&#45;&gt;qgis</title>
<path fill="none" stroke="black" d="M257.83,-440.25C250.84,-422.09 238.82,-392.44 226.09,-368 221.11,-358.44 215.02,-348.31 209.43,-339.49"/>
<polygon fill="black" stroke="black" points="212.23,-337.36 203.86,-330.86 206.35,-341.16 212.23,-337.36"/>
</g>
<!-- qt&#45;&gt;libgd -->
<g id="edge6" class="edge">
<title>qt&#45;&gt;libgd</title>
<path fill="none" stroke="black" d="M266.39,-439.87C269.62,-415.67 275.57,-371.21 279.43,-342.39"/>
<polygon fill="black" stroke="black" points="282.94,-342.57 280.79,-332.19 276,-341.64 282.94,-342.57"/>
</g>
<!-- qt&#45;&gt;octave -->
<g id="edge7" class="edge">
<title>qt&#45;&gt;octave</title>
<path fill="none" stroke="black" d="M273.84,-441.01C287.6,-417.8 312.64,-373.03 327.09,-332 334.21,-311.79 339.12,-288.01 342.16,-270.12"/>
<polygon fill="black" stroke="black" points="345.64,-270.52 343.78,-260.09 338.73,-269.4 345.64,-270.52"/>
</g>
<!-- r&#45;base -->
<g id="node10" class="node">
<title>r&#45;base</title>
<g id="a_node10"><a xlink:href="https://github.com/conda-forge/r-base-feedstock/pull/135" xlink:title="r base">
<ellipse fill="#31688e" stroke="black" cx="454.09" cy="-386" rx="40.5" ry="18"/>
<text text-anchor="middle" x="454.09" y="-382.3" font-family="Times,serif" font-size="14.00" fill="white">r base</text>
</a>
</g>
</g>
<!-- r&#45;stringi -->
<g id="node11" class="node">
<title>r&#45;stringi</title>
<g id="a_node11"><a xlink:href="https://github.com/conda-forge/r-stringi-feedstock" xlink:title="r stringi">
<ellipse fill="#fde725" stroke="black" cx="449.09" cy="-314" rx="54.69" ry="18"/>
<text text-anchor="middle" x="449.09" y="-310.3" font-family="Times,serif" font-size="14.00">r stringi</text>
</a>
</g>
</g>
<!-- r&#45;base&#45;&gt;r&#45;stringi -->
<g id="edge8" class="edge">
<title>r&#45;base&#45;&gt;r&#45;stringi</title>
<path fill="none" stroke="black" d="M452.86,-367.7C452.31,-359.98 451.64,-350.71 451.03,-342.11"/>
<polygon fill="black" stroke="black" points="454.52,-341.83 450.32,-332.1 447.54,-342.33 454.52,-341.83"/>
</g>
<!-- r&#45;v8 -->
<g id="node12" class="node">
<title>r&#45;v8</title>
<g id="a_node12"><a xlink:href="https://github.com/conda-forge/r-v8-feedstock" xlink:title="r v8">
<ellipse fill="#fde725" stroke="black" cx="552.09" cy="-314" rx="30.59" ry="18"/>
<text text-anchor="middle" x="552.09" y="-310.3" font-family="Times,serif" font-size="14.00">r v8</text>
</a>
</g>
</g>
<!-- r&#45;base&#45;&gt;r&#45;v8 -->
<g id="edge9" class="edge">
<title>r&#45;base&#45;&gt;r&#45;v8</title>
<path fill="none" stroke="black" d="M474.88,-370.15C489.48,-359.73 509.15,-345.67 524.98,-334.36"/>
<polygon fill="black" stroke="black" points="527.23,-337.06 533.33,-328.4 523.16,-331.37 527.23,-337.06"/>
</g>
<!-- mdsplus -->
<g id="node14" class="node">
<title>mdsplus</title>
<g id="a_node14"><a xlink:href="https://github.com/conda-forge/mdsplus-feedstock" xlink:title="mdsplus">
<ellipse fill="#35b779" stroke="black" cx="74.09" cy="-350" rx="45" ry="18"/>
<text text-anchor="middle" x="74.09" y="-346.3" font-family="Times,serif" font-size="14.00">mdsplus</text>
</a>
</g>
</g>
<!-- texlive&#45;core&#45;&gt;mdsplus -->
<!-- scilab -->
<g id="node15" class="node">
<title>scilab</title>
<g id="a_node15"><a xlink:href="https://github.com/conda-forge/scilab-feedstock/pull/14" xlink:title="scilab">
<ellipse fill="#31688e" stroke="black" cx="74.09" cy="-278" rx="40.5" ry="18"/>
<text text-anchor="middle" x="74.09" y="-274.3" font-family="Times,serif" font-size="14.00" fill="white">scilab</text>
</a>
</g>
</g>
<!-- mdsplus&#45;&gt;scilab -->
<!-- ifcopenshell -->
<g id="node16" class="node">
<title>ifcopenshell</title>
<g id="a_node16"><a xlink:href="https://github.com/conda-forge/ifcopenshell-feedstock/pull/10" xlink:title="ifcopenshell">
<ellipse fill="#31688e" stroke="black" cx="74.09" cy="-206" rx="69.59" ry="18"/>
<text text-anchor="middle" x="74.09" y="-202.3" font-family="Times,serif" font-size="14.00" fill="white">ifcopenshell</text>
</a>
</g>
</g>
<!-- scilab&#45;&gt;ifcopenshell -->
<!-- nbin -->
<g id="node17" class="node">
<title>nbin</title>
<g id="a_node17"><a xlink:href="https://github.com/conda-forge/nbin-feedstock/pull/1" xlink:title="nbin">
<ellipse fill="#31688e" stroke="black" cx="74.09" cy="-134" rx="30.59" ry="18"/>
<text text-anchor="middle" x="74.09" y="-130.3" font-family="Times,serif" font-size="14.00" fill="white">nbin</text>
</a>
</g>
</g>
<!-- ifcopenshell&#45;&gt;nbin -->
<!-- libv8 -->
<g id="node18" class="node">
<title>libv8</title>
<g id="a_node18"><a xlink:href="https://github.com/conda-forge/libv8-feedstock/pull/12" xlink:title="libv8">
<ellipse fill="#31688e" stroke="black" cx="552.09" cy="-386" rx="35.19" ry="18"/>
<text text-anchor="middle" x="552.09" y="-382.3" font-family="Times,serif" font-size="14.00" fill="white">libv8</text>
</a>
</g>
</g>
<!-- libv8&#45;&gt;r&#45;v8 -->
<g id="edge15" class="edge">
<title>libv8&#45;&gt;r&#45;v8</title>
<path fill="none" stroke="black" d="M552.09,-367.7C552.09,-359.98 552.09,-350.71 552.09,-342.11"/>
<polygon fill="black" stroke="black" points="555.59,-342.1 552.09,-332.1 548.59,-342.1 555.59,-342.1"/>
</g>
</g>
</svg>
