<?xml version="1.0" encoding="UTF-8" standalone="no"?>
<!DOCTYPE svg PUBLIC "-//W3C//DTD SVG 1.1//EN"
 "http://www.w3.org/Graphics/SVG/1.1/DTD/svg11.dtd">
<!-- Generated by graphviz version 2.42.3 (20191010.1750)
 -->
<!-- Title: %3 Pages: 1 -->
<svg width="506pt" height="548pt"
 viewBox="0.00 0.00 505.60 548.00" xmlns="http://www.w3.org/2000/svg" xmlns:xlink="http://www.w3.org/1999/xlink">
<g id="graph0" class="graph" transform="scale(1 1) rotate(0) translate(4 544)">
<title>%3</title>
<polygon fill="white" stroke="transparent" points="-4,4 -4,-544 501.6,-544 501.6,4 -4,4"/>
<!-- gdal -->
<g id="node1" class="node">
<title>gdal</title>
<g id="a_node1"><a xlink:href="https://github.com/conda-forge/gdal-feedstock" xlink:title="gdal">
<ellipse fill="#fde725" stroke="black" cx="155" cy="-306" rx="27" ry="18"/>
<text text-anchor="middle" x="155" y="-302.3" font-family="Times,serif" font-size="14.00">gdal</text>
</a>
</g>
</g>
<!-- qgis -->
<g id="node2" class="node">
<title>qgis</title>
<g id="a_node2"><a xlink:href="https://github.com/conda-forge/qgis-feedstock" xlink:title="qgis">
<ellipse fill="#fde725" stroke="black" cx="165" cy="-234" rx="27" ry="18"/>
<text text-anchor="middle" x="165" y="-230.3" font-family="Times,serif" font-size="14.00">qgis</text>
</a>
</g>
</g>
<!-- gdal&#45;&gt;qgis -->
<g id="edge1" class="edge">
<title>gdal&#45;&gt;qgis</title>
<path fill="none" stroke="black" d="M157.42,-288.05C158.52,-280.35 159.85,-271.03 161.09,-262.36"/>
<polygon fill="black" stroke="black" points="164.58,-262.67 162.53,-252.28 157.65,-261.68 164.58,-262.67"/>
</g>
<!-- libgd -->
<g id="node3" class="node">
<title>libgd</title>
<g id="a_node3"><a xlink:href="https://github.com/conda-forge/libgd-feedstock" xlink:title="libgd">
<ellipse fill="#fde725" stroke="black" cx="248" cy="-234" rx="28.7" ry="18"/>
<text text-anchor="middle" x="248" y="-230.3" font-family="Times,serif" font-size="14.00">libgd</text>
</a>
</g>
</g>
<!-- octave -->
<g id="node4" class="node">
<title>octave</title>
<g id="a_node4"><a xlink:href="https://github.com/conda-forge/octave-feedstock" xlink:title="octave">
<ellipse fill="#fde725" stroke="black" cx="305" cy="-162" rx="34" ry="18"/>
<text text-anchor="middle" x="305" y="-158.3" font-family="Times,serif" font-size="14.00">octave</text>
</a>
</g>
</g>
<!-- python&#45;igraph -->
<g id="node5" class="node">
<title>python&#45;igraph</title>
<g id="a_node5"><a xlink:href="https://github.com/conda-forge/python-igraph-feedstock/pull/31" xlink:title="python igraph">
<ellipse fill="#31688e" stroke="black" cx="60" cy="-522" rx="60" ry="18"/>
<text text-anchor="middle" x="60" y="-518.3" font-family="Times,serif" font-size="14.00" fill="white">python igraph</text>
</a>
</g>
</g>
<!-- root5 -->
<g id="node6" class="node">
<title>root5</title>
<g id="a_node6"><a xlink:href="https://github.com/conda-forge/root5-feedstock/pull/22" xlink:title="root5">
<ellipse fill="#31688e" stroke="black" cx="60" cy="-450" rx="29.5" ry="18"/>
<text text-anchor="middle" x="60" y="-446.3" font-family="Times,serif" font-size="14.00" fill="white">root5</text>
</a>
</g>
</g>
<!-- python&#45;igraph&#45;&gt;root5 -->
<!-- texlive&#45;core -->
<g id="node11" class="node">
<title>texlive&#45;core</title>
<g id="a_node11"><a xlink:href="https://github.com/conda-forge/texlive-core-feedstock/pull/38" xlink:title="texlive core">
<ellipse fill="#31688e" stroke="black" cx="60" cy="-378" rx="52" ry="18"/>
<text text-anchor="middle" x="60" y="-374.3" font-family="Times,serif" font-size="14.00" fill="white">texlive core</text>
</a>
</g>
</g>
<!-- root5&#45;&gt;texlive&#45;core -->
<!-- qt -->
<g id="node7" class="node">
<title>qt</title>
<g id="a_node7"><a xlink:href="https://github.com/conda-forge/qt-feedstock/pull/157" xlink:title="qt">
<ellipse fill="#31688e" stroke="black" cx="229" cy="-378" rx="27" ry="18"/>
<text text-anchor="middle" x="229" y="-374.3" font-family="Times,serif" font-size="14.00" fill="white">qt</text>
</a>
</g>
</g>
<!-- qt&#45;&gt;gdal -->
<g id="edge3" class="edge">
<title>qt&#45;&gt;gdal</title>
<path fill="none" stroke="black" d="M214.02,-362.83C203.49,-352.87 189.22,-339.37 177.34,-328.14"/>
<polygon fill="black" stroke="black" points="179.62,-325.47 169.95,-321.14 174.81,-330.56 179.62,-325.47"/>
</g>
<!-- qt&#45;&gt;qgis -->
<g id="edge4" class="edge">
<title>qt&#45;&gt;qgis</title>
<path fill="none" stroke="black" d="M222.25,-360.48C214.85,-342.53 202.48,-313.05 191,-288 186.9,-279.06 182.23,-269.39 177.98,-260.77"/>
<polygon fill="black" stroke="black" points="181.01,-259 173.42,-251.6 174.74,-262.11 181.01,-259"/>
</g>
<!-- qt&#45;&gt;libgd -->
<g id="edge5" class="edge">
<title>qt&#45;&gt;libgd</title>
<path fill="none" stroke="black" d="M231.29,-359.87C234.53,-335.67 240.48,-291.21 244.33,-262.39"/>
<polygon fill="black" stroke="black" points="247.84,-262.57 245.7,-252.19 240.9,-261.64 247.84,-262.57"/>
</g>
<!-- qt&#45;&gt;octave -->
<g id="edge6" class="edge">
<title>qt&#45;&gt;octave</title>
<path fill="none" stroke="black" d="M237.73,-360.88C250.08,-337.5 272.61,-292.54 286,-252 292.72,-231.65 297.65,-207.89 300.81,-190.03"/>
<polygon fill="black" stroke="black" points="304.28,-190.46 302.5,-180.02 297.38,-189.3 304.28,-190.46"/>
</g>
<!-- r&#45;base -->
<g id="node8" class="node">
<title>r&#45;base</title>
<g id="a_node8"><a xlink:href="https://github.com/conda-forge/r-base-feedstock/pull/135" xlink:title="r base">
<ellipse fill="#31688e" stroke="black" cx="388" cy="-306" rx="32" ry="18"/>
<text text-anchor="middle" x="388" y="-302.3" font-family="Times,serif" font-size="14.00" fill="white">r base</text>
</a>
</g>
</g>
<!-- r&#45;stringi -->
<g id="node9" class="node">
<title>r&#45;stringi</title>
<g id="a_node9"><a xlink:href="https://github.com/conda-forge/r-stringi-feedstock" xlink:title="r stringi">
<ellipse fill="#fde725" stroke="black" cx="385" cy="-234" rx="38.5" ry="18"/>
<text text-anchor="middle" x="385" y="-230.3" font-family="Times,serif" font-size="14.00">r stringi</text>
</a>
</g>
</g>
<!-- r&#45;base&#45;&gt;r&#45;stringi -->
<g id="edge7" class="edge">
<title>r&#45;base&#45;&gt;r&#45;stringi</title>
<path fill="none" stroke="black" d="M387.26,-287.7C386.93,-279.98 386.53,-270.71 386.16,-262.11"/>
<polygon fill="black" stroke="black" points="389.66,-261.95 385.73,-252.1 382.66,-262.25 389.66,-261.95"/>
</g>
<!-- r&#45;v8 -->
<g id="node10" class="node">
<title>r&#45;v8</title>
<g id="a_node10"><a xlink:href="https://github.com/conda-forge/r-v8-feedstock" xlink:title="r v8">
<ellipse fill="#fde725" stroke="black" cx="469" cy="-234" rx="27" ry="18"/>
<text text-anchor="middle" x="469" y="-230.3" font-family="Times,serif" font-size="14.00">r v8</text>
</a>
</g>
</g>
<!-- r&#45;base&#45;&gt;r&#45;v8 -->
<g id="edge8" class="edge">
<title>r&#45;base&#45;&gt;r&#45;v8</title>
<path fill="none" stroke="black" d="M404.78,-290.5C416.53,-280.35 432.38,-266.65 445.39,-255.4"/>
<polygon fill="black" stroke="black" points="447.79,-257.96 453.06,-248.77 443.21,-252.66 447.79,-257.96"/>
</g>
<!-- alps -->
<g id="node12" class="node">
<title>alps</title>
<g id="a_node12"><a xlink:href="https://github.com/conda-forge/alps-feedstock/pull/32" xlink:title="alps">
<ellipse fill="#31688e" stroke="black" cx="60" cy="-306" rx="27" ry="18"/>
<text text-anchor="middle" x="60" y="-302.3" font-family="Times,serif" font-size="14.00" fill="white">alps</text>
</a>
</g>
</g>
<!-- texlive&#45;core&#45;&gt;alps -->
<!-- mdsplus -->
<g id="node13" class="node">
<title>mdsplus</title>
<g id="a_node13"><a xlink:href="https://github.com/conda-forge/mdsplus-feedstock/pull/12" xlink:title="mdsplus">
<ellipse fill="#31688e" stroke="black" cx="60" cy="-234" rx="40.5" ry="18"/>
<text text-anchor="middle" x="60" y="-230.3" font-family="Times,serif" font-size="14.00" fill="white">mdsplus</text>
</a>
</g>
</g>
<!-- alps&#45;&gt;mdsplus -->
<!-- scilab -->
<g id="node14" class="node">
<title>scilab</title>
<g id="a_node14"><a xlink:href="https://github.com/conda-forge/scilab-feedstock/pull/14" xlink:title="scilab">
<ellipse fill="#31688e" stroke="black" cx="60" cy="-162" rx="31.4" ry="18"/>
<text text-anchor="middle" x="60" y="-158.3" font-family="Times,serif" font-size="14.00" fill="white">scilab</text>
</a>
</g>
</g>
<!-- mdsplus&#45;&gt;scilab -->
<!-- ifcopenshell -->
<g id="node15" class="node">
<title>ifcopenshell</title>
<g id="a_node15"><a xlink:href="https://github.com/conda-forge/ifcopenshell-feedstock/pull/10" xlink:title="ifcopenshell">
<ellipse fill="#31688e" stroke="black" cx="60" cy="-90" rx="54" ry="18"/>
<text text-anchor="middle" x="60" y="-86.3" font-family="Times,serif" font-size="14.00" fill="white">ifcopenshell</text>
</a>
</g>
</g>
<!-- scilab&#45;&gt;ifcopenshell -->
<!-- nbin -->
<g id="node16" class="node">
<title>nbin</title>
<g id="a_node16"><a xlink:href="https://github.com/conda-forge/nbin-feedstock/pull/1" xlink:title="nbin">
<ellipse fill="#31688e" stroke="black" cx="60" cy="-18" rx="27" ry="18"/>
<text text-anchor="middle" x="60" y="-14.3" font-family="Times,serif" font-size="14.00" fill="white">nbin</text>
</a>
</g>
</g>
<!-- ifcopenshell&#45;&gt;nbin -->
<!-- libv8 -->
<g id="node17" class="node">
<title>libv8</title>
<g id="a_node17"><a xlink:href="https://github.com/conda-forge/libv8-feedstock/pull/12" xlink:title="libv8">
<ellipse fill="#31688e" stroke="black" cx="469" cy="-306" rx="28.7" ry="18"/>
<text text-anchor="middle" x="469" y="-302.3" font-family="Times,serif" font-size="14.00" fill="white">libv8</text>
</a>
</g>
</g>
<!-- libv8&#45;&gt;r&#45;v8 -->
<g id="edge15" class="edge">
<title>libv8&#45;&gt;r&#45;v8</title>
<path fill="none" stroke="black" d="M469,-287.7C469,-279.98 469,-270.71 469,-262.11"/>
<polygon fill="black" stroke="black" points="472.5,-262.1 469,-252.1 465.5,-262.1 472.5,-262.1"/>
</g>
</g>
</svg>
