<?xml version="1.0" encoding="UTF-8" standalone="no"?>
<!DOCTYPE svg PUBLIC "-//W3C//DTD SVG 1.1//EN"
 "http://www.w3.org/Graphics/SVG/1.1/DTD/svg11.dtd">
<!-- Generated by graphviz version 2.42.3 (20191010.1750)
 -->
<!-- Title: %3 Pages: 1 -->
<svg width="1346pt" height="404pt"
 viewBox="0.00 0.00 1346.05 404.00" xmlns="http://www.w3.org/2000/svg" xmlns:xlink="http://www.w3.org/1999/xlink">
<g id="graph0" class="graph" transform="scale(1 1) rotate(0) translate(4 400)">
<title>%3</title>
<polygon fill="white" stroke="transparent" points="-4,4 -4,-400 1342.05,-400 1342.05,4 -4,4"/>
<!-- gdal -->
<g id="node1" class="node">
<title>gdal</title>
<g id="a_node1"><a xlink:href="https://github.com/conda-forge/gdal-feedstock" xlink:title="gdal">
<ellipse fill="#fde725" stroke="black" cx="167.5" cy="-162" rx="30.59" ry="18"/>
<text text-anchor="middle" x="167.5" y="-158.3" font-family="Times,serif" font-size="14.00">gdal</text>
</a>
</g>
</g>
<!-- qgis -->
<g id="node2" class="node">
<title>qgis</title>
<g id="a_node2"><a xlink:href="https://github.com/conda-forge/qgis-feedstock" xlink:title="qgis">
<ellipse fill="#fde725" stroke="black" cx="129.5" cy="-90" rx="30.59" ry="18"/>
<text text-anchor="middle" x="129.5" y="-86.3" font-family="Times,serif" font-size="14.00">qgis</text>
</a>
</g>
</g>
<!-- gdal&#45;&gt;qgis -->
<g id="edge1" class="edge">
<title>gdal&#45;&gt;qgis</title>
<path fill="none" stroke="black" d="M158.69,-144.76C154.15,-136.4 148.51,-126.02 143.4,-116.61"/>
<polygon fill="black" stroke="black" points="146.38,-114.75 138.53,-107.63 140.22,-118.09 146.38,-114.75"/>
</g>
<!-- conda&#45;forge&#45;pinning -->
<g id="node3" class="node">
<title>conda&#45;forge&#45;pinning</title>
<ellipse fill="none" stroke="black" cx="733.5" cy="-18" rx="103.5" ry="18"/>
<text text-anchor="middle" x="733.5" y="-14.3" font-family="Times,serif" font-size="14.00">conda&#45;forge&#45;pinning</text>
</g>
<!-- gdal&#45;&gt;conda&#45;forge&#45;pinning -->
<g id="edge2" class="edge">
<title>gdal&#45;&gt;conda&#45;forge&#45;pinning</title>
<path fill="none" stroke="black" d="M170.93,-143.99C176.08,-123.24 187.96,-88.86 212.5,-72 245.7,-49.18 482.68,-32.56 625.34,-24.48"/>
<polygon fill="black" stroke="black" points="625.66,-27.97 635.45,-23.92 625.27,-20.98 625.66,-27.97"/>
</g>
<!-- qgis&#45;&gt;conda&#45;forge&#45;pinning -->
<g id="edge3" class="edge">
<title>qgis&#45;&gt;conda&#45;forge&#45;pinning</title>
<path fill="none" stroke="black" d="M153.42,-78.61C160.13,-76.07 167.5,-73.62 174.5,-72 326.48,-36.76 506.92,-24.86 620.82,-20.9"/>
<polygon fill="black" stroke="black" points="621.08,-24.4 630.95,-20.56 620.84,-17.4 621.08,-24.4"/>
</g>
<!-- igraph -->
<g id="node4" class="node">
<title>igraph</title>
<g id="a_node4"><a xlink:href="https://github.com/conda-forge/igraph-feedstock/pull/18" xlink:title="igraph">
<ellipse fill="#31688e" stroke="black" cx="40.5" cy="-90" rx="40.5" ry="18"/>
<text text-anchor="middle" x="40.5" y="-86.3" font-family="Times,serif" font-size="14.00" fill="white">igraph</text>
</a>
</g>
</g>
<!-- igraph&#45;&gt;conda&#45;forge&#45;pinning -->
<g id="edge4" class="edge">
<title>igraph&#45;&gt;conda&#45;forge&#45;pinning</title>
<path fill="none" stroke="black" d="M69.96,-77.44C76.32,-75.32 83.07,-73.36 89.5,-72 272.52,-33.37 490.32,-22.58 619.96,-19.75"/>
<polygon fill="black" stroke="black" points="620.37,-23.24 630.29,-19.53 620.22,-16.24 620.37,-23.24"/>
</g>
<!-- libgd -->
<g id="node5" class="node">
<title>libgd</title>
<g id="a_node5"><a xlink:href="https://github.com/conda-forge/libgd-feedstock" xlink:title="libgd">
<ellipse fill="#fde725" stroke="black" cx="289.5" cy="-162" rx="35.19" ry="18"/>
<text text-anchor="middle" x="289.5" y="-158.3" font-family="Times,serif" font-size="14.00">libgd</text>
</a>
</g>
</g>
<!-- libgd&#45;&gt;conda&#45;forge&#45;pinning -->
<g id="edge5" class="edge">
<title>libgd&#45;&gt;conda&#45;forge&#45;pinning</title>
<path fill="none" stroke="black" d="M296.6,-144C306.22,-123.28 325.47,-88.91 353.5,-72 398.05,-45.12 529.73,-31.31 625.62,-24.63"/>
<polygon fill="black" stroke="black" points="625.92,-28.11 635.66,-23.94 625.45,-21.13 625.92,-28.11"/>
</g>
<!-- matplotlib -->
<g id="node6" class="node">
<title>matplotlib</title>
<g id="a_node6"><a xlink:href="https://github.com/conda-forge/matplotlib-feedstock" xlink:title="matplotlib">
<ellipse fill="#fde725" stroke="black" cx="402.5" cy="-162" rx="60" ry="18"/>
<text text-anchor="middle" x="402.5" y="-158.3" font-family="Times,serif" font-size="14.00">matplotlib</text>
</a>
</g>
</g>
<!-- matplotlib&#45;&gt;conda&#45;forge&#45;pinning -->
<g id="edge6" class="edge">
<title>matplotlib&#45;&gt;conda&#45;forge&#45;pinning</title>
<path fill="none" stroke="black" d="M385.58,-144.61C367.8,-125.43 344.82,-93.54 363.5,-72 396.24,-34.23 523.56,-22.73 619.77,-19.55"/>
<polygon fill="black" stroke="black" points="619.97,-23.05 629.86,-19.25 619.76,-16.05 619.97,-23.05"/>
</g>
<!-- alps -->
<g id="node7" class="node">
<title>alps</title>
<g id="a_node7"><a xlink:href="https://github.com/conda-forge/alps-feedstock" xlink:title="alps">
<ellipse fill="#fde725" stroke="black" cx="403.5" cy="-90" rx="30.59" ry="18"/>
<text text-anchor="middle" x="403.5" y="-86.3" font-family="Times,serif" font-size="14.00">alps</text>
</a>
</g>
</g>
<!-- matplotlib&#45;&gt;alps -->
<g id="edge7" class="edge">
<title>matplotlib&#45;&gt;alps</title>
<path fill="none" stroke="black" d="M402.75,-143.7C402.86,-135.98 402.99,-126.71 403.11,-118.11"/>
<polygon fill="black" stroke="black" points="406.61,-118.15 403.26,-108.1 399.61,-118.05 406.61,-118.15"/>
</g>
<!-- alps&#45;&gt;conda&#45;forge&#45;pinning -->
<g id="edge8" class="edge">
<title>alps&#45;&gt;conda&#45;forge&#45;pinning</title>
<path fill="none" stroke="black" d="M426.68,-77.85C431.81,-75.68 437.27,-73.59 442.5,-72 507.38,-52.24 582.77,-38.76 640.55,-30.35"/>
<polygon fill="black" stroke="black" points="641.36,-33.77 650.76,-28.88 640.37,-26.84 641.36,-33.77"/>
</g>
<!-- octave -->
<g id="node8" class="node">
<title>octave</title>
<g id="a_node8"><a xlink:href="https://github.com/conda-forge/octave-feedstock" xlink:title="octave">
<ellipse fill="#fde725" stroke="black" cx="492.5" cy="-90" rx="40.5" ry="18"/>
<text text-anchor="middle" x="492.5" y="-86.3" font-family="Times,serif" font-size="14.00">octave</text>
</a>
</g>
</g>
<!-- octave&#45;&gt;conda&#45;forge&#45;pinning -->
<g id="edge9" class="edge">
<title>octave&#45;&gt;conda&#45;forge&#45;pinning</title>
<path fill="none" stroke="black" d="M524.75,-78.9C532.21,-76.6 540.12,-74.19 547.5,-72 588.54,-59.81 634.85,-46.62 670.99,-36.44"/>
<polygon fill="black" stroke="black" points="672.22,-39.73 680.9,-33.65 670.32,-32.99 672.22,-39.73"/>
</g>
<!-- python&#45;igraph -->
<g id="node9" class="node">
<title>python&#45;igraph</title>
<g id="a_node9"><a xlink:href="https://github.com/conda-forge/python-igraph-feedstock/pull/31" xlink:title="python igraph">
<ellipse fill="#31688e" stroke="black" cx="592.5" cy="-162" rx="74.19" ry="18"/>
<text text-anchor="middle" x="592.5" y="-158.3" font-family="Times,serif" font-size="14.00" fill="white">python igraph</text>
</a>
</g>
</g>
<!-- python&#45;igraph&#45;&gt;conda&#45;forge&#45;pinning -->
<g id="edge10" class="edge">
<title>python&#45;igraph&#45;&gt;conda&#45;forge&#45;pinning</title>
<path fill="none" stroke="black" d="M591.04,-143.99C590.3,-124.5 592.04,-92.61 608.5,-72 621.77,-55.38 641.22,-43.89 660.84,-35.98"/>
<polygon fill="black" stroke="black" points="662.32,-39.16 670.45,-32.38 659.86,-32.61 662.32,-39.16"/>
</g>
<!-- qt -->
<g id="node10" class="node">
<title>qt</title>
<g id="a_node10"><a xlink:href="https://github.com/conda-forge/qt-feedstock/pull/155" xlink:title="qt">
<ellipse fill="#31688e" stroke="black" cx="258.5" cy="-234" rx="27" ry="18"/>
<text text-anchor="middle" x="258.5" y="-230.3" font-family="Times,serif" font-size="14.00" fill="white">qt</text>
</a>
</g>
</g>
<!-- qt&#45;&gt;gdal -->
<g id="edge11" class="edge">
<title>qt&#45;&gt;gdal</title>
<path fill="none" stroke="black" d="M241.38,-219.83C227.92,-209.47 208.93,-194.87 193.57,-183.06"/>
<polygon fill="black" stroke="black" points="195.53,-180.15 185.47,-176.83 191.27,-185.7 195.53,-180.15"/>
</g>
<!-- qt&#45;&gt;qgis -->
<g id="edge12" class="edge">
<title>qt&#45;&gt;qgis</title>
<path fill="none" stroke="black" d="M231.7,-230.75C200.64,-226.54 150.75,-214.48 127.5,-180 115.25,-161.83 117.18,-136.5 121.34,-117.5"/>
<polygon fill="black" stroke="black" points="124.77,-118.24 123.81,-107.69 117.98,-116.53 124.77,-118.24"/>
</g>
<!-- qt&#45;&gt;conda&#45;forge&#45;pinning -->
<g id="edge13" class="edge">
<title>qt&#45;&gt;conda&#45;forge&#45;pinning</title>
<path fill="none" stroke="black" d="M251.23,-216.65C244.17,-198.33 235.84,-168.05 245.5,-144 262.02,-102.87 274.91,-91.92 314.5,-72 367.24,-45.46 519.46,-31.33 625.11,-24.51"/>
<polygon fill="black" stroke="black" points="625.43,-28 635.19,-23.87 624.99,-21.01 625.43,-28"/>
</g>
<!-- qt&#45;&gt;libgd -->
<g id="edge14" class="edge">
<title>qt&#45;&gt;libgd</title>
<path fill="none" stroke="black" d="M265.85,-216.41C269.42,-208.34 273.81,-198.43 277.83,-189.35"/>
<polygon fill="black" stroke="black" points="281.14,-190.52 281.99,-179.96 274.74,-187.68 281.14,-190.52"/>
</g>
<!-- qt&#45;&gt;matplotlib -->
<g id="edge15" class="edge">
<title>qt&#45;&gt;matplotlib</title>
<path fill="none" stroke="black" d="M279.75,-222.67C301.65,-212.02 336.31,-195.18 363.22,-182.09"/>
<polygon fill="black" stroke="black" points="364.92,-185.16 372.38,-177.64 361.86,-178.87 364.92,-185.16"/>
</g>
<!-- qt&#45;&gt;octave -->
<g id="edge16" class="edge">
<title>qt&#45;&gt;octave</title>
<path fill="none" stroke="black" d="M284.96,-229.86C336.03,-223.26 445.46,-206.36 471.5,-180 487.41,-163.9 492.11,-138.12 493.15,-118.44"/>
<polygon fill="black" stroke="black" points="496.66,-118.32 493.41,-108.24 489.66,-118.15 496.66,-118.32"/>
</g>
<!-- r&#45;base -->
<g id="node11" class="node">
<title>r&#45;base</title>
<g id="a_node11"><a xlink:href="https://github.com/conda-forge/r-base-feedstock/pull/130" xlink:title="r base">
<ellipse fill="#31688e" stroke="black" cx="725.5" cy="-162" rx="40.5" ry="18"/>
<text text-anchor="middle" x="725.5" y="-158.3" font-family="Times,serif" font-size="14.00" fill="white">r base</text>
</a>
</g>
</g>
<!-- r&#45;base&#45;&gt;conda&#45;forge&#45;pinning -->
<g id="edge17" class="edge">
<title>r&#45;base&#45;&gt;conda&#45;forge&#45;pinning</title>
<path fill="none" stroke="black" d="M695.07,-150.07C666.61,-139.16 627.22,-122.05 618.5,-108 610.06,-94.41 609.87,-85.47 618.5,-72 628.95,-55.68 645.83,-44.32 663.48,-36.43"/>
<polygon fill="black" stroke="black" points="664.84,-39.66 672.75,-32.62 662.17,-33.18 664.84,-39.66"/>
</g>
<!-- r&#45;stringi -->
<g id="node12" class="node">
<title>r&#45;stringi</title>
<g id="a_node12"><a xlink:href="https://github.com/conda-forge/r-stringi-feedstock" xlink:title="r stringi">
<ellipse fill="#fde725" stroke="black" cx="682.5" cy="-90" rx="54.69" ry="18"/>
<text text-anchor="middle" x="682.5" y="-86.3" font-family="Times,serif" font-size="14.00">r stringi</text>
</a>
</g>
</g>
<!-- r&#45;base&#45;&gt;r&#45;stringi -->
<g id="edge18" class="edge">
<title>r&#45;base&#45;&gt;r&#45;stringi</title>
<path fill="none" stroke="black" d="M715.31,-144.41C710.19,-136.08 703.88,-125.8 698.16,-116.49"/>
<polygon fill="black" stroke="black" points="701.13,-114.65 692.92,-107.96 695.17,-118.31 701.13,-114.65"/>
</g>
<!-- r&#45;v8 -->
<g id="node13" class="node">
<title>r&#45;v8</title>
<g id="a_node13"><a xlink:href="https://github.com/conda-forge/r-v8-feedstock" xlink:title="r v8">
<ellipse fill="#fde725" stroke="black" cx="785.5" cy="-90" rx="30.59" ry="18"/>
<text text-anchor="middle" x="785.5" y="-86.3" font-family="Times,serif" font-size="14.00">r v8</text>
</a>
</g>
</g>
<!-- r&#45;base&#45;&gt;r&#45;v8 -->
<g id="edge19" class="edge">
<title>r&#45;base&#45;&gt;r&#45;v8</title>
<path fill="none" stroke="black" d="M739.42,-144.76C747.17,-135.71 756.97,-124.29 765.53,-114.3"/>
<polygon fill="black" stroke="black" points="768.22,-116.54 772.07,-106.67 762.91,-111.98 768.22,-116.54"/>
</g>
<!-- r&#45;stringi&#45;&gt;conda&#45;forge&#45;pinning -->
<g id="edge20" class="edge">
<title>r&#45;stringi&#45;&gt;conda&#45;forge&#45;pinning</title>
<path fill="none" stroke="black" d="M694.59,-72.41C700.72,-63.99 708.3,-53.58 715.14,-44.2"/>
<polygon fill="black" stroke="black" points="718.09,-46.1 721.15,-35.96 712.43,-41.98 718.09,-46.1"/>
</g>
<!-- r&#45;v8&#45;&gt;conda&#45;forge&#45;pinning -->
<g id="edge21" class="edge">
<title>r&#45;v8&#45;&gt;conda&#45;forge&#45;pinning</title>
<path fill="none" stroke="black" d="M773.7,-73.12C767.4,-64.63 759.49,-53.98 752.35,-44.38"/>
<polygon fill="black" stroke="black" points="755.12,-42.23 746.35,-36.29 749.5,-46.41 755.12,-42.23"/>
</g>
<!-- root5 -->
<g id="node14" class="node">
<title>root5</title>
<g id="a_node14"><a xlink:href="https://github.com/conda-forge/root5-feedstock" xlink:title="root5">
<ellipse fill="#35b779" stroke="black" cx="857.5" cy="-234" rx="35.19" ry="18"/>
<text text-anchor="middle" x="857.5" y="-230.3" font-family="Times,serif" font-size="14.00">root5</text>
</a>
</g>
</g>
<!-- root5&#45;&gt;conda&#45;forge&#45;pinning -->
<g id="edge22" class="edge">
<title>root5&#45;&gt;conda&#45;forge&#45;pinning</title>
<path fill="none" stroke="black" d="M861.68,-216.1C868.55,-183.95 878.23,-113.54 843.5,-72 830.76,-56.77 812.62,-45.58 794.73,-37.53"/>
<polygon fill="black" stroke="black" points="796,-34.27 785.43,-33.6 793.28,-40.72 796,-34.27"/>
</g>
<!-- texlive&#45;core -->
<g id="node15" class="node">
<title>texlive&#45;core</title>
<g id="a_node15"><a xlink:href="https://github.com/conda-forge/texlive-core-feedstock/pull/38" xlink:title="texlive core">
<ellipse fill="#31688e" stroke="black" cx="860.5" cy="-306" rx="69.59" ry="18"/>
<text text-anchor="middle" x="860.5" y="-302.3" font-family="Times,serif" font-size="14.00" fill="white">texlive core</text>
</a>
</g>
</g>
<!-- texlive&#45;core&#45;&gt;conda&#45;forge&#45;pinning -->
<g id="edge23" class="edge">
<title>texlive&#45;core&#45;&gt;conda&#45;forge&#45;pinning</title>
<path fill="none" stroke="black" d="M878.24,-288.15C887.07,-278.51 896.84,-265.65 901.5,-252 920.37,-196.77 896.04,-105 867.5,-72 852.6,-54.77 831.35,-43.09 810.14,-35.2"/>
<polygon fill="black" stroke="black" points="811.02,-31.8 800.43,-31.83 808.73,-38.41 811.02,-31.8"/>
</g>
<!-- pyicu -->
<g id="node16" class="node">
<title>pyicu</title>
<g id="a_node16"><a xlink:href="https://github.com/conda-forge/pyicu-feedstock/pull/16" xlink:title="pyicu">
<ellipse fill="#31688e" stroke="black" cx="958.5" cy="-378" rx="35.19" ry="18"/>
<text text-anchor="middle" x="958.5" y="-374.3" font-family="Times,serif" font-size="14.00" fill="white">pyicu</text>
</a>
</g>
</g>
<!-- pyicu&#45;&gt;conda&#45;forge&#45;pinning -->
<g id="edge24" class="edge">
<title>pyicu&#45;&gt;conda&#45;forge&#45;pinning</title>
<path fill="none" stroke="black" d="M958.5,-359.95C958.5,-333.29 958.5,-280.11 958.5,-235 958.5,-235 958.5,-235 958.5,-161 958.5,-89.27 875.72,-52.32 810.58,-34.34"/>
<polygon fill="black" stroke="black" points="811.27,-30.9 800.7,-31.72 809.47,-37.66 811.27,-30.9"/>
</g>
<!-- mdsplus -->
<g id="node17" class="node">
<title>mdsplus</title>
<g id="a_node17"><a xlink:href="https://github.com/conda-forge/mdsplus-feedstock" xlink:title="mdsplus">
<ellipse fill="#35b779" stroke="black" cx="1031.5" cy="-90" rx="45" ry="18"/>
<text text-anchor="middle" x="1031.5" y="-86.3" font-family="Times,serif" font-size="14.00">mdsplus</text>
</a>
</g>
</g>
<!-- mdsplus&#45;&gt;conda&#45;forge&#45;pinning -->
<g id="edge25" class="edge">
<title>mdsplus&#45;&gt;conda&#45;forge&#45;pinning</title>
<path fill="none" stroke="black" d="M996.66,-78.57C988.74,-76.31 980.35,-74 972.5,-72 917.61,-58.02 855.1,-44.23 807.78,-34.23"/>
<polygon fill="black" stroke="black" points="808.42,-30.78 797.92,-32.15 806.98,-37.63 808.42,-30.78"/>
</g>
<!-- ticcutils -->
<g id="node18" class="node">
<title>ticcutils</title>
<g id="a_node18"><a xlink:href="https://github.com/conda-forge/ticcutils-feedstock/pull/10" xlink:title="ticcutils">
<ellipse fill="#31688e" stroke="black" cx="1059.5" cy="-162" rx="54.69" ry="18"/>
<text text-anchor="middle" x="1059.5" y="-158.3" font-family="Times,serif" font-size="14.00" fill="white">ticcutils</text>
</a>
</g>
</g>
<!-- ticcutils&#45;&gt;conda&#45;forge&#45;pinning -->
<g id="edge26" class="edge">
<title>ticcutils&#45;&gt;conda&#45;forge&#45;pinning</title>
<path fill="none" stroke="black" d="M1072.62,-144.29C1086.23,-124.8 1103.25,-92.62 1085.5,-72 1055,-36.56 937.56,-24.5 846.62,-20.56"/>
<polygon fill="black" stroke="black" points="846.65,-17.06 836.51,-20.15 846.36,-24.05 846.65,-17.06"/>
</g>
<!-- scilab -->
<g id="node19" class="node">
<title>scilab</title>
<g id="a_node19"><a xlink:href="https://github.com/conda-forge/scilab-feedstock/pull/14" xlink:title="scilab">
<ellipse fill="#31688e" stroke="black" cx="1111.5" cy="-234" rx="40.5" ry="18"/>
<text text-anchor="middle" x="1111.5" y="-230.3" font-family="Times,serif" font-size="14.00" fill="white">scilab</text>
</a>
</g>
</g>
<!-- scilab&#45;&gt;conda&#45;forge&#45;pinning -->
<g id="edge27" class="edge">
<title>scilab&#45;&gt;conda&#45;forge&#45;pinning</title>
<path fill="none" stroke="black" d="M1117.34,-216.07C1127.68,-182.58 1144.49,-108.03 1103.5,-72 1066.05,-39.09 940.27,-26.59 845.68,-21.86"/>
<polygon fill="black" stroke="black" points="845.62,-18.35 835.47,-21.37 845.29,-25.34 845.62,-18.35"/>
</g>
<!-- ifcopenshell -->
<g id="node20" class="node">
<title>ifcopenshell</title>
<g id="a_node20"><a xlink:href="https://github.com/conda-forge/ifcopenshell-feedstock" xlink:title="ifcopenshell">
<ellipse fill="#35b779" stroke="black" cx="1150.5" cy="-306" rx="69.59" ry="18"/>
<text text-anchor="middle" x="1150.5" y="-302.3" font-family="Times,serif" font-size="14.00">ifcopenshell</text>
</a>
</g>
</g>
<!-- ifcopenshell&#45;&gt;conda&#45;forge&#45;pinning -->
<g id="edge28" class="edge">
<title>ifcopenshell&#45;&gt;conda&#45;forge&#45;pinning</title>
<path fill="none" stroke="black" d="M1155.47,-287.95C1167.02,-244.34 1190.19,-128.27 1128.5,-72 1088.3,-35.34 948.43,-23.72 846.51,-20.21"/>
<polygon fill="black" stroke="black" points="846.57,-16.71 836.46,-19.88 846.34,-23.71 846.57,-16.71"/>
</g>
<!-- libv8 -->
<g id="node21" class="node">
<title>libv8</title>
<g id="a_node21"><a xlink:href="https://github.com/conda-forge/libv8-feedstock/pull/12" xlink:title="libv8">
<ellipse fill="#31688e" stroke="black" cx="819.5" cy="-162" rx="35.19" ry="18"/>
<text text-anchor="middle" x="819.5" y="-158.3" font-family="Times,serif" font-size="14.00" fill="white">libv8</text>
</a>
</g>
</g>
<!-- libv8&#45;&gt;conda&#45;forge&#45;pinning -->
<g id="edge29" class="edge">
<title>libv8&#45;&gt;conda&#45;forge&#45;pinning</title>
<path fill="none" stroke="black" d="M825.97,-143.99C832.02,-125.07 838.36,-94.26 825.5,-72 817.17,-57.59 803.28,-46.76 788.78,-38.77"/>
<polygon fill="black" stroke="black" points="790.22,-35.57 779.72,-34.15 787.04,-41.81 790.22,-35.57"/>
</g>
<!-- libv8&#45;&gt;r&#45;v8 -->
<g id="edge30" class="edge">
<title>libv8&#45;&gt;r&#45;v8</title>
<path fill="none" stroke="black" d="M811.44,-144.41C807.42,-136.13 802.46,-125.92 797.96,-116.66"/>
<polygon fill="black" stroke="black" points="801.02,-114.94 793.5,-107.47 794.72,-117.99 801.02,-114.94"/>
</g>
<!-- odil -->
<g id="node22" class="node">
<title>odil</title>
<g id="a_node22"><a xlink:href="https://github.com/conda-forge/odil-feedstock" xlink:title="odil">
<ellipse fill="#35b779" stroke="black" cx="1248.5" cy="-378" rx="30.59" ry="18"/>
<text text-anchor="middle" x="1248.5" y="-374.3" font-family="Times,serif" font-size="14.00">odil</text>
</a>
</g>
</g>
<!-- odil&#45;&gt;conda&#45;forge&#45;pinning -->
<g id="edge31" class="edge">
<title>odil&#45;&gt;conda&#45;forge&#45;pinning</title>
<path fill="none" stroke="black" d="M1248.5,-359.95C1248.5,-333.29 1248.5,-280.11 1248.5,-235 1248.5,-235 1248.5,-235 1248.5,-161 1248.5,-103.79 1207.16,-96.58 1155.5,-72 1101.57,-46.33 947.27,-31.94 840.99,-24.82"/>
<polygon fill="black" stroke="black" points="841.07,-21.32 830.86,-24.16 840.61,-28.31 841.07,-21.32"/>
</g>
<!-- nbin -->
<g id="node23" class="node">
<title>nbin</title>
<g id="a_node23"><a xlink:href="https://github.com/conda-forge/nbin-feedstock/pull/1" xlink:title="nbin">
<ellipse fill="#31688e" stroke="black" cx="1307.5" cy="-90" rx="30.59" ry="18"/>
<text text-anchor="middle" x="1307.5" y="-86.3" font-family="Times,serif" font-size="14.00" fill="white">nbin</text>
</a>
</g>
</g>
<!-- nbin&#45;&gt;conda&#45;forge&#45;pinning -->
<g id="edge32" class="edge">
<title>nbin&#45;&gt;conda&#45;forge&#45;pinning</title>
<path fill="none" stroke="black" d="M1283.57,-78.64C1276.86,-76.1 1269.49,-73.64 1262.5,-72 1121.04,-38.8 953.52,-26.39 845.48,-21.76"/>
<polygon fill="black" stroke="black" points="845.35,-18.25 835.22,-21.33 845.06,-25.24 845.35,-18.25"/>
</g>
</g>
</svg>
