<?xml version="1.0" encoding="UTF-8" standalone="no"?>
<!DOCTYPE svg PUBLIC "-//W3C//DTD SVG 1.1//EN"
 "http://www.w3.org/Graphics/SVG/1.1/DTD/svg11.dtd">
<!-- Generated by graphviz version 2.42.3 (20191010.1750)
 -->
<!-- Title: %3 Pages: 1 -->
<svg width="595pt" height="548pt"
 viewBox="0.00 0.00 595.19 548.00" xmlns="http://www.w3.org/2000/svg" xmlns:xlink="http://www.w3.org/1999/xlink">
<g id="graph0" class="graph" transform="scale(1 1) rotate(0) translate(4 544)">
<title>%3</title>
<polygon fill="white" stroke="transparent" points="-4,4 -4,-544 591.19,-544 591.19,4 -4,4"/>
<!-- gdal -->
<g id="node1" class="node">
<title>gdal</title>
<g id="a_node1"><a xlink:href="https://github.com/conda-forge/gdal-feedstock" xlink:title="gdal">
<ellipse fill="#fde725" stroke="black" cx="186.09" cy="-306" rx="30.59" ry="18"/>
<text text-anchor="middle" x="186.09" y="-302.3" font-family="Times,serif" font-size="14.00">gdal</text>
</a>
</g>
</g>
<!-- qgis -->
<g id="node2" class="node">
<title>qgis</title>
<g id="a_node2"><a xlink:href="https://github.com/conda-forge/qgis-feedstock" xlink:title="qgis">
<ellipse fill="#fde725" stroke="black" cx="193.09" cy="-234" rx="30.59" ry="18"/>
<text text-anchor="middle" x="193.09" y="-230.3" font-family="Times,serif" font-size="14.00">qgis</text>
</a>
</g>
</g>
<!-- gdal&#45;&gt;qgis -->
<g id="edge1" class="edge">
<title>gdal&#45;&gt;qgis</title>
<path fill="none" stroke="black" d="M187.82,-287.7C188.6,-279.98 189.52,-270.71 190.38,-262.11"/>
<polygon fill="black" stroke="black" points="193.87,-262.4 191.38,-252.1 186.91,-261.71 193.87,-262.4"/>
</g>
<!-- libgd -->
<g id="node3" class="node">
<title>libgd</title>
<g id="a_node3"><a xlink:href="https://github.com/conda-forge/libgd-feedstock" xlink:title="libgd">
<ellipse fill="#fde725" stroke="black" cx="283.09" cy="-234" rx="35.19" ry="18"/>
<text text-anchor="middle" x="283.09" y="-230.3" font-family="Times,serif" font-size="14.00">libgd</text>
</a>
</g>
</g>
<!-- octave -->
<g id="node4" class="node">
<title>octave</title>
<g id="a_node4"><a xlink:href="https://github.com/conda-forge/octave-feedstock" xlink:title="octave">
<ellipse fill="#fde725" stroke="black" cx="346.09" cy="-162" rx="40.5" ry="18"/>
<text text-anchor="middle" x="346.09" y="-158.3" font-family="Times,serif" font-size="14.00">octave</text>
</a>
</g>
</g>
<!-- python&#45;igraph -->
<g id="node5" class="node">
<title>python&#45;igraph</title>
<g id="a_node5"><a xlink:href="https://github.com/conda-forge/python-igraph-feedstock/pull/31" xlink:title="python igraph">
<ellipse fill="#31688e" stroke="black" cx="74.09" cy="-522" rx="74.19" ry="18"/>
<text text-anchor="middle" x="74.09" y="-518.3" font-family="Times,serif" font-size="14.00" fill="white">python igraph</text>
</a>
</g>
</g>
<!-- root5 -->
<g id="node6" class="node">
<title>root5</title>
<g id="a_node6"><a xlink:href="https://github.com/conda-forge/root5-feedstock" xlink:title="root5">
<ellipse fill="#35b779" stroke="black" cx="74.09" cy="-450" rx="35.19" ry="18"/>
<text text-anchor="middle" x="74.09" y="-446.3" font-family="Times,serif" font-size="14.00">root5</text>
</a>
</g>
</g>
<!-- python&#45;igraph&#45;&gt;root5 -->
<!-- texlive&#45;core -->
<g id="node11" class="node">
<title>texlive&#45;core</title>
<g id="a_node11"><a xlink:href="https://github.com/conda-forge/texlive-core-feedstock/pull/38" xlink:title="texlive core">
<ellipse fill="#31688e" stroke="black" cx="74.09" cy="-378" rx="69.59" ry="18"/>
<text text-anchor="middle" x="74.09" y="-374.3" font-family="Times,serif" font-size="14.00" fill="white">texlive core</text>
</a>
</g>
</g>
<!-- root5&#45;&gt;texlive&#45;core -->
<!-- qt -->
<g id="node7" class="node">
<title>qt</title>
<g id="a_node7"><a xlink:href="https://github.com/conda-forge/qt-feedstock/pull/157" xlink:title="qt">
<ellipse fill="#31688e" stroke="black" cx="264.09" cy="-378" rx="27" ry="18"/>
<text text-anchor="middle" x="264.09" y="-374.3" font-family="Times,serif" font-size="14.00" fill="white">qt</text>
</a>
</g>
</g>
<!-- qt&#45;&gt;gdal -->
<g id="edge3" class="edge">
<title>qt&#45;&gt;gdal</title>
<path fill="none" stroke="black" d="M248.68,-363.17C237.58,-353.21 222.39,-339.57 209.75,-328.23"/>
<polygon fill="black" stroke="black" points="212.06,-325.6 202.28,-321.52 207.38,-330.81 212.06,-325.6"/>
</g>
<!-- qt&#45;&gt;qgis -->
<g id="edge4" class="edge">
<title>qt&#45;&gt;qgis</title>
<path fill="none" stroke="black" d="M257.83,-360.25C250.84,-342.09 238.82,-312.44 226.09,-288 221.11,-278.44 215.02,-268.31 209.43,-259.49"/>
<polygon fill="black" stroke="black" points="212.23,-257.36 203.86,-250.86 206.35,-261.16 212.23,-257.36"/>
</g>
<!-- qt&#45;&gt;libgd -->
<g id="edge5" class="edge">
<title>qt&#45;&gt;libgd</title>
<path fill="none" stroke="black" d="M266.39,-359.87C269.62,-335.67 275.57,-291.21 279.43,-262.39"/>
<polygon fill="black" stroke="black" points="282.94,-262.57 280.79,-252.19 276,-261.64 282.94,-262.57"/>
</g>
<!-- qt&#45;&gt;octave -->
<g id="edge6" class="edge">
<title>qt&#45;&gt;octave</title>
<path fill="none" stroke="black" d="M273.84,-361.01C287.6,-337.8 312.64,-293.03 327.09,-252 334.21,-231.79 339.12,-208.01 342.16,-190.12"/>
<polygon fill="black" stroke="black" points="345.64,-190.52 343.78,-180.09 338.73,-189.4 345.64,-190.52"/>
</g>
<!-- r&#45;base -->
<g id="node8" class="node">
<title>r&#45;base</title>
<g id="a_node8"><a xlink:href="https://github.com/conda-forge/r-base-feedstock/pull/135" xlink:title="r base">
<ellipse fill="#31688e" stroke="black" cx="454.09" cy="-306" rx="40.5" ry="18"/>
<text text-anchor="middle" x="454.09" y="-302.3" font-family="Times,serif" font-size="14.00" fill="white">r base</text>
</a>
</g>
</g>
<!-- r&#45;stringi -->
<g id="node9" class="node">
<title>r&#45;stringi</title>
<g id="a_node9"><a xlink:href="https://github.com/conda-forge/r-stringi-feedstock" xlink:title="r stringi">
<ellipse fill="#fde725" stroke="black" cx="449.09" cy="-234" rx="54.69" ry="18"/>
<text text-anchor="middle" x="449.09" y="-230.3" font-family="Times,serif" font-size="14.00">r stringi</text>
</a>
</g>
</g>
<!-- r&#45;base&#45;&gt;r&#45;stringi -->
<g id="edge7" class="edge">
<title>r&#45;base&#45;&gt;r&#45;stringi</title>
<path fill="none" stroke="black" d="M452.86,-287.7C452.31,-279.98 451.64,-270.71 451.03,-262.11"/>
<polygon fill="black" stroke="black" points="454.52,-261.83 450.32,-252.1 447.54,-262.33 454.52,-261.83"/>
</g>
<!-- r&#45;v8 -->
<g id="node10" class="node">
<title>r&#45;v8</title>
<g id="a_node10"><a xlink:href="https://github.com/conda-forge/r-v8-feedstock" xlink:title="r v8">
<ellipse fill="#fde725" stroke="black" cx="552.09" cy="-234" rx="30.59" ry="18"/>
<text text-anchor="middle" x="552.09" y="-230.3" font-family="Times,serif" font-size="14.00">r v8</text>
</a>
</g>
</g>
<!-- r&#45;base&#45;&gt;r&#45;v8 -->
<g id="edge8" class="edge">
<title>r&#45;base&#45;&gt;r&#45;v8</title>
<path fill="none" stroke="black" d="M474.88,-290.15C489.48,-279.73 509.15,-265.67 524.98,-254.36"/>
<polygon fill="black" stroke="black" points="527.23,-257.06 533.33,-248.4 523.16,-251.37 527.23,-257.06"/>
</g>
<!-- alps -->
<g id="node12" class="node">
<title>alps</title>
<g id="a_node12"><a xlink:href="https://github.com/conda-forge/alps-feedstock" xlink:title="alps">
<ellipse fill="#35b779" stroke="black" cx="74.09" cy="-306" rx="30.59" ry="18"/>
<text text-anchor="middle" x="74.09" y="-302.3" font-family="Times,serif" font-size="14.00">alps</text>
</a>
</g>
</g>
<!-- texlive&#45;core&#45;&gt;alps -->
<!-- mdsplus -->
<g id="node13" class="node">
<title>mdsplus</title>
<g id="a_node13"><a xlink:href="https://github.com/conda-forge/mdsplus-feedstock" xlink:title="mdsplus">
<ellipse fill="#35b779" stroke="black" cx="74.09" cy="-234" rx="45" ry="18"/>
<text text-anchor="middle" x="74.09" y="-230.3" font-family="Times,serif" font-size="14.00">mdsplus</text>
</a>
</g>
</g>
<!-- alps&#45;&gt;mdsplus -->
<!-- scilab -->
<g id="node14" class="node">
<title>scilab</title>
<g id="a_node14"><a xlink:href="https://github.com/conda-forge/scilab-feedstock/pull/14" xlink:title="scilab">
<ellipse fill="#31688e" stroke="black" cx="74.09" cy="-162" rx="40.5" ry="18"/>
<text text-anchor="middle" x="74.09" y="-158.3" font-family="Times,serif" font-size="14.00" fill="white">scilab</text>
</a>
</g>
</g>
<!-- mdsplus&#45;&gt;scilab -->
<!-- ifcopenshell -->
<g id="node15" class="node">
<title>ifcopenshell</title>
<g id="a_node15"><a xlink:href="https://github.com/conda-forge/ifcopenshell-feedstock/pull/10" xlink:title="ifcopenshell">
<ellipse fill="#31688e" stroke="black" cx="74.09" cy="-90" rx="69.59" ry="18"/>
<text text-anchor="middle" x="74.09" y="-86.3" font-family="Times,serif" font-size="14.00" fill="white">ifcopenshell</text>
</a>
</g>
</g>
<!-- scilab&#45;&gt;ifcopenshell -->
<!-- nbin -->
<g id="node16" class="node">
<title>nbin</title>
<g id="a_node16"><a xlink:href="https://github.com/conda-forge/nbin-feedstock/pull/1" xlink:title="nbin">
<ellipse fill="#31688e" stroke="black" cx="74.09" cy="-18" rx="30.59" ry="18"/>
<text text-anchor="middle" x="74.09" y="-14.3" font-family="Times,serif" font-size="14.00" fill="white">nbin</text>
</a>
</g>
</g>
<!-- ifcopenshell&#45;&gt;nbin -->
<!-- libv8 -->
<g id="node17" class="node">
<title>libv8</title>
<g id="a_node17"><a xlink:href="https://github.com/conda-forge/libv8-feedstock/pull/12" xlink:title="libv8">
<ellipse fill="#31688e" stroke="black" cx="552.09" cy="-306" rx="35.19" ry="18"/>
<text text-anchor="middle" x="552.09" y="-302.3" font-family="Times,serif" font-size="14.00" fill="white">libv8</text>
</a>
</g>
</g>
<!-- libv8&#45;&gt;r&#45;v8 -->
<g id="edge15" class="edge">
<title>libv8&#45;&gt;r&#45;v8</title>
<path fill="none" stroke="black" d="M552.09,-287.7C552.09,-279.98 552.09,-270.71 552.09,-262.11"/>
<polygon fill="black" stroke="black" points="555.59,-262.1 552.09,-252.1 548.59,-262.1 555.59,-262.1"/>
</g>
</g>
</svg>
