<?xml version="1.0" encoding="UTF-8" standalone="no"?>
<!DOCTYPE svg PUBLIC "-//W3C//DTD SVG 1.1//EN"
 "http://www.w3.org/Graphics/SVG/1.1/DTD/svg11.dtd">
<!-- Generated by graphviz version 2.42.3 (20191010.1750)
 -->
<!-- Title: %3 Pages: 1 -->
<svg width="430pt" height="188pt"
 viewBox="0.00 0.00 430.14 188.00" xmlns="http://www.w3.org/2000/svg" xmlns:xlink="http://www.w3.org/1999/xlink">
<g id="graph0" class="graph" transform="scale(1 1) rotate(0) translate(4 184)">
<title>%3</title>
<polygon fill="white" stroke="transparent" points="-4,4 -4,-184 426.14,-184 426.14,4 -4,4"/>
<!-- libgsasl -->
<g id="node1" class="node">
<title>libgsasl</title>
<g id="a_node1"><a xlink:href="https://github.com/conda-forge/libgsasl-feedstock/pull/16" xlink:title="libgsasl">
<ellipse fill="#31688e" stroke="black" cx="89.05" cy="-162" rx="50.09" ry="18"/>
<text text-anchor="middle" x="89.05" y="-158.3" font-family="Times,serif" font-size="14.00" fill="white">libgsasl</text>
</a>
</g>
</g>
<!-- libhdfs3 -->
<g id="node2" class="node">
<title>libhdfs3</title>
<g id="a_node2"><a xlink:href="https://github.com/conda-forge/libhdfs3-feedstock" xlink:title="libhdfs3">
<ellipse fill="#fde725" stroke="black" cx="50.05" cy="-90" rx="50.09" ry="18"/>
<text text-anchor="middle" x="50.05" y="-86.3" font-family="Times,serif" font-size="14.00">libhdfs3</text>
</a>
</g>
</g>
<!-- libgsasl&#45;&gt;libhdfs3 -->
<g id="edge1" class="edge">
<title>libgsasl&#45;&gt;libhdfs3</title>
<path fill="none" stroke="black" d="M79.6,-144.05C75.01,-135.8 69.38,-125.7 64.27,-116.54"/>
<polygon fill="black" stroke="black" points="67.32,-114.82 59.4,-107.79 61.21,-118.23 67.32,-114.82"/>
</g>
<!-- conda&#45;forge&#45;pinning -->
<g id="node5" class="node">
<title>conda&#45;forge&#45;pinning</title>
<ellipse fill="none" stroke="black" cx="167.05" cy="-18" rx="103.18" ry="18"/>
<text text-anchor="middle" x="167.05" y="-14.3" font-family="Times,serif" font-size="14.00">conda&#45;forge&#45;pinning</text>
</g>
<!-- libgsasl&#45;&gt;conda&#45;forge&#45;pinning -->
<g id="edge2" class="edge">
<title>libgsasl&#45;&gt;conda&#45;forge&#45;pinning</title>
<path fill="none" stroke="black" d="M98.3,-144.15C111.71,-119.73 136.69,-74.26 152.56,-45.38"/>
<polygon fill="black" stroke="black" points="155.81,-46.72 157.56,-36.27 149.68,-43.35 155.81,-46.72"/>
</g>
<!-- libhdfs3&#45;&gt;conda&#45;forge&#45;pinning -->
<g id="edge3" class="edge">
<title>libhdfs3&#45;&gt;conda&#45;forge&#45;pinning</title>
<path fill="none" stroke="black" d="M74.86,-74.15C91.11,-64.43 112.64,-51.55 130.79,-40.69"/>
<polygon fill="black" stroke="black" points="132.62,-43.68 139.4,-35.54 129.02,-37.67 132.62,-43.68"/>
</g>
<!-- htcondor -->
<g id="node3" class="node">
<title>htcondor</title>
<g id="a_node3"><a xlink:href="https://github.com/conda-forge/htcondor-feedstock/pull/10" xlink:title="htcondor">
<ellipse fill="#31688e" stroke="black" cx="206.05" cy="-90" rx="50.09" ry="18"/>
<text text-anchor="middle" x="206.05" y="-86.3" font-family="Times,serif" font-size="14.00" fill="white">htcondor</text>
</a>
</g>
</g>
<!-- htcondor&#45;&gt;conda&#45;forge&#45;pinning -->
<g id="edge4" class="edge">
<title>htcondor&#45;&gt;conda&#45;forge&#45;pinning</title>
<path fill="none" stroke="black" d="M196.6,-72.05C192.12,-64.01 186.66,-54.2 181.66,-45.23"/>
<polygon fill="black" stroke="black" points="184.59,-43.31 176.67,-36.28 178.48,-46.71 184.59,-43.31"/>
</g>
<!-- libtiledb&#45;sql -->
<g id="node4" class="node">
<title>libtiledb&#45;sql</title>
<g id="a_node4"><a xlink:href="https://github.com/conda-forge/libtiledb-sql-feedstock/pull/13" xlink:title="libtiledb sql">
<ellipse fill="#31688e" stroke="black" cx="348.05" cy="-90" rx="74.19" ry="18"/>
<text text-anchor="middle" x="348.05" y="-86.3" font-family="Times,serif" font-size="14.00" fill="white">libtiledb sql</text>
</a>
</g>
</g>
<!-- libtiledb&#45;sql&#45;&gt;conda&#45;forge&#45;pinning -->
<g id="edge5" class="edge">
<title>libtiledb&#45;sql&#45;&gt;conda&#45;forge&#45;pinning</title>
<path fill="none" stroke="black" d="M310.1,-74.33C283.09,-63.88 246.53,-49.74 217.12,-38.37"/>
<polygon fill="black" stroke="black" points="218.04,-34.97 207.45,-34.63 215.52,-41.5 218.04,-34.97"/>
</g>
</g>
</svg>
