<?xml version="1.0" encoding="UTF-8" standalone="no"?>
<!DOCTYPE svg PUBLIC "-//W3C//DTD SVG 1.1//EN"
 "http://www.w3.org/Graphics/SVG/1.1/DTD/svg11.dtd">
<!-- Generated by graphviz version 2.42.3 (20191010.1750)
 -->
<!-- Title: %3 Pages: 1 -->
<svg width="756pt" height="260pt"
 viewBox="0.00 0.00 756.34 260.00" xmlns="http://www.w3.org/2000/svg" xmlns:xlink="http://www.w3.org/1999/xlink">
<g id="graph0" class="graph" transform="scale(1 1) rotate(0) translate(4 256)">
<title>%3</title>
<polygon fill="white" stroke="transparent" points="-4,4 -4,-256 752.34,-256 752.34,4 -4,4"/>
<!-- arb -->
<g id="node1" class="node">
<title>arb</title>
<g id="a_node1"><a xlink:href="https://github.com/conda-forge/arb-feedstock/pull/18" xlink:title="arb">
<ellipse fill="#31688e" stroke="black" cx="344.3" cy="-162" rx="27" ry="18"/>
<text text-anchor="middle" x="344.3" y="-158.3" font-family="Times,serif" font-size="14.00" fill="white">arb</text>
</a>
</g>
</g>
<!-- mppp -->
<g id="node3" class="node">
<title>mppp</title>
<g id="a_node3"><a xlink:href="https://github.com/conda-forge/mppp-feedstock" xlink:title="mppp">
<ellipse fill="#fde725" stroke="black" cx="226.3" cy="-90" rx="30.59" ry="18"/>
<text text-anchor="middle" x="226.3" y="-86.3" font-family="Times,serif" font-size="14.00">mppp</text>
</a>
</g>
</g>
<!-- arb&#45;&gt;mppp -->
<g id="edge2" class="edge">
<title>arb&#45;&gt;mppp</title>
<path fill="none" stroke="black" d="M324.81,-149.44C306.02,-138.3 277.34,-121.28 255.77,-108.48"/>
<polygon fill="black" stroke="black" points="257.39,-105.38 247,-103.28 253.82,-111.4 257.39,-105.38"/>
</g>
<!-- sagelib -->
<g id="node6" class="node">
<title>sagelib</title>
<g id="a_node6"><a xlink:href="https://github.com/conda-forge/sagelib-feedstock" xlink:title="sagelib">
<ellipse fill="#fde725" stroke="black" cx="133.3" cy="-90" rx="44.69" ry="18"/>
<text text-anchor="middle" x="133.3" y="-86.3" font-family="Times,serif" font-size="14.00">sagelib</text>
</a>
</g>
</g>
<!-- arb&#45;&gt;sagelib -->
<g id="edge5" class="edge">
<title>arb&#45;&gt;sagelib</title>
<path fill="none" stroke="black" d="M320.5,-153.11C285.61,-141.53 219.98,-119.76 176.45,-105.32"/>
<polygon fill="black" stroke="black" points="177.29,-101.91 166.7,-102.08 175.09,-108.55 177.29,-101.91"/>
</g>
<!-- python&#45;flint -->
<g id="node8" class="node">
<title>python&#45;flint</title>
<g id="a_node8"><a xlink:href="https://github.com/conda-forge/python-flint-feedstock" xlink:title="python flint">
<ellipse fill="#fde725" stroke="black" cx="344.3" cy="-90" rx="69.59" ry="18"/>
<text text-anchor="middle" x="344.3" y="-86.3" font-family="Times,serif" font-size="14.00">python flint</text>
</a>
</g>
</g>
<!-- arb&#45;&gt;python&#45;flint -->
<g id="edge4" class="edge">
<title>arb&#45;&gt;python&#45;flint</title>
<path fill="none" stroke="black" d="M344.3,-143.7C344.3,-135.98 344.3,-126.71 344.3,-118.11"/>
<polygon fill="black" stroke="black" points="347.8,-118.1 344.3,-108.1 340.8,-118.1 347.8,-118.1"/>
</g>
<!-- e&#45;antic -->
<g id="node9" class="node">
<title>e&#45;antic</title>
<g id="a_node9"><a xlink:href="https://github.com/conda-forge/e-antic-feedstock" xlink:title="e antic">
<ellipse fill="#fde725" stroke="black" cx="476.3" cy="-90" rx="44.69" ry="18"/>
<text text-anchor="middle" x="476.3" y="-86.3" font-family="Times,serif" font-size="14.00">e antic</text>
</a>
</g>
</g>
<!-- arb&#45;&gt;e&#45;antic -->
<g id="edge1" class="edge">
<title>arb&#45;&gt;e&#45;antic</title>
<path fill="none" stroke="black" d="M364.92,-150.06C385.37,-139.22 417.07,-122.41 441.44,-109.49"/>
<polygon fill="black" stroke="black" points="443.18,-112.52 450.37,-104.75 439.9,-106.34 443.18,-112.52"/>
</g>
<!-- normaliz -->
<g id="node10" class="node">
<title>normaliz</title>
<g id="a_node10"><a xlink:href="https://github.com/conda-forge/normaliz-feedstock" xlink:title="normaliz">
<ellipse fill="#fde725" stroke="black" cx="512.3" cy="-18" rx="50.09" ry="18"/>
<text text-anchor="middle" x="512.3" y="-14.3" font-family="Times,serif" font-size="14.00">normaliz</text>
</a>
</g>
</g>
<!-- arb&#45;&gt;normaliz -->
<g id="edge3" class="edge">
<title>arb&#45;&gt;normaliz</title>
<path fill="none" stroke="black" d="M370.44,-157.43C416.95,-150.5 510.98,-133.59 530.3,-108 543.95,-89.92 536.6,-64.09 527.52,-44.91"/>
<polygon fill="black" stroke="black" points="530.55,-43.13 522.87,-35.83 524.32,-46.32 530.55,-43.13"/>
</g>
<!-- linbox -->
<g id="node2" class="node">
<title>linbox</title>
<g id="a_node2"><a xlink:href="https://github.com/conda-forge/linbox-feedstock/pull/21" xlink:title="linbox">
<ellipse fill="#31688e" stroke="black" cx="40.3" cy="-162" rx="40.09" ry="18"/>
<text text-anchor="middle" x="40.3" y="-158.3" font-family="Times,serif" font-size="14.00" fill="white">linbox</text>
</a>
</g>
</g>
<!-- linbox&#45;&gt;sagelib -->
<g id="edge6" class="edge">
<title>linbox&#45;&gt;sagelib</title>
<path fill="none" stroke="black" d="M60.02,-146.15C73.03,-136.36 90.29,-123.37 104.79,-112.45"/>
<polygon fill="black" stroke="black" points="107.07,-115.12 112.96,-106.31 102.86,-109.53 107.07,-115.12"/>
</g>
<!-- pynac -->
<g id="node4" class="node">
<title>pynac</title>
<g id="a_node4"><a xlink:href="https://github.com/conda-forge/pynac-feedstock" xlink:title="pynac">
<ellipse fill="#fde725" stroke="black" cx="133.3" cy="-162" rx="35.19" ry="18"/>
<text text-anchor="middle" x="133.3" y="-158.3" font-family="Times,serif" font-size="14.00">pynac</text>
</a>
</g>
</g>
<!-- pynac&#45;&gt;sagelib -->
<g id="edge7" class="edge">
<title>pynac&#45;&gt;sagelib</title>
<path fill="none" stroke="black" d="M133.3,-143.7C133.3,-135.98 133.3,-126.71 133.3,-118.11"/>
<polygon fill="black" stroke="black" points="136.8,-118.1 133.3,-108.1 129.8,-118.1 136.8,-118.1"/>
</g>
<!-- python&#45;symengine -->
<g id="node5" class="node">
<title>python&#45;symengine</title>
<g id="a_node5"><a xlink:href="https://github.com/conda-forge/python-symengine-feedstock" xlink:title="python symengine">
<ellipse fill="#35b779" stroke="black" cx="659.3" cy="-126" rx="89.08" ry="18"/>
<text text-anchor="middle" x="659.3" y="-122.3" font-family="Times,serif" font-size="14.00">python symengine</text>
</a>
</g>
</g>
<!-- singular -->
<g id="node7" class="node">
<title>singular</title>
<g id="a_node7"><a xlink:href="https://github.com/conda-forge/singular-feedstock/pull/13" xlink:title="singular">
<ellipse fill="#31688e" stroke="black" cx="164.3" cy="-234" rx="50.09" ry="18"/>
<text text-anchor="middle" x="164.3" y="-230.3" font-family="Times,serif" font-size="14.00" fill="white">singular</text>
</a>
</g>
</g>
<!-- singular&#45;&gt;pynac -->
<g id="edge8" class="edge">
<title>singular&#45;&gt;pynac</title>
<path fill="none" stroke="black" d="M156.79,-216.05C153.21,-207.97 148.85,-198.12 144.86,-189.11"/>
<polygon fill="black" stroke="black" points="147.98,-187.52 140.73,-179.79 141.58,-190.35 147.98,-187.52"/>
</g>
<!-- singular&#45;&gt;sagelib -->
<g id="edge9" class="edge">
<title>singular&#45;&gt;sagelib</title>
<path fill="none" stroke="black" d="M171.5,-216.11C178.21,-197.84 185.99,-168.09 177.3,-144 173.32,-132.98 165.94,-122.63 158.34,-114.05"/>
<polygon fill="black" stroke="black" points="160.81,-111.57 151.4,-106.7 155.72,-116.37 160.81,-111.57"/>
</g>
<!-- e&#45;antic&#45;&gt;normaliz -->
<g id="edge10" class="edge">
<title>e&#45;antic&#45;&gt;normaliz</title>
<path fill="none" stroke="black" d="M485.01,-72.05C489.21,-63.89 494.34,-53.91 499.02,-44.82"/>
<polygon fill="black" stroke="black" points="502.2,-46.28 503.66,-35.79 495.98,-43.08 502.2,-46.28"/>
</g>
</g>
</svg>
