<?xml version="1.0" encoding="UTF-8" standalone="no"?>
<!DOCTYPE svg PUBLIC "-//W3C//DTD SVG 1.1//EN"
 "http://www.w3.org/Graphics/SVG/1.1/DTD/svg11.dtd">
<!-- Generated by graphviz version 2.42.3 (20191010.1750)
 -->
<!-- Title: %3 Pages: 1 -->
<svg width="477pt" height="232pt"
 viewBox="0.00 0.00 476.84 232.00" xmlns="http://www.w3.org/2000/svg" xmlns:xlink="http://www.w3.org/1999/xlink">
<g id="graph0" class="graph" transform="scale(1 1) rotate(0) translate(4 228)">
<title>%3</title>
<polygon fill="white" stroke="transparent" points="-4,4 -4,-228 472.84,-228 472.84,4 -4,4"/>
<!-- linbox -->
<g id="node1" class="node">
<title>linbox</title>
<g id="a_node1"><a xlink:href="https://github.com/conda-forge/linbox-feedstock/pull/21" xlink:title="linbox">
<ellipse fill="#31688e" stroke="black" cx="40.3" cy="-134" rx="40.09" ry="18"/>
<text text-anchor="middle" x="40.3" y="-130.3" font-family="Times,serif" font-size="14.00" fill="white">linbox</text>
</a>
</g>
</g>
<!-- sagelib -->
<g id="node4" class="node">
<title>sagelib</title>
<g id="a_node4"><a xlink:href="https://github.com/conda-forge/sagelib-feedstock" xlink:title="sagelib">
<ellipse fill="#fde725" stroke="black" cx="133.3" cy="-62" rx="44.69" ry="18"/>
<text text-anchor="middle" x="133.3" y="-58.3" font-family="Times,serif" font-size="14.00">sagelib</text>
</a>
</g>
</g>
<!-- linbox&#45;&gt;sagelib -->
<g id="edge1" class="edge">
<title>linbox&#45;&gt;sagelib</title>
<path fill="none" stroke="black" d="M60.02,-118.15C73.03,-108.36 90.29,-95.37 104.79,-84.45"/>
<polygon fill="black" stroke="black" points="107.07,-87.12 112.96,-78.31 102.86,-81.53 107.07,-87.12"/>
</g>
<!-- mppp -->
<g id="node2" class="node">
<title>mppp</title>
<g id="a_node2"><a xlink:href="https://github.com/conda-forge/mppp-feedstock" xlink:title="mppp">
<ellipse fill="#35b779" stroke="black" cx="107.3" cy="-18" rx="30.59" ry="18"/>
<text text-anchor="middle" x="107.3" y="-14.3" font-family="Times,serif" font-size="14.00">mppp</text>
</a>
</g>
</g>
<!-- pynac -->
<g id="node3" class="node">
<title>pynac</title>
<g id="a_node3"><a xlink:href="https://github.com/conda-forge/pynac-feedstock" xlink:title="pynac">
<ellipse fill="#fde725" stroke="black" cx="133.3" cy="-134" rx="35.19" ry="18"/>
<text text-anchor="middle" x="133.3" y="-130.3" font-family="Times,serif" font-size="14.00">pynac</text>
</a>
</g>
</g>
<!-- pynac&#45;&gt;sagelib -->
<g id="edge2" class="edge">
<title>pynac&#45;&gt;sagelib</title>
<path fill="none" stroke="black" d="M133.3,-115.7C133.3,-107.98 133.3,-98.71 133.3,-90.11"/>
<polygon fill="black" stroke="black" points="136.8,-90.1 133.3,-80.1 129.8,-90.1 136.8,-90.1"/>
</g>
<!-- singular -->
<g id="node5" class="node">
<title>singular</title>
<g id="a_node5"><a xlink:href="https://github.com/conda-forge/singular-feedstock/pull/13" xlink:title="singular">
<ellipse fill="#31688e" stroke="black" cx="164.3" cy="-206" rx="50.09" ry="18"/>
<text text-anchor="middle" x="164.3" y="-202.3" font-family="Times,serif" font-size="14.00" fill="white">singular</text>
</a>
</g>
</g>
<!-- singular&#45;&gt;pynac -->
<g id="edge3" class="edge">
<title>singular&#45;&gt;pynac</title>
<path fill="none" stroke="black" d="M156.79,-188.05C153.21,-179.97 148.85,-170.12 144.86,-161.11"/>
<polygon fill="black" stroke="black" points="147.98,-159.52 140.73,-151.79 141.58,-162.35 147.98,-159.52"/>
</g>
<!-- singular&#45;&gt;sagelib -->
<g id="edge4" class="edge">
<title>singular&#45;&gt;sagelib</title>
<path fill="none" stroke="black" d="M171.5,-188.11C178.21,-169.84 185.99,-140.09 177.3,-116 173.32,-104.98 165.94,-94.63 158.34,-86.05"/>
<polygon fill="black" stroke="black" points="160.81,-83.57 151.4,-78.7 155.72,-88.37 160.81,-83.57"/>
</g>
<!-- python&#45;flint -->
<g id="node6" class="node">
<title>python&#45;flint</title>
<g id="a_node6"><a xlink:href="https://github.com/conda-forge/python-flint-feedstock" xlink:title="python flint">
<ellipse fill="#35b779" stroke="black" cx="399.3" cy="-134" rx="69.59" ry="18"/>
<text text-anchor="middle" x="399.3" y="-130.3" font-family="Times,serif" font-size="14.00">python flint</text>
</a>
</g>
</g>
<!-- e&#45;antic -->
<g id="node7" class="node">
<title>e&#45;antic</title>
<g id="a_node7"><a xlink:href="https://github.com/conda-forge/e-antic-feedstock" xlink:title="e antic">
<ellipse fill="#35b779" stroke="black" cx="272.3" cy="-170" rx="44.69" ry="18"/>
<text text-anchor="middle" x="272.3" y="-166.3" font-family="Times,serif" font-size="14.00">e antic</text>
</a>
</g>
</g>
<!-- normaliz -->
<g id="node8" class="node">
<title>normaliz</title>
<g id="a_node8"><a xlink:href="https://github.com/conda-forge/normaliz-feedstock" xlink:title="normaliz">
<ellipse fill="#fde725" stroke="black" cx="272.3" cy="-98" rx="50.09" ry="18"/>
<text text-anchor="middle" x="272.3" y="-94.3" font-family="Times,serif" font-size="14.00">normaliz</text>
</a>
</g>
</g>
<!-- e&#45;antic&#45;&gt;normaliz -->
<g id="edge5" class="edge">
<title>e&#45;antic&#45;&gt;normaliz</title>
<path fill="none" stroke="black" d="M272.3,-151.7C272.3,-143.98 272.3,-134.71 272.3,-126.11"/>
<polygon fill="black" stroke="black" points="275.8,-126.1 272.3,-116.1 268.8,-126.1 275.8,-126.1"/>
</g>
</g>
</svg>
