<?xml version="1.0" encoding="UTF-8" standalone="no"?>
<!DOCTYPE svg PUBLIC "-//W3C//DTD SVG 1.1//EN"
 "http://www.w3.org/Graphics/SVG/1.1/DTD/svg11.dtd">
<!-- Generated by graphviz version 2.42.3 (20191010.1750)
 -->
<!-- Title: %3 Pages: 1 -->
<svg width="797pt" height="260pt"
 viewBox="0.00 0.00 797.14 260.00" xmlns="http://www.w3.org/2000/svg" xmlns:xlink="http://www.w3.org/1999/xlink">
<g id="graph0" class="graph" transform="scale(1 1) rotate(0) translate(4 256)">
<title>%3</title>
<polygon fill="white" stroke="transparent" points="-4,4 -4,-256 793.14,-256 793.14,4 -4,4"/>
<!-- arb -->
<g id="node1" class="node">
<title>arb</title>
<g id="a_node1"><a xlink:href="https://github.com/conda-forge/arb-feedstock/pull/18" xlink:title="arb">
<ellipse fill="#31688e" stroke="black" cx="385.1" cy="-162" rx="27" ry="18"/>
<text text-anchor="middle" x="385.1" y="-158.3" font-family="Times,serif" font-size="14.00" fill="white">arb</text>
</a>
</g>
</g>
<!-- mppp -->
<g id="node4" class="node">
<title>mppp</title>
<g id="a_node4"><a xlink:href="https://github.com/conda-forge/mppp-feedstock" xlink:title="mppp">
<ellipse fill="#fde725" stroke="black" cx="267.1" cy="-90" rx="30.59" ry="18"/>
<text text-anchor="middle" x="267.1" y="-86.3" font-family="Times,serif" font-size="14.00">mppp</text>
</a>
</g>
</g>
<!-- arb&#45;&gt;mppp -->
<g id="edge2" class="edge">
<title>arb&#45;&gt;mppp</title>
<path fill="none" stroke="black" d="M365.61,-149.44C346.82,-138.3 318.15,-121.28 296.57,-108.48"/>
<polygon fill="black" stroke="black" points="298.19,-105.38 287.8,-103.28 294.62,-111.4 298.19,-105.38"/>
</g>
<!-- sagelib -->
<g id="node7" class="node">
<title>sagelib</title>
<g id="a_node7"><a xlink:href="https://github.com/conda-forge/sagelib-feedstock" xlink:title="sagelib">
<ellipse fill="#fde725" stroke="black" cx="174.1" cy="-90" rx="44.69" ry="18"/>
<text text-anchor="middle" x="174.1" y="-86.3" font-family="Times,serif" font-size="14.00">sagelib</text>
</a>
</g>
</g>
<!-- arb&#45;&gt;sagelib -->
<g id="edge5" class="edge">
<title>arb&#45;&gt;sagelib</title>
<path fill="none" stroke="black" d="M361.3,-153.11C326.41,-141.53 260.78,-119.76 217.25,-105.32"/>
<polygon fill="black" stroke="black" points="218.09,-101.91 207.5,-102.08 215.89,-108.55 218.09,-101.91"/>
</g>
<!-- python&#45;flint -->
<g id="node10" class="node">
<title>python&#45;flint</title>
<g id="a_node10"><a xlink:href="https://github.com/conda-forge/python-flint-feedstock" xlink:title="python flint">
<ellipse fill="#fde725" stroke="black" cx="385.1" cy="-90" rx="69.59" ry="18"/>
<text text-anchor="middle" x="385.1" y="-86.3" font-family="Times,serif" font-size="14.00">python flint</text>
</a>
</g>
</g>
<!-- arb&#45;&gt;python&#45;flint -->
<g id="edge4" class="edge">
<title>arb&#45;&gt;python&#45;flint</title>
<path fill="none" stroke="black" d="M385.1,-143.7C385.1,-135.98 385.1,-126.71 385.1,-118.11"/>
<polygon fill="black" stroke="black" points="388.6,-118.1 385.1,-108.1 381.6,-118.1 388.6,-118.1"/>
</g>
<!-- e&#45;antic -->
<g id="node11" class="node">
<title>e&#45;antic</title>
<g id="a_node11"><a xlink:href="https://github.com/conda-forge/e-antic-feedstock" xlink:title="e antic">
<ellipse fill="#fde725" stroke="black" cx="517.1" cy="-90" rx="44.69" ry="18"/>
<text text-anchor="middle" x="517.1" y="-86.3" font-family="Times,serif" font-size="14.00">e antic</text>
</a>
</g>
</g>
<!-- arb&#45;&gt;e&#45;antic -->
<g id="edge1" class="edge">
<title>arb&#45;&gt;e&#45;antic</title>
<path fill="none" stroke="black" d="M405.72,-150.06C426.17,-139.22 457.87,-122.41 482.24,-109.49"/>
<polygon fill="black" stroke="black" points="483.98,-112.52 491.18,-104.75 480.7,-106.34 483.98,-112.52"/>
</g>
<!-- normaliz -->
<g id="node12" class="node">
<title>normaliz</title>
<g id="a_node12"><a xlink:href="https://github.com/conda-forge/normaliz-feedstock" xlink:title="normaliz">
<ellipse fill="#fde725" stroke="black" cx="553.1" cy="-18" rx="50.09" ry="18"/>
<text text-anchor="middle" x="553.1" y="-14.3" font-family="Times,serif" font-size="14.00">normaliz</text>
</a>
</g>
</g>
<!-- arb&#45;&gt;normaliz -->
<g id="edge3" class="edge">
<title>arb&#45;&gt;normaliz</title>
<path fill="none" stroke="black" d="M411.24,-157.43C457.75,-150.5 551.78,-133.59 571.1,-108 584.75,-89.92 577.4,-64.09 568.32,-44.91"/>
<polygon fill="black" stroke="black" points="571.35,-43.13 563.67,-35.83 565.12,-46.32 571.35,-43.13"/>
</g>
<!-- eclib -->
<g id="node2" class="node">
<title>eclib</title>
<g id="a_node2"><a xlink:href="https://github.com/conda-forge/eclib-feedstock" xlink:title="eclib">
<ellipse fill="#35b779" stroke="black" cx="35.1" cy="-162" rx="35.19" ry="18"/>
<text text-anchor="middle" x="35.1" y="-158.3" font-family="Times,serif" font-size="14.00">eclib</text>
</a>
</g>
</g>
<!-- eclib&#45;&gt;sagelib -->
<g id="edge6" class="edge">
<title>eclib&#45;&gt;sagelib</title>
<path fill="none" stroke="black" d="M59.31,-148.81C81.1,-137.83 113.42,-121.56 138.22,-109.07"/>
<polygon fill="black" stroke="black" points="139.96,-112.11 147.32,-104.49 136.81,-105.86 139.96,-112.11"/>
</g>
<!-- linbox -->
<g id="node3" class="node">
<title>linbox</title>
<g id="a_node3"><a xlink:href="https://github.com/conda-forge/linbox-feedstock" xlink:title="linbox">
<ellipse fill="#35b779" stroke="black" cx="128.1" cy="-162" rx="40.09" ry="18"/>
<text text-anchor="middle" x="128.1" y="-158.3" font-family="Times,serif" font-size="14.00">linbox</text>
</a>
</g>
</g>
<!-- linbox&#45;&gt;sagelib -->
<g id="edge7" class="edge">
<title>linbox&#45;&gt;sagelib</title>
<path fill="none" stroke="black" d="M139,-144.41C144.56,-135.95 151.43,-125.49 157.62,-116.08"/>
<polygon fill="black" stroke="black" points="160.71,-117.75 163.27,-107.47 154.86,-113.9 160.71,-117.75"/>
</g>
<!-- pynac -->
<g id="node5" class="node">
<title>pynac</title>
<g id="a_node5"><a xlink:href="https://github.com/conda-forge/pynac-feedstock" xlink:title="pynac">
<ellipse fill="#fde725" stroke="black" cx="221.1" cy="-162" rx="35.19" ry="18"/>
<text text-anchor="middle" x="221.1" y="-158.3" font-family="Times,serif" font-size="14.00">pynac</text>
</a>
</g>
</g>
<!-- pynac&#45;&gt;sagelib -->
<g id="edge8" class="edge">
<title>pynac&#45;&gt;sagelib</title>
<path fill="none" stroke="black" d="M210.2,-144.76C204.47,-136.23 197.32,-125.58 190.9,-116.02"/>
<polygon fill="black" stroke="black" points="193.75,-113.98 185.27,-107.63 187.93,-117.89 193.75,-113.98"/>
</g>
<!-- python&#45;symengine -->
<g id="node6" class="node">
<title>python&#45;symengine</title>
<g id="a_node6"><a xlink:href="https://github.com/conda-forge/python-symengine-feedstock" xlink:title="python symengine">
<ellipse fill="#fde725" stroke="black" cx="700.1" cy="-90" rx="89.08" ry="18"/>
<text text-anchor="middle" x="700.1" y="-86.3" font-family="Times,serif" font-size="14.00">python symengine</text>
</a>
</g>
</g>
<!-- singular -->
<g id="node8" class="node">
<title>singular</title>
<g id="a_node8"><a xlink:href="https://github.com/conda-forge/singular-feedstock/pull/13" xlink:title="singular">
<ellipse fill="#31688e" stroke="black" cx="252.1" cy="-234" rx="50.09" ry="18"/>
<text text-anchor="middle" x="252.1" y="-230.3" font-family="Times,serif" font-size="14.00" fill="white">singular</text>
</a>
</g>
</g>
<!-- singular&#45;&gt;pynac -->
<g id="edge9" class="edge">
<title>singular&#45;&gt;pynac</title>
<path fill="none" stroke="black" d="M244.59,-216.05C241.01,-207.97 236.65,-198.12 232.66,-189.11"/>
<polygon fill="black" stroke="black" points="235.78,-187.52 228.53,-179.79 229.38,-190.35 235.78,-187.52"/>
</g>
<!-- singular&#45;&gt;sagelib -->
<g id="edge10" class="edge">
<title>singular&#45;&gt;sagelib</title>
<path fill="none" stroke="black" d="M260.58,-216.07C268.71,-197.22 278.02,-166.47 265.1,-144 254.86,-126.18 236.06,-113.79 218.2,-105.5"/>
<polygon fill="black" stroke="black" points="219.57,-102.28 209,-101.53 216.8,-108.71 219.57,-102.28"/>
</g>
<!-- symengine -->
<g id="node9" class="node">
<title>symengine</title>
<g id="a_node9"><a xlink:href="https://github.com/conda-forge/symengine-feedstock" xlink:title="symengine">
<ellipse fill="#35b779" stroke="black" cx="700.1" cy="-162" rx="54.69" ry="18"/>
<text text-anchor="middle" x="700.1" y="-158.3" font-family="Times,serif" font-size="14.00">symengine</text>
</a>
</g>
</g>
<!-- symengine&#45;&gt;python&#45;symengine -->
<g id="edge11" class="edge">
<title>symengine&#45;&gt;python&#45;symengine</title>
<path fill="none" stroke="black" d="M700.1,-143.7C700.1,-135.98 700.1,-126.71 700.1,-118.11"/>
<polygon fill="black" stroke="black" points="703.6,-118.1 700.1,-108.1 696.6,-118.1 703.6,-118.1"/>
</g>
<!-- e&#45;antic&#45;&gt;normaliz -->
<g id="edge12" class="edge">
<title>e&#45;antic&#45;&gt;normaliz</title>
<path fill="none" stroke="black" d="M525.81,-72.05C530.01,-63.89 535.14,-53.91 539.82,-44.82"/>
<polygon fill="black" stroke="black" points="543,-46.28 544.46,-35.79 536.78,-43.08 543,-46.28"/>
</g>
</g>
</svg>
