<?xml version="1.0" encoding="UTF-8" standalone="no"?>
<!DOCTYPE svg PUBLIC "-//W3C//DTD SVG 1.1//EN"
 "http://www.w3.org/Graphics/SVG/1.1/DTD/svg11.dtd">
<!-- Generated by graphviz version 2.42.3 (20191010.1750)
 -->
<!-- Title: %3 Pages: 1 -->
<svg width="1550pt" height="404pt"
 viewBox="0.00 0.00 1550.04 404.00" xmlns="http://www.w3.org/2000/svg" xmlns:xlink="http://www.w3.org/1999/xlink">
<g id="graph0" class="graph" transform="scale(1 1) rotate(0) translate(4 400)">
<title>%3</title>
<polygon fill="white" stroke="transparent" points="-4,4 -4,-400 1546.04,-400 1546.04,4 -4,4"/>
<!-- arrow&#45;cpp -->
<g id="node1" class="node">
<title>arrow&#45;cpp</title>
<g id="a_node1"><a xlink:href="https://github.com/conda-forge/arrow-cpp-feedstock" xlink:title="arrow cpp">
<ellipse fill="#fde725" stroke="black" cx="642.5" cy="-90" rx="54.69" ry="18"/>
<text text-anchor="middle" x="642.5" y="-86.3" font-family="Times,serif" font-size="14.00">arrow cpp</text>
</a>
</g>
</g>
<!-- conda&#45;forge&#45;pinning -->
<g id="node2" class="node">
<title>conda&#45;forge&#45;pinning</title>
<ellipse fill="none" stroke="black" cx="683.5" cy="-18" rx="103.5" ry="18"/>
<text text-anchor="middle" x="683.5" y="-14.3" font-family="Times,serif" font-size="14.00">conda&#45;forge&#45;pinning</text>
</g>
<!-- arrow&#45;cpp&#45;&gt;conda&#45;forge&#45;pinning -->
<g id="edge1" class="edge">
<title>arrow&#45;cpp&#45;&gt;conda&#45;forge&#45;pinning</title>
<path fill="none" stroke="black" d="M652.42,-72.05C657.19,-63.92 663,-54 668.31,-44.94"/>
<polygon fill="black" stroke="black" points="671.35,-46.67 673.38,-36.28 665.31,-43.14 671.35,-46.67"/>
</g>
<!-- caffe -->
<g id="node3" class="node">
<title>caffe</title>
<g id="a_node3"><a xlink:href="https://github.com/conda-forge/caffe-feedstock" xlink:title="caffe">
<ellipse fill="#35b779" stroke="black" cx="116.5" cy="-90" rx="35.19" ry="18"/>
<text text-anchor="middle" x="116.5" y="-86.3" font-family="Times,serif" font-size="14.00">caffe</text>
</a>
</g>
</g>
<!-- caffe&#45;&gt;conda&#45;forge&#45;pinning -->
<g id="edge2" class="edge">
<title>caffe&#45;&gt;conda&#45;forge&#45;pinning</title>
<path fill="none" stroke="black" d="M143.39,-78.42C150.49,-75.97 158.2,-73.62 165.5,-72 304.02,-41.32 467.37,-28.34 573.06,-22.89"/>
<polygon fill="black" stroke="black" points="573.29,-26.38 583.1,-22.38 572.94,-19.39 573.29,-26.38"/>
</g>
<!-- mosh -->
<g id="node4" class="node">
<title>mosh</title>
<g id="a_node4"><a xlink:href="https://github.com/conda-forge/mosh-feedstock/pull/16" xlink:title="mosh">
<ellipse fill="#31688e" stroke="black" cx="168.5" cy="-162" rx="30.59" ry="18"/>
<text text-anchor="middle" x="168.5" y="-158.3" font-family="Times,serif" font-size="14.00" fill="white">mosh</text>
</a>
</g>
</g>
<!-- mosh&#45;&gt;conda&#45;forge&#45;pinning -->
<g id="edge3" class="edge">
<title>mosh&#45;&gt;conda&#45;forge&#45;pinning</title>
<path fill="none" stroke="black" d="M171.96,-144.03C177.14,-123.33 189.05,-89 213.5,-72 269.37,-33.16 449.85,-22.4 570.21,-19.64"/>
<polygon fill="black" stroke="black" points="570.29,-23.13 580.21,-19.42 570.14,-16.14 570.29,-23.13"/>
</g>
<!-- mysql&#45;connector&#45;python -->
<g id="node5" class="node">
<title>mysql&#45;connector&#45;python</title>
<g id="a_node5"><a xlink:href="https://github.com/conda-forge/mysql-connector-python-feedstock/pull/27" xlink:title="mysql connector python">
<ellipse fill="#31688e" stroke="black" cx="118.5" cy="-234" rx="118.5" ry="18"/>
<text text-anchor="middle" x="118.5" y="-230.3" font-family="Times,serif" font-size="14.00" fill="white">mysql connector python</text>
</a>
</g>
</g>
<!-- mysql&#45;connector&#45;python&#45;&gt;conda&#45;forge&#45;pinning -->
<g id="edge4" class="edge">
<title>mysql&#45;connector&#45;python&#45;&gt;conda&#45;forge&#45;pinning</title>
<path fill="none" stroke="black" d="M157.98,-216.88C175.39,-208.13 194.93,-195.83 208.5,-180 242.13,-140.78 210.59,-103.55 251.5,-72 299.8,-34.74 459.02,-23.4 570.03,-20.1"/>
<polygon fill="black" stroke="black" points="570.38,-23.59 580.28,-19.82 570.19,-16.6 570.38,-23.59"/>
</g>
<!-- onnx -->
<g id="node6" class="node">
<title>onnx</title>
<g id="a_node6"><a xlink:href="https://github.com/conda-forge/onnx-feedstock/pull/43" xlink:title="onnx">
<ellipse fill="#31688e" stroke="black" cx="244.5" cy="-306" rx="30.59" ry="18"/>
<text text-anchor="middle" x="244.5" y="-302.3" font-family="Times,serif" font-size="14.00" fill="white">onnx</text>
</a>
</g>
</g>
<!-- onnx&#45;&gt;conda&#45;forge&#45;pinning -->
<g id="edge5" class="edge">
<title>onnx&#45;&gt;conda&#45;forge&#45;pinning</title>
<path fill="none" stroke="black" d="M245.31,-287.66C247.97,-238.81 258.13,-101.63 289.5,-72 328.89,-34.79 468.19,-23.29 570.02,-19.96"/>
<polygon fill="black" stroke="black" points="570.17,-23.45 580.06,-19.65 569.96,-16.46 570.17,-23.45"/>
</g>
<!-- paraview -->
<g id="node7" class="node">
<title>paraview</title>
<g id="a_node7"><a xlink:href="https://github.com/conda-forge/paraview-feedstock/pull/88" xlink:title="paraview">
<ellipse fill="#31688e" stroke="black" cx="303.5" cy="-378" rx="50.09" ry="18"/>
<text text-anchor="middle" x="303.5" y="-374.3" font-family="Times,serif" font-size="14.00" fill="white">paraview</text>
</a>
</g>
</g>
<!-- paraview&#45;&gt;conda&#45;forge&#45;pinning -->
<g id="edge6" class="edge">
<title>paraview&#45;&gt;conda&#45;forge&#45;pinning</title>
<path fill="none" stroke="black" d="M303.5,-359.95C303.5,-333.29 303.5,-280.11 303.5,-235 303.5,-235 303.5,-235 303.5,-161 303.5,-116.27 314.13,-98.04 350.5,-72 386.12,-46.5 493.91,-32.7 577.31,-25.64"/>
<polygon fill="black" stroke="black" points="577.67,-29.12 587.35,-24.81 577.1,-22.14 577.67,-29.12"/>
</g>
<!-- shogun -->
<g id="node8" class="node">
<title>shogun</title>
<g id="a_node8"><a xlink:href="https://github.com/conda-forge/shogun-feedstock" xlink:title="shogun">
<ellipse fill="#fde725" stroke="black" cx="410.5" cy="-90" rx="40.5" ry="18"/>
<text text-anchor="middle" x="410.5" y="-86.3" font-family="Times,serif" font-size="14.00">shogun</text>
</a>
</g>
</g>
<!-- shogun&#45;&gt;conda&#45;forge&#45;pinning -->
<g id="edge7" class="edge">
<title>shogun&#45;&gt;conda&#45;forge&#45;pinning</title>
<path fill="none" stroke="black" d="M441.03,-78.11C447.43,-75.97 454.16,-73.83 460.5,-72 509.99,-57.74 566.43,-44.35 610.15,-34.6"/>
<polygon fill="black" stroke="black" points="611.12,-37.97 620.13,-32.39 609.61,-31.14 611.12,-37.97"/>
</g>
<!-- shogun&#45;cpp -->
<g id="node9" class="node">
<title>shogun&#45;cpp</title>
<g id="a_node9"><a xlink:href="https://github.com/conda-forge/shogun-cpp-feedstock/pull/39" xlink:title="shogun cpp">
<ellipse fill="#31688e" stroke="black" cx="400.5" cy="-162" rx="60" ry="18"/>
<text text-anchor="middle" x="400.5" y="-158.3" font-family="Times,serif" font-size="14.00" fill="white">shogun cpp</text>
</a>
</g>
</g>
<!-- shogun&#45;cpp&#45;&gt;conda&#45;forge&#45;pinning -->
<g id="edge8" class="edge">
<title>shogun&#45;cpp&#45;&gt;conda&#45;forge&#45;pinning</title>
<path fill="none" stroke="black" d="M383.36,-144.71C365.34,-125.62 341.97,-93.82 360.5,-72 387.47,-40.24 489.52,-27.48 571.78,-22.37"/>
<polygon fill="black" stroke="black" points="572.19,-25.85 581.97,-21.77 571.78,-18.86 572.19,-25.85"/>
</g>
<!-- shogun&#45;cpp&#45;&gt;shogun -->
<g id="edge9" class="edge">
<title>shogun&#45;cpp&#45;&gt;shogun</title>
<path fill="none" stroke="black" d="M402.97,-143.7C404.07,-135.98 405.4,-126.71 406.63,-118.11"/>
<polygon fill="black" stroke="black" points="410.11,-118.5 408.06,-108.1 403.18,-117.51 410.11,-118.5"/>
</g>
<!-- libhdfs3 -->
<g id="node10" class="node">
<title>libhdfs3</title>
<g id="a_node10"><a xlink:href="https://github.com/conda-forge/libhdfs3-feedstock/pull/32" xlink:title="libhdfs3">
<ellipse fill="#31688e" stroke="black" cx="519.5" cy="-90" rx="50.09" ry="18"/>
<text text-anchor="middle" x="519.5" y="-86.3" font-family="Times,serif" font-size="14.00" fill="white">libhdfs3</text>
</a>
</g>
</g>
<!-- libhdfs3&#45;&gt;conda&#45;forge&#45;pinning -->
<g id="edge10" class="edge">
<title>libhdfs3&#45;&gt;conda&#45;forge&#45;pinning</title>
<path fill="none" stroke="black" d="M550.73,-75.67C575.09,-65.27 609.3,-50.67 636.9,-38.89"/>
<polygon fill="black" stroke="black" points="638.53,-42 646.35,-34.86 635.78,-35.56 638.53,-42"/>
</g>
<!-- grpc&#45;cpp -->
<g id="node11" class="node">
<title>grpc&#45;cpp</title>
<g id="a_node11"><a xlink:href="https://github.com/conda-forge/grpc-cpp-feedstock/pull/61" xlink:title="grpc cpp">
<ellipse fill="#31688e" stroke="black" cx="711.5" cy="-234" rx="50.09" ry="18"/>
<text text-anchor="middle" x="711.5" y="-230.3" font-family="Times,serif" font-size="14.00" fill="white">grpc cpp</text>
</a>
</g>
</g>
<!-- grpc&#45;cpp&#45;&gt;arrow&#45;cpp -->
<g id="edge11" class="edge">
<title>grpc&#45;cpp&#45;&gt;arrow&#45;cpp</title>
<path fill="none" stroke="black" d="M700.03,-216.25C693.3,-206.03 684.89,-192.56 678.5,-180 668.15,-159.66 658.58,-135.63 651.91,-117.66"/>
<polygon fill="black" stroke="black" points="655.14,-116.31 648.42,-108.12 648.56,-118.71 655.14,-116.31"/>
</g>
<!-- grpc&#45;cpp&#45;&gt;conda&#45;forge&#45;pinning -->
<g id="edge12" class="edge">
<title>grpc&#45;cpp&#45;&gt;conda&#45;forge&#45;pinning</title>
<path fill="none" stroke="black" d="M713.06,-215.82C715.3,-186.08 717.99,-123.3 706.5,-72 704.48,-62.99 700.95,-53.62 697.24,-45.3"/>
<polygon fill="black" stroke="black" points="700.33,-43.65 692.9,-36.1 694,-46.64 700.33,-43.65"/>
</g>
<!-- google&#45;cloud&#45;cpp -->
<g id="node12" class="node">
<title>google&#45;cloud&#45;cpp</title>
<g id="a_node12"><a xlink:href="https://github.com/conda-forge/google-cloud-cpp-feedstock" xlink:title="google cloud cpp">
<ellipse fill="#fde725" stroke="black" cx="842.5" cy="-90" rx="89.08" ry="18"/>
<text text-anchor="middle" x="842.5" y="-86.3" font-family="Times,serif" font-size="14.00">google cloud cpp</text>
</a>
</g>
</g>
<!-- grpc&#45;cpp&#45;&gt;google&#45;cloud&#45;cpp -->
<g id="edge13" class="edge">
<title>grpc&#45;cpp&#45;&gt;google&#45;cloud&#45;cpp</title>
<path fill="none" stroke="black" d="M715.31,-215.8C720.35,-196.44 730.83,-164.94 749.5,-144 761.7,-130.32 778.31,-119.31 794.11,-110.95"/>
<polygon fill="black" stroke="black" points="795.93,-113.95 803.28,-106.33 792.78,-107.7 795.93,-113.95"/>
</g>
<!-- googleapis&#45;cpp -->
<g id="node13" class="node">
<title>googleapis&#45;cpp</title>
<g id="a_node13"><a xlink:href="https://github.com/conda-forge/googleapis-cpp-feedstock" xlink:title="googleapis cpp">
<ellipse fill="#fde725" stroke="black" cx="837.5" cy="-162" rx="79.5" ry="18"/>
<text text-anchor="middle" x="837.5" y="-158.3" font-family="Times,serif" font-size="14.00">googleapis cpp</text>
</a>
</g>
</g>
<!-- grpc&#45;cpp&#45;&gt;googleapis&#45;cpp -->
<g id="edge14" class="edge">
<title>grpc&#45;cpp&#45;&gt;googleapis&#45;cpp</title>
<path fill="none" stroke="black" d="M737.61,-218.5C755.61,-208.49 779.82,-195.05 799.89,-183.89"/>
<polygon fill="black" stroke="black" points="801.75,-186.87 808.79,-178.95 798.35,-180.75 801.75,-186.87"/>
</g>
<!-- google&#45;cloud&#45;cpp&#45;&gt;conda&#45;forge&#45;pinning -->
<g id="edge15" class="edge">
<title>google&#45;cloud&#45;cpp&#45;&gt;conda&#45;forge&#45;pinning</title>
<path fill="none" stroke="black" d="M807.21,-73.46C784.17,-63.32 753.87,-49.98 729.02,-39.04"/>
<polygon fill="black" stroke="black" points="730.35,-35.8 719.79,-34.98 727.53,-42.21 730.35,-35.8"/>
</g>
<!-- googleapis&#45;cpp&#45;&gt;conda&#45;forge&#45;pinning -->
<g id="edge16" class="edge">
<title>googleapis&#45;cpp&#45;&gt;conda&#45;forge&#45;pinning</title>
<path fill="none" stroke="black" d="M887.2,-147.92C907.4,-139.89 928.72,-127.31 940.5,-108 948.83,-94.34 950.61,-84.4 940.5,-72 920.87,-47.9 849.15,-34.44 786.45,-27.12"/>
<polygon fill="black" stroke="black" points="786.8,-23.63 776.47,-25.99 786.02,-30.59 786.8,-23.63"/>
</g>
<!-- googleapis&#45;cpp&#45;&gt;google&#45;cloud&#45;cpp -->
<g id="edge17" class="edge">
<title>googleapis&#45;cpp&#45;&gt;google&#45;cloud&#45;cpp</title>
<path fill="none" stroke="black" d="M838.74,-143.7C839.29,-135.98 839.95,-126.71 840.56,-118.11"/>
<polygon fill="black" stroke="black" points="844.06,-118.33 841.28,-108.1 837.07,-117.83 844.06,-118.33"/>
</g>
<!-- libignition&#45;transport4 -->
<g id="node14" class="node">
<title>libignition&#45;transport4</title>
<g id="a_node14"><a xlink:href="https://github.com/conda-forge/libignition-transport4-feedstock" xlink:title="libignition transport4">
<ellipse fill="#35b779" stroke="black" cx="1053.5" cy="-162" rx="118.5" ry="18"/>
<text text-anchor="middle" x="1053.5" y="-158.3" font-family="Times,serif" font-size="14.00">libignition transport4</text>
</a>
</g>
</g>
<!-- libignition&#45;transport4&#45;&gt;conda&#45;forge&#45;pinning -->
<g id="edge18" class="edge">
<title>libignition&#45;transport4&#45;&gt;conda&#45;forge&#45;pinning</title>
<path fill="none" stroke="black" d="M1040.24,-143.89C1023.35,-123.38 992.16,-89.58 957.5,-72 905.84,-45.8 842.68,-32.52 790.02,-25.79"/>
<polygon fill="black" stroke="black" points="790.33,-22.3 779.98,-24.57 789.48,-29.25 790.33,-22.3"/>
</g>
<!-- libignition&#45;msgs1 -->
<g id="node15" class="node">
<title>libignition&#45;msgs1</title>
<g id="a_node15"><a xlink:href="https://github.com/conda-forge/libignition-msgs1-feedstock/pull/5" xlink:title="libignition msgs1">
<ellipse fill="#31688e" stroke="black" cx="1116.5" cy="-234" rx="93.68" ry="18"/>
<text text-anchor="middle" x="1116.5" y="-230.3" font-family="Times,serif" font-size="14.00" fill="white">libignition msgs1</text>
</a>
</g>
</g>
<!-- libignition&#45;msgs1&#45;&gt;conda&#45;forge&#45;pinning -->
<g id="edge19" class="edge">
<title>libignition&#45;msgs1&#45;&gt;conda&#45;forge&#45;pinning</title>
<path fill="none" stroke="black" d="M1146.38,-216.93C1159.74,-207.99 1174.13,-195.52 1181.5,-180 1188.36,-165.55 1190.54,-157.2 1181.5,-144 1136.72,-78.65 914.05,-43.79 782.1,-28.58"/>
<polygon fill="black" stroke="black" points="782.31,-25.08 771.98,-27.43 781.52,-32.04 782.31,-25.08"/>
</g>
<!-- gazebo -->
<g id="node16" class="node">
<title>gazebo</title>
<g id="a_node16"><a xlink:href="https://github.com/conda-forge/gazebo-feedstock" xlink:title="gazebo">
<ellipse fill="#35b779" stroke="black" cx="1207.5" cy="-306" rx="40.5" ry="18"/>
<text text-anchor="middle" x="1207.5" y="-302.3" font-family="Times,serif" font-size="14.00">gazebo</text>
</a>
</g>
</g>
<!-- gazebo&#45;&gt;conda&#45;forge&#45;pinning -->
<g id="edge20" class="edge">
<title>gazebo&#45;&gt;conda&#45;forge&#45;pinning</title>
<path fill="none" stroke="black" d="M1212.37,-287.98C1215.06,-277.67 1218.14,-264.19 1219.5,-252 1224.94,-203.32 1225.93,-183.89 1197.5,-144 1165.92,-99.7 1149.07,-92.07 1098.5,-72 1043.78,-50.28 891.96,-34.81 787.95,-26.39"/>
<polygon fill="black" stroke="black" points="787.98,-22.88 777.73,-25.58 787.42,-29.86 787.98,-22.88"/>
</g>
<!-- libignition&#45;fuel&#45;tools -->
<g id="node17" class="node">
<title>libignition&#45;fuel&#45;tools</title>
<g id="a_node17"><a xlink:href="https://github.com/conda-forge/libignition-fuel-tools-feedstock" xlink:title="libignition fuel tools">
<ellipse fill="#35b779" stroke="black" cx="1276.5" cy="-378" rx="118.5" ry="18"/>
<text text-anchor="middle" x="1276.5" y="-374.3" font-family="Times,serif" font-size="14.00">libignition fuel tools</text>
</a>
</g>
</g>
<!-- libignition&#45;fuel&#45;tools&#45;&gt;conda&#45;forge&#45;pinning -->
<g id="edge21" class="edge">
<title>libignition&#45;fuel&#45;tools&#45;&gt;conda&#45;forge&#45;pinning</title>
<path fill="none" stroke="black" d="M1276.5,-359.95C1276.5,-333.29 1276.5,-280.11 1276.5,-235 1276.5,-235 1276.5,-235 1276.5,-161 1276.5,-62.85 965.37,-32.38 793.84,-23.05"/>
<polygon fill="black" stroke="black" points="793.93,-19.55 783.76,-22.51 793.56,-26.54 793.93,-19.55"/>
</g>
<!-- go&#45;cockroach -->
<g id="node18" class="node">
<title>go&#45;cockroach</title>
<g id="a_node18"><a xlink:href="https://github.com/conda-forge/go-cockroach-feedstock" xlink:title="go cockroach">
<ellipse fill="#35b779" stroke="black" cx="1374.5" cy="-90" rx="69.59" ry="18"/>
<text text-anchor="middle" x="1374.5" y="-86.3" font-family="Times,serif" font-size="14.00">go cockroach</text>
</a>
</g>
</g>
<!-- go&#45;cockroach&#45;&gt;conda&#45;forge&#45;pinning -->
<g id="edge22" class="edge">
<title>go&#45;cockroach&#45;&gt;conda&#45;forge&#45;pinning</title>
<path fill="none" stroke="black" d="M1323.58,-77.74C1312.7,-75.6 1301.25,-73.55 1290.5,-72 1116.49,-46.88 912.58,-32.04 790.93,-24.71"/>
<polygon fill="black" stroke="black" points="791.06,-21.22 780.87,-24.12 790.64,-28.2 791.06,-21.22"/>
</g>
<!-- cartographer -->
<g id="node19" class="node">
<title>cartographer</title>
<g id="a_node19"><a xlink:href="https://github.com/conda-forge/cartographer-feedstock" xlink:title="cartographer">
<ellipse fill="#35b779" stroke="black" cx="1472.5" cy="-162" rx="69.59" ry="18"/>
<text text-anchor="middle" x="1472.5" y="-158.3" font-family="Times,serif" font-size="14.00">cartographer</text>
</a>
</g>
</g>
<!-- cartographer&#45;&gt;conda&#45;forge&#45;pinning -->
<g id="edge23" class="edge">
<title>cartographer&#45;&gt;conda&#45;forge&#45;pinning</title>
<path fill="none" stroke="black" d="M1474.36,-143.94C1475.53,-123.47 1473.91,-89.7 1453.5,-72 1405.1,-30.01 999.18,-21.18 797.01,-19.4"/>
<polygon fill="black" stroke="black" points="796.97,-15.9 786.94,-19.31 796.91,-22.9 796.97,-15.9"/>
</g>
</g>
</svg>
