<?xml version="1.0" encoding="UTF-8" standalone="no"?>
<!DOCTYPE svg PUBLIC "-//W3C//DTD SVG 1.1//EN"
 "http://www.w3.org/Graphics/SVG/1.1/DTD/svg11.dtd">
<!-- Generated by graphviz version 2.42.3 (20191010.1750)
 -->
<!-- Title: %3 Pages: 1 -->
<svg width="1413pt" height="404pt"
 viewBox="0.00 0.00 1413.04 404.00" xmlns="http://www.w3.org/2000/svg" xmlns:xlink="http://www.w3.org/1999/xlink">
<g id="graph0" class="graph" transform="scale(1 1) rotate(0) translate(4 400)">
<title>%3</title>
<polygon fill="white" stroke="transparent" points="-4,4 -4,-400 1409.04,-400 1409.04,4 -4,4"/>
<!-- arrow&#45;cpp -->
<g id="node1" class="node">
<title>arrow&#45;cpp</title>
<g id="a_node1"><a xlink:href="https://github.com/conda-forge/arrow-cpp-feedstock" xlink:title="arrow cpp">
<ellipse fill="#fde725" stroke="black" cx="524.5" cy="-90" rx="54.69" ry="18"/>
<text text-anchor="middle" x="524.5" y="-86.3" font-family="Times,serif" font-size="14.00">arrow cpp</text>
</a>
</g>
</g>
<!-- conda&#45;forge&#45;pinning -->
<g id="node2" class="node">
<title>conda&#45;forge&#45;pinning</title>
<ellipse fill="none" stroke="black" cx="524.5" cy="-18" rx="103.5" ry="18"/>
<text text-anchor="middle" x="524.5" y="-14.3" font-family="Times,serif" font-size="14.00">conda&#45;forge&#45;pinning</text>
</g>
<!-- arrow&#45;cpp&#45;&gt;conda&#45;forge&#45;pinning -->
<g id="edge1" class="edge">
<title>arrow&#45;cpp&#45;&gt;conda&#45;forge&#45;pinning</title>
<path fill="none" stroke="black" d="M524.5,-71.7C524.5,-63.98 524.5,-54.71 524.5,-46.11"/>
<polygon fill="black" stroke="black" points="528,-46.1 524.5,-36.1 521,-46.1 528,-46.1"/>
</g>
<!-- caffe -->
<g id="node3" class="node">
<title>caffe</title>
<g id="a_node3"><a xlink:href="https://github.com/conda-forge/caffe-feedstock/pull/59" xlink:title="caffe">
<ellipse fill="#31688e" stroke="black" cx="116.5" cy="-90" rx="35.19" ry="18"/>
<text text-anchor="middle" x="116.5" y="-86.3" font-family="Times,serif" font-size="14.00" fill="white">caffe</text>
</a>
</g>
</g>
<!-- caffe&#45;&gt;conda&#45;forge&#45;pinning -->
<g id="edge2" class="edge">
<title>caffe&#45;&gt;conda&#45;forge&#45;pinning</title>
<path fill="none" stroke="black" d="M143.7,-78.55C150.72,-76.13 158.33,-73.76 165.5,-72 252.29,-50.74 353.1,-36.77 425.76,-28.53"/>
<polygon fill="black" stroke="black" points="426.27,-32 435.82,-27.41 425.5,-25.04 426.27,-32"/>
</g>
<!-- mosh -->
<g id="node4" class="node">
<title>mosh</title>
<g id="a_node4"><a xlink:href="https://github.com/conda-forge/mosh-feedstock/pull/16" xlink:title="mosh">
<ellipse fill="#31688e" stroke="black" cx="168.5" cy="-162" rx="30.59" ry="18"/>
<text text-anchor="middle" x="168.5" y="-158.3" font-family="Times,serif" font-size="14.00" fill="white">mosh</text>
</a>
</g>
</g>
<!-- mosh&#45;&gt;conda&#45;forge&#45;pinning -->
<g id="edge3" class="edge">
<title>mosh&#45;&gt;conda&#45;forge&#45;pinning</title>
<path fill="none" stroke="black" d="M172.21,-143.89C177.6,-123.38 189.68,-89.58 213.5,-72 245.82,-48.15 343.18,-34.23 420.46,-26.69"/>
<polygon fill="black" stroke="black" points="421.11,-30.15 430.74,-25.72 420.45,-23.18 421.11,-30.15"/>
</g>
<!-- mysql&#45;connector&#45;python -->
<g id="node5" class="node">
<title>mysql&#45;connector&#45;python</title>
<g id="a_node5"><a xlink:href="https://github.com/conda-forge/mysql-connector-python-feedstock/pull/27" xlink:title="mysql connector python">
<ellipse fill="#31688e" stroke="black" cx="118.5" cy="-234" rx="118.5" ry="18"/>
<text text-anchor="middle" x="118.5" y="-230.3" font-family="Times,serif" font-size="14.00" fill="white">mysql connector python</text>
</a>
</g>
</g>
<!-- mysql&#45;connector&#45;python&#45;&gt;conda&#45;forge&#45;pinning -->
<g id="edge4" class="edge">
<title>mysql&#45;connector&#45;python&#45;&gt;conda&#45;forge&#45;pinning</title>
<path fill="none" stroke="black" d="M157.98,-216.88C175.39,-208.13 194.93,-195.83 208.5,-180 242.13,-140.78 211.71,-104.96 251.5,-72 277.76,-50.25 358.15,-36.36 424.95,-28.29"/>
<polygon fill="black" stroke="black" points="425.59,-31.74 435.12,-27.09 424.77,-24.78 425.59,-31.74"/>
</g>
<!-- onnx -->
<g id="node6" class="node">
<title>onnx</title>
<g id="a_node6"><a xlink:href="https://github.com/conda-forge/onnx-feedstock/pull/43" xlink:title="onnx">
<ellipse fill="#31688e" stroke="black" cx="265.5" cy="-306" rx="30.59" ry="18"/>
<text text-anchor="middle" x="265.5" y="-302.3" font-family="Times,serif" font-size="14.00" fill="white">onnx</text>
</a>
</g>
</g>
<!-- onnx&#45;&gt;conda&#45;forge&#45;pinning -->
<g id="edge5" class="edge">
<title>onnx&#45;&gt;conda&#45;forge&#45;pinning</title>
<path fill="none" stroke="black" d="M262.84,-287.92C257.11,-244.26 248.88,-128.07 312.5,-72 341.12,-46.78 379.96,-33.19 416.58,-25.99"/>
<polygon fill="black" stroke="black" points="417.62,-29.36 426.84,-24.13 416.37,-22.47 417.62,-29.36"/>
</g>
<!-- shogun -->
<g id="node7" class="node">
<title>shogun</title>
<g id="a_node7"><a xlink:href="https://github.com/conda-forge/shogun-feedstock" xlink:title="shogun">
<ellipse fill="#fde725" stroke="black" cx="372.5" cy="-90" rx="40.5" ry="18"/>
<text text-anchor="middle" x="372.5" y="-86.3" font-family="Times,serif" font-size="14.00">shogun</text>
</a>
</g>
</g>
<!-- shogun&#45;&gt;conda&#45;forge&#45;pinning -->
<g id="edge6" class="edge">
<title>shogun&#45;&gt;conda&#45;forge&#45;pinning</title>
<path fill="none" stroke="black" d="M399.67,-76.49C422.11,-66.15 454.39,-51.29 480.5,-39.26"/>
<polygon fill="black" stroke="black" points="482.2,-42.34 489.81,-34.97 479.27,-35.98 482.2,-42.34"/>
</g>
<!-- shogun&#45;cpp -->
<g id="node8" class="node">
<title>shogun&#45;cpp</title>
<g id="a_node8"><a xlink:href="https://github.com/conda-forge/shogun-cpp-feedstock/pull/39" xlink:title="shogun cpp">
<ellipse fill="#31688e" stroke="black" cx="353.5" cy="-162" rx="60" ry="18"/>
<text text-anchor="middle" x="353.5" y="-158.3" font-family="Times,serif" font-size="14.00" fill="white">shogun cpp</text>
</a>
</g>
</g>
<!-- shogun&#45;cpp&#45;&gt;conda&#45;forge&#45;pinning -->
<g id="edge7" class="edge">
<title>shogun&#45;cpp&#45;&gt;conda&#45;forge&#45;pinning</title>
<path fill="none" stroke="black" d="M339.08,-144.4C324.31,-125.29 305.71,-93.76 322.5,-72 336.82,-53.44 388.21,-40.11 435.56,-31.46"/>
<polygon fill="black" stroke="black" points="436.36,-34.87 445.59,-29.68 435.14,-27.98 436.36,-34.87"/>
</g>
<!-- shogun&#45;cpp&#45;&gt;shogun -->
<g id="edge8" class="edge">
<title>shogun&#45;cpp&#45;&gt;shogun</title>
<path fill="none" stroke="black" d="M358.2,-143.7C360.31,-135.9 362.86,-126.51 365.22,-117.83"/>
<polygon fill="black" stroke="black" points="368.62,-118.67 367.86,-108.1 361.86,-116.84 368.62,-118.67"/>
</g>
<!-- libhdfs3 -->
<g id="node9" class="node">
<title>libhdfs3</title>
<g id="a_node9"><a xlink:href="https://github.com/conda-forge/libhdfs3-feedstock/pull/32" xlink:title="libhdfs3">
<ellipse fill="#31688e" stroke="black" cx="441.5" cy="-378" rx="50.09" ry="18"/>
<text text-anchor="middle" x="441.5" y="-374.3" font-family="Times,serif" font-size="14.00" fill="white">libhdfs3</text>
</a>
</g>
</g>
<!-- libhdfs3&#45;&gt;conda&#45;forge&#45;pinning -->
<g id="edge9" class="edge">
<title>libhdfs3&#45;&gt;conda&#45;forge&#45;pinning</title>
<path fill="none" stroke="black" d="M441.5,-359.95C441.5,-333.29 441.5,-280.11 441.5,-235 441.5,-235 441.5,-235 441.5,-161 441.5,-120.55 439.54,-106.59 460.5,-72 467.65,-60.2 478.39,-49.82 489.03,-41.45"/>
<polygon fill="black" stroke="black" points="491.17,-44.22 497.1,-35.45 486.99,-38.61 491.17,-44.22"/>
</g>
<!-- grpc&#45;cpp -->
<g id="node10" class="node">
<title>grpc&#45;cpp</title>
<g id="a_node10"><a xlink:href="https://github.com/conda-forge/grpc-cpp-feedstock/pull/61" xlink:title="grpc cpp">
<ellipse fill="#31688e" stroke="black" cx="626.5" cy="-234" rx="50.09" ry="18"/>
<text text-anchor="middle" x="626.5" y="-230.3" font-family="Times,serif" font-size="14.00" fill="white">grpc cpp</text>
</a>
</g>
</g>
<!-- grpc&#45;cpp&#45;&gt;arrow&#45;cpp -->
<g id="edge10" class="edge">
<title>grpc&#45;cpp&#45;&gt;arrow&#45;cpp</title>
<path fill="none" stroke="black" d="M614.6,-216.43C596.88,-191.77 563.43,-145.2 542.65,-116.27"/>
<polygon fill="black" stroke="black" points="545.32,-113.98 536.64,-107.9 539.63,-118.07 545.32,-113.98"/>
</g>
<!-- grpc&#45;cpp&#45;&gt;conda&#45;forge&#45;pinning -->
<g id="edge11" class="edge">
<title>grpc&#45;cpp&#45;&gt;conda&#45;forge&#45;pinning</title>
<path fill="none" stroke="black" d="M625.96,-215.66C624.27,-184.59 617.28,-118.36 588.5,-72 581.23,-60.28 570.46,-49.92 559.82,-41.54"/>
<polygon fill="black" stroke="black" points="561.87,-38.71 551.77,-35.53 557.68,-44.32 561.87,-38.71"/>
</g>
<!-- google&#45;cloud&#45;cpp -->
<g id="node11" class="node">
<title>google&#45;cloud&#45;cpp</title>
<g id="a_node11"><a xlink:href="https://github.com/conda-forge/google-cloud-cpp-feedstock" xlink:title="google cloud cpp">
<ellipse fill="#fde725" stroke="black" cx="724.5" cy="-90" rx="89.08" ry="18"/>
<text text-anchor="middle" x="724.5" y="-86.3" font-family="Times,serif" font-size="14.00">google cloud cpp</text>
</a>
</g>
</g>
<!-- grpc&#45;cpp&#45;&gt;google&#45;cloud&#45;cpp -->
<g id="edge12" class="edge">
<title>grpc&#45;cpp&#45;&gt;google&#45;cloud&#45;cpp</title>
<path fill="none" stroke="black" d="M631.08,-215.75C636.65,-196.89 647.35,-166.4 663.5,-144 671.53,-132.87 682.33,-122.5 692.61,-113.94"/>
<polygon fill="black" stroke="black" points="695.06,-116.47 700.69,-107.49 690.69,-111 695.06,-116.47"/>
</g>
<!-- googleapis&#45;cpp -->
<g id="node12" class="node">
<title>googleapis&#45;cpp</title>
<g id="a_node12"><a xlink:href="https://github.com/conda-forge/googleapis-cpp-feedstock" xlink:title="googleapis cpp">
<ellipse fill="#fde725" stroke="black" cx="752.5" cy="-162" rx="79.5" ry="18"/>
<text text-anchor="middle" x="752.5" y="-158.3" font-family="Times,serif" font-size="14.00">googleapis cpp</text>
</a>
</g>
</g>
<!-- grpc&#45;cpp&#45;&gt;googleapis&#45;cpp -->
<g id="edge13" class="edge">
<title>grpc&#45;cpp&#45;&gt;googleapis&#45;cpp</title>
<path fill="none" stroke="black" d="M652.61,-218.5C670.61,-208.49 694.82,-195.05 714.89,-183.89"/>
<polygon fill="black" stroke="black" points="716.75,-186.87 723.79,-178.95 713.35,-180.75 716.75,-186.87"/>
</g>
<!-- google&#45;cloud&#45;cpp&#45;&gt;conda&#45;forge&#45;pinning -->
<g id="edge14" class="edge">
<title>google&#45;cloud&#45;cpp&#45;&gt;conda&#45;forge&#45;pinning</title>
<path fill="none" stroke="black" d="M682.09,-74.15C651.85,-63.57 610.95,-49.26 578.4,-37.86"/>
<polygon fill="black" stroke="black" points="579.18,-34.43 568.58,-34.43 576.87,-41.04 579.18,-34.43"/>
</g>
<!-- googleapis&#45;cpp&#45;&gt;conda&#45;forge&#45;pinning -->
<g id="edge15" class="edge">
<title>googleapis&#45;cpp&#45;&gt;conda&#45;forge&#45;pinning</title>
<path fill="none" stroke="black" d="M784.61,-145.44C798.99,-136.63 814.49,-124.11 822.5,-108 829.62,-93.67 832.78,-84.26 822.5,-72 798.4,-43.23 708.42,-30.07 633.58,-24.05"/>
<polygon fill="black" stroke="black" points="633.84,-20.56 623.6,-23.28 633.3,-27.54 633.84,-20.56"/>
</g>
<!-- googleapis&#45;cpp&#45;&gt;google&#45;cloud&#45;cpp -->
<g id="edge16" class="edge">
<title>googleapis&#45;cpp&#45;&gt;google&#45;cloud&#45;cpp</title>
<path fill="none" stroke="black" d="M745.72,-144.05C742.57,-136.18 738.75,-126.62 735.22,-117.79"/>
<polygon fill="black" stroke="black" points="738.37,-116.26 731.41,-108.28 731.87,-118.86 738.37,-116.26"/>
</g>
<!-- libignition&#45;transport4 -->
<g id="node13" class="node">
<title>libignition&#45;transport4</title>
<g id="a_node13"><a xlink:href="https://github.com/conda-forge/libignition-transport4-feedstock/pull/7" xlink:title="libignition transport4">
<ellipse fill="#31688e" stroke="black" cx="988.5" cy="-90" rx="118.5" ry="18"/>
<text text-anchor="middle" x="988.5" y="-86.3" font-family="Times,serif" font-size="14.00" fill="white">libignition transport4</text>
</a>
</g>
</g>
<!-- libignition&#45;transport4&#45;&gt;conda&#45;forge&#45;pinning -->
<g id="edge17" class="edge">
<title>libignition&#45;transport4&#45;&gt;conda&#45;forge&#45;pinning</title>
<path fill="none" stroke="black" d="M907.68,-76.81C824.34,-64.23 694.92,-44.71 609.93,-31.89"/>
<polygon fill="black" stroke="black" points="610.2,-28.39 599.79,-30.36 609.16,-35.31 610.2,-28.39"/>
</g>
<!-- gazebo -->
<g id="node14" class="node">
<title>gazebo</title>
<g id="a_node14"><a xlink:href="https://github.com/conda-forge/gazebo-feedstock" xlink:title="gazebo">
<ellipse fill="#35b779" stroke="black" cx="1119.5" cy="-162" rx="40.5" ry="18"/>
<text text-anchor="middle" x="1119.5" y="-158.3" font-family="Times,serif" font-size="14.00">gazebo</text>
</a>
</g>
</g>
<!-- gazebo&#45;&gt;conda&#45;forge&#45;pinning -->
<g id="edge18" class="edge">
<title>gazebo&#45;&gt;conda&#45;forge&#45;pinning</title>
<path fill="none" stroke="black" d="M1124.6,-144.05C1129.47,-124.01 1133.67,-91 1115.5,-72 1083.16,-38.18 799.01,-25.67 636.79,-21.26"/>
<polygon fill="black" stroke="black" points="636.85,-17.76 626.76,-20.99 636.67,-24.75 636.85,-17.76"/>
</g>
<!-- libignition&#45;fuel&#45;tools -->
<g id="node15" class="node">
<title>libignition&#45;fuel&#45;tools</title>
<g id="a_node15"><a xlink:href="https://github.com/conda-forge/libignition-fuel-tools-feedstock/pull/5" xlink:title="libignition fuel tools">
<ellipse fill="#31688e" stroke="black" cx="1188.5" cy="-234" rx="118.5" ry="18"/>
<text text-anchor="middle" x="1188.5" y="-230.3" font-family="Times,serif" font-size="14.00" fill="white">libignition fuel tools</text>
</a>
</g>
</g>
<!-- libignition&#45;fuel&#45;tools&#45;&gt;conda&#45;forge&#45;pinning -->
<g id="edge19" class="edge">
<title>libignition&#45;fuel&#45;tools&#45;&gt;conda&#45;forge&#45;pinning</title>
<path fill="none" stroke="black" d="M1188.99,-215.86C1188.92,-181.65 1183.25,-105.34 1136.5,-72 1096.77,-43.66 800.97,-28.75 635.61,-22.56"/>
<polygon fill="black" stroke="black" points="635.52,-19.05 625.39,-22.18 635.26,-26.05 635.52,-19.05"/>
</g>
<!-- go&#45;cockroach -->
<g id="node16" class="node">
<title>go&#45;cockroach</title>
<g id="a_node16"><a xlink:href="https://github.com/conda-forge/go-cockroach-feedstock/pull/6" xlink:title="go cockroach">
<ellipse fill="#31688e" stroke="black" cx="1335.5" cy="-306" rx="69.59" ry="18"/>
<text text-anchor="middle" x="1335.5" y="-302.3" font-family="Times,serif" font-size="14.00" fill="white">go cockroach</text>
</a>
</g>
</g>
<!-- go&#45;cockroach&#45;&gt;conda&#45;forge&#45;pinning -->
<g id="edge20" class="edge">
<title>go&#45;cockroach&#45;&gt;conda&#45;forge&#45;pinning</title>
<path fill="none" stroke="black" d="M1334.58,-287.89C1332.93,-269.15 1328.33,-238.76 1315.5,-216 1270.11,-135.5 1249.74,-110 1165.5,-72 1074.24,-30.84 796.34,-21.33 638.03,-19.34"/>
<polygon fill="black" stroke="black" points="637.82,-15.83 627.78,-19.22 637.74,-22.83 637.82,-15.83"/>
</g>
</g>
</svg>
