<?xml version="1.0" encoding="UTF-8" standalone="no"?>
<!DOCTYPE svg PUBLIC "-//W3C//DTD SVG 1.1//EN"
 "http://www.w3.org/Graphics/SVG/1.1/DTD/svg11.dtd">
<!-- Generated by graphviz version 2.42.3 (20191010.1750)
 -->
<!-- Title: %3 Pages: 1 -->
<svg width="1636pt" height="404pt"
 viewBox="0.00 0.00 1636.04 404.00" xmlns="http://www.w3.org/2000/svg" xmlns:xlink="http://www.w3.org/1999/xlink">
<g id="graph0" class="graph" transform="scale(1 1) rotate(0) translate(4 400)">
<title>%3</title>
<polygon fill="white" stroke="transparent" points="-4,4 -4,-400 1632.04,-400 1632.04,4 -4,4"/>
<!-- arrow&#45;cpp -->
<g id="node1" class="node">
<title>arrow&#45;cpp</title>
<g id="a_node1"><a xlink:href="https://github.com/conda-forge/arrow-cpp-feedstock" xlink:title="arrow cpp">
<ellipse fill="#fde725" stroke="black" cx="642.5" cy="-90" rx="54.69" ry="18"/>
<text text-anchor="middle" x="642.5" y="-86.3" font-family="Times,serif" font-size="14.00">arrow cpp</text>
</a>
</g>
</g>
<!-- conda&#45;forge&#45;pinning -->
<g id="node2" class="node">
<title>conda&#45;forge&#45;pinning</title>
<ellipse fill="none" stroke="black" cx="725.5" cy="-18" rx="103.5" ry="18"/>
<text text-anchor="middle" x="725.5" y="-14.3" font-family="Times,serif" font-size="14.00">conda&#45;forge&#45;pinning</text>
</g>
<!-- arrow&#45;cpp&#45;&gt;conda&#45;forge&#45;pinning -->
<g id="edge1" class="edge">
<title>arrow&#45;cpp&#45;&gt;conda&#45;forge&#45;pinning</title>
<path fill="none" stroke="black" d="M661.75,-72.76C672.41,-63.77 685.85,-52.44 697.64,-42.49"/>
<polygon fill="black" stroke="black" points="700.1,-45 705.49,-35.88 695.59,-39.65 700.1,-45"/>
</g>
<!-- caffe -->
<g id="node3" class="node">
<title>caffe</title>
<g id="a_node3"><a xlink:href="https://github.com/conda-forge/caffe-feedstock" xlink:title="caffe">
<ellipse fill="#35b779" stroke="black" cx="116.5" cy="-90" rx="35.19" ry="18"/>
<text text-anchor="middle" x="116.5" y="-86.3" font-family="Times,serif" font-size="14.00">caffe</text>
</a>
</g>
</g>
<!-- caffe&#45;&gt;conda&#45;forge&#45;pinning -->
<g id="edge2" class="edge">
<title>caffe&#45;&gt;conda&#45;forge&#45;pinning</title>
<path fill="none" stroke="black" d="M143.38,-78.38C150.48,-75.93 158.2,-73.59 165.5,-72 318.57,-38.71 499.68,-26.33 613.6,-21.73"/>
<polygon fill="black" stroke="black" points="613.87,-25.22 623.72,-21.33 613.6,-18.22 613.87,-25.22"/>
</g>
<!-- mosh -->
<g id="node4" class="node">
<title>mosh</title>
<g id="a_node4"><a xlink:href="https://github.com/conda-forge/mosh-feedstock" xlink:title="mosh">
<ellipse fill="#35b779" stroke="black" cx="168.5" cy="-162" rx="30.59" ry="18"/>
<text text-anchor="middle" x="168.5" y="-158.3" font-family="Times,serif" font-size="14.00">mosh</text>
</a>
</g>
</g>
<!-- mosh&#45;&gt;conda&#45;forge&#45;pinning -->
<g id="edge3" class="edge">
<title>mosh&#45;&gt;conda&#45;forge&#45;pinning</title>
<path fill="none" stroke="black" d="M171.93,-144C177.09,-123.26 188.97,-88.89 213.5,-72 276,-28.97 480.9,-19.71 611.76,-18.35"/>
<polygon fill="black" stroke="black" points="611.86,-21.85 621.83,-18.26 611.8,-14.85 611.86,-21.85"/>
</g>
<!-- mysql&#45;connector&#45;python -->
<g id="node5" class="node">
<title>mysql&#45;connector&#45;python</title>
<g id="a_node5"><a xlink:href="https://github.com/conda-forge/mysql-connector-python-feedstock/pull/27" xlink:title="mysql connector python">
<ellipse fill="#31688e" stroke="black" cx="118.5" cy="-234" rx="118.5" ry="18"/>
<text text-anchor="middle" x="118.5" y="-230.3" font-family="Times,serif" font-size="14.00" fill="white">mysql connector python</text>
</a>
</g>
</g>
<!-- mysql&#45;connector&#45;python&#45;&gt;conda&#45;forge&#45;pinning -->
<g id="edge4" class="edge">
<title>mysql&#45;connector&#45;python&#45;&gt;conda&#45;forge&#45;pinning</title>
<path fill="none" stroke="black" d="M157.98,-216.88C175.39,-208.13 194.93,-195.83 208.5,-180 242.13,-140.78 210.42,-103.33 251.5,-72 306.21,-30.27 489.67,-20.38 611.65,-18.58"/>
<polygon fill="black" stroke="black" points="611.83,-22.08 621.78,-18.45 611.74,-15.08 611.83,-22.08"/>
</g>
<!-- onnx -->
<g id="node6" class="node">
<title>onnx</title>
<g id="a_node6"><a xlink:href="https://github.com/conda-forge/onnx-feedstock/pull/43" xlink:title="onnx">
<ellipse fill="#31688e" stroke="black" cx="244.5" cy="-306" rx="30.59" ry="18"/>
<text text-anchor="middle" x="244.5" y="-302.3" font-family="Times,serif" font-size="14.00" fill="white">onnx</text>
</a>
</g>
</g>
<!-- onnx&#45;&gt;conda&#45;forge&#45;pinning -->
<g id="edge5" class="edge">
<title>onnx&#45;&gt;conda&#45;forge&#45;pinning</title>
<path fill="none" stroke="black" d="M245.27,-287.99C247.85,-239.39 257.86,-101.5 289.5,-72 313.21,-49.89 497.89,-33.76 619.17,-25.43"/>
<polygon fill="black" stroke="black" points="619.5,-28.91 629.24,-24.74 619.03,-21.93 619.5,-28.91"/>
</g>
<!-- paraview -->
<g id="node7" class="node">
<title>paraview</title>
<g id="a_node7"><a xlink:href="https://github.com/conda-forge/paraview-feedstock" xlink:title="paraview">
<ellipse fill="#35b779" stroke="black" cx="303.5" cy="-378" rx="50.09" ry="18"/>
<text text-anchor="middle" x="303.5" y="-374.3" font-family="Times,serif" font-size="14.00">paraview</text>
</a>
</g>
</g>
<!-- paraview&#45;&gt;conda&#45;forge&#45;pinning -->
<g id="edge6" class="edge">
<title>paraview&#45;&gt;conda&#45;forge&#45;pinning</title>
<path fill="none" stroke="black" d="M303.5,-359.95C303.5,-333.29 303.5,-280.11 303.5,-235 303.5,-235 303.5,-235 303.5,-161 303.5,-116.27 313.9,-97.72 350.5,-72 392.15,-42.72 520.63,-29.47 615.65,-23.57"/>
<polygon fill="black" stroke="black" points="616.13,-27.05 625.9,-22.96 615.71,-20.06 616.13,-27.05"/>
</g>
<!-- shogun -->
<g id="node8" class="node">
<title>shogun</title>
<g id="a_node8"><a xlink:href="https://github.com/conda-forge/shogun-feedstock" xlink:title="shogun">
<ellipse fill="#fde725" stroke="black" cx="410.5" cy="-90" rx="40.5" ry="18"/>
<text text-anchor="middle" x="410.5" y="-86.3" font-family="Times,serif" font-size="14.00">shogun</text>
</a>
</g>
</g>
<!-- shogun&#45;&gt;conda&#45;forge&#45;pinning -->
<g id="edge7" class="edge">
<title>shogun&#45;&gt;conda&#45;forge&#45;pinning</title>
<path fill="none" stroke="black" d="M440.98,-77.93C447.38,-75.81 454.12,-73.71 460.5,-72 520.94,-55.75 590.35,-42.05 642.97,-32.65"/>
<polygon fill="black" stroke="black" points="643.69,-36.07 652.93,-30.88 642.47,-29.18 643.69,-36.07"/>
</g>
<!-- shogun&#45;cpp -->
<g id="node9" class="node">
<title>shogun&#45;cpp</title>
<g id="a_node9"><a xlink:href="https://github.com/conda-forge/shogun-cpp-feedstock/pull/39" xlink:title="shogun cpp">
<ellipse fill="#31688e" stroke="black" cx="400.5" cy="-162" rx="60" ry="18"/>
<text text-anchor="middle" x="400.5" y="-158.3" font-family="Times,serif" font-size="14.00" fill="white">shogun cpp</text>
</a>
</g>
</g>
<!-- shogun&#45;cpp&#45;&gt;conda&#45;forge&#45;pinning -->
<g id="edge8" class="edge">
<title>shogun&#45;cpp&#45;&gt;conda&#45;forge&#45;pinning</title>
<path fill="none" stroke="black" d="M383.29,-144.65C365.2,-125.5 341.77,-93.65 360.5,-72 392.64,-34.86 517.33,-23.2 612.11,-19.82"/>
<polygon fill="black" stroke="black" points="612.47,-23.31 622.35,-19.48 612.24,-16.31 612.47,-23.31"/>
</g>
<!-- shogun&#45;cpp&#45;&gt;shogun -->
<g id="edge9" class="edge">
<title>shogun&#45;cpp&#45;&gt;shogun</title>
<path fill="none" stroke="black" d="M402.97,-143.7C404.07,-135.98 405.4,-126.71 406.63,-118.11"/>
<polygon fill="black" stroke="black" points="410.11,-118.5 408.06,-108.1 403.18,-117.51 410.11,-118.5"/>
</g>
<!-- libhdfs3 -->
<g id="node10" class="node">
<title>libhdfs3</title>
<g id="a_node10"><a xlink:href="https://github.com/conda-forge/libhdfs3-feedstock" xlink:title="libhdfs3">
<ellipse fill="#35b779" stroke="black" cx="519.5" cy="-90" rx="50.09" ry="18"/>
<text text-anchor="middle" x="519.5" y="-86.3" font-family="Times,serif" font-size="14.00">libhdfs3</text>
</a>
</g>
</g>
<!-- libhdfs3&#45;&gt;conda&#45;forge&#45;pinning -->
<g id="edge10" class="edge">
<title>libhdfs3&#45;&gt;conda&#45;forge&#45;pinning</title>
<path fill="none" stroke="black" d="M554.91,-76.97C586.8,-66.13 634.17,-50.03 670.91,-37.55"/>
<polygon fill="black" stroke="black" points="672.14,-40.83 680.48,-34.3 669.89,-34.2 672.14,-40.83"/>
</g>
<!-- grpc&#45;cpp -->
<g id="node11" class="node">
<title>grpc&#45;cpp</title>
<g id="a_node11"><a xlink:href="https://github.com/conda-forge/grpc-cpp-feedstock/pull/61" xlink:title="grpc cpp">
<ellipse fill="#31688e" stroke="black" cx="699.5" cy="-234" rx="50.09" ry="18"/>
<text text-anchor="middle" x="699.5" y="-230.3" font-family="Times,serif" font-size="14.00" fill="white">grpc cpp</text>
</a>
</g>
</g>
<!-- grpc&#45;cpp&#45;&gt;arrow&#45;cpp -->
<g id="edge11" class="edge">
<title>grpc&#45;cpp&#45;&gt;arrow&#45;cpp</title>
<path fill="none" stroke="black" d="M687.47,-216.51C680.54,-206.39 672.12,-192.92 666.5,-180 657.81,-160 651.57,-136.08 647.63,-118.07"/>
<polygon fill="black" stroke="black" points="651.05,-117.31 645.58,-108.23 644.2,-118.74 651.05,-117.31"/>
</g>
<!-- grpc&#45;cpp&#45;&gt;conda&#45;forge&#45;pinning -->
<g id="edge12" class="edge">
<title>grpc&#45;cpp&#45;&gt;conda&#45;forge&#45;pinning</title>
<path fill="none" stroke="black" d="M701.58,-215.85C706.08,-178.83 716.73,-91.18 722.17,-46.39"/>
<polygon fill="black" stroke="black" points="725.67,-46.58 723.41,-36.23 718.73,-45.74 725.67,-46.58"/>
</g>
<!-- google&#45;cloud&#45;cpp -->
<g id="node12" class="node">
<title>google&#45;cloud&#45;cpp</title>
<g id="a_node12"><a xlink:href="https://github.com/conda-forge/google-cloud-cpp-feedstock" xlink:title="google cloud cpp">
<ellipse fill="#fde725" stroke="black" cx="842.5" cy="-90" rx="89.08" ry="18"/>
<text text-anchor="middle" x="842.5" y="-86.3" font-family="Times,serif" font-size="14.00">google cloud cpp</text>
</a>
</g>
</g>
<!-- grpc&#45;cpp&#45;&gt;google&#45;cloud&#45;cpp -->
<g id="edge13" class="edge">
<title>grpc&#45;cpp&#45;&gt;google&#45;cloud&#45;cpp</title>
<path fill="none" stroke="black" d="M702.81,-215.97C707.38,-196.46 717.33,-164.56 736.5,-144 750.36,-129.14 769.31,-117.85 787.35,-109.6"/>
<polygon fill="black" stroke="black" points="788.89,-112.75 796.67,-105.56 786.11,-106.32 788.89,-112.75"/>
</g>
<!-- googleapis&#45;cpp -->
<g id="node13" class="node">
<title>googleapis&#45;cpp</title>
<g id="a_node13"><a xlink:href="https://github.com/conda-forge/googleapis-cpp-feedstock" xlink:title="googleapis cpp">
<ellipse fill="#fde725" stroke="black" cx="825.5" cy="-162" rx="79.5" ry="18"/>
<text text-anchor="middle" x="825.5" y="-158.3" font-family="Times,serif" font-size="14.00">googleapis cpp</text>
</a>
</g>
</g>
<!-- grpc&#45;cpp&#45;&gt;googleapis&#45;cpp -->
<g id="edge14" class="edge">
<title>grpc&#45;cpp&#45;&gt;googleapis&#45;cpp</title>
<path fill="none" stroke="black" d="M725.61,-218.5C743.61,-208.49 767.82,-195.05 787.89,-183.89"/>
<polygon fill="black" stroke="black" points="789.75,-186.87 796.79,-178.95 786.35,-180.75 789.75,-186.87"/>
</g>
<!-- google&#45;cloud&#45;cpp&#45;&gt;conda&#45;forge&#45;pinning -->
<g id="edge15" class="edge">
<title>google&#45;cloud&#45;cpp&#45;&gt;conda&#45;forge&#45;pinning</title>
<path fill="none" stroke="black" d="M815.36,-72.76C799.38,-63.2 778.97,-50.99 761.64,-40.62"/>
<polygon fill="black" stroke="black" points="763.27,-37.52 752.89,-35.39 759.68,-43.53 763.27,-37.52"/>
</g>
<!-- googleapis&#45;cpp&#45;&gt;conda&#45;forge&#45;pinning -->
<g id="edge16" class="edge">
<title>googleapis&#45;cpp&#45;&gt;conda&#45;forge&#45;pinning</title>
<path fill="none" stroke="black" d="M881.42,-149.14C903.76,-141.36 927.28,-128.64 940.5,-108 949.13,-94.53 950.37,-84.6 940.5,-72 925,-52.21 869.22,-38.81 818.37,-30.43"/>
<polygon fill="black" stroke="black" points="818.7,-26.94 808.28,-28.82 817.6,-33.85 818.7,-26.94"/>
</g>
<!-- googleapis&#45;cpp&#45;&gt;google&#45;cloud&#45;cpp -->
<g id="edge17" class="edge">
<title>googleapis&#45;cpp&#45;&gt;google&#45;cloud&#45;cpp</title>
<path fill="none" stroke="black" d="M829.7,-143.7C831.6,-135.9 833.88,-126.51 835.98,-117.83"/>
<polygon fill="black" stroke="black" points="839.39,-118.65 838.35,-108.1 832.58,-117 839.39,-118.65"/>
</g>
<!-- libignition&#45;transport4 -->
<g id="node14" class="node">
<title>libignition&#45;transport4</title>
<g id="a_node14"><a xlink:href="https://github.com/conda-forge/libignition-transport4-feedstock" xlink:title="libignition transport4">
<ellipse fill="#35b779" stroke="black" cx="1041.5" cy="-162" rx="118.5" ry="18"/>
<text text-anchor="middle" x="1041.5" y="-158.3" font-family="Times,serif" font-size="14.00">libignition transport4</text>
</a>
</g>
</g>
<!-- libignition&#45;transport4&#45;&gt;conda&#45;forge&#45;pinning -->
<g id="edge18" class="edge">
<title>libignition&#45;transport4&#45;&gt;conda&#45;forge&#45;pinning</title>
<path fill="none" stroke="black" d="M1030.48,-144.04C1016.33,-123.67 989.82,-90.01 958.5,-72 918.3,-48.88 868.78,-35.84 825.74,-28.49"/>
<polygon fill="black" stroke="black" points="826.24,-25.03 815.81,-26.88 825.12,-31.94 826.24,-25.03"/>
</g>
<!-- libignition&#45;msgs1 -->
<g id="node15" class="node">
<title>libignition&#45;msgs1</title>
<g id="a_node15"><a xlink:href="https://github.com/conda-forge/libignition-msgs1-feedstock" xlink:title="libignition msgs1">
<ellipse fill="#35b779" stroke="black" cx="1104.5" cy="-234" rx="93.68" ry="18"/>
<text text-anchor="middle" x="1104.5" y="-230.3" font-family="Times,serif" font-size="14.00">libignition msgs1</text>
</a>
</g>
</g>
<!-- libignition&#45;msgs1&#45;&gt;conda&#45;forge&#45;pinning -->
<g id="edge19" class="edge">
<title>libignition&#45;msgs1&#45;&gt;conda&#45;forge&#45;pinning</title>
<path fill="none" stroke="black" d="M1133.93,-216.83C1147.09,-207.87 1161.26,-195.4 1168.5,-180 1175.31,-165.52 1177.39,-157.3 1168.5,-144 1129.39,-85.5 934.43,-48.33 816.56,-30.83"/>
<polygon fill="black" stroke="black" points="816.86,-27.33 806.46,-29.35 815.85,-34.26 816.86,-27.33"/>
</g>
<!-- gazebo -->
<g id="node16" class="node">
<title>gazebo</title>
<g id="a_node16"><a xlink:href="https://github.com/conda-forge/gazebo-feedstock" xlink:title="gazebo">
<ellipse fill="#35b779" stroke="black" cx="1195.5" cy="-306" rx="40.5" ry="18"/>
<text text-anchor="middle" x="1195.5" y="-302.3" font-family="Times,serif" font-size="14.00">gazebo</text>
</a>
</g>
</g>
<!-- gazebo&#45;&gt;conda&#45;forge&#45;pinning -->
<g id="edge20" class="edge">
<title>gazebo&#45;&gt;conda&#45;forge&#45;pinning</title>
<path fill="none" stroke="black" d="M1200.37,-287.98C1203.06,-277.67 1206.14,-264.19 1207.5,-252 1212.94,-203.32 1214.03,-183.82 1185.5,-144 1153.61,-99.48 1136.25,-92.57 1085.5,-72 1006.38,-39.93 910.47,-26.95 837.54,-21.84"/>
<polygon fill="black" stroke="black" points="837.62,-18.34 827.41,-21.17 837.16,-25.32 837.62,-18.34"/>
</g>
<!-- libignition&#45;fuel&#45;tools -->
<g id="node17" class="node">
<title>libignition&#45;fuel&#45;tools</title>
<g id="a_node17"><a xlink:href="https://github.com/conda-forge/libignition-fuel-tools-feedstock" xlink:title="libignition fuel tools">
<ellipse fill="#35b779" stroke="black" cx="1264.5" cy="-378" rx="118.5" ry="18"/>
<text text-anchor="middle" x="1264.5" y="-374.3" font-family="Times,serif" font-size="14.00">libignition fuel tools</text>
</a>
</g>
</g>
<!-- libignition&#45;fuel&#45;tools&#45;&gt;conda&#45;forge&#45;pinning -->
<g id="edge21" class="edge">
<title>libignition&#45;fuel&#45;tools&#45;&gt;conda&#45;forge&#45;pinning</title>
<path fill="none" stroke="black" d="M1264.5,-359.95C1264.5,-333.29 1264.5,-280.11 1264.5,-235 1264.5,-235 1264.5,-235 1264.5,-161 1264.5,-72.46 989.12,-37.95 832.03,-25.46"/>
<polygon fill="black" stroke="black" points="832.1,-21.95 821.86,-24.67 831.56,-28.93 832.1,-21.95"/>
</g>
<!-- zaber&#45;motion -->
<g id="node18" class="node">
<title>zaber&#45;motion</title>
<g id="a_node18"><a xlink:href="https://github.com/conda-forge/zaber-motion-feedstock" xlink:title="zaber motion">
<ellipse fill="#35b779" stroke="black" cx="1362.5" cy="-90" rx="69.59" ry="18"/>
<text text-anchor="middle" x="1362.5" y="-86.3" font-family="Times,serif" font-size="14.00">zaber motion</text>
</a>
</g>
</g>
<!-- zaber&#45;motion&#45;&gt;conda&#45;forge&#45;pinning -->
<g id="edge22" class="edge">
<title>zaber&#45;motion&#45;&gt;conda&#45;forge&#45;pinning</title>
<path fill="none" stroke="black" d="M1311.12,-77.72C1300.38,-75.61 1289.1,-73.58 1278.5,-72 1123.55,-48.96 942.6,-33.82 831.03,-25.83"/>
<polygon fill="black" stroke="black" points="831.01,-22.32 820.78,-25.1 830.51,-29.3 831.01,-22.32"/>
</g>
<!-- go&#45;cockroach -->
<g id="node19" class="node">
<title>go&#45;cockroach</title>
<g id="a_node19"><a xlink:href="https://github.com/conda-forge/go-cockroach-feedstock" xlink:title="go cockroach">
<ellipse fill="#35b779" stroke="black" cx="1460.5" cy="-162" rx="69.59" ry="18"/>
<text text-anchor="middle" x="1460.5" y="-158.3" font-family="Times,serif" font-size="14.00">go cockroach</text>
</a>
</g>
</g>
<!-- go&#45;cockroach&#45;&gt;conda&#45;forge&#45;pinning -->
<g id="edge23" class="edge">
<title>go&#45;cockroach&#45;&gt;conda&#45;forge&#45;pinning</title>
<path fill="none" stroke="black" d="M1462.34,-143.95C1463.5,-123.5 1461.86,-89.76 1441.5,-72 1397.17,-33.34 1028.99,-22.88 838.6,-20.05"/>
<polygon fill="black" stroke="black" points="838.6,-16.55 828.55,-19.9 838.5,-23.55 838.6,-16.55"/>
</g>
<!-- cartographer -->
<g id="node20" class="node">
<title>cartographer</title>
<g id="a_node20"><a xlink:href="https://github.com/conda-forge/cartographer-feedstock" xlink:title="cartographer">
<ellipse fill="#35b779" stroke="black" cx="1558.5" cy="-234" rx="69.59" ry="18"/>
<text text-anchor="middle" x="1558.5" y="-230.3" font-family="Times,serif" font-size="14.00">cartographer</text>
</a>
</g>
</g>
<!-- cartographer&#45;&gt;conda&#45;forge&#45;pinning -->
<g id="edge24" class="edge">
<title>cartographer&#45;&gt;conda&#45;forge&#45;pinning</title>
<path fill="none" stroke="black" d="M1557.78,-215.91C1556.36,-197.2 1552.11,-166.82 1539.5,-144 1517.31,-103.83 1507.37,-90.78 1465.5,-72 1409.65,-46.95 1028.7,-29.88 836.26,-22.75"/>
<polygon fill="black" stroke="black" points="836.24,-19.25 826.12,-22.38 835.98,-26.24 836.24,-19.25"/>
</g>
</g>
</svg>
