<?xml version="1.0" encoding="UTF-8" standalone="no"?>
<!DOCTYPE svg PUBLIC "-//W3C//DTD SVG 1.1//EN"
 "http://www.w3.org/Graphics/SVG/1.1/DTD/svg11.dtd">
<!-- Generated by graphviz version 2.42.3 (20191010.1750)
 -->
<!-- Title: %3 Pages: 1 -->
<svg width="568pt" height="232pt"
 viewBox="0.00 0.00 567.89 232.00" xmlns="http://www.w3.org/2000/svg" xmlns:xlink="http://www.w3.org/1999/xlink">
<g id="graph0" class="graph" transform="scale(1 1) rotate(0) translate(4 228)">
<title>%3</title>
<polygon fill="white" stroke="transparent" points="-4,4 -4,-228 563.89,-228 563.89,4 -4,4"/>
<!-- arrow&#45;cpp -->
<g id="node1" class="node">
<title>arrow&#45;cpp</title>
<g id="a_node1"><a xlink:href="https://github.com/conda-forge/arrow-cpp-feedstock" xlink:title="arrow cpp">
<ellipse fill="#fde725" stroke="black" cx="54.6" cy="-134" rx="54.69" ry="18"/>
<text text-anchor="middle" x="54.6" y="-130.3" font-family="Times,serif" font-size="14.00">arrow cpp</text>
</a>
</g>
</g>
<!-- mosh -->
<g id="node2" class="node">
<title>mosh</title>
<g id="a_node2"><a xlink:href="https://github.com/conda-forge/mosh-feedstock/pull/16" xlink:title="mosh">
<ellipse fill="#31688e" stroke="black" cx="161.6" cy="-18" rx="30.59" ry="18"/>
<text text-anchor="middle" x="161.6" y="-14.3" font-family="Times,serif" font-size="14.00" fill="white">mosh</text>
</a>
</g>
</g>
<!-- shogun -->
<g id="node3" class="node">
<title>shogun</title>
<g id="a_node3"><a xlink:href="https://github.com/conda-forge/shogun-feedstock" xlink:title="shogun">
<ellipse fill="#35b779" stroke="black" cx="519.6" cy="-134" rx="40.09" ry="18"/>
<text text-anchor="middle" x="519.6" y="-130.3" font-family="Times,serif" font-size="14.00">shogun</text>
</a>
</g>
</g>
<!-- grpc&#45;cpp -->
<g id="node4" class="node">
<title>grpc&#45;cpp</title>
<g id="a_node4"><a xlink:href="https://github.com/conda-forge/grpc-cpp-feedstock/pull/61" xlink:title="grpc cpp">
<ellipse fill="#31688e" stroke="black" cx="137.6" cy="-206" rx="50.09" ry="18"/>
<text text-anchor="middle" x="137.6" y="-202.3" font-family="Times,serif" font-size="14.00" fill="white">grpc cpp</text>
</a>
</g>
</g>
<!-- grpc&#45;cpp&#45;&gt;arrow&#45;cpp -->
<g id="edge1" class="edge">
<title>grpc&#45;cpp&#45;&gt;arrow&#45;cpp</title>
<path fill="none" stroke="black" d="M118.76,-189.12C107.7,-179.78 93.53,-167.84 81.33,-157.55"/>
<polygon fill="black" stroke="black" points="83.54,-154.84 73.64,-151.06 79.03,-160.19 83.54,-154.84"/>
</g>
<!-- google&#45;cloud&#45;cpp -->
<g id="node5" class="node">
<title>google&#45;cloud&#45;cpp</title>
<g id="a_node5"><a xlink:href="https://github.com/conda-forge/google-cloud-cpp-feedstock" xlink:title="google cloud cpp">
<ellipse fill="#fde725" stroke="black" cx="190.6" cy="-62" rx="89.08" ry="18"/>
<text text-anchor="middle" x="190.6" y="-58.3" font-family="Times,serif" font-size="14.00">google cloud cpp</text>
</a>
</g>
</g>
<!-- grpc&#45;cpp&#45;&gt;google&#45;cloud&#45;cpp -->
<g id="edge2" class="edge">
<title>grpc&#45;cpp&#45;&gt;google&#45;cloud&#45;cpp</title>
<path fill="none" stroke="black" d="M139.42,-187.73C141.77,-169.39 146.8,-139.82 156.6,-116 160.49,-106.55 166.07,-96.93 171.59,-88.52"/>
<polygon fill="black" stroke="black" points="174.49,-90.49 177.25,-80.27 168.71,-86.54 174.49,-90.49"/>
</g>
<!-- googleapis&#45;cpp -->
<g id="node6" class="node">
<title>googleapis&#45;cpp</title>
<g id="a_node6"><a xlink:href="https://github.com/conda-forge/googleapis-cpp-feedstock" xlink:title="googleapis cpp">
<ellipse fill="#fde725" stroke="black" cx="244.6" cy="-134" rx="79.09" ry="18"/>
<text text-anchor="middle" x="244.6" y="-130.3" font-family="Times,serif" font-size="14.00">googleapis cpp</text>
</a>
</g>
</g>
<!-- grpc&#45;cpp&#45;&gt;googleapis&#45;cpp -->
<g id="edge3" class="edge">
<title>grpc&#45;cpp&#45;&gt;googleapis&#45;cpp</title>
<path fill="none" stroke="black" d="M160.55,-189.98C175.26,-180.36 194.61,-167.7 211.04,-156.95"/>
<polygon fill="black" stroke="black" points="213.36,-159.62 219.81,-151.21 209.53,-153.76 213.36,-159.62"/>
</g>
<!-- googleapis&#45;cpp&#45;&gt;google&#45;cloud&#45;cpp -->
<g id="edge4" class="edge">
<title>googleapis&#45;cpp&#45;&gt;google&#45;cloud&#45;cpp</title>
<path fill="none" stroke="black" d="M231.52,-116.05C225.12,-107.75 217.27,-97.58 210.17,-88.38"/>
<polygon fill="black" stroke="black" points="212.8,-86.06 203.92,-80.28 207.26,-90.33 212.8,-86.06"/>
</g>
<!-- go&#45;cockroach -->
<g id="node7" class="node">
<title>go&#45;cockroach</title>
<g id="a_node7"><a xlink:href="https://github.com/conda-forge/go-cockroach-feedstock/pull/6" xlink:title="go cockroach">
<ellipse fill="#31688e" stroke="black" cx="401.6" cy="-134" rx="69.59" ry="18"/>
<text text-anchor="middle" x="401.6" y="-130.3" font-family="Times,serif" font-size="14.00" fill="white">go cockroach</text>
</a>
</g>
</g>
</g>
</svg>
