<?xml version="1.0" encoding="UTF-8" standalone="no"?>
<!DOCTYPE svg PUBLIC "-//W3C//DTD SVG 1.1//EN"
 "http://www.w3.org/Graphics/SVG/1.1/DTD/svg11.dtd">
<!-- Generated by graphviz version 2.42.3 (20191010.1750)
 -->
<!-- Title: %3 Pages: 1 -->
<svg width="1715pt" height="476pt"
 viewBox="0.00 0.00 1714.54 476.00" xmlns="http://www.w3.org/2000/svg" xmlns:xlink="http://www.w3.org/1999/xlink">
<g id="graph0" class="graph" transform="scale(1 1) rotate(0) translate(4 472)">
<title>%3</title>
<polygon fill="white" stroke="transparent" points="-4,4 -4,-472 1710.54,-472 1710.54,4 -4,4"/>
<!-- arrow&#45;cpp -->
<g id="node1" class="node">
<title>arrow&#45;cpp</title>
<g id="a_node1"><a xlink:href="https://github.com/conda-forge/arrow-cpp-feedstock" xlink:title="arrow cpp">
<ellipse fill="#fde725" stroke="black" cx="1124" cy="-90" rx="54.69" ry="18"/>
<text text-anchor="middle" x="1124" y="-86.3" font-family="Times,serif" font-size="14.00">arrow cpp</text>
</a>
</g>
</g>
<!-- conda&#45;forge&#45;pinning -->
<g id="node2" class="node">
<title>conda&#45;forge&#45;pinning</title>
<ellipse fill="none" stroke="black" cx="750" cy="-18" rx="103.5" ry="18"/>
<text text-anchor="middle" x="750" y="-14.3" font-family="Times,serif" font-size="14.00">conda&#45;forge&#45;pinning</text>
</g>
<!-- arrow&#45;cpp&#45;&gt;conda&#45;forge&#45;pinning -->
<g id="edge1" class="edge">
<title>arrow&#45;cpp&#45;&gt;conda&#45;forge&#45;pinning</title>
<path fill="none" stroke="black" d="M1082.51,-78.28C1073.47,-76.09 1063.94,-73.87 1055,-72 981.01,-56.48 896.24,-42.01 834.88,-32.13"/>
<polygon fill="black" stroke="black" points="835.28,-28.65 824.86,-30.52 834.18,-35.56 835.28,-28.65"/>
</g>
<!-- caffe -->
<g id="node3" class="node">
<title>caffe</title>
<g id="a_node3"><a xlink:href="https://github.com/conda-forge/caffe-feedstock" xlink:title="caffe">
<ellipse fill="#fde725" stroke="black" cx="49" cy="-378" rx="35.19" ry="18"/>
<text text-anchor="middle" x="49" y="-374.3" font-family="Times,serif" font-size="14.00">caffe</text>
</a>
</g>
</g>
<!-- caffe&#45;&gt;conda&#45;forge&#45;pinning -->
<g id="edge2" class="edge">
<title>caffe&#45;&gt;conda&#45;forge&#45;pinning</title>
<path fill="none" stroke="black" d="M37.9,-360.46C31.54,-350.32 23.88,-336.85 19,-324 4.65,-286.18 0,-275.45 0,-235 0,-235 0,-235 0,-161 0,-80.02 81.63,-95.92 159,-72 245.92,-45.12 494.26,-30.1 639.88,-23.37"/>
<polygon fill="black" stroke="black" points="640.35,-26.86 650.18,-22.9 640.03,-19.86 640.35,-26.86"/>
</g>
<!-- mosh -->
<g id="node4" class="node">
<title>mosh</title>
<g id="a_node4"><a xlink:href="https://github.com/conda-forge/mosh-feedstock" xlink:title="mosh">
<ellipse fill="#35b779" stroke="black" cx="496" cy="-90" rx="30.59" ry="18"/>
<text text-anchor="middle" x="496" y="-86.3" font-family="Times,serif" font-size="14.00">mosh</text>
</a>
</g>
</g>
<!-- mosh&#45;&gt;conda&#45;forge&#45;pinning -->
<g id="edge3" class="edge">
<title>mosh&#45;&gt;conda&#45;forge&#45;pinning</title>
<path fill="none" stroke="black" d="M520.58,-79.14C527.16,-76.66 534.31,-74.11 541,-72 586.36,-57.73 638.16,-44.57 678.85,-34.94"/>
<polygon fill="black" stroke="black" points="679.74,-38.32 688.67,-32.63 678.14,-31.51 679.74,-38.32"/>
</g>
<!-- mysql&#45;connector&#45;python -->
<g id="node5" class="node">
<title>mysql&#45;connector&#45;python</title>
<g id="a_node5"><a xlink:href="https://github.com/conda-forge/mysql-connector-python-feedstock" xlink:title="mysql connector python">
<ellipse fill="#fde725" stroke="black" cx="147" cy="-306" rx="118.5" ry="18"/>
<text text-anchor="middle" x="147" y="-302.3" font-family="Times,serif" font-size="14.00">mysql connector python</text>
</a>
</g>
</g>
<!-- mysql&#45;connector&#45;python&#45;&gt;conda&#45;forge&#45;pinning -->
<g id="edge4" class="edge">
<title>mysql&#45;connector&#45;python&#45;&gt;conda&#45;forge&#45;pinning</title>
<path fill="none" stroke="black" d="M143.75,-287.8C136.45,-243.33 124.3,-124.37 191,-72 225.43,-44.97 486.75,-29.78 639.61,-23.12"/>
<polygon fill="black" stroke="black" points="640.13,-26.6 649.97,-22.67 639.83,-19.61 640.13,-26.6"/>
</g>
<!-- onnx -->
<g id="node6" class="node">
<title>onnx</title>
<g id="a_node6"><a xlink:href="https://github.com/conda-forge/onnx-feedstock" xlink:title="onnx">
<ellipse fill="#fde725" stroke="black" cx="225" cy="-234" rx="30.59" ry="18"/>
<text text-anchor="middle" x="225" y="-230.3" font-family="Times,serif" font-size="14.00">onnx</text>
</a>
</g>
</g>
<!-- onnx&#45;&gt;conda&#45;forge&#45;pinning -->
<g id="edge5" class="edge">
<title>onnx&#45;&gt;conda&#45;forge&#45;pinning</title>
<path fill="none" stroke="black" d="M206.17,-219.6C194.48,-210.06 180.49,-196.11 174,-180 168.02,-165.16 167.78,-158.74 174,-144 191.85,-101.73 206.45,-91.48 248,-72 315.07,-40.55 512.46,-27.53 638.81,-22.31"/>
<polygon fill="black" stroke="black" points="639.06,-25.8 648.91,-21.9 638.78,-18.8 639.06,-25.8"/>
</g>
<!-- paraview -->
<g id="node7" class="node">
<title>paraview</title>
<g id="a_node7"><a xlink:href="https://github.com/conda-forge/paraview-feedstock" xlink:title="paraview">
<ellipse fill="#35b779" stroke="black" cx="515" cy="-162" rx="50.09" ry="18"/>
<text text-anchor="middle" x="515" y="-158.3" font-family="Times,serif" font-size="14.00">paraview</text>
</a>
</g>
</g>
<!-- paraview&#45;&gt;conda&#45;forge&#45;pinning -->
<g id="edge6" class="edge">
<title>paraview&#45;&gt;conda&#45;forge&#45;pinning</title>
<path fill="none" stroke="black" d="M527.58,-144.35C543.28,-124.61 571.87,-91.89 603,-72 627.33,-56.46 656.83,-44.68 683,-36.22"/>
<polygon fill="black" stroke="black" points="684.35,-39.47 692.85,-33.14 682.26,-32.79 684.35,-39.47"/>
</g>
<!-- protobuf -->
<g id="node8" class="node">
<title>protobuf</title>
<g id="a_node8"><a xlink:href="https://github.com/conda-forge/protobuf-feedstock" xlink:title="protobuf">
<ellipse fill="#35b779" stroke="black" cx="313" cy="-450" rx="50.09" ry="18"/>
<text text-anchor="middle" x="313" y="-446.3" font-family="Times,serif" font-size="14.00">protobuf</text>
</a>
</g>
</g>
<!-- protobuf&#45;&gt;conda&#45;forge&#45;pinning -->
<g id="edge7" class="edge">
<title>protobuf&#45;&gt;conda&#45;forge&#45;pinning</title>
<path fill="none" stroke="black" d="M339.3,-434.46C375.7,-412.18 437,-365.91 437,-307 437,-307 437,-307 437,-161 437,-120.55 426.95,-100.14 456,-72 482.6,-46.24 570.98,-32.73 643.96,-25.81"/>
<polygon fill="black" stroke="black" points="644.51,-29.28 654.15,-24.88 643.87,-22.31 644.51,-29.28"/>
</g>
<!-- protobuf&#45;&gt;caffe -->
<g id="edge8" class="edge">
<title>protobuf&#45;&gt;caffe</title>
<path fill="none" stroke="black" d="M274.05,-438.67C224.53,-425.54 139.48,-402.99 89.32,-389.69"/>
<polygon fill="black" stroke="black" points="90.04,-386.26 79.47,-387.08 88.24,-393.03 90.04,-386.26"/>
</g>
<!-- protobuf&#45;&gt;mysql&#45;connector&#45;python -->
<g id="edge9" class="edge">
<title>protobuf&#45;&gt;mysql&#45;connector&#45;python</title>
<path fill="none" stroke="black" d="M294.28,-432.99C265,-407.94 208.22,-359.37 174.36,-330.4"/>
<polygon fill="black" stroke="black" points="176.55,-327.67 166.68,-323.83 172,-332.99 176.55,-327.67"/>
</g>
<!-- protobuf&#45;&gt;onnx -->
<g id="edge10" class="edge">
<title>protobuf&#45;&gt;onnx</title>
<path fill="none" stroke="black" d="M311.66,-431.53C308.7,-400.83 299.67,-335.91 274,-288 267.71,-276.26 258.2,-265.14 249.23,-256.14"/>
<polygon fill="black" stroke="black" points="251.54,-253.51 241.9,-249.12 246.7,-258.56 251.54,-253.51"/>
</g>
<!-- libignition&#45;msgs1 -->
<g id="node9" class="node">
<title>libignition&#45;msgs1</title>
<g id="a_node9"><a xlink:href="https://github.com/conda-forge/libignition-msgs1-feedstock" xlink:title="libignition msgs1">
<ellipse fill="#fde725" stroke="black" cx="277" cy="-162" rx="93.68" ry="18"/>
<text text-anchor="middle" x="277" y="-158.3" font-family="Times,serif" font-size="14.00">libignition msgs1</text>
</a>
</g>
</g>
<!-- protobuf&#45;&gt;libignition&#45;msgs1 -->
<g id="edge11" class="edge">
<title>protobuf&#45;&gt;libignition&#45;msgs1</title>
<path fill="none" stroke="black" d="M315.03,-431.84C316.15,-421.48 317.44,-408 318,-396 318.75,-380.02 319.64,-375.92 318,-360 311.66,-298.38 294.43,-227.6 284.44,-189.92"/>
<polygon fill="black" stroke="black" points="287.8,-188.95 281.83,-180.21 281.04,-190.77 287.8,-188.95"/>
</g>
<!-- zaber&#45;motion -->
<g id="node10" class="node">
<title>zaber&#45;motion</title>
<g id="a_node10"><a xlink:href="https://github.com/conda-forge/zaber-motion-feedstock" xlink:title="zaber motion">
<ellipse fill="#fde725" stroke="black" cx="339" cy="-90" rx="69.59" ry="18"/>
<text text-anchor="middle" x="339" y="-86.3" font-family="Times,serif" font-size="14.00">zaber motion</text>
</a>
</g>
</g>
<!-- protobuf&#45;&gt;zaber&#45;motion -->
<g id="edge12" class="edge">
<title>protobuf&#45;&gt;zaber&#45;motion</title>
<path fill="none" stroke="black" d="M330.82,-433.01C356.01,-408.55 399,-359.17 399,-307 399,-307 399,-307 399,-233 399,-192.55 397.02,-180.69 380,-144 375.37,-134.03 368.58,-124.2 361.84,-115.76"/>
<polygon fill="black" stroke="black" points="364.31,-113.26 355.21,-107.83 358.94,-117.75 364.31,-113.26"/>
</g>
<!-- libignition&#45;msgs1&#45;&gt;conda&#45;forge&#45;pinning -->
<g id="edge13" class="edge">
<title>libignition&#45;msgs1&#45;&gt;conda&#45;forge&#45;pinning</title>
<path fill="none" stroke="black" d="M266.29,-144C255.34,-124.23 242.24,-91.78 260,-72 284.92,-44.24 503.26,-29.71 639.95,-23.26"/>
<polygon fill="black" stroke="black" points="640.22,-26.75 650.05,-22.79 639.9,-19.76 640.22,-26.75"/>
</g>
<!-- zaber&#45;motion&#45;&gt;conda&#45;forge&#45;pinning -->
<g id="edge14" class="edge">
<title>zaber&#45;motion&#45;&gt;conda&#45;forge&#45;pinning</title>
<path fill="none" stroke="black" d="M391.37,-78.07C401.83,-75.98 412.75,-73.87 423,-72 504.8,-57.1 598.51,-42.12 664.58,-31.91"/>
<polygon fill="black" stroke="black" points="665.18,-35.36 674.53,-30.38 664.11,-28.44 665.18,-35.36"/>
</g>
<!-- shogun -->
<g id="node11" class="node">
<title>shogun</title>
<g id="a_node11"><a xlink:href="https://github.com/conda-forge/shogun-feedstock" xlink:title="shogun">
<ellipse fill="#fde725" stroke="black" cx="662" cy="-90" rx="40.5" ry="18"/>
<text text-anchor="middle" x="662" y="-86.3" font-family="Times,serif" font-size="14.00">shogun</text>
</a>
</g>
</g>
<!-- shogun&#45;&gt;conda&#45;forge&#45;pinning -->
<g id="edge15" class="edge">
<title>shogun&#45;&gt;conda&#45;forge&#45;pinning</title>
<path fill="none" stroke="black" d="M681.09,-73.81C692.73,-64.55 707.84,-52.54 720.94,-42.12"/>
<polygon fill="black" stroke="black" points="723.14,-44.84 728.78,-35.88 718.78,-39.36 723.14,-44.84"/>
</g>
<!-- shogun&#45;cpp -->
<g id="node12" class="node">
<title>shogun&#45;cpp</title>
<g id="a_node12"><a xlink:href="https://github.com/conda-forge/shogun-cpp-feedstock" xlink:title="shogun cpp">
<ellipse fill="#35b779" stroke="black" cx="643" cy="-162" rx="60" ry="18"/>
<text text-anchor="middle" x="643" y="-158.3" font-family="Times,serif" font-size="14.00">shogun cpp</text>
</a>
</g>
</g>
<!-- shogun&#45;cpp&#45;&gt;conda&#45;forge&#45;pinning -->
<g id="edge16" class="edge">
<title>shogun&#45;cpp&#45;&gt;conda&#45;forge&#45;pinning</title>
<path fill="none" stroke="black" d="M628.75,-144.37C614.43,-125.53 596.53,-94.52 612,-72 624.6,-53.66 644.5,-41.66 665.31,-33.81"/>
<polygon fill="black" stroke="black" points="666.61,-37.07 674.91,-30.49 664.32,-30.45 666.61,-37.07"/>
</g>
<!-- shogun&#45;cpp&#45;&gt;shogun -->
<g id="edge17" class="edge">
<title>shogun&#45;cpp&#45;&gt;shogun</title>
<path fill="none" stroke="black" d="M647.7,-143.7C649.81,-135.9 652.36,-126.51 654.72,-117.83"/>
<polygon fill="black" stroke="black" points="658.12,-118.67 657.36,-108.1 651.36,-116.84 658.12,-118.67"/>
</g>
<!-- libhdfs3 -->
<g id="node13" class="node">
<title>libhdfs3</title>
<g id="a_node13"><a xlink:href="https://github.com/conda-forge/libhdfs3-feedstock" xlink:title="libhdfs3">
<ellipse fill="#35b779" stroke="black" cx="691" cy="-234" rx="50.09" ry="18"/>
<text text-anchor="middle" x="691" y="-230.3" font-family="Times,serif" font-size="14.00">libhdfs3</text>
</a>
</g>
</g>
<!-- libhdfs3&#45;&gt;conda&#45;forge&#45;pinning -->
<g id="edge18" class="edge">
<title>libhdfs3&#45;&gt;conda&#45;forge&#45;pinning</title>
<path fill="none" stroke="black" d="M698.45,-216.04C702.79,-205.75 708.14,-192.27 712,-180 726.54,-133.72 738.44,-78.43 744.85,-46.16"/>
<polygon fill="black" stroke="black" points="748.32,-46.63 746.81,-36.14 741.45,-45.28 748.32,-46.63"/>
</g>
<!-- r&#45;protolite -->
<g id="node14" class="node">
<title>r&#45;protolite</title>
<g id="a_node14"><a xlink:href="https://github.com/conda-forge/r-protolite-feedstock" xlink:title="r protolite">
<ellipse fill="#35b779" stroke="black" cx="769" cy="-306" rx="64.5" ry="18"/>
<text text-anchor="middle" x="769" y="-302.3" font-family="Times,serif" font-size="14.00">r protolite</text>
</a>
</g>
</g>
<!-- r&#45;protolite&#45;&gt;conda&#45;forge&#45;pinning -->
<g id="edge19" class="edge">
<title>r&#45;protolite&#45;&gt;conda&#45;forge&#45;pinning</title>
<path fill="none" stroke="black" d="M767.87,-287.97C764.7,-240.29 755.73,-105.18 751.84,-46.63"/>
<polygon fill="black" stroke="black" points="755.3,-46.05 751.15,-36.31 748.32,-46.52 755.3,-46.05"/>
</g>
<!-- grpc&#45;cpp -->
<g id="node15" class="node">
<title>grpc&#45;cpp</title>
<g id="a_node15"><a xlink:href="https://github.com/conda-forge/grpc-cpp-feedstock" xlink:title="grpc cpp">
<ellipse fill="#35b779" stroke="black" cx="1022" cy="-234" rx="50.09" ry="18"/>
<text text-anchor="middle" x="1022" y="-230.3" font-family="Times,serif" font-size="14.00">grpc cpp</text>
</a>
</g>
</g>
<!-- grpc&#45;cpp&#45;&gt;arrow&#45;cpp -->
<g id="edge20" class="edge">
<title>grpc&#45;cpp&#45;&gt;arrow&#45;cpp</title>
<path fill="none" stroke="black" d="M1033.9,-216.43C1051.62,-191.77 1085.07,-145.2 1105.85,-116.27"/>
<polygon fill="black" stroke="black" points="1108.87,-118.07 1111.86,-107.9 1103.18,-113.98 1108.87,-118.07"/>
</g>
<!-- grpc&#45;cpp&#45;&gt;conda&#45;forge&#45;pinning -->
<g id="edge21" class="edge">
<title>grpc&#45;cpp&#45;&gt;conda&#45;forge&#45;pinning</title>
<path fill="none" stroke="black" d="M1028.23,-216.11C1038.88,-184 1056.3,-113.63 1022,-72 1000.79,-46.26 922.79,-32.86 855.72,-25.98"/>
<polygon fill="black" stroke="black" points="855.78,-22.47 845.49,-24.97 855.1,-29.43 855.78,-22.47"/>
</g>
<!-- google&#45;cloud&#45;cpp -->
<g id="node16" class="node">
<title>google&#45;cloud&#45;cpp</title>
<g id="a_node16"><a xlink:href="https://github.com/conda-forge/google-cloud-cpp-feedstock" xlink:title="google cloud cpp">
<ellipse fill="#fde725" stroke="black" cx="924" cy="-90" rx="89.08" ry="18"/>
<text text-anchor="middle" x="924" y="-86.3" font-family="Times,serif" font-size="14.00">google cloud cpp</text>
</a>
</g>
</g>
<!-- grpc&#45;cpp&#45;&gt;google&#45;cloud&#45;cpp -->
<g id="edge22" class="edge">
<title>grpc&#45;cpp&#45;&gt;google&#45;cloud&#45;cpp</title>
<path fill="none" stroke="black" d="M1017.16,-215.78C1011.32,-196.95 1000.23,-166.47 984,-144 976.04,-132.97 965.4,-122.64 955.29,-114.07"/>
<polygon fill="black" stroke="black" points="957.32,-111.21 947.36,-107.6 952.89,-116.63 957.32,-111.21"/>
</g>
<!-- googleapis&#45;cpp -->
<g id="node17" class="node">
<title>googleapis&#45;cpp</title>
<g id="a_node17"><a xlink:href="https://github.com/conda-forge/googleapis-cpp-feedstock" xlink:title="googleapis cpp">
<ellipse fill="#fde725" stroke="black" cx="896" cy="-162" rx="79.5" ry="18"/>
<text text-anchor="middle" x="896" y="-158.3" font-family="Times,serif" font-size="14.00">googleapis cpp</text>
</a>
</g>
</g>
<!-- grpc&#45;cpp&#45;&gt;googleapis&#45;cpp -->
<g id="edge23" class="edge">
<title>grpc&#45;cpp&#45;&gt;googleapis&#45;cpp</title>
<path fill="none" stroke="black" d="M995.89,-218.5C977.89,-208.49 953.68,-195.05 933.61,-183.89"/>
<polygon fill="black" stroke="black" points="935.15,-180.75 924.71,-178.95 931.75,-186.87 935.15,-180.75"/>
</g>
<!-- google&#45;cloud&#45;cpp&#45;&gt;conda&#45;forge&#45;pinning -->
<g id="edge24" class="edge">
<title>google&#45;cloud&#45;cpp&#45;&gt;conda&#45;forge&#45;pinning</title>
<path fill="none" stroke="black" d="M885.81,-73.64C860.13,-63.31 826.06,-49.6 798.46,-38.5"/>
<polygon fill="black" stroke="black" points="799.58,-35.17 789,-34.69 796.97,-41.67 799.58,-35.17"/>
</g>
<!-- googleapis&#45;cpp&#45;&gt;conda&#45;forge&#45;pinning -->
<g id="edge25" class="edge">
<title>googleapis&#45;cpp&#45;&gt;conda&#45;forge&#45;pinning</title>
<path fill="none" stroke="black" d="M871.97,-144.77C857.97,-134.84 840.31,-121.49 826,-108 804.85,-88.05 783.6,-62.6 768.97,-44.03"/>
<polygon fill="black" stroke="black" points="771.64,-41.76 762.74,-36.02 766.12,-46.06 771.64,-41.76"/>
</g>
<!-- googleapis&#45;cpp&#45;&gt;google&#45;cloud&#45;cpp -->
<g id="edge26" class="edge">
<title>googleapis&#45;cpp&#45;&gt;google&#45;cloud&#45;cpp</title>
<path fill="none" stroke="black" d="M902.78,-144.05C905.93,-136.18 909.75,-126.62 913.28,-117.79"/>
<polygon fill="black" stroke="black" points="916.63,-118.86 917.09,-108.28 910.13,-116.26 916.63,-118.86"/>
</g>
<!-- orc -->
<g id="node18" class="node">
<title>orc</title>
<g id="a_node18"><a xlink:href="https://github.com/conda-forge/orc-feedstock" xlink:title="orc">
<ellipse fill="#35b779" stroke="black" cx="1174" cy="-162" rx="27" ry="18"/>
<text text-anchor="middle" x="1174" y="-158.3" font-family="Times,serif" font-size="14.00">orc</text>
</a>
</g>
</g>
<!-- orc&#45;&gt;arrow&#45;cpp -->
<g id="edge27" class="edge">
<title>orc&#45;&gt;arrow&#45;cpp</title>
<path fill="none" stroke="black" d="M1162.9,-145.46C1156.76,-136.87 1148.98,-125.97 1141.99,-116.19"/>
<polygon fill="black" stroke="black" points="1144.78,-114.06 1136.12,-107.96 1139.08,-118.13 1144.78,-114.06"/>
</g>
<!-- orc&#45;&gt;conda&#45;forge&#45;pinning -->
<g id="edge28" class="edge">
<title>orc&#45;&gt;conda&#45;forge&#45;pinning</title>
<path fill="none" stroke="black" d="M1183.3,-145.04C1193.39,-125.39 1205.84,-92.13 1188,-72 1166.41,-47.64 980.41,-32.26 857.83,-24.68"/>
<polygon fill="black" stroke="black" points="857.84,-21.18 847.65,-24.06 857.42,-28.16 857.84,-21.18"/>
</g>
<!-- libignition&#45;transport4 -->
<g id="node19" class="node">
<title>libignition&#45;transport4</title>
<g id="a_node19"><a xlink:href="https://github.com/conda-forge/libignition-transport4-feedstock" xlink:title="libignition transport4">
<ellipse fill="#35b779" stroke="black" cx="1245" cy="-378" rx="118.5" ry="18"/>
<text text-anchor="middle" x="1245" y="-374.3" font-family="Times,serif" font-size="14.00">libignition transport4</text>
</a>
</g>
</g>
<!-- libignition&#45;transport4&#45;&gt;conda&#45;forge&#45;pinning -->
<g id="edge29" class="edge">
<title>libignition&#45;transport4&#45;&gt;conda&#45;forge&#45;pinning</title>
<path fill="none" stroke="black" d="M1245,-359.95C1245,-333.29 1245,-280.11 1245,-235 1245,-235 1245,-235 1245,-161 1245,-117.99 1241.46,-97.73 1207,-72 1154.41,-32.74 981.02,-22.04 863.59,-19.42"/>
<polygon fill="black" stroke="black" points="863.54,-15.92 853.47,-19.21 863.4,-22.91 863.54,-15.92"/>
</g>
<!-- gazebo -->
<g id="node20" class="node">
<title>gazebo</title>
<g id="a_node20"><a xlink:href="https://github.com/conda-forge/gazebo-feedstock" xlink:title="gazebo">
<ellipse fill="#35b779" stroke="black" cx="1314" cy="-90" rx="40.5" ry="18"/>
<text text-anchor="middle" x="1314" y="-86.3" font-family="Times,serif" font-size="14.00">gazebo</text>
</a>
</g>
</g>
<!-- gazebo&#45;&gt;conda&#45;forge&#45;pinning -->
<g id="edge30" class="edge">
<title>gazebo&#45;&gt;conda&#45;forge&#45;pinning</title>
<path fill="none" stroke="black" d="M1283.15,-78.3C1275.35,-75.92 1266.93,-73.62 1259,-72 1122.74,-44.13 962.81,-30.53 859.1,-24.16"/>
<polygon fill="black" stroke="black" points="859.12,-20.66 848.92,-23.55 858.7,-27.65 859.12,-20.66"/>
</g>
<!-- libignition&#45;fuel&#45;tools -->
<g id="node21" class="node">
<title>libignition&#45;fuel&#45;tools</title>
<g id="a_node21"><a xlink:href="https://github.com/conda-forge/libignition-fuel-tools-feedstock" xlink:title="libignition fuel tools">
<ellipse fill="#35b779" stroke="black" cx="1392" cy="-162" rx="118.5" ry="18"/>
<text text-anchor="middle" x="1392" y="-158.3" font-family="Times,serif" font-size="14.00">libignition fuel tools</text>
</a>
</g>
</g>
<!-- libignition&#45;fuel&#45;tools&#45;&gt;conda&#45;forge&#45;pinning -->
<g id="edge31" class="edge">
<title>libignition&#45;fuel&#45;tools&#45;&gt;conda&#45;forge&#45;pinning</title>
<path fill="none" stroke="black" d="M1391.73,-143.8C1390.39,-123.18 1384.76,-89.28 1363,-72 1324.72,-41.61 1027.79,-27.58 861.66,-22.05"/>
<polygon fill="black" stroke="black" points="861.51,-18.55 851.4,-21.72 861.28,-25.54 861.51,-18.55"/>
</g>
<!-- go&#45;cockroach -->
<g id="node22" class="node">
<title>go&#45;cockroach</title>
<g id="a_node22"><a xlink:href="https://github.com/conda-forge/go-cockroach-feedstock" xlink:title="go cockroach">
<ellipse fill="#35b779" stroke="black" cx="1539" cy="-234" rx="69.59" ry="18"/>
<text text-anchor="middle" x="1539" y="-230.3" font-family="Times,serif" font-size="14.00">go cockroach</text>
</a>
</g>
</g>
<!-- go&#45;cockroach&#45;&gt;conda&#45;forge&#45;pinning -->
<g id="edge32" class="edge">
<title>go&#45;cockroach&#45;&gt;conda&#45;forge&#45;pinning</title>
<path fill="none" stroke="black" d="M1539.18,-215.88C1538.54,-196.59 1534.86,-165.17 1519,-144 1479.4,-91.14 1452.21,-91.16 1389,-72 1293.29,-42.99 1017.14,-28.6 861,-22.59"/>
<polygon fill="black" stroke="black" points="861.01,-19.09 850.89,-22.21 860.75,-26.08 861.01,-19.09"/>
</g>
<!-- cartographer -->
<g id="node23" class="node">
<title>cartographer</title>
<g id="a_node23"><a xlink:href="https://github.com/conda-forge/cartographer-feedstock" xlink:title="cartographer">
<ellipse fill="#35b779" stroke="black" cx="1637" cy="-306" rx="69.59" ry="18"/>
<text text-anchor="middle" x="1637" y="-302.3" font-family="Times,serif" font-size="14.00">cartographer</text>
</a>
</g>
</g>
<!-- cartographer&#45;&gt;conda&#45;forge&#45;pinning -->
<g id="edge33" class="edge">
<title>cartographer&#45;&gt;conda&#45;forge&#45;pinning</title>
<path fill="none" stroke="black" d="M1636.37,-287.86C1635.02,-269.11 1630.83,-238.69 1618,-216 1569.76,-130.69 1542.19,-107.91 1451,-72 1347.17,-31.12 1034.02,-21.6 863.55,-19.5"/>
<polygon fill="black" stroke="black" points="863.57,-16 853.53,-19.38 863.49,-23 863.57,-16"/>
</g>
</g>
</svg>
