<?xml version="1.0" encoding="UTF-8" standalone="no"?>
<!DOCTYPE svg PUBLIC "-//W3C//DTD SVG 1.1//EN"
 "http://www.w3.org/Graphics/SVG/1.1/DTD/svg11.dtd">
<!-- Generated by graphviz version 2.42.3 (20191010.1750)
 -->
<!-- Title: %3 Pages: 1 -->
<svg width="1035pt" height="404pt"
 viewBox="0.00 0.00 1035.04 404.00" xmlns="http://www.w3.org/2000/svg" xmlns:xlink="http://www.w3.org/1999/xlink">
<g id="graph0" class="graph" transform="scale(1 1) rotate(0) translate(4 400)">
<title>%3</title>
<polygon fill="white" stroke="transparent" points="-4,4 -4,-400 1031.04,-400 1031.04,4 -4,4"/>
<!-- arrow&#45;cpp -->
<g id="node1" class="node">
<title>arrow&#45;cpp</title>
<g id="a_node1"><a xlink:href="https://github.com/conda-forge/arrow-cpp-feedstock" xlink:title="arrow cpp">
<ellipse fill="#fde725" stroke="black" cx="524.5" cy="-162" rx="54.69" ry="18"/>
<text text-anchor="middle" x="524.5" y="-158.3" font-family="Times,serif" font-size="14.00">arrow cpp</text>
</a>
</g>
</g>
<!-- conda&#45;forge&#45;pinning -->
<g id="node2" class="node">
<title>conda&#45;forge&#45;pinning</title>
<ellipse fill="none" stroke="black" cx="463.5" cy="-18" rx="103.5" ry="18"/>
<text text-anchor="middle" x="463.5" y="-14.3" font-family="Times,serif" font-size="14.00">conda&#45;forge&#45;pinning</text>
</g>
<!-- arrow&#45;cpp&#45;&gt;conda&#45;forge&#45;pinning -->
<g id="edge1" class="edge">
<title>arrow&#45;cpp&#45;&gt;conda&#45;forge&#45;pinning</title>
<path fill="none" stroke="black" d="M517.26,-144.15C506.82,-119.84 487.41,-74.66 474.99,-45.75"/>
<polygon fill="black" stroke="black" points="478.08,-44.07 470.92,-36.27 471.65,-46.84 478.08,-44.07"/>
</g>
<!-- mosh -->
<g id="node3" class="node">
<title>mosh</title>
<g id="a_node3"><a xlink:href="https://github.com/conda-forge/mosh-feedstock/pull/16" xlink:title="mosh">
<ellipse fill="#31688e" stroke="black" cx="114.5" cy="-90" rx="30.59" ry="18"/>
<text text-anchor="middle" x="114.5" y="-86.3" font-family="Times,serif" font-size="14.00" fill="white">mosh</text>
</a>
</g>
</g>
<!-- mosh&#45;&gt;conda&#45;forge&#45;pinning -->
<g id="edge2" class="edge">
<title>mosh&#45;&gt;conda&#45;forge&#45;pinning</title>
<path fill="none" stroke="black" d="M138.98,-78.8C145.56,-76.32 152.73,-73.85 159.5,-72 229.5,-52.86 310.54,-39.14 371.33,-30.46"/>
<polygon fill="black" stroke="black" points="371.88,-33.91 381.29,-29.05 370.9,-26.98 371.88,-33.91"/>
</g>
<!-- mysql&#45;connector&#45;python -->
<g id="node4" class="node">
<title>mysql&#45;connector&#45;python</title>
<g id="a_node4"><a xlink:href="https://github.com/conda-forge/mysql-connector-python-feedstock/pull/27" xlink:title="mysql connector python">
<ellipse fill="#31688e" stroke="black" cx="118.5" cy="-162" rx="118.5" ry="18"/>
<text text-anchor="middle" x="118.5" y="-158.3" font-family="Times,serif" font-size="14.00" fill="white">mysql connector python</text>
</a>
</g>
</g>
<!-- mysql&#45;connector&#45;python&#45;&gt;conda&#45;forge&#45;pinning -->
<g id="edge3" class="edge">
<title>mysql&#45;connector&#45;python&#45;&gt;conda&#45;forge&#45;pinning</title>
<path fill="none" stroke="black" d="M138.83,-144.1C163.84,-124.11 208.32,-91.15 251.5,-72 292.26,-53.92 340.29,-41.27 380.31,-32.88"/>
<polygon fill="black" stroke="black" points="381.21,-36.27 390.3,-30.83 379.8,-29.41 381.21,-36.27"/>
</g>
<!-- onnx -->
<g id="node5" class="node">
<title>onnx</title>
<g id="a_node5"><a xlink:href="https://github.com/conda-forge/onnx-feedstock/pull/43" xlink:title="onnx">
<ellipse fill="#31688e" stroke="black" cx="265.5" cy="-234" rx="30.59" ry="18"/>
<text text-anchor="middle" x="265.5" y="-230.3" font-family="Times,serif" font-size="14.00" fill="white">onnx</text>
</a>
</g>
</g>
<!-- onnx&#45;&gt;conda&#45;forge&#45;pinning -->
<g id="edge4" class="edge">
<title>onnx&#45;&gt;conda&#45;forge&#45;pinning</title>
<path fill="none" stroke="black" d="M265.29,-215.9C265.87,-183.11 272,-111.17 312.5,-72 331.36,-53.75 356.87,-41.76 381.54,-33.88"/>
<polygon fill="black" stroke="black" points="382.73,-37.18 391.3,-30.96 380.72,-30.47 382.73,-37.18"/>
</g>
<!-- shogun -->
<g id="node6" class="node">
<title>shogun</title>
<g id="a_node6"><a xlink:href="https://github.com/conda-forge/shogun-feedstock" xlink:title="shogun">
<ellipse fill="#fde725" stroke="black" cx="372.5" cy="-90" rx="40.5" ry="18"/>
<text text-anchor="middle" x="372.5" y="-86.3" font-family="Times,serif" font-size="14.00">shogun</text>
</a>
</g>
</g>
<!-- shogun&#45;&gt;conda&#45;forge&#45;pinning -->
<g id="edge5" class="edge">
<title>shogun&#45;&gt;conda&#45;forge&#45;pinning</title>
<path fill="none" stroke="black" d="M391.8,-74.15C403.9,-64.85 419.74,-52.66 433.46,-42.11"/>
<polygon fill="black" stroke="black" points="435.88,-44.66 441.67,-35.79 431.61,-39.11 435.88,-44.66"/>
</g>
<!-- shogun&#45;cpp -->
<g id="node7" class="node">
<title>shogun&#45;cpp</title>
<g id="a_node7"><a xlink:href="https://github.com/conda-forge/shogun-cpp-feedstock/pull/39" xlink:title="shogun cpp">
<ellipse fill="#31688e" stroke="black" cx="353.5" cy="-162" rx="60" ry="18"/>
<text text-anchor="middle" x="353.5" y="-158.3" font-family="Times,serif" font-size="14.00" fill="white">shogun cpp</text>
</a>
</g>
</g>
<!-- shogun&#45;cpp&#45;&gt;conda&#45;forge&#45;pinning -->
<g id="edge6" class="edge">
<title>shogun&#45;cpp&#45;&gt;conda&#45;forge&#45;pinning</title>
<path fill="none" stroke="black" d="M339.22,-144.35C324.88,-125.49 306.94,-94.46 322.5,-72 335.47,-53.27 355.94,-41.15 377.3,-33.31"/>
<polygon fill="black" stroke="black" points="378.46,-36.61 386.82,-30.11 376.23,-29.98 378.46,-36.61"/>
</g>
<!-- shogun&#45;cpp&#45;&gt;shogun -->
<g id="edge7" class="edge">
<title>shogun&#45;cpp&#45;&gt;shogun</title>
<path fill="none" stroke="black" d="M358.2,-143.7C360.31,-135.9 362.86,-126.51 365.22,-117.83"/>
<polygon fill="black" stroke="black" points="368.62,-118.67 367.86,-108.1 361.86,-116.84 368.62,-118.67"/>
</g>
<!-- libhdfs3 -->
<g id="node8" class="node">
<title>libhdfs3</title>
<g id="a_node8"><a xlink:href="https://github.com/conda-forge/libhdfs3-feedstock/pull/32" xlink:title="libhdfs3">
<ellipse fill="#31688e" stroke="black" cx="441.5" cy="-306" rx="50.09" ry="18"/>
<text text-anchor="middle" x="441.5" y="-302.3" font-family="Times,serif" font-size="14.00" fill="white">libhdfs3</text>
</a>
</g>
</g>
<!-- libhdfs3&#45;&gt;conda&#45;forge&#45;pinning -->
<g id="edge8" class="edge">
<title>libhdfs3&#45;&gt;conda&#45;forge&#45;pinning</title>
<path fill="none" stroke="black" d="M442.81,-287.97C446.48,-240.29 456.87,-105.18 461.37,-46.63"/>
<polygon fill="black" stroke="black" points="464.89,-46.55 462.17,-36.31 457.91,-46.01 464.89,-46.55"/>
</g>
<!-- grpc&#45;cpp -->
<g id="node9" class="node">
<title>grpc&#45;cpp</title>
<g id="a_node9"><a xlink:href="https://github.com/conda-forge/grpc-cpp-feedstock/pull/61" xlink:title="grpc cpp">
<ellipse fill="#31688e" stroke="black" cx="626.5" cy="-234" rx="50.09" ry="18"/>
<text text-anchor="middle" x="626.5" y="-230.3" font-family="Times,serif" font-size="14.00" fill="white">grpc cpp</text>
</a>
</g>
</g>
<!-- grpc&#45;cpp&#45;&gt;arrow&#45;cpp -->
<g id="edge9" class="edge">
<title>grpc&#45;cpp&#45;&gt;arrow&#45;cpp</title>
<path fill="none" stroke="black" d="M604.37,-217.81C590.13,-208.04 571.42,-195.2 555.68,-184.4"/>
<polygon fill="black" stroke="black" points="557.52,-181.42 547.3,-178.64 553.56,-187.19 557.52,-181.42"/>
</g>
<!-- grpc&#45;cpp&#45;&gt;conda&#45;forge&#45;pinning -->
<g id="edge10" class="edge">
<title>grpc&#45;cpp&#45;&gt;conda&#45;forge&#45;pinning</title>
<path fill="none" stroke="black" d="M621.39,-215.96C615.32,-197.3 604.03,-166.97 588.5,-144 561.28,-103.73 519.9,-65.45 492.3,-42.11"/>
<polygon fill="black" stroke="black" points="494.47,-39.36 484.55,-35.64 489.99,-44.74 494.47,-39.36"/>
</g>
<!-- google&#45;cloud&#45;cpp -->
<g id="node10" class="node">
<title>google&#45;cloud&#45;cpp</title>
<g id="a_node10"><a xlink:href="https://github.com/conda-forge/google-cloud-cpp-feedstock" xlink:title="google cloud cpp">
<ellipse fill="#fde725" stroke="black" cx="664.5" cy="-90" rx="89.08" ry="18"/>
<text text-anchor="middle" x="664.5" y="-86.3" font-family="Times,serif" font-size="14.00">google cloud cpp</text>
</a>
</g>
</g>
<!-- grpc&#45;cpp&#45;&gt;google&#45;cloud&#45;cpp -->
<g id="edge11" class="edge">
<title>grpc&#45;cpp&#45;&gt;google&#45;cloud&#45;cpp</title>
<path fill="none" stroke="black" d="M631.08,-215.87C637.59,-191.56 649.56,-146.82 657.27,-118.01"/>
<polygon fill="black" stroke="black" points="660.7,-118.75 659.9,-108.19 653.93,-116.94 660.7,-118.75"/>
</g>
<!-- googleapis&#45;cpp -->
<g id="node11" class="node">
<title>googleapis&#45;cpp</title>
<g id="a_node11"><a xlink:href="https://github.com/conda-forge/googleapis-cpp-feedstock" xlink:title="googleapis cpp">
<ellipse fill="#fde725" stroke="black" cx="752.5" cy="-162" rx="79.5" ry="18"/>
<text text-anchor="middle" x="752.5" y="-158.3" font-family="Times,serif" font-size="14.00">googleapis cpp</text>
</a>
</g>
</g>
<!-- grpc&#45;cpp&#45;&gt;googleapis&#45;cpp -->
<g id="edge12" class="edge">
<title>grpc&#45;cpp&#45;&gt;googleapis&#45;cpp</title>
<path fill="none" stroke="black" d="M652.61,-218.5C670.61,-208.49 694.82,-195.05 714.89,-183.89"/>
<polygon fill="black" stroke="black" points="716.75,-186.87 723.79,-178.95 713.35,-180.75 716.75,-186.87"/>
</g>
<!-- google&#45;cloud&#45;cpp&#45;&gt;conda&#45;forge&#45;pinning -->
<g id="edge13" class="edge">
<title>google&#45;cloud&#45;cpp&#45;&gt;conda&#45;forge&#45;pinning</title>
<path fill="none" stroke="black" d="M621.87,-74.15C591.25,-63.49 549.74,-49.04 516.91,-37.6"/>
<polygon fill="black" stroke="black" points="518.05,-34.29 507.46,-34.31 515.75,-40.9 518.05,-34.29"/>
</g>
<!-- googleapis&#45;cpp&#45;&gt;conda&#45;forge&#45;pinning -->
<g id="edge14" class="edge">
<title>googleapis&#45;cpp&#45;&gt;conda&#45;forge&#45;pinning</title>
<path fill="none" stroke="black" d="M761.18,-143.78C769.73,-124.09 779.28,-92.02 762.5,-72 738.31,-43.15 648.03,-29.99 572.94,-24"/>
<polygon fill="black" stroke="black" points="573.17,-20.51 562.93,-23.23 572.63,-27.49 573.17,-20.51"/>
</g>
<!-- googleapis&#45;cpp&#45;&gt;google&#45;cloud&#45;cpp -->
<g id="edge15" class="edge">
<title>googleapis&#45;cpp&#45;&gt;google&#45;cloud&#45;cpp</title>
<path fill="none" stroke="black" d="M731.65,-144.41C720.22,-135.32 705.89,-123.92 693.4,-113.99"/>
<polygon fill="black" stroke="black" points="695.51,-111.2 685.51,-107.71 691.16,-116.68 695.51,-111.2"/>
</g>
<!-- gazebo -->
<g id="node12" class="node">
<title>gazebo</title>
<g id="a_node12"><a xlink:href="https://github.com/conda-forge/gazebo-feedstock/pull/17" xlink:title="gazebo">
<ellipse fill="#31688e" stroke="black" cx="859.5" cy="-378" rx="40.5" ry="18"/>
<text text-anchor="middle" x="859.5" y="-374.3" font-family="Times,serif" font-size="14.00" fill="white">gazebo</text>
</a>
</g>
</g>
<!-- gazebo&#45;&gt;conda&#45;forge&#45;pinning -->
<g id="edge16" class="edge">
<title>gazebo&#45;&gt;conda&#45;forge&#45;pinning</title>
<path fill="none" stroke="black" d="M859.5,-359.95C859.5,-333.29 859.5,-280.11 859.5,-235 859.5,-235 859.5,-235 859.5,-161 859.5,-108.4 827.45,-97.59 781.5,-72 744.81,-51.56 641.84,-36.87 562.92,-28.22"/>
<polygon fill="black" stroke="black" points="563.25,-24.73 552.93,-27.14 562.5,-31.69 563.25,-24.73"/>
</g>
<!-- go&#45;cockroach -->
<g id="node13" class="node">
<title>go&#45;cockroach</title>
<g id="a_node13"><a xlink:href="https://github.com/conda-forge/go-cockroach-feedstock/pull/6" xlink:title="go cockroach">
<ellipse fill="#31688e" stroke="black" cx="957.5" cy="-90" rx="69.59" ry="18"/>
<text text-anchor="middle" x="957.5" y="-86.3" font-family="Times,serif" font-size="14.00" fill="white">go cockroach</text>
</a>
</g>
</g>
<!-- go&#45;cockroach&#45;&gt;conda&#45;forge&#45;pinning -->
<g id="edge17" class="edge">
<title>go&#45;cockroach&#45;&gt;conda&#45;forge&#45;pinning</title>
<path fill="none" stroke="black" d="M905.63,-77.9C895.02,-75.8 883.92,-73.73 873.5,-72 766.16,-54.22 642.18,-38.92 558.91,-29.39"/>
<polygon fill="black" stroke="black" points="559.29,-25.91 548.96,-28.25 558.5,-32.86 559.29,-25.91"/>
</g>
</g>
</svg>
