<?xml version="1.0" encoding="UTF-8" standalone="no"?>
<!DOCTYPE svg PUBLIC "-//W3C//DTD SVG 1.1//EN"
 "http://www.w3.org/Graphics/SVG/1.1/DTD/svg11.dtd">
<!-- Generated by graphviz version 2.42.3 (20191010.1750)
 -->
<!-- Title: %3 Pages: 1 -->
<svg width="792pt" height="332pt"
 viewBox="0.00 0.00 792.09 332.00" xmlns="http://www.w3.org/2000/svg" xmlns:xlink="http://www.w3.org/1999/xlink">
<g id="graph0" class="graph" transform="scale(1 1) rotate(0) translate(4 328)">
<title>%3</title>
<polygon fill="white" stroke="transparent" points="-4,4 -4,-328 788.09,-328 788.09,4 -4,4"/>
<!-- arrow&#45;cpp -->
<g id="node1" class="node">
<title>arrow&#45;cpp</title>
<g id="a_node1"><a xlink:href="https://github.com/conda-forge/arrow-cpp-feedstock" xlink:title="arrow cpp">
<ellipse fill="#fde725" stroke="black" cx="359.55" cy="-90" rx="54.69" ry="18"/>
<text text-anchor="middle" x="359.55" y="-86.3" font-family="Times,serif" font-size="14.00">arrow cpp</text>
</a>
</g>
</g>
<!-- conda&#45;forge&#45;pinning -->
<g id="node2" class="node">
<title>conda&#45;forge&#45;pinning</title>
<ellipse fill="none" stroke="black" cx="317.55" cy="-18" rx="103.5" ry="18"/>
<text text-anchor="middle" x="317.55" y="-14.3" font-family="Times,serif" font-size="14.00">conda&#45;forge&#45;pinning</text>
</g>
<!-- arrow&#45;cpp&#45;&gt;conda&#45;forge&#45;pinning -->
<g id="edge1" class="edge">
<title>arrow&#45;cpp&#45;&gt;conda&#45;forge&#45;pinning</title>
<path fill="none" stroke="black" d="M349.38,-72.05C344.5,-63.92 338.55,-54 333.11,-44.94"/>
<polygon fill="black" stroke="black" points="336.06,-43.05 327.91,-36.28 330.06,-46.65 336.06,-43.05"/>
</g>
<!-- mosh -->
<g id="node3" class="node">
<title>mosh</title>
<g id="a_node3"><a xlink:href="https://github.com/conda-forge/mosh-feedstock/pull/16" xlink:title="mosh">
<ellipse fill="#31688e" stroke="black" cx="30.55" cy="-90" rx="30.59" ry="18"/>
<text text-anchor="middle" x="30.55" y="-86.3" font-family="Times,serif" font-size="14.00" fill="white">mosh</text>
</a>
</g>
</g>
<!-- mosh&#45;&gt;conda&#45;forge&#45;pinning -->
<g id="edge2" class="edge">
<title>mosh&#45;&gt;conda&#45;forge&#45;pinning</title>
<path fill="none" stroke="black" d="M55.08,-78.99C61.67,-76.51 68.82,-74 75.55,-72 129.15,-56.1 190.72,-42.68 238.34,-33.32"/>
<polygon fill="black" stroke="black" points="239.14,-36.73 248.28,-31.39 237.8,-29.86 239.14,-36.73"/>
</g>
<!-- onnx -->
<g id="node4" class="node">
<title>onnx</title>
<g id="a_node4"><a xlink:href="https://github.com/conda-forge/onnx-feedstock/pull/43" xlink:title="onnx">
<ellipse fill="#31688e" stroke="black" cx="79.55" cy="-162" rx="30.59" ry="18"/>
<text text-anchor="middle" x="79.55" y="-158.3" font-family="Times,serif" font-size="14.00" fill="white">onnx</text>
</a>
</g>
</g>
<!-- onnx&#45;&gt;conda&#45;forge&#45;pinning -->
<g id="edge3" class="edge">
<title>onnx&#45;&gt;conda&#45;forge&#45;pinning</title>
<path fill="none" stroke="black" d="M88.05,-144.38C99.11,-124.36 120.3,-91.06 147.55,-72 173.61,-53.77 206.18,-41.64 235.81,-33.64"/>
<polygon fill="black" stroke="black" points="236.93,-36.97 245.74,-31.08 235.18,-30.19 236.93,-36.97"/>
</g>
<!-- shogun -->
<g id="node5" class="node">
<title>shogun</title>
<g id="a_node5"><a xlink:href="https://github.com/conda-forge/shogun-feedstock" xlink:title="shogun">
<ellipse fill="#fde725" stroke="black" cx="207.55" cy="-90" rx="40.5" ry="18"/>
<text text-anchor="middle" x="207.55" y="-86.3" font-family="Times,serif" font-size="14.00">shogun</text>
</a>
</g>
</g>
<!-- shogun&#45;&gt;conda&#45;forge&#45;pinning -->
<g id="edge4" class="edge">
<title>shogun&#45;&gt;conda&#45;forge&#45;pinning</title>
<path fill="none" stroke="black" d="M229.81,-74.83C244.99,-65.17 265.41,-52.18 282.72,-41.16"/>
<polygon fill="black" stroke="black" points="284.9,-43.93 291.45,-35.61 281.14,-38.02 284.9,-43.93"/>
</g>
<!-- shogun&#45;cpp -->
<g id="node6" class="node">
<title>shogun&#45;cpp</title>
<g id="a_node6"><a xlink:href="https://github.com/conda-forge/shogun-cpp-feedstock/pull/39" xlink:title="shogun cpp">
<ellipse fill="#31688e" stroke="black" cx="188.55" cy="-162" rx="60" ry="18"/>
<text text-anchor="middle" x="188.55" y="-158.3" font-family="Times,serif" font-size="14.00" fill="white">shogun cpp</text>
</a>
</g>
</g>
<!-- shogun&#45;cpp&#45;&gt;conda&#45;forge&#45;pinning -->
<g id="edge5" class="edge">
<title>shogun&#45;cpp&#45;&gt;conda&#45;forge&#45;pinning</title>
<path fill="none" stroke="black" d="M174.11,-144.24C159.62,-125.28 141.55,-94.15 157.55,-72 172.6,-51.16 196.16,-38.38 220.61,-30.59"/>
<polygon fill="black" stroke="black" points="221.76,-33.9 230.38,-27.74 219.8,-27.18 221.76,-33.9"/>
</g>
<!-- shogun&#45;cpp&#45;&gt;shogun -->
<g id="edge6" class="edge">
<title>shogun&#45;cpp&#45;&gt;shogun</title>
<path fill="none" stroke="black" d="M193.24,-143.7C195.36,-135.9 197.91,-126.51 200.27,-117.83"/>
<polygon fill="black" stroke="black" points="203.66,-118.67 202.9,-108.1 196.91,-116.84 203.66,-118.67"/>
</g>
<!-- libhdfs3 -->
<g id="node7" class="node">
<title>libhdfs3</title>
<g id="a_node7"><a xlink:href="https://github.com/conda-forge/libhdfs3-feedstock/pull/32" xlink:title="libhdfs3">
<ellipse fill="#31688e" stroke="black" cx="276.55" cy="-234" rx="50.09" ry="18"/>
<text text-anchor="middle" x="276.55" y="-230.3" font-family="Times,serif" font-size="14.00" fill="white">libhdfs3</text>
</a>
</g>
</g>
<!-- libhdfs3&#45;&gt;conda&#45;forge&#45;pinning -->
<g id="edge7" class="edge">
<title>libhdfs3&#45;&gt;conda&#45;forge&#45;pinning</title>
<path fill="none" stroke="black" d="M277.03,-215.79C278.2,-186.03 282.18,-123.2 295.55,-72 297.86,-63.13 301.36,-53.79 304.88,-45.47"/>
<polygon fill="black" stroke="black" points="308.11,-46.81 308.96,-36.25 301.71,-43.97 308.11,-46.81"/>
</g>
<!-- grpc&#45;cpp -->
<g id="node8" class="node">
<title>grpc&#45;cpp</title>
<g id="a_node8"><a xlink:href="https://github.com/conda-forge/grpc-cpp-feedstock/pull/61" xlink:title="grpc cpp">
<ellipse fill="#31688e" stroke="black" cx="461.55" cy="-234" rx="50.09" ry="18"/>
<text text-anchor="middle" x="461.55" y="-230.3" font-family="Times,serif" font-size="14.00" fill="white">grpc cpp</text>
</a>
</g>
</g>
<!-- grpc&#45;cpp&#45;&gt;arrow&#45;cpp -->
<g id="edge8" class="edge">
<title>grpc&#45;cpp&#45;&gt;arrow&#45;cpp</title>
<path fill="none" stroke="black" d="M449.65,-216.43C431.93,-191.77 398.48,-145.2 377.7,-116.27"/>
<polygon fill="black" stroke="black" points="380.36,-113.98 371.69,-107.9 374.68,-118.07 380.36,-113.98"/>
</g>
<!-- grpc&#45;cpp&#45;&gt;conda&#45;forge&#45;pinning -->
<g id="edge9" class="edge">
<title>grpc&#45;cpp&#45;&gt;conda&#45;forge&#45;pinning</title>
<path fill="none" stroke="black" d="M462.03,-215.95C462.03,-184.18 457.77,-115.24 423.55,-72 411.7,-57.03 394.51,-45.94 377.41,-37.9"/>
<polygon fill="black" stroke="black" points="378.51,-34.56 367.95,-33.74 375.69,-40.97 378.51,-34.56"/>
</g>
<!-- google&#45;cloud&#45;cpp -->
<g id="node9" class="node">
<title>google&#45;cloud&#45;cpp</title>
<g id="a_node9"><a xlink:href="https://github.com/conda-forge/google-cloud-cpp-feedstock" xlink:title="google cloud cpp">
<ellipse fill="#fde725" stroke="black" cx="559.55" cy="-90" rx="89.08" ry="18"/>
<text text-anchor="middle" x="559.55" y="-86.3" font-family="Times,serif" font-size="14.00">google cloud cpp</text>
</a>
</g>
</g>
<!-- grpc&#45;cpp&#45;&gt;google&#45;cloud&#45;cpp -->
<g id="edge10" class="edge">
<title>grpc&#45;cpp&#45;&gt;google&#45;cloud&#45;cpp</title>
<path fill="none" stroke="black" d="M466.13,-215.75C471.7,-196.89 482.4,-166.4 498.55,-144 506.58,-132.87 517.38,-122.5 527.66,-113.94"/>
<polygon fill="black" stroke="black" points="530.11,-116.47 535.73,-107.49 525.74,-111 530.11,-116.47"/>
</g>
<!-- googleapis&#45;cpp -->
<g id="node10" class="node">
<title>googleapis&#45;cpp</title>
<g id="a_node10"><a xlink:href="https://github.com/conda-forge/googleapis-cpp-feedstock" xlink:title="googleapis cpp">
<ellipse fill="#fde725" stroke="black" cx="587.55" cy="-162" rx="79.5" ry="18"/>
<text text-anchor="middle" x="587.55" y="-158.3" font-family="Times,serif" font-size="14.00">googleapis cpp</text>
</a>
</g>
</g>
<!-- grpc&#45;cpp&#45;&gt;googleapis&#45;cpp -->
<g id="edge11" class="edge">
<title>grpc&#45;cpp&#45;&gt;googleapis&#45;cpp</title>
<path fill="none" stroke="black" d="M487.65,-218.5C505.66,-208.49 529.87,-195.05 549.94,-183.89"/>
<polygon fill="black" stroke="black" points="551.8,-186.87 558.84,-178.95 548.4,-180.75 551.8,-186.87"/>
</g>
<!-- google&#45;cloud&#45;cpp&#45;&gt;conda&#45;forge&#45;pinning -->
<g id="edge12" class="edge">
<title>google&#45;cloud&#45;cpp&#45;&gt;conda&#45;forge&#45;pinning</title>
<path fill="none" stroke="black" d="M510.87,-74.92C472.66,-63.87 419.26,-48.42 378.26,-36.56"/>
<polygon fill="black" stroke="black" points="379.23,-33.2 368.65,-33.78 377.29,-39.92 379.23,-33.2"/>
</g>
<!-- googleapis&#45;cpp&#45;&gt;conda&#45;forge&#45;pinning -->
<g id="edge13" class="edge">
<title>googleapis&#45;cpp&#45;&gt;conda&#45;forge&#45;pinning</title>
<path fill="none" stroke="black" d="M619.66,-145.44C634.04,-136.63 649.54,-124.11 657.55,-108 664.67,-93.67 667.95,-84.15 657.55,-72 628.51,-38.08 517.45,-25.7 430.06,-21.27"/>
<polygon fill="black" stroke="black" points="430.22,-17.78 420.07,-20.8 429.89,-24.77 430.22,-17.78"/>
</g>
<!-- googleapis&#45;cpp&#45;&gt;google&#45;cloud&#45;cpp -->
<g id="edge14" class="edge">
<title>googleapis&#45;cpp&#45;&gt;google&#45;cloud&#45;cpp</title>
<path fill="none" stroke="black" d="M580.77,-144.05C577.62,-136.18 573.79,-126.62 570.26,-117.79"/>
<polygon fill="black" stroke="black" points="573.42,-116.26 566.46,-108.28 566.92,-118.86 573.42,-116.26"/>
</g>
<!-- go&#45;cockroach -->
<g id="node11" class="node">
<title>go&#45;cockroach</title>
<g id="a_node11"><a xlink:href="https://github.com/conda-forge/go-cockroach-feedstock/pull/6" xlink:title="go cockroach">
<ellipse fill="#31688e" stroke="black" cx="714.55" cy="-306" rx="69.59" ry="18"/>
<text text-anchor="middle" x="714.55" y="-302.3" font-family="Times,serif" font-size="14.00" fill="white">go cockroach</text>
</a>
</g>
</g>
<!-- go&#45;cockroach&#45;&gt;conda&#45;forge&#45;pinning -->
<g id="edge15" class="edge">
<title>go&#45;cockroach&#45;&gt;conda&#45;forge&#45;pinning</title>
<path fill="none" stroke="black" d="M717.67,-287.95C724.47,-244.88 735.56,-130.89 675.55,-72 641.45,-38.54 521.57,-26.13 429.83,-21.57"/>
<polygon fill="black" stroke="black" points="429.79,-18.06 419.64,-21.09 429.46,-25.06 429.79,-18.06"/>
</g>
</g>
</svg>
