<?xml version="1.0" encoding="UTF-8" standalone="no"?>
<!DOCTYPE svg PUBLIC "-//W3C//DTD SVG 1.1//EN"
 "http://www.w3.org/Graphics/SVG/1.1/DTD/svg11.dtd">
<!-- Generated by graphviz version 2.42.3 (20191010.1750)
 -->
<!-- Title: %3 Pages: 1 -->
<svg width="1204pt" height="404pt"
 viewBox="0.00 0.00 1204.04 404.00" xmlns="http://www.w3.org/2000/svg" xmlns:xlink="http://www.w3.org/1999/xlink">
<g id="graph0" class="graph" transform="scale(1 1) rotate(0) translate(4 400)">
<title>%3</title>
<polygon fill="white" stroke="transparent" points="-4,4 -4,-400 1200.04,-400 1200.04,4 -4,4"/>
<!-- arrow&#45;cpp -->
<g id="node1" class="node">
<title>arrow&#45;cpp</title>
<g id="a_node1"><a xlink:href="https://github.com/conda-forge/arrow-cpp-feedstock" xlink:title="arrow cpp">
<ellipse fill="#fde725" stroke="black" cx="524.5" cy="-90" rx="54.69" ry="18"/>
<text text-anchor="middle" x="524.5" y="-86.3" font-family="Times,serif" font-size="14.00">arrow cpp</text>
</a>
</g>
</g>
<!-- conda&#45;forge&#45;pinning -->
<g id="node2" class="node">
<title>conda&#45;forge&#45;pinning</title>
<ellipse fill="none" stroke="black" cx="482.5" cy="-18" rx="103.5" ry="18"/>
<text text-anchor="middle" x="482.5" y="-14.3" font-family="Times,serif" font-size="14.00">conda&#45;forge&#45;pinning</text>
</g>
<!-- arrow&#45;cpp&#45;&gt;conda&#45;forge&#45;pinning -->
<g id="edge1" class="edge">
<title>arrow&#45;cpp&#45;&gt;conda&#45;forge&#45;pinning</title>
<path fill="none" stroke="black" d="M514.33,-72.05C509.45,-63.92 503.5,-54 498.07,-44.94"/>
<polygon fill="black" stroke="black" points="501.01,-43.05 492.87,-36.28 495.01,-46.65 501.01,-43.05"/>
</g>
<!-- caffe -->
<g id="node3" class="node">
<title>caffe</title>
<g id="a_node3"><a xlink:href="https://github.com/conda-forge/caffe-feedstock/pull/59" xlink:title="caffe">
<ellipse fill="#31688e" stroke="black" cx="116.5" cy="-90" rx="35.19" ry="18"/>
<text text-anchor="middle" x="116.5" y="-86.3" font-family="Times,serif" font-size="14.00" fill="white">caffe</text>
</a>
</g>
</g>
<!-- caffe&#45;&gt;conda&#45;forge&#45;pinning -->
<g id="edge2" class="edge">
<title>caffe&#45;&gt;conda&#45;forge&#45;pinning</title>
<path fill="none" stroke="black" d="M143.98,-78.56C150.93,-76.17 158.43,-73.8 165.5,-72 240.04,-52.98 326.24,-39.08 389.92,-30.29"/>
<polygon fill="black" stroke="black" points="390.5,-33.74 399.94,-28.93 389.56,-26.81 390.5,-33.74"/>
</g>
<!-- mosh -->
<g id="node4" class="node">
<title>mosh</title>
<g id="a_node4"><a xlink:href="https://github.com/conda-forge/mosh-feedstock/pull/16" xlink:title="mosh">
<ellipse fill="#31688e" stroke="black" cx="168.5" cy="-162" rx="30.59" ry="18"/>
<text text-anchor="middle" x="168.5" y="-158.3" font-family="Times,serif" font-size="14.00" fill="white">mosh</text>
</a>
</g>
</g>
<!-- mosh&#45;&gt;conda&#45;forge&#45;pinning -->
<g id="edge3" class="edge">
<title>mosh&#45;&gt;conda&#45;forge&#45;pinning</title>
<path fill="none" stroke="black" d="M172.28,-144C177.75,-123.59 189.91,-89.88 213.5,-72 240.38,-51.62 319.94,-37.57 385.62,-29.07"/>
<polygon fill="black" stroke="black" points="386.13,-32.54 395.61,-27.81 385.25,-25.59 386.13,-32.54"/>
</g>
<!-- mysql&#45;connector&#45;python -->
<g id="node5" class="node">
<title>mysql&#45;connector&#45;python</title>
<g id="a_node5"><a xlink:href="https://github.com/conda-forge/mysql-connector-python-feedstock/pull/27" xlink:title="mysql connector python">
<ellipse fill="#31688e" stroke="black" cx="118.5" cy="-234" rx="118.5" ry="18"/>
<text text-anchor="middle" x="118.5" y="-230.3" font-family="Times,serif" font-size="14.00" fill="white">mysql connector python</text>
</a>
</g>
</g>
<!-- mysql&#45;connector&#45;python&#45;&gt;conda&#45;forge&#45;pinning -->
<g id="edge4" class="edge">
<title>mysql&#45;connector&#45;python&#45;&gt;conda&#45;forge&#45;pinning</title>
<path fill="none" stroke="black" d="M157.98,-216.88C175.39,-208.13 194.93,-195.83 208.5,-180 242.13,-140.78 212.28,-105.63 251.5,-72 272.75,-53.79 336.64,-39.96 391.86,-31.01"/>
<polygon fill="black" stroke="black" points="392.72,-34.41 402.05,-29.39 391.63,-27.5 392.72,-34.41"/>
</g>
<!-- onnx -->
<g id="node6" class="node">
<title>onnx</title>
<g id="a_node6"><a xlink:href="https://github.com/conda-forge/onnx-feedstock/pull/43" xlink:title="onnx">
<ellipse fill="#31688e" stroke="black" cx="265.5" cy="-306" rx="30.59" ry="18"/>
<text text-anchor="middle" x="265.5" y="-302.3" font-family="Times,serif" font-size="14.00" fill="white">onnx</text>
</a>
</g>
</g>
<!-- onnx&#45;&gt;conda&#45;forge&#45;pinning -->
<g id="edge5" class="edge">
<title>onnx&#45;&gt;conda&#45;forge&#45;pinning</title>
<path fill="none" stroke="black" d="M262.99,-287.82C257.72,-244.41 250.66,-129.73 312.5,-72 334.03,-51.9 363.08,-39.42 391.07,-31.67"/>
<polygon fill="black" stroke="black" points="392.1,-35.02 400.91,-29.13 390.35,-28.24 392.1,-35.02"/>
</g>
<!-- shogun -->
<g id="node7" class="node">
<title>shogun</title>
<g id="a_node7"><a xlink:href="https://github.com/conda-forge/shogun-feedstock" xlink:title="shogun">
<ellipse fill="#fde725" stroke="black" cx="372.5" cy="-90" rx="40.5" ry="18"/>
<text text-anchor="middle" x="372.5" y="-86.3" font-family="Times,serif" font-size="14.00">shogun</text>
</a>
</g>
</g>
<!-- shogun&#45;&gt;conda&#45;forge&#45;pinning -->
<g id="edge6" class="edge">
<title>shogun&#45;&gt;conda&#45;forge&#45;pinning</title>
<path fill="none" stroke="black" d="M394.76,-74.83C409.94,-65.17 430.36,-52.18 447.68,-41.16"/>
<polygon fill="black" stroke="black" points="449.85,-43.93 456.41,-35.61 446.09,-38.02 449.85,-43.93"/>
</g>
<!-- shogun&#45;cpp -->
<g id="node8" class="node">
<title>shogun&#45;cpp</title>
<g id="a_node8"><a xlink:href="https://github.com/conda-forge/shogun-cpp-feedstock/pull/39" xlink:title="shogun cpp">
<ellipse fill="#31688e" stroke="black" cx="353.5" cy="-162" rx="60" ry="18"/>
<text text-anchor="middle" x="353.5" y="-158.3" font-family="Times,serif" font-size="14.00" fill="white">shogun cpp</text>
</a>
</g>
</g>
<!-- shogun&#45;cpp&#45;&gt;conda&#45;forge&#45;pinning -->
<g id="edge7" class="edge">
<title>shogun&#45;cpp&#45;&gt;conda&#45;forge&#45;pinning</title>
<path fill="none" stroke="black" d="M339.06,-144.24C324.57,-125.28 306.5,-94.15 322.5,-72 337.55,-51.16 361.11,-38.38 385.57,-30.59"/>
<polygon fill="black" stroke="black" points="386.71,-33.9 395.33,-27.74 384.75,-27.18 386.71,-33.9"/>
</g>
<!-- shogun&#45;cpp&#45;&gt;shogun -->
<g id="edge8" class="edge">
<title>shogun&#45;cpp&#45;&gt;shogun</title>
<path fill="none" stroke="black" d="M358.2,-143.7C360.31,-135.9 362.86,-126.51 365.22,-117.83"/>
<polygon fill="black" stroke="black" points="368.62,-118.67 367.86,-108.1 361.86,-116.84 368.62,-118.67"/>
</g>
<!-- libhdfs3 -->
<g id="node9" class="node">
<title>libhdfs3</title>
<g id="a_node9"><a xlink:href="https://github.com/conda-forge/libhdfs3-feedstock/pull/32" xlink:title="libhdfs3">
<ellipse fill="#31688e" stroke="black" cx="441.5" cy="-378" rx="50.09" ry="18"/>
<text text-anchor="middle" x="441.5" y="-374.3" font-family="Times,serif" font-size="14.00" fill="white">libhdfs3</text>
</a>
</g>
</g>
<!-- libhdfs3&#45;&gt;conda&#45;forge&#45;pinning -->
<g id="edge9" class="edge">
<title>libhdfs3&#45;&gt;conda&#45;forge&#45;pinning</title>
<path fill="none" stroke="black" d="M441.5,-359.95C441.5,-333.29 441.5,-280.11 441.5,-235 441.5,-235 441.5,-235 441.5,-161 441.5,-119.41 457.94,-73.56 470,-45.51"/>
<polygon fill="black" stroke="black" points="473.35,-46.59 474.2,-36.03 466.95,-43.75 473.35,-46.59"/>
</g>
<!-- grpc&#45;cpp -->
<g id="node10" class="node">
<title>grpc&#45;cpp</title>
<g id="a_node10"><a xlink:href="https://github.com/conda-forge/grpc-cpp-feedstock/pull/61" xlink:title="grpc cpp">
<ellipse fill="#31688e" stroke="black" cx="626.5" cy="-234" rx="50.09" ry="18"/>
<text text-anchor="middle" x="626.5" y="-230.3" font-family="Times,serif" font-size="14.00" fill="white">grpc cpp</text>
</a>
</g>
</g>
<!-- grpc&#45;cpp&#45;&gt;arrow&#45;cpp -->
<g id="edge10" class="edge">
<title>grpc&#45;cpp&#45;&gt;arrow&#45;cpp</title>
<path fill="none" stroke="black" d="M614.6,-216.43C596.88,-191.77 563.43,-145.2 542.65,-116.27"/>
<polygon fill="black" stroke="black" points="545.32,-113.98 536.64,-107.9 539.63,-118.07 545.32,-113.98"/>
</g>
<!-- grpc&#45;cpp&#45;&gt;conda&#45;forge&#45;pinning -->
<g id="edge11" class="edge">
<title>grpc&#45;cpp&#45;&gt;conda&#45;forge&#45;pinning</title>
<path fill="none" stroke="black" d="M626.98,-215.95C626.98,-184.18 622.72,-115.24 588.5,-72 576.65,-57.03 559.46,-45.94 542.36,-37.9"/>
<polygon fill="black" stroke="black" points="543.46,-34.56 532.9,-33.74 540.64,-40.97 543.46,-34.56"/>
</g>
<!-- google&#45;cloud&#45;cpp -->
<g id="node11" class="node">
<title>google&#45;cloud&#45;cpp</title>
<g id="a_node11"><a xlink:href="https://github.com/conda-forge/google-cloud-cpp-feedstock" xlink:title="google cloud cpp">
<ellipse fill="#fde725" stroke="black" cx="724.5" cy="-90" rx="89.08" ry="18"/>
<text text-anchor="middle" x="724.5" y="-86.3" font-family="Times,serif" font-size="14.00">google cloud cpp</text>
</a>
</g>
</g>
<!-- grpc&#45;cpp&#45;&gt;google&#45;cloud&#45;cpp -->
<g id="edge12" class="edge">
<title>grpc&#45;cpp&#45;&gt;google&#45;cloud&#45;cpp</title>
<path fill="none" stroke="black" d="M631.08,-215.75C636.65,-196.89 647.35,-166.4 663.5,-144 671.53,-132.87 682.33,-122.5 692.61,-113.94"/>
<polygon fill="black" stroke="black" points="695.06,-116.47 700.69,-107.49 690.69,-111 695.06,-116.47"/>
</g>
<!-- googleapis&#45;cpp -->
<g id="node12" class="node">
<title>googleapis&#45;cpp</title>
<g id="a_node12"><a xlink:href="https://github.com/conda-forge/googleapis-cpp-feedstock" xlink:title="googleapis cpp">
<ellipse fill="#fde725" stroke="black" cx="752.5" cy="-162" rx="79.5" ry="18"/>
<text text-anchor="middle" x="752.5" y="-158.3" font-family="Times,serif" font-size="14.00">googleapis cpp</text>
</a>
</g>
</g>
<!-- grpc&#45;cpp&#45;&gt;googleapis&#45;cpp -->
<g id="edge13" class="edge">
<title>grpc&#45;cpp&#45;&gt;googleapis&#45;cpp</title>
<path fill="none" stroke="black" d="M652.61,-218.5C670.61,-208.49 694.82,-195.05 714.89,-183.89"/>
<polygon fill="black" stroke="black" points="716.75,-186.87 723.79,-178.95 713.35,-180.75 716.75,-186.87"/>
</g>
<!-- google&#45;cloud&#45;cpp&#45;&gt;conda&#45;forge&#45;pinning -->
<g id="edge14" class="edge">
<title>google&#45;cloud&#45;cpp&#45;&gt;conda&#45;forge&#45;pinning</title>
<path fill="none" stroke="black" d="M675.82,-74.92C637.61,-63.87 584.21,-48.42 543.21,-36.56"/>
<polygon fill="black" stroke="black" points="544.19,-33.2 533.61,-33.78 542.24,-39.92 544.19,-33.2"/>
</g>
<!-- googleapis&#45;cpp&#45;&gt;conda&#45;forge&#45;pinning -->
<g id="edge15" class="edge">
<title>googleapis&#45;cpp&#45;&gt;conda&#45;forge&#45;pinning</title>
<path fill="none" stroke="black" d="M784.61,-145.44C798.99,-136.63 814.49,-124.11 822.5,-108 829.62,-93.67 832.91,-84.15 822.5,-72 793.46,-38.08 682.4,-25.7 595.01,-21.27"/>
<polygon fill="black" stroke="black" points="595.17,-17.78 585.02,-20.8 594.84,-24.77 595.17,-17.78"/>
</g>
<!-- googleapis&#45;cpp&#45;&gt;google&#45;cloud&#45;cpp -->
<g id="edge16" class="edge">
<title>googleapis&#45;cpp&#45;&gt;google&#45;cloud&#45;cpp</title>
<path fill="none" stroke="black" d="M745.72,-144.05C742.57,-136.18 738.75,-126.62 735.22,-117.79"/>
<polygon fill="black" stroke="black" points="738.37,-116.26 731.41,-108.28 731.87,-118.86 738.37,-116.26"/>
</g>
<!-- gazebo -->
<g id="node13" class="node">
<title>gazebo</title>
<g id="a_node13"><a xlink:href="https://github.com/conda-forge/gazebo-feedstock" xlink:title="gazebo">
<ellipse fill="#35b779" stroke="black" cx="910.5" cy="-90" rx="40.5" ry="18"/>
<text text-anchor="middle" x="910.5" y="-86.3" font-family="Times,serif" font-size="14.00">gazebo</text>
</a>
</g>
</g>
<!-- gazebo&#45;&gt;conda&#45;forge&#45;pinning -->
<g id="edge17" class="edge">
<title>gazebo&#45;&gt;conda&#45;forge&#45;pinning</title>
<path fill="none" stroke="black" d="M879.32,-78.42C871.6,-76.06 863.3,-73.75 855.5,-72 763.27,-51.33 656.3,-37.11 580.63,-28.64"/>
<polygon fill="black" stroke="black" points="580.96,-25.15 570.63,-27.53 580.19,-32.11 580.96,-25.15"/>
</g>
<!-- libignition&#45;fuel&#45;tools -->
<g id="node14" class="node">
<title>libignition&#45;fuel&#45;tools</title>
<g id="a_node14"><a xlink:href="https://github.com/conda-forge/libignition-fuel-tools-feedstock/pull/5" xlink:title="libignition fuel tools">
<ellipse fill="#31688e" stroke="black" cx="979.5" cy="-162" rx="118.5" ry="18"/>
<text text-anchor="middle" x="979.5" y="-158.3" font-family="Times,serif" font-size="14.00" fill="white">libignition fuel tools</text>
</a>
</g>
</g>
<!-- libignition&#45;fuel&#45;tools&#45;&gt;conda&#45;forge&#45;pinning -->
<g id="edge18" class="edge">
<title>libignition&#45;fuel&#45;tools&#45;&gt;conda&#45;forge&#45;pinning</title>
<path fill="none" stroke="black" d="M981.04,-143.7C981.8,-123.31 979.56,-89.96 959.5,-72 932.56,-47.88 722.8,-32.1 590.56,-24.44"/>
<polygon fill="black" stroke="black" points="590.58,-20.94 580.39,-23.86 590.18,-27.92 590.58,-20.94"/>
</g>
<!-- go&#45;cockroach -->
<g id="node15" class="node">
<title>go&#45;cockroach</title>
<g id="a_node15"><a xlink:href="https://github.com/conda-forge/go-cockroach-feedstock/pull/6" xlink:title="go cockroach">
<ellipse fill="#31688e" stroke="black" cx="1126.5" cy="-234" rx="69.59" ry="18"/>
<text text-anchor="middle" x="1126.5" y="-230.3" font-family="Times,serif" font-size="14.00" fill="white">go cockroach</text>
</a>
</g>
</g>
<!-- go&#45;cockroach&#45;&gt;conda&#45;forge&#45;pinning -->
<g id="edge19" class="edge">
<title>go&#45;cockroach&#45;&gt;conda&#45;forge&#45;pinning</title>
<path fill="none" stroke="black" d="M1126.59,-215.95C1125.86,-196.72 1122.11,-165.35 1106.5,-144 1069.12,-92.86 1043.68,-91.78 983.5,-72 912.78,-48.76 714.62,-32.99 589.75,-25.04"/>
<polygon fill="black" stroke="black" points="589.59,-21.52 579.39,-24.38 589.15,-28.51 589.59,-21.52"/>
</g>
</g>
</svg>
