<?xml version="1.0" encoding="UTF-8" standalone="no"?>
<!DOCTYPE svg PUBLIC "-//W3C//DTD SVG 1.1//EN"
 "http://www.w3.org/Graphics/SVG/1.1/DTD/svg11.dtd">
<!-- Generated by graphviz version 2.42.3 (20191010.1750)
 -->
<!-- Title: %3 Pages: 1 -->
<svg width="861pt" height="404pt"
 viewBox="0.00 0.00 861.09 404.00" xmlns="http://www.w3.org/2000/svg" xmlns:xlink="http://www.w3.org/1999/xlink">
<g id="graph0" class="graph" transform="scale(1 1) rotate(0) translate(4 400)">
<title>%3</title>
<polygon fill="white" stroke="transparent" points="-4,4 -4,-400 857.09,-400 857.09,4 -4,4"/>
<!-- arrow&#45;cpp -->
<g id="node1" class="node">
<title>arrow&#45;cpp</title>
<g id="a_node1"><a xlink:href="https://github.com/conda-forge/arrow-cpp-feedstock" xlink:title="arrow cpp">
<ellipse fill="#fde725" stroke="black" cx="359.55" cy="-90" rx="54.69" ry="18"/>
<text text-anchor="middle" x="359.55" y="-86.3" font-family="Times,serif" font-size="14.00">arrow cpp</text>
</a>
</g>
</g>
<!-- conda&#45;forge&#45;pinning -->
<g id="node2" class="node">
<title>conda&#45;forge&#45;pinning</title>
<ellipse fill="none" stroke="black" cx="359.55" cy="-18" rx="103.5" ry="18"/>
<text text-anchor="middle" x="359.55" y="-14.3" font-family="Times,serif" font-size="14.00">conda&#45;forge&#45;pinning</text>
</g>
<!-- arrow&#45;cpp&#45;&gt;conda&#45;forge&#45;pinning -->
<g id="edge1" class="edge">
<title>arrow&#45;cpp&#45;&gt;conda&#45;forge&#45;pinning</title>
<path fill="none" stroke="black" d="M359.55,-71.7C359.55,-63.98 359.55,-54.71 359.55,-46.11"/>
<polygon fill="black" stroke="black" points="363.05,-46.1 359.55,-36.1 356.05,-46.1 363.05,-46.1"/>
</g>
<!-- mosh -->
<g id="node3" class="node">
<title>mosh</title>
<g id="a_node3"><a xlink:href="https://github.com/conda-forge/mosh-feedstock/pull/16" xlink:title="mosh">
<ellipse fill="#31688e" stroke="black" cx="30.55" cy="-90" rx="30.59" ry="18"/>
<text text-anchor="middle" x="30.55" y="-86.3" font-family="Times,serif" font-size="14.00" fill="white">mosh</text>
</a>
</g>
</g>
<!-- mosh&#45;&gt;conda&#45;forge&#45;pinning -->
<g id="edge2" class="edge">
<title>mosh&#45;&gt;conda&#45;forge&#45;pinning</title>
<path fill="none" stroke="black" d="M55.04,-78.85C61.62,-76.37 68.79,-73.89 75.55,-72 140.14,-53.93 214.74,-40.27 271.27,-31.35"/>
<polygon fill="black" stroke="black" points="271.91,-34.8 281.25,-29.8 270.83,-27.88 271.91,-34.8"/>
</g>
<!-- onnx -->
<g id="node4" class="node">
<title>onnx</title>
<g id="a_node4"><a xlink:href="https://github.com/conda-forge/onnx-feedstock/pull/43" xlink:title="onnx">
<ellipse fill="#31688e" stroke="black" cx="79.55" cy="-162" rx="30.59" ry="18"/>
<text text-anchor="middle" x="79.55" y="-158.3" font-family="Times,serif" font-size="14.00" fill="white">onnx</text>
</a>
</g>
</g>
<!-- onnx&#45;&gt;conda&#45;forge&#45;pinning -->
<g id="edge3" class="edge">
<title>onnx&#45;&gt;conda&#45;forge&#45;pinning</title>
<path fill="none" stroke="black" d="M87.68,-144.48C98.51,-124.24 119.6,-90.38 147.55,-72 181.3,-49.8 223.66,-36.9 261.61,-29.41"/>
<polygon fill="black" stroke="black" points="262.49,-32.8 271.68,-27.52 261.2,-25.92 262.49,-32.8"/>
</g>
<!-- shogun -->
<g id="node5" class="node">
<title>shogun</title>
<g id="a_node5"><a xlink:href="https://github.com/conda-forge/shogun-feedstock" xlink:title="shogun">
<ellipse fill="#fde725" stroke="black" cx="207.55" cy="-90" rx="40.5" ry="18"/>
<text text-anchor="middle" x="207.55" y="-86.3" font-family="Times,serif" font-size="14.00">shogun</text>
</a>
</g>
</g>
<!-- shogun&#45;&gt;conda&#45;forge&#45;pinning -->
<g id="edge4" class="edge">
<title>shogun&#45;&gt;conda&#45;forge&#45;pinning</title>
<path fill="none" stroke="black" d="M234.72,-76.49C257.16,-66.15 289.44,-51.29 315.55,-39.26"/>
<polygon fill="black" stroke="black" points="317.24,-42.34 324.86,-34.97 314.31,-35.98 317.24,-42.34"/>
</g>
<!-- shogun&#45;cpp -->
<g id="node6" class="node">
<title>shogun&#45;cpp</title>
<g id="a_node6"><a xlink:href="https://github.com/conda-forge/shogun-cpp-feedstock/pull/39" xlink:title="shogun cpp">
<ellipse fill="#31688e" stroke="black" cx="188.55" cy="-162" rx="60" ry="18"/>
<text text-anchor="middle" x="188.55" y="-158.3" font-family="Times,serif" font-size="14.00" fill="white">shogun cpp</text>
</a>
</g>
</g>
<!-- shogun&#45;cpp&#45;&gt;conda&#45;forge&#45;pinning -->
<g id="edge5" class="edge">
<title>shogun&#45;cpp&#45;&gt;conda&#45;forge&#45;pinning</title>
<path fill="none" stroke="black" d="M174.12,-144.4C159.35,-125.29 140.76,-93.76 157.55,-72 171.87,-53.44 223.25,-40.11 270.61,-31.46"/>
<polygon fill="black" stroke="black" points="271.4,-34.87 280.64,-29.68 270.18,-27.98 271.4,-34.87"/>
</g>
<!-- shogun&#45;cpp&#45;&gt;shogun -->
<g id="edge6" class="edge">
<title>shogun&#45;cpp&#45;&gt;shogun</title>
<path fill="none" stroke="black" d="M193.24,-143.7C195.36,-135.9 197.91,-126.51 200.27,-117.83"/>
<polygon fill="black" stroke="black" points="203.66,-118.67 202.9,-108.1 196.91,-116.84 203.66,-118.67"/>
</g>
<!-- libhdfs3 -->
<g id="node7" class="node">
<title>libhdfs3</title>
<g id="a_node7"><a xlink:href="https://github.com/conda-forge/libhdfs3-feedstock/pull/32" xlink:title="libhdfs3">
<ellipse fill="#31688e" stroke="black" cx="276.55" cy="-234" rx="50.09" ry="18"/>
<text text-anchor="middle" x="276.55" y="-230.3" font-family="Times,serif" font-size="14.00" fill="white">libhdfs3</text>
</a>
</g>
</g>
<!-- libhdfs3&#45;&gt;conda&#45;forge&#45;pinning -->
<g id="edge7" class="edge">
<title>libhdfs3&#45;&gt;conda&#45;forge&#45;pinning</title>
<path fill="none" stroke="black" d="M274.59,-215.78C271.9,-184.91 269.99,-118.97 295.55,-72 302.09,-59.98 312.56,-49.6 323.16,-41.28"/>
<polygon fill="black" stroke="black" points="325.26,-44.09 331.23,-35.33 321.1,-38.45 325.26,-44.09"/>
</g>
<!-- grpc&#45;cpp -->
<g id="node8" class="node">
<title>grpc&#45;cpp</title>
<g id="a_node8"><a xlink:href="https://github.com/conda-forge/grpc-cpp-feedstock/pull/61" xlink:title="grpc cpp">
<ellipse fill="#31688e" stroke="black" cx="461.55" cy="-234" rx="50.09" ry="18"/>
<text text-anchor="middle" x="461.55" y="-230.3" font-family="Times,serif" font-size="14.00" fill="white">grpc cpp</text>
</a>
</g>
</g>
<!-- grpc&#45;cpp&#45;&gt;arrow&#45;cpp -->
<g id="edge8" class="edge">
<title>grpc&#45;cpp&#45;&gt;arrow&#45;cpp</title>
<path fill="none" stroke="black" d="M449.65,-216.43C431.93,-191.77 398.48,-145.2 377.7,-116.27"/>
<polygon fill="black" stroke="black" points="380.36,-113.98 371.69,-107.9 374.68,-118.07 380.36,-113.98"/>
</g>
<!-- grpc&#45;cpp&#45;&gt;conda&#45;forge&#45;pinning -->
<g id="edge9" class="edge">
<title>grpc&#45;cpp&#45;&gt;conda&#45;forge&#45;pinning</title>
<path fill="none" stroke="black" d="M461.01,-215.66C459.32,-184.59 452.32,-118.36 423.55,-72 416.27,-60.28 405.5,-49.92 394.86,-41.54"/>
<polygon fill="black" stroke="black" points="396.92,-38.71 386.81,-35.53 392.73,-44.32 396.92,-38.71"/>
</g>
<!-- google&#45;cloud&#45;cpp -->
<g id="node9" class="node">
<title>google&#45;cloud&#45;cpp</title>
<g id="a_node9"><a xlink:href="https://github.com/conda-forge/google-cloud-cpp-feedstock" xlink:title="google cloud cpp">
<ellipse fill="#fde725" stroke="black" cx="559.55" cy="-90" rx="89.08" ry="18"/>
<text text-anchor="middle" x="559.55" y="-86.3" font-family="Times,serif" font-size="14.00">google cloud cpp</text>
</a>
</g>
</g>
<!-- grpc&#45;cpp&#45;&gt;google&#45;cloud&#45;cpp -->
<g id="edge10" class="edge">
<title>grpc&#45;cpp&#45;&gt;google&#45;cloud&#45;cpp</title>
<path fill="none" stroke="black" d="M466.13,-215.75C471.7,-196.89 482.4,-166.4 498.55,-144 506.58,-132.87 517.38,-122.5 527.66,-113.94"/>
<polygon fill="black" stroke="black" points="530.11,-116.47 535.73,-107.49 525.74,-111 530.11,-116.47"/>
</g>
<!-- googleapis&#45;cpp -->
<g id="node10" class="node">
<title>googleapis&#45;cpp</title>
<g id="a_node10"><a xlink:href="https://github.com/conda-forge/googleapis-cpp-feedstock" xlink:title="googleapis cpp">
<ellipse fill="#fde725" stroke="black" cx="587.55" cy="-162" rx="79.5" ry="18"/>
<text text-anchor="middle" x="587.55" y="-158.3" font-family="Times,serif" font-size="14.00">googleapis cpp</text>
</a>
</g>
</g>
<!-- grpc&#45;cpp&#45;&gt;googleapis&#45;cpp -->
<g id="edge11" class="edge">
<title>grpc&#45;cpp&#45;&gt;googleapis&#45;cpp</title>
<path fill="none" stroke="black" d="M487.65,-218.5C505.66,-208.49 529.87,-195.05 549.94,-183.89"/>
<polygon fill="black" stroke="black" points="551.8,-186.87 558.84,-178.95 548.4,-180.75 551.8,-186.87"/>
</g>
<!-- google&#45;cloud&#45;cpp&#45;&gt;conda&#45;forge&#45;pinning -->
<g id="edge12" class="edge">
<title>google&#45;cloud&#45;cpp&#45;&gt;conda&#45;forge&#45;pinning</title>
<path fill="none" stroke="black" d="M517.13,-74.15C486.89,-63.57 446,-49.26 413.45,-37.86"/>
<polygon fill="black" stroke="black" points="414.23,-34.43 403.63,-34.43 411.91,-41.04 414.23,-34.43"/>
</g>
<!-- googleapis&#45;cpp&#45;&gt;conda&#45;forge&#45;pinning -->
<g id="edge13" class="edge">
<title>googleapis&#45;cpp&#45;&gt;conda&#45;forge&#45;pinning</title>
<path fill="none" stroke="black" d="M619.66,-145.44C634.04,-136.63 649.54,-124.11 657.55,-108 664.67,-93.67 667.82,-84.26 657.55,-72 633.45,-43.23 543.47,-30.07 468.63,-24.05"/>
<polygon fill="black" stroke="black" points="468.89,-20.56 458.65,-23.28 468.35,-27.54 468.89,-20.56"/>
</g>
<!-- googleapis&#45;cpp&#45;&gt;google&#45;cloud&#45;cpp -->
<g id="edge14" class="edge">
<title>googleapis&#45;cpp&#45;&gt;google&#45;cloud&#45;cpp</title>
<path fill="none" stroke="black" d="M580.77,-144.05C577.62,-136.18 573.79,-126.62 570.26,-117.79"/>
<polygon fill="black" stroke="black" points="573.42,-116.26 566.46,-108.28 566.92,-118.86 573.42,-116.26"/>
</g>
<!-- gazebo -->
<g id="node11" class="node">
<title>gazebo</title>
<g id="a_node11"><a xlink:href="https://github.com/conda-forge/gazebo-feedstock/pull/17" xlink:title="gazebo">
<ellipse fill="#31688e" stroke="black" cx="714.55" cy="-306" rx="40.5" ry="18"/>
<text text-anchor="middle" x="714.55" y="-302.3" font-family="Times,serif" font-size="14.00" fill="white">gazebo</text>
</a>
</g>
</g>
<!-- gazebo&#45;&gt;conda&#45;forge&#45;pinning -->
<g id="edge15" class="edge">
<title>gazebo&#45;&gt;conda&#45;forge&#45;pinning</title>
<path fill="none" stroke="black" d="M717.6,-288.02C724.24,-245.1 734.99,-131.46 675.55,-72 646.88,-43.33 548.41,-30.12 468.92,-24.07"/>
<polygon fill="black" stroke="black" points="469.06,-20.57 458.83,-23.33 468.55,-27.55 469.06,-20.57"/>
</g>
<!-- go&#45;cockroach -->
<g id="node12" class="node">
<title>go&#45;cockroach</title>
<g id="a_node12"><a xlink:href="https://github.com/conda-forge/go-cockroach-feedstock/pull/6" xlink:title="go cockroach">
<ellipse fill="#31688e" stroke="black" cx="783.55" cy="-378" rx="69.59" ry="18"/>
<text text-anchor="middle" x="783.55" y="-374.3" font-family="Times,serif" font-size="14.00" fill="white">go cockroach</text>
</a>
</g>
</g>
<!-- go&#45;cockroach&#45;&gt;conda&#45;forge&#45;pinning -->
<g id="edge16" class="edge">
<title>go&#45;cockroach&#45;&gt;conda&#45;forge&#45;pinning</title>
<path fill="none" stroke="black" d="M783.55,-359.95C783.55,-333.29 783.55,-280.11 783.55,-235 783.55,-235 783.55,-235 783.55,-161 783.55,-107.52 749.67,-97.31 702.55,-72 661.95,-50.2 547.44,-35.53 461.81,-27.25"/>
<polygon fill="black" stroke="black" points="462.07,-23.76 451.79,-26.3 461.41,-30.73 462.07,-23.76"/>
</g>
</g>
</svg>
