<?xml version="1.0" encoding="UTF-8" standalone="no"?>
<!DOCTYPE svg PUBLIC "-//W3C//DTD SVG 1.1//EN"
 "http://www.w3.org/Graphics/SVG/1.1/DTD/svg11.dtd">
<!-- Generated by graphviz version 2.42.3 (20191010.1750)
 -->
<!-- Title: %3 Pages: 1 -->
<svg width="1649pt" height="404pt"
 viewBox="0.00 0.00 1649.04 404.00" xmlns="http://www.w3.org/2000/svg" xmlns:xlink="http://www.w3.org/1999/xlink">
<g id="graph0" class="graph" transform="scale(1 1) rotate(0) translate(4 400)">
<title>%3</title>
<polygon fill="white" stroke="transparent" points="-4,4 -4,-400 1645.04,-400 1645.04,4 -4,4"/>
<!-- arrow&#45;cpp -->
<g id="node1" class="node">
<title>arrow&#45;cpp</title>
<g id="a_node1"><a xlink:href="https://github.com/conda-forge/arrow-cpp-feedstock" xlink:title="arrow cpp">
<ellipse fill="#fde725" stroke="black" cx="680.5" cy="-90" rx="54.69" ry="18"/>
<text text-anchor="middle" x="680.5" y="-86.3" font-family="Times,serif" font-size="14.00">arrow cpp</text>
</a>
</g>
</g>
<!-- conda&#45;forge&#45;pinning -->
<g id="node2" class="node">
<title>conda&#45;forge&#45;pinning</title>
<ellipse fill="none" stroke="black" cx="721.5" cy="-18" rx="103.5" ry="18"/>
<text text-anchor="middle" x="721.5" y="-14.3" font-family="Times,serif" font-size="14.00">conda&#45;forge&#45;pinning</text>
</g>
<!-- arrow&#45;cpp&#45;&gt;conda&#45;forge&#45;pinning -->
<g id="edge1" class="edge">
<title>arrow&#45;cpp&#45;&gt;conda&#45;forge&#45;pinning</title>
<path fill="none" stroke="black" d="M690.42,-72.05C695.19,-63.92 701,-54 706.31,-44.94"/>
<polygon fill="black" stroke="black" points="709.35,-46.67 711.38,-36.28 703.31,-43.14 709.35,-46.67"/>
</g>
<!-- caffe -->
<g id="node3" class="node">
<title>caffe</title>
<g id="a_node3"><a xlink:href="https://github.com/conda-forge/caffe-feedstock" xlink:title="caffe">
<ellipse fill="#35b779" stroke="black" cx="116.5" cy="-90" rx="35.19" ry="18"/>
<text text-anchor="middle" x="116.5" y="-86.3" font-family="Times,serif" font-size="14.00">caffe</text>
</a>
</g>
</g>
<!-- caffe&#45;&gt;conda&#45;forge&#45;pinning -->
<g id="edge2" class="edge">
<title>caffe&#45;&gt;conda&#45;forge&#45;pinning</title>
<path fill="none" stroke="black" d="M143.38,-78.38C150.48,-75.94 158.2,-73.59 165.5,-72 317.13,-38.97 496.48,-26.52 609.62,-21.83"/>
<polygon fill="black" stroke="black" points="609.83,-25.33 619.69,-21.43 609.55,-18.33 609.83,-25.33"/>
</g>
<!-- mosh -->
<g id="node4" class="node">
<title>mosh</title>
<g id="a_node4"><a xlink:href="https://github.com/conda-forge/mosh-feedstock" xlink:title="mosh">
<ellipse fill="#35b779" stroke="black" cx="168.5" cy="-162" rx="30.59" ry="18"/>
<text text-anchor="middle" x="168.5" y="-158.3" font-family="Times,serif" font-size="14.00">mosh</text>
</a>
</g>
</g>
<!-- mosh&#45;&gt;conda&#45;forge&#45;pinning -->
<g id="edge3" class="edge">
<title>mosh&#45;&gt;conda&#45;forge&#45;pinning</title>
<path fill="none" stroke="black" d="M171.93,-144C177.09,-123.26 188.98,-88.9 213.5,-72 275.31,-29.41 477.52,-19.97 607.41,-18.47"/>
<polygon fill="black" stroke="black" points="607.84,-21.96 617.8,-18.36 607.77,-14.96 607.84,-21.96"/>
</g>
<!-- mysql&#45;connector&#45;python -->
<g id="node5" class="node">
<title>mysql&#45;connector&#45;python</title>
<g id="a_node5"><a xlink:href="https://github.com/conda-forge/mysql-connector-python-feedstock" xlink:title="mysql connector python">
<ellipse fill="#35b779" stroke="black" cx="118.5" cy="-234" rx="118.5" ry="18"/>
<text text-anchor="middle" x="118.5" y="-230.3" font-family="Times,serif" font-size="14.00">mysql connector python</text>
</a>
</g>
</g>
<!-- mysql&#45;connector&#45;python&#45;&gt;conda&#45;forge&#45;pinning -->
<g id="edge4" class="edge">
<title>mysql&#45;connector&#45;python&#45;&gt;conda&#45;forge&#45;pinning</title>
<path fill="none" stroke="black" d="M157.98,-216.88C175.39,-208.13 194.93,-195.83 208.5,-180 242.13,-140.78 210.44,-103.35 251.5,-72 305.62,-30.68 486.86,-20.65 607.81,-18.72"/>
<polygon fill="black" stroke="black" points="607.91,-22.21 617.86,-18.57 607.81,-15.22 607.91,-22.21"/>
</g>
<!-- onnx -->
<g id="node6" class="node">
<title>onnx</title>
<g id="a_node6"><a xlink:href="https://github.com/conda-forge/onnx-feedstock" xlink:title="onnx">
<ellipse fill="#35b779" stroke="black" cx="244.5" cy="-306" rx="30.59" ry="18"/>
<text text-anchor="middle" x="244.5" y="-302.3" font-family="Times,serif" font-size="14.00">onnx</text>
</a>
</g>
</g>
<!-- onnx&#45;&gt;conda&#45;forge&#45;pinning -->
<g id="edge5" class="edge">
<title>onnx&#45;&gt;conda&#45;forge&#45;pinning</title>
<path fill="none" stroke="black" d="M245.27,-287.99C247.86,-239.4 257.88,-101.52 289.5,-72 312.95,-50.1 495.45,-33.93 615.63,-25.53"/>
<polygon fill="black" stroke="black" points="615.87,-29.02 625.61,-24.84 615.39,-22.04 615.87,-29.02"/>
</g>
<!-- paraview -->
<g id="node7" class="node">
<title>paraview</title>
<g id="a_node7"><a xlink:href="https://github.com/conda-forge/paraview-feedstock" xlink:title="paraview">
<ellipse fill="#35b779" stroke="black" cx="303.5" cy="-378" rx="50.09" ry="18"/>
<text text-anchor="middle" x="303.5" y="-374.3" font-family="Times,serif" font-size="14.00">paraview</text>
</a>
</g>
</g>
<!-- paraview&#45;&gt;conda&#45;forge&#45;pinning -->
<g id="edge6" class="edge">
<title>paraview&#45;&gt;conda&#45;forge&#45;pinning</title>
<path fill="none" stroke="black" d="M303.5,-359.95C303.5,-333.29 303.5,-280.11 303.5,-235 303.5,-235 303.5,-235 303.5,-161 303.5,-116.27 313.92,-97.75 350.5,-72 391.57,-43.09 518.01,-29.77 611.94,-23.76"/>
<polygon fill="black" stroke="black" points="612.3,-27.24 622.07,-23.13 611.87,-20.26 612.3,-27.24"/>
</g>
<!-- shogun -->
<g id="node8" class="node">
<title>shogun</title>
<g id="a_node8"><a xlink:href="https://github.com/conda-forge/shogun-feedstock" xlink:title="shogun">
<ellipse fill="#fde725" stroke="black" cx="410.5" cy="-90" rx="40.5" ry="18"/>
<text text-anchor="middle" x="410.5" y="-86.3" font-family="Times,serif" font-size="14.00">shogun</text>
</a>
</g>
</g>
<!-- shogun&#45;&gt;conda&#45;forge&#45;pinning -->
<g id="edge7" class="edge">
<title>shogun&#45;&gt;conda&#45;forge&#45;pinning</title>
<path fill="none" stroke="black" d="M440.98,-77.95C447.38,-75.82 454.13,-73.72 460.5,-72 519.82,-55.96 587.88,-42.29 639.63,-32.86"/>
<polygon fill="black" stroke="black" points="640.53,-36.25 649.75,-31.03 639.29,-29.36 640.53,-36.25"/>
</g>
<!-- shogun&#45;cpp -->
<g id="node9" class="node">
<title>shogun&#45;cpp</title>
<g id="a_node9"><a xlink:href="https://github.com/conda-forge/shogun-cpp-feedstock" xlink:title="shogun cpp">
<ellipse fill="#35b779" stroke="black" cx="400.5" cy="-162" rx="60" ry="18"/>
<text text-anchor="middle" x="400.5" y="-158.3" font-family="Times,serif" font-size="14.00">shogun cpp</text>
</a>
</g>
</g>
<!-- shogun&#45;cpp&#45;&gt;conda&#45;forge&#45;pinning -->
<g id="edge8" class="edge">
<title>shogun&#45;cpp&#45;&gt;conda&#45;forge&#45;pinning</title>
<path fill="none" stroke="black" d="M383.3,-144.66C365.21,-125.51 341.78,-93.66 360.5,-72 392.11,-35.4 514.44,-23.61 608.02,-20.05"/>
<polygon fill="black" stroke="black" points="608.26,-23.54 618.13,-19.69 608.01,-16.55 608.26,-23.54"/>
</g>
<!-- shogun&#45;cpp&#45;&gt;shogun -->
<g id="edge9" class="edge">
<title>shogun&#45;cpp&#45;&gt;shogun</title>
<path fill="none" stroke="black" d="M402.97,-143.7C404.07,-135.98 405.4,-126.71 406.63,-118.11"/>
<polygon fill="black" stroke="black" points="410.11,-118.5 408.06,-108.1 403.18,-117.51 410.11,-118.5"/>
</g>
<!-- libhdfs3 -->
<g id="node10" class="node">
<title>libhdfs3</title>
<g id="a_node10"><a xlink:href="https://github.com/conda-forge/libhdfs3-feedstock" xlink:title="libhdfs3">
<ellipse fill="#35b779" stroke="black" cx="519.5" cy="-90" rx="50.09" ry="18"/>
<text text-anchor="middle" x="519.5" y="-86.3" font-family="Times,serif" font-size="14.00">libhdfs3</text>
</a>
</g>
</g>
<!-- libhdfs3&#45;&gt;conda&#45;forge&#45;pinning -->
<g id="edge10" class="edge">
<title>libhdfs3&#45;&gt;conda&#45;forge&#45;pinning</title>
<path fill="none" stroke="black" d="M554.23,-76.97C585.36,-66.18 631.55,-50.17 667.51,-37.71"/>
<polygon fill="black" stroke="black" points="669.05,-40.88 677.36,-34.3 666.76,-34.26 669.05,-40.88"/>
</g>
<!-- r&#45;protolite -->
<g id="node11" class="node">
<title>r&#45;protolite</title>
<g id="a_node11"><a xlink:href="https://github.com/conda-forge/r-protolite-feedstock" xlink:title="r protolite">
<ellipse fill="#35b779" stroke="black" cx="597.5" cy="-162" rx="64.5" ry="18"/>
<text text-anchor="middle" x="597.5" y="-158.3" font-family="Times,serif" font-size="14.00">r protolite</text>
</a>
</g>
</g>
<!-- r&#45;protolite&#45;&gt;conda&#45;forge&#45;pinning -->
<g id="edge11" class="edge">
<title>r&#45;protolite&#45;&gt;conda&#45;forge&#45;pinning</title>
<path fill="none" stroke="black" d="M596.95,-143.79C597.21,-124.4 600.39,-92.9 616.5,-72 628.02,-57.06 644.9,-46 661.77,-37.97"/>
<polygon fill="black" stroke="black" points="663.4,-41.07 671.11,-33.81 660.55,-34.68 663.4,-41.07"/>
</g>
<!-- grpc&#45;cpp -->
<g id="node12" class="node">
<title>grpc&#45;cpp</title>
<g id="a_node12"><a xlink:href="https://github.com/conda-forge/grpc-cpp-feedstock" xlink:title="grpc cpp">
<ellipse fill="#35b779" stroke="black" cx="739.5" cy="-234" rx="50.09" ry="18"/>
<text text-anchor="middle" x="739.5" y="-230.3" font-family="Times,serif" font-size="14.00">grpc cpp</text>
</a>
</g>
</g>
<!-- grpc&#45;cpp&#45;&gt;arrow&#45;cpp -->
<g id="edge12" class="edge">
<title>grpc&#45;cpp&#45;&gt;arrow&#45;cpp</title>
<path fill="none" stroke="black" d="M732.5,-216.15C722.4,-191.84 703.63,-146.66 691.62,-117.75"/>
<polygon fill="black" stroke="black" points="694.74,-116.16 687.67,-108.27 688.28,-118.85 694.74,-116.16"/>
</g>
<!-- grpc&#45;cpp&#45;&gt;conda&#45;forge&#45;pinning -->
<g id="edge13" class="edge">
<title>grpc&#45;cpp&#45;&gt;conda&#45;forge&#45;pinning</title>
<path fill="none" stroke="black" d="M742.63,-215.85C747.48,-186.18 755.19,-123.48 744.5,-72 742.62,-62.96 739.13,-53.58 735.41,-45.26"/>
<polygon fill="black" stroke="black" points="738.5,-43.6 731.04,-36.07 732.18,-46.61 738.5,-43.6"/>
</g>
<!-- google&#45;cloud&#45;cpp -->
<g id="node13" class="node">
<title>google&#45;cloud&#45;cpp</title>
<g id="a_node13"><a xlink:href="https://github.com/conda-forge/google-cloud-cpp-feedstock" xlink:title="google cloud cpp">
<ellipse fill="#fde725" stroke="black" cx="880.5" cy="-90" rx="89.08" ry="18"/>
<text text-anchor="middle" x="880.5" y="-86.3" font-family="Times,serif" font-size="14.00">google cloud cpp</text>
</a>
</g>
</g>
<!-- grpc&#45;cpp&#45;&gt;google&#45;cloud&#45;cpp -->
<g id="edge14" class="edge">
<title>grpc&#45;cpp&#45;&gt;google&#45;cloud&#45;cpp</title>
<path fill="none" stroke="black" d="M753.37,-216.37C768.89,-198.06 795.06,-168.03 819.5,-144 829.86,-133.81 841.83,-123.19 852.4,-114.15"/>
<polygon fill="black" stroke="black" points="854.79,-116.72 860.17,-107.59 850.27,-111.37 854.79,-116.72"/>
</g>
<!-- googleapis&#45;cpp -->
<g id="node14" class="node">
<title>googleapis&#45;cpp</title>
<g id="a_node14"><a xlink:href="https://github.com/conda-forge/googleapis-cpp-feedstock" xlink:title="googleapis cpp">
<ellipse fill="#fde725" stroke="black" cx="908.5" cy="-162" rx="79.5" ry="18"/>
<text text-anchor="middle" x="908.5" y="-158.3" font-family="Times,serif" font-size="14.00">googleapis cpp</text>
</a>
</g>
</g>
<!-- grpc&#45;cpp&#45;&gt;googleapis&#45;cpp -->
<g id="edge15" class="edge">
<title>grpc&#45;cpp&#45;&gt;googleapis&#45;cpp</title>
<path fill="none" stroke="black" d="M771.29,-219.83C797.06,-209.16 833.72,-193.97 862.67,-181.98"/>
<polygon fill="black" stroke="black" points="864.26,-185.11 872.16,-178.05 861.58,-178.64 864.26,-185.11"/>
</g>
<!-- google&#45;cloud&#45;cpp&#45;&gt;conda&#45;forge&#45;pinning -->
<g id="edge16" class="edge">
<title>google&#45;cloud&#45;cpp&#45;&gt;conda&#45;forge&#45;pinning</title>
<path fill="none" stroke="black" d="M845.21,-73.46C822.17,-63.32 791.87,-49.98 767.02,-39.04"/>
<polygon fill="black" stroke="black" points="768.35,-35.8 757.79,-34.98 765.53,-42.21 768.35,-35.8"/>
</g>
<!-- googleapis&#45;cpp&#45;&gt;conda&#45;forge&#45;pinning -->
<g id="edge17" class="edge">
<title>googleapis&#45;cpp&#45;&gt;conda&#45;forge&#45;pinning</title>
<path fill="none" stroke="black" d="M940.61,-145.44C954.99,-136.63 970.49,-124.11 978.5,-108 985.62,-93.67 988.61,-84.4 978.5,-72 958.87,-47.9 887.15,-34.44 824.45,-27.12"/>
<polygon fill="black" stroke="black" points="824.8,-23.63 814.47,-25.99 824.02,-30.59 824.8,-23.63"/>
</g>
<!-- googleapis&#45;cpp&#45;&gt;google&#45;cloud&#45;cpp -->
<g id="edge18" class="edge">
<title>googleapis&#45;cpp&#45;&gt;google&#45;cloud&#45;cpp</title>
<path fill="none" stroke="black" d="M901.72,-144.05C898.57,-136.18 894.75,-126.62 891.22,-117.79"/>
<polygon fill="black" stroke="black" points="894.37,-116.26 887.41,-108.28 887.87,-118.86 894.37,-116.26"/>
</g>
<!-- libignition&#45;transport4 -->
<g id="node15" class="node">
<title>libignition&#45;transport4</title>
<g id="a_node15"><a xlink:href="https://github.com/conda-forge/libignition-transport4-feedstock" xlink:title="libignition transport4">
<ellipse fill="#35b779" stroke="black" cx="926.5" cy="-234" rx="118.5" ry="18"/>
<text text-anchor="middle" x="926.5" y="-230.3" font-family="Times,serif" font-size="14.00">libignition transport4</text>
</a>
</g>
</g>
<!-- libignition&#45;transport4&#45;&gt;conda&#45;forge&#45;pinning -->
<g id="edge19" class="edge">
<title>libignition&#45;transport4&#45;&gt;conda&#45;forge&#45;pinning</title>
<path fill="none" stroke="black" d="M960.08,-216.53C974.04,-207.77 988.76,-195.56 996.5,-180 1017.87,-137.02 1027.06,-109.01 996.5,-72 975,-45.97 895.91,-32.58 828.03,-25.78"/>
<polygon fill="black" stroke="black" points="827.96,-22.26 817.67,-24.79 827.29,-29.23 827.96,-22.26"/>
</g>
<!-- libignition&#45;msgs1 -->
<g id="node16" class="node">
<title>libignition&#45;msgs1</title>
<g id="a_node16"><a xlink:href="https://github.com/conda-forge/libignition-msgs1-feedstock" xlink:title="libignition msgs1">
<ellipse fill="#35b779" stroke="black" cx="989.5" cy="-306" rx="93.68" ry="18"/>
<text text-anchor="middle" x="989.5" y="-302.3" font-family="Times,serif" font-size="14.00">libignition msgs1</text>
</a>
</g>
</g>
<!-- libignition&#45;msgs1&#45;&gt;conda&#45;forge&#45;pinning -->
<g id="edge20" class="edge">
<title>libignition&#45;msgs1&#45;&gt;conda&#45;forge&#45;pinning</title>
<path fill="none" stroke="black" d="M1018.93,-288.83C1032.09,-279.87 1046.26,-267.4 1053.5,-252 1077.58,-200.8 1071.72,-120.73 1020.5,-72 993.09,-45.93 902.46,-32.43 828.1,-25.6"/>
<polygon fill="black" stroke="black" points="827.99,-22.08 817.72,-24.69 827.37,-29.05 827.99,-22.08"/>
</g>
<!-- gazebo -->
<g id="node17" class="node">
<title>gazebo</title>
<g id="a_node17"><a xlink:href="https://github.com/conda-forge/gazebo-feedstock" xlink:title="gazebo">
<ellipse fill="#35b779" stroke="black" cx="1111.5" cy="-378" rx="40.5" ry="18"/>
<text text-anchor="middle" x="1111.5" y="-374.3" font-family="Times,serif" font-size="14.00">gazebo</text>
</a>
</g>
</g>
<!-- gazebo&#45;&gt;conda&#45;forge&#45;pinning -->
<g id="edge21" class="edge">
<title>gazebo&#45;&gt;conda&#45;forge&#45;pinning</title>
<path fill="none" stroke="black" d="M1111.5,-359.95C1111.5,-333.29 1111.5,-280.11 1111.5,-235 1111.5,-235 1111.5,-235 1111.5,-161 1111.5,-112.54 1089.62,-97.65 1048.5,-72 1011.94,-49.19 906.15,-34.93 824.7,-27.02"/>
<polygon fill="black" stroke="black" points="824.67,-23.5 814.39,-26.04 824.01,-30.47 824.67,-23.5"/>
</g>
<!-- libignition&#45;fuel&#45;tools -->
<g id="node18" class="node">
<title>libignition&#45;fuel&#45;tools</title>
<g id="a_node18"><a xlink:href="https://github.com/conda-forge/libignition-fuel-tools-feedstock" xlink:title="libignition fuel tools">
<ellipse fill="#35b779" stroke="black" cx="1258.5" cy="-90" rx="118.5" ry="18"/>
<text text-anchor="middle" x="1258.5" y="-86.3" font-family="Times,serif" font-size="14.00">libignition fuel tools</text>
</a>
</g>
</g>
<!-- libignition&#45;fuel&#45;tools&#45;&gt;conda&#45;forge&#45;pinning -->
<g id="edge22" class="edge">
<title>libignition&#45;fuel&#45;tools&#45;&gt;conda&#45;forge&#45;pinning</title>
<path fill="none" stroke="black" d="M1171.62,-77.68C1072.76,-64.79 912.04,-43.84 811.78,-30.77"/>
<polygon fill="black" stroke="black" points="812.04,-27.27 801.67,-29.45 811.13,-34.21 812.04,-27.27"/>
</g>
<!-- zaber&#45;motion -->
<g id="node19" class="node">
<title>zaber&#45;motion</title>
<g id="a_node19"><a xlink:href="https://github.com/conda-forge/zaber-motion-feedstock" xlink:title="zaber motion">
<ellipse fill="#35b779" stroke="black" cx="1375.5" cy="-162" rx="69.59" ry="18"/>
<text text-anchor="middle" x="1375.5" y="-158.3" font-family="Times,serif" font-size="14.00">zaber motion</text>
</a>
</g>
</g>
<!-- zaber&#45;motion&#45;&gt;conda&#45;forge&#45;pinning -->
<g id="edge23" class="edge">
<title>zaber&#45;motion&#45;&gt;conda&#45;forge&#45;pinning</title>
<path fill="none" stroke="black" d="M1384.36,-143.84C1393.26,-123.91 1403.33,-91.31 1385.5,-72 1349,-32.47 1014.65,-22.4 834.8,-19.85"/>
<polygon fill="black" stroke="black" points="834.81,-16.35 824.76,-19.72 834.72,-23.35 834.81,-16.35"/>
</g>
<!-- go&#45;cockroach -->
<g id="node20" class="node">
<title>go&#45;cockroach</title>
<g id="a_node20"><a xlink:href="https://github.com/conda-forge/go-cockroach-feedstock" xlink:title="go cockroach">
<ellipse fill="#35b779" stroke="black" cx="1473.5" cy="-234" rx="69.59" ry="18"/>
<text text-anchor="middle" x="1473.5" y="-230.3" font-family="Times,serif" font-size="14.00">go cockroach</text>
</a>
</g>
</g>
<!-- go&#45;cockroach&#45;&gt;conda&#45;forge&#45;pinning -->
<g id="edge24" class="edge">
<title>go&#45;cockroach&#45;&gt;conda&#45;forge&#45;pinning</title>
<path fill="none" stroke="black" d="M1472.45,-215.77C1469.25,-180.67 1456.34,-101.72 1404.5,-72 1356.21,-44.31 1013.29,-28.78 832.48,-22.43"/>
<polygon fill="black" stroke="black" points="832.52,-18.93 822.41,-22.08 832.28,-25.92 832.52,-18.93"/>
</g>
<!-- cartographer -->
<g id="node21" class="node">
<title>cartographer</title>
<g id="a_node21"><a xlink:href="https://github.com/conda-forge/cartographer-feedstock" xlink:title="cartographer">
<ellipse fill="#35b779" stroke="black" cx="1571.5" cy="-306" rx="69.59" ry="18"/>
<text text-anchor="middle" x="1571.5" y="-302.3" font-family="Times,serif" font-size="14.00">cartographer</text>
</a>
</g>
</g>
<!-- cartographer&#45;&gt;conda&#45;forge&#45;pinning -->
<g id="edge25" class="edge">
<title>cartographer&#45;&gt;conda&#45;forge&#45;pinning</title>
<path fill="none" stroke="black" d="M1570.22,-287.84C1568.3,-269.34 1563.64,-239.4 1552.5,-216 1517.18,-141.79 1509.27,-110.19 1436.5,-72 1384.49,-44.7 1020.39,-28.84 832.75,-22.4"/>
<polygon fill="black" stroke="black" points="832.69,-18.89 822.58,-22.05 832.45,-25.89 832.69,-18.89"/>
</g>
</g>
</svg>
