<?xml version="1.0" encoding="UTF-8" standalone="no"?>
<!DOCTYPE svg PUBLIC "-//W3C//DTD SVG 1.1//EN"
 "http://www.w3.org/Graphics/SVG/1.1/DTD/svg11.dtd">
<!-- Generated by graphviz version 2.42.3 (20191010.1750)
 -->
<!-- Title: %3 Pages: 1 -->
<svg width="1497pt" height="404pt"
 viewBox="0.00 0.00 1497.04 404.00" xmlns="http://www.w3.org/2000/svg" xmlns:xlink="http://www.w3.org/1999/xlink">
<g id="graph0" class="graph" transform="scale(1 1) rotate(0) translate(4 400)">
<title>%3</title>
<polygon fill="white" stroke="transparent" points="-4,4 -4,-400 1493.04,-400 1493.04,4 -4,4"/>
<!-- arrow&#45;cpp -->
<g id="node1" class="node">
<title>arrow&#45;cpp</title>
<g id="a_node1"><a xlink:href="https://github.com/conda-forge/arrow-cpp-feedstock" xlink:title="arrow cpp">
<ellipse fill="#fde725" stroke="black" cx="642.5" cy="-90" rx="54.69" ry="18"/>
<text text-anchor="middle" x="642.5" y="-86.3" font-family="Times,serif" font-size="14.00">arrow cpp</text>
</a>
</g>
</g>
<!-- conda&#45;forge&#45;pinning -->
<g id="node2" class="node">
<title>conda&#45;forge&#45;pinning</title>
<ellipse fill="none" stroke="black" cx="580.5" cy="-18" rx="103.5" ry="18"/>
<text text-anchor="middle" x="580.5" y="-14.3" font-family="Times,serif" font-size="14.00">conda&#45;forge&#45;pinning</text>
</g>
<!-- arrow&#45;cpp&#45;&gt;conda&#45;forge&#45;pinning -->
<g id="edge1" class="edge">
<title>arrow&#45;cpp&#45;&gt;conda&#45;forge&#45;pinning</title>
<path fill="none" stroke="black" d="M627.81,-72.41C620.2,-63.82 610.76,-53.16 602.31,-43.63"/>
<polygon fill="black" stroke="black" points="604.77,-41.12 595.52,-35.96 599.53,-45.76 604.77,-41.12"/>
</g>
<!-- caffe -->
<g id="node3" class="node">
<title>caffe</title>
<g id="a_node3"><a xlink:href="https://github.com/conda-forge/caffe-feedstock/pull/59" xlink:title="caffe">
<ellipse fill="#31688e" stroke="black" cx="116.5" cy="-90" rx="35.19" ry="18"/>
<text text-anchor="middle" x="116.5" y="-86.3" font-family="Times,serif" font-size="14.00" fill="white">caffe</text>
</a>
</g>
</g>
<!-- caffe&#45;&gt;conda&#45;forge&#45;pinning -->
<g id="edge2" class="edge">
<title>caffe&#45;&gt;conda&#45;forge&#45;pinning</title>
<path fill="none" stroke="black" d="M143.68,-78.45C150.7,-76.04 158.31,-73.69 165.5,-72 269.63,-47.56 391.29,-33.7 475.85,-26.34"/>
<polygon fill="black" stroke="black" points="476.31,-29.81 485.98,-25.47 475.71,-22.84 476.31,-29.81"/>
</g>
<!-- mosh -->
<g id="node4" class="node">
<title>mosh</title>
<g id="a_node4"><a xlink:href="https://github.com/conda-forge/mosh-feedstock/pull/16" xlink:title="mosh">
<ellipse fill="#31688e" stroke="black" cx="168.5" cy="-162" rx="30.59" ry="18"/>
<text text-anchor="middle" x="168.5" y="-158.3" font-family="Times,serif" font-size="14.00" fill="white">mosh</text>
</a>
</g>
</g>
<!-- mosh&#45;&gt;conda&#45;forge&#45;pinning -->
<g id="edge3" class="edge">
<title>mosh&#45;&gt;conda&#45;forge&#45;pinning</title>
<path fill="none" stroke="black" d="M172.14,-143.79C177.45,-123.18 189.46,-89.28 213.5,-72 253.73,-43.1 378.21,-29.79 471.12,-23.77"/>
<polygon fill="black" stroke="black" points="471.38,-27.26 481.14,-23.14 470.94,-20.28 471.38,-27.26"/>
</g>
<!-- mysql&#45;connector&#45;python -->
<g id="node5" class="node">
<title>mysql&#45;connector&#45;python</title>
<g id="a_node5"><a xlink:href="https://github.com/conda-forge/mysql-connector-python-feedstock/pull/27" xlink:title="mysql connector python">
<ellipse fill="#31688e" stroke="black" cx="118.5" cy="-234" rx="118.5" ry="18"/>
<text text-anchor="middle" x="118.5" y="-230.3" font-family="Times,serif" font-size="14.00" fill="white">mysql connector python</text>
</a>
</g>
</g>
<!-- mysql&#45;connector&#45;python&#45;&gt;conda&#45;forge&#45;pinning -->
<g id="edge4" class="edge">
<title>mysql&#45;connector&#45;python&#45;&gt;conda&#45;forge&#45;pinning</title>
<path fill="none" stroke="black" d="M157.98,-216.88C175.39,-208.13 194.93,-195.83 208.5,-180 242.13,-140.78 211.19,-104.32 251.5,-72 285.03,-45.12 390.43,-31.59 473,-24.97"/>
<polygon fill="black" stroke="black" points="473.51,-28.44 483.21,-24.17 472.96,-21.46 473.51,-28.44"/>
</g>
<!-- onnx -->
<g id="node6" class="node">
<title>onnx</title>
<g id="a_node6"><a xlink:href="https://github.com/conda-forge/onnx-feedstock/pull/43" xlink:title="onnx">
<ellipse fill="#31688e" stroke="black" cx="244.5" cy="-306" rx="30.59" ry="18"/>
<text text-anchor="middle" x="244.5" y="-302.3" font-family="Times,serif" font-size="14.00" fill="white">onnx</text>
</a>
</g>
</g>
<!-- onnx&#45;&gt;conda&#45;forge&#45;pinning -->
<g id="edge5" class="edge">
<title>onnx&#45;&gt;conda&#45;forge&#45;pinning</title>
<path fill="none" stroke="black" d="M245.38,-287.73C248.22,-239.07 258.82,-102.35 289.5,-72 315.47,-46.3 402.49,-32.8 474.66,-25.87"/>
<polygon fill="black" stroke="black" points="475.1,-29.34 484.74,-24.93 474.46,-22.37 475.1,-29.34"/>
</g>
<!-- paraview -->
<g id="node7" class="node">
<title>paraview</title>
<g id="a_node7"><a xlink:href="https://github.com/conda-forge/paraview-feedstock/pull/88" xlink:title="paraview">
<ellipse fill="#31688e" stroke="black" cx="303.5" cy="-378" rx="50.09" ry="18"/>
<text text-anchor="middle" x="303.5" y="-374.3" font-family="Times,serif" font-size="14.00" fill="white">paraview</text>
</a>
</g>
</g>
<!-- paraview&#45;&gt;conda&#45;forge&#45;pinning -->
<g id="edge6" class="edge">
<title>paraview&#45;&gt;conda&#45;forge&#45;pinning</title>
<path fill="none" stroke="black" d="M303.5,-359.95C303.5,-333.29 303.5,-280.11 303.5,-235 303.5,-235 303.5,-235 303.5,-161 303.5,-116.27 315.04,-99.27 350.5,-72 384.93,-45.51 430.29,-31.88 471.61,-24.99"/>
<polygon fill="black" stroke="black" points="472.4,-28.41 481.75,-23.42 471.33,-21.49 472.4,-28.41"/>
</g>
<!-- shogun -->
<g id="node8" class="node">
<title>shogun</title>
<g id="a_node8"><a xlink:href="https://github.com/conda-forge/shogun-feedstock" xlink:title="shogun">
<ellipse fill="#fde725" stroke="black" cx="410.5" cy="-90" rx="40.5" ry="18"/>
<text text-anchor="middle" x="410.5" y="-86.3" font-family="Times,serif" font-size="14.00">shogun</text>
</a>
</g>
</g>
<!-- shogun&#45;&gt;conda&#45;forge&#45;pinning -->
<g id="edge7" class="edge">
<title>shogun&#45;&gt;conda&#45;forge&#45;pinning</title>
<path fill="none" stroke="black" d="M439.34,-77.13C464.9,-66.6 502.72,-51.03 532.78,-38.65"/>
<polygon fill="black" stroke="black" points="534.33,-41.8 542.24,-34.75 531.66,-35.32 534.33,-41.8"/>
</g>
<!-- shogun&#45;cpp -->
<g id="node9" class="node">
<title>shogun&#45;cpp</title>
<g id="a_node9"><a xlink:href="https://github.com/conda-forge/shogun-cpp-feedstock/pull/39" xlink:title="shogun cpp">
<ellipse fill="#31688e" stroke="black" cx="400.5" cy="-162" rx="60" ry="18"/>
<text text-anchor="middle" x="400.5" y="-158.3" font-family="Times,serif" font-size="14.00" fill="white">shogun cpp</text>
</a>
</g>
</g>
<!-- shogun&#45;cpp&#45;&gt;conda&#45;forge&#45;pinning -->
<g id="edge8" class="edge">
<title>shogun&#45;cpp&#45;&gt;conda&#45;forge&#45;pinning</title>
<path fill="none" stroke="black" d="M383.33,-144.61C365.62,-125.7 342.89,-94.36 360.5,-72 376.46,-51.74 433.91,-38.32 486.1,-30.06"/>
<polygon fill="black" stroke="black" points="486.76,-33.5 496.11,-28.52 485.7,-26.58 486.76,-33.5"/>
</g>
<!-- shogun&#45;cpp&#45;&gt;shogun -->
<g id="edge9" class="edge">
<title>shogun&#45;cpp&#45;&gt;shogun</title>
<path fill="none" stroke="black" d="M402.97,-143.7C404.07,-135.98 405.4,-126.71 406.63,-118.11"/>
<polygon fill="black" stroke="black" points="410.11,-118.5 408.06,-108.1 403.18,-117.51 410.11,-118.5"/>
</g>
<!-- libhdfs3 -->
<g id="node10" class="node">
<title>libhdfs3</title>
<g id="a_node10"><a xlink:href="https://github.com/conda-forge/libhdfs3-feedstock/pull/32" xlink:title="libhdfs3">
<ellipse fill="#31688e" stroke="black" cx="519.5" cy="-90" rx="50.09" ry="18"/>
<text text-anchor="middle" x="519.5" y="-86.3" font-family="Times,serif" font-size="14.00" fill="white">libhdfs3</text>
</a>
</g>
</g>
<!-- libhdfs3&#45;&gt;conda&#45;forge&#45;pinning -->
<g id="edge10" class="edge">
<title>libhdfs3&#45;&gt;conda&#45;forge&#45;pinning</title>
<path fill="none" stroke="black" d="M533.96,-72.41C541.44,-63.82 550.73,-53.16 559.04,-43.63"/>
<polygon fill="black" stroke="black" points="561.79,-45.79 565.72,-35.96 556.52,-41.2 561.79,-45.79"/>
</g>
<!-- grpc&#45;cpp -->
<g id="node11" class="node">
<title>grpc&#45;cpp</title>
<g id="a_node11"><a xlink:href="https://github.com/conda-forge/grpc-cpp-feedstock/pull/61" xlink:title="grpc cpp">
<ellipse fill="#31688e" stroke="black" cx="730.5" cy="-234" rx="50.09" ry="18"/>
<text text-anchor="middle" x="730.5" y="-230.3" font-family="Times,serif" font-size="14.00" fill="white">grpc cpp</text>
</a>
</g>
</g>
<!-- grpc&#45;cpp&#45;&gt;arrow&#45;cpp -->
<g id="edge11" class="edge">
<title>grpc&#45;cpp&#45;&gt;arrow&#45;cpp</title>
<path fill="none" stroke="black" d="M720.08,-216.3C713.58,-205.87 705.04,-192.16 697.5,-180 684.21,-158.58 669.16,-134.22 658.17,-116.41"/>
<polygon fill="black" stroke="black" points="661.05,-114.41 652.82,-107.74 655.1,-118.09 661.05,-114.41"/>
</g>
<!-- grpc&#45;cpp&#45;&gt;conda&#45;forge&#45;pinning -->
<g id="edge12" class="edge">
<title>grpc&#45;cpp&#45;&gt;conda&#45;forge&#45;pinning</title>
<path fill="none" stroke="black" d="M732.99,-215.88C736.64,-183.99 739.78,-114.85 706.5,-72 693.37,-55.09 673.85,-43.52 654.07,-35.62"/>
<polygon fill="black" stroke="black" points="655.27,-32.33 644.67,-32.14 652.83,-38.9 655.27,-32.33"/>
</g>
<!-- google&#45;cloud&#45;cpp -->
<g id="node12" class="node">
<title>google&#45;cloud&#45;cpp</title>
<g id="a_node12"><a xlink:href="https://github.com/conda-forge/google-cloud-cpp-feedstock" xlink:title="google cloud cpp">
<ellipse fill="#fde725" stroke="black" cx="842.5" cy="-90" rx="89.08" ry="18"/>
<text text-anchor="middle" x="842.5" y="-86.3" font-family="Times,serif" font-size="14.00">google cloud cpp</text>
</a>
</g>
</g>
<!-- grpc&#45;cpp&#45;&gt;google&#45;cloud&#45;cpp -->
<g id="edge13" class="edge">
<title>grpc&#45;cpp&#45;&gt;google&#45;cloud&#45;cpp</title>
<path fill="none" stroke="black" d="M734.57,-215.78C739.74,-196.67 750.15,-165.69 767.5,-144 777.29,-131.76 790.63,-121.11 803.33,-112.62"/>
<polygon fill="black" stroke="black" points="805.43,-115.43 811.98,-107.1 801.67,-109.53 805.43,-115.43"/>
</g>
<!-- googleapis&#45;cpp -->
<g id="node13" class="node">
<title>googleapis&#45;cpp</title>
<g id="a_node13"><a xlink:href="https://github.com/conda-forge/googleapis-cpp-feedstock" xlink:title="googleapis cpp">
<ellipse fill="#fde725" stroke="black" cx="856.5" cy="-162" rx="79.5" ry="18"/>
<text text-anchor="middle" x="856.5" y="-158.3" font-family="Times,serif" font-size="14.00">googleapis cpp</text>
</a>
</g>
</g>
<!-- grpc&#45;cpp&#45;&gt;googleapis&#45;cpp -->
<g id="edge14" class="edge">
<title>grpc&#45;cpp&#45;&gt;googleapis&#45;cpp</title>
<path fill="none" stroke="black" d="M756.61,-218.5C774.61,-208.49 798.82,-195.05 818.89,-183.89"/>
<polygon fill="black" stroke="black" points="820.75,-186.87 827.79,-178.95 817.35,-180.75 820.75,-186.87"/>
</g>
<!-- google&#45;cloud&#45;cpp&#45;&gt;conda&#45;forge&#45;pinning -->
<g id="edge15" class="edge">
<title>google&#45;cloud&#45;cpp&#45;&gt;conda&#45;forge&#45;pinning</title>
<path fill="none" stroke="black" d="M791.05,-75.25C748.98,-64.01 689.3,-48.07 644.21,-36.02"/>
<polygon fill="black" stroke="black" points="645.1,-32.64 634.54,-33.44 643.29,-39.4 645.1,-32.64"/>
</g>
<!-- googleapis&#45;cpp&#45;&gt;conda&#45;forge&#45;pinning -->
<g id="edge16" class="edge">
<title>googleapis&#45;cpp&#45;&gt;conda&#45;forge&#45;pinning</title>
<path fill="none" stroke="black" d="M896.16,-146.28C913,-137.82 930.92,-125.36 940.5,-108 948.23,-93.99 950.96,-84.11 940.5,-72 908.98,-35.5 786.99,-23.68 693.67,-20.09"/>
<polygon fill="black" stroke="black" points="693.71,-16.59 683.59,-19.73 693.46,-23.59 693.71,-16.59"/>
</g>
<!-- googleapis&#45;cpp&#45;&gt;google&#45;cloud&#45;cpp -->
<g id="edge17" class="edge">
<title>googleapis&#45;cpp&#45;&gt;google&#45;cloud&#45;cpp</title>
<path fill="none" stroke="black" d="M853.04,-143.7C851.5,-135.98 849.64,-126.71 847.92,-118.11"/>
<polygon fill="black" stroke="black" points="851.31,-117.22 845.92,-108.1 844.45,-118.6 851.31,-117.22"/>
</g>
<!-- libignition&#45;transport4 -->
<g id="node14" class="node">
<title>libignition&#45;transport4</title>
<g id="a_node14"><a xlink:href="https://github.com/conda-forge/libignition-transport4-feedstock/pull/7" xlink:title="libignition transport4">
<ellipse fill="#31688e" stroke="black" cx="1072.5" cy="-162" rx="118.5" ry="18"/>
<text text-anchor="middle" x="1072.5" y="-158.3" font-family="Times,serif" font-size="14.00" fill="white">libignition transport4</text>
</a>
</g>
</g>
<!-- libignition&#45;transport4&#45;&gt;conda&#45;forge&#45;pinning -->
<g id="edge18" class="edge">
<title>libignition&#45;transport4&#45;&gt;conda&#45;forge&#45;pinning</title>
<path fill="none" stroke="black" d="M1056.58,-143.99C1036.05,-123.24 998.26,-88.86 958.5,-72 910.23,-51.53 777.22,-36.12 682.66,-27.33"/>
<polygon fill="black" stroke="black" points="682.76,-23.82 672.49,-26.4 682.12,-30.79 682.76,-23.82"/>
</g>
<!-- gazebo -->
<g id="node15" class="node">
<title>gazebo</title>
<g id="a_node15"><a xlink:href="https://github.com/conda-forge/gazebo-feedstock" xlink:title="gazebo">
<ellipse fill="#35b779" stroke="black" cx="1203.5" cy="-234" rx="40.5" ry="18"/>
<text text-anchor="middle" x="1203.5" y="-230.3" font-family="Times,serif" font-size="14.00">gazebo</text>
</a>
</g>
</g>
<!-- gazebo&#45;&gt;conda&#45;forge&#45;pinning -->
<g id="edge19" class="edge">
<title>gazebo&#45;&gt;conda&#45;forge&#45;pinning</title>
<path fill="none" stroke="black" d="M1207.86,-216.1C1211.8,-196.73 1214.88,-164.94 1199.5,-144 1144.07,-68.53 1092.52,-93.99 1001.5,-72 895.77,-46.46 771.95,-32.75 686.08,-25.72"/>
<polygon fill="black" stroke="black" points="686.31,-22.23 676.07,-24.92 685.75,-29.21 686.31,-22.23"/>
</g>
<!-- libignition&#45;fuel&#45;tools -->
<g id="node16" class="node">
<title>libignition&#45;fuel&#45;tools</title>
<g id="a_node16"><a xlink:href="https://github.com/conda-forge/libignition-fuel-tools-feedstock/pull/5" xlink:title="libignition fuel tools">
<ellipse fill="#31688e" stroke="black" cx="1272.5" cy="-306" rx="118.5" ry="18"/>
<text text-anchor="middle" x="1272.5" y="-302.3" font-family="Times,serif" font-size="14.00" fill="white">libignition fuel tools</text>
</a>
</g>
</g>
<!-- libignition&#45;fuel&#45;tools&#45;&gt;conda&#45;forge&#45;pinning -->
<g id="edge20" class="edge">
<title>libignition&#45;fuel&#45;tools&#45;&gt;conda&#45;forge&#45;pinning</title>
<path fill="none" stroke="black" d="M1271.31,-287.71C1268.23,-255.54 1257.33,-185.96 1219.5,-144 1177.34,-97.24 1157.31,-91.67 1097.5,-72 1024.06,-47.85 817.29,-32.29 688.59,-24.63"/>
<polygon fill="black" stroke="black" points="688.5,-21.12 678.31,-24.03 688.09,-28.11 688.5,-21.12"/>
</g>
<!-- go&#45;cockroach -->
<g id="node17" class="node">
<title>go&#45;cockroach</title>
<g id="a_node17"><a xlink:href="https://github.com/conda-forge/go-cockroach-feedstock/pull/6" xlink:title="go cockroach">
<ellipse fill="#31688e" stroke="black" cx="1419.5" cy="-378" rx="69.59" ry="18"/>
<text text-anchor="middle" x="1419.5" y="-374.3" font-family="Times,serif" font-size="14.00" fill="white">go cockroach</text>
</a>
</g>
</g>
<!-- go&#45;cockroach&#45;&gt;conda&#45;forge&#45;pinning -->
<g id="edge21" class="edge">
<title>go&#45;cockroach&#45;&gt;conda&#45;forge&#45;pinning</title>
<path fill="none" stroke="black" d="M1419.5,-359.95C1419.5,-333.29 1419.5,-280.11 1419.5,-235 1419.5,-235 1419.5,-235 1419.5,-161 1419.5,-36.34 1275.49,-97.69 1153.5,-72 995.62,-38.75 808.89,-26.36 692.55,-21.74"/>
<polygon fill="black" stroke="black" points="692.34,-18.23 682.21,-21.35 692.07,-25.23 692.34,-18.23"/>
</g>
</g>
</svg>
