<?xml version="1.0" encoding="UTF-8" standalone="no"?>
<!DOCTYPE svg PUBLIC "-//W3C//DTD SVG 1.1//EN"
 "http://www.w3.org/Graphics/SVG/1.1/DTD/svg11.dtd">
<!-- Generated by graphviz version 2.42.3 (20191010.1750)
 -->
<!-- Title: %3 Pages: 1 -->
<svg width="1057pt" height="404pt"
 viewBox="0.00 0.00 1057.04 404.00" xmlns="http://www.w3.org/2000/svg" xmlns:xlink="http://www.w3.org/1999/xlink">
<g id="graph0" class="graph" transform="scale(1 1) rotate(0) translate(4 400)">
<title>%3</title>
<polygon fill="white" stroke="transparent" points="-4,4 -4,-400 1053.04,-400 1053.04,4 -4,4"/>
<!-- arrow&#45;cpp -->
<g id="node1" class="node">
<title>arrow&#45;cpp</title>
<g id="a_node1"><a xlink:href="https://github.com/conda-forge/arrow-cpp-feedstock" xlink:title="arrow cpp">
<ellipse fill="#fde725" stroke="black" cx="524.5" cy="-90" rx="54.69" ry="18"/>
<text text-anchor="middle" x="524.5" y="-86.3" font-family="Times,serif" font-size="14.00">arrow cpp</text>
</a>
</g>
</g>
<!-- conda&#45;forge&#45;pinning -->
<g id="node2" class="node">
<title>conda&#45;forge&#45;pinning</title>
<ellipse fill="none" stroke="black" cx="441.5" cy="-18" rx="103.5" ry="18"/>
<text text-anchor="middle" x="441.5" y="-14.3" font-family="Times,serif" font-size="14.00">conda&#45;forge&#45;pinning</text>
</g>
<!-- arrow&#45;cpp&#45;&gt;conda&#45;forge&#45;pinning -->
<g id="edge1" class="edge">
<title>arrow&#45;cpp&#45;&gt;conda&#45;forge&#45;pinning</title>
<path fill="none" stroke="black" d="M505.25,-72.76C494.59,-63.77 481.15,-52.44 469.36,-42.49"/>
<polygon fill="black" stroke="black" points="471.41,-39.65 461.51,-35.88 466.9,-45 471.41,-39.65"/>
</g>
<!-- caffe -->
<g id="node3" class="node">
<title>caffe</title>
<g id="a_node3"><a xlink:href="https://github.com/conda-forge/caffe-feedstock/pull/59" xlink:title="caffe">
<ellipse fill="#31688e" stroke="black" cx="116.5" cy="-90" rx="35.19" ry="18"/>
<text text-anchor="middle" x="116.5" y="-86.3" font-family="Times,serif" font-size="14.00" fill="white">caffe</text>
</a>
</g>
</g>
<!-- caffe&#45;&gt;conda&#45;forge&#45;pinning -->
<g id="edge2" class="edge">
<title>caffe&#45;&gt;conda&#45;forge&#45;pinning</title>
<path fill="none" stroke="black" d="M144.01,-78.68C150.96,-76.28 158.46,-73.89 165.5,-72 228.72,-55.06 301.48,-41.32 356.41,-32.08"/>
<polygon fill="black" stroke="black" points="357.16,-35.5 366.45,-30.4 356.01,-28.59 357.16,-35.5"/>
</g>
<!-- mosh -->
<g id="node4" class="node">
<title>mosh</title>
<g id="a_node4"><a xlink:href="https://github.com/conda-forge/mosh-feedstock/pull/16" xlink:title="mosh">
<ellipse fill="#31688e" stroke="black" cx="168.5" cy="-162" rx="30.59" ry="18"/>
<text text-anchor="middle" x="168.5" y="-158.3" font-family="Times,serif" font-size="14.00" fill="white">mosh</text>
</a>
</g>
</g>
<!-- mosh&#45;&gt;conda&#45;forge&#45;pinning -->
<g id="edge3" class="edge">
<title>mosh&#45;&gt;conda&#45;forge&#45;pinning</title>
<path fill="none" stroke="black" d="M172.39,-144.13C177.96,-123.85 190.21,-90.28 213.5,-72 247.17,-45.57 291.72,-31.92 332.5,-25"/>
<polygon fill="black" stroke="black" points="333.17,-28.44 342.51,-23.43 332.08,-21.53 333.17,-28.44"/>
</g>
<!-- mysql&#45;connector&#45;python -->
<g id="node5" class="node">
<title>mysql&#45;connector&#45;python</title>
<g id="a_node5"><a xlink:href="https://github.com/conda-forge/mysql-connector-python-feedstock/pull/27" xlink:title="mysql connector python">
<ellipse fill="#31688e" stroke="black" cx="118.5" cy="-234" rx="118.5" ry="18"/>
<text text-anchor="middle" x="118.5" y="-230.3" font-family="Times,serif" font-size="14.00" fill="white">mysql connector python</text>
</a>
</g>
</g>
<!-- mysql&#45;connector&#45;python&#45;&gt;conda&#45;forge&#45;pinning -->
<g id="edge4" class="edge">
<title>mysql&#45;connector&#45;python&#45;&gt;conda&#45;forge&#45;pinning</title>
<path fill="none" stroke="black" d="M157.98,-216.88C175.39,-208.13 194.93,-195.83 208.5,-180 242.13,-140.78 213.07,-106.53 251.5,-72 276.32,-49.7 309.76,-36.7 341.67,-29.15"/>
<polygon fill="black" stroke="black" points="342.51,-32.55 351.52,-26.97 341,-25.71 342.51,-32.55"/>
</g>
<!-- onnx -->
<g id="node6" class="node">
<title>onnx</title>
<g id="a_node6"><a xlink:href="https://github.com/conda-forge/onnx-feedstock/pull/43" xlink:title="onnx">
<ellipse fill="#31688e" stroke="black" cx="265.5" cy="-306" rx="30.59" ry="18"/>
<text text-anchor="middle" x="265.5" y="-302.3" font-family="Times,serif" font-size="14.00" fill="white">onnx</text>
</a>
</g>
</g>
<!-- onnx&#45;&gt;conda&#45;forge&#45;pinning -->
<g id="edge5" class="edge">
<title>onnx&#45;&gt;conda&#45;forge&#45;pinning</title>
<path fill="none" stroke="black" d="M263.33,-287.79C258.96,-244.83 254.07,-132.01 313.5,-72 329.57,-55.77 351.33,-44.29 372.35,-36.27"/>
<polygon fill="black" stroke="black" points="373.7,-39.5 381.93,-32.82 371.33,-32.91 373.7,-39.5"/>
</g>
<!-- shogun -->
<g id="node7" class="node">
<title>shogun</title>
<g id="a_node7"><a xlink:href="https://github.com/conda-forge/shogun-feedstock" xlink:title="shogun">
<ellipse fill="#fde725" stroke="black" cx="372.5" cy="-90" rx="40.5" ry="18"/>
<text text-anchor="middle" x="372.5" y="-86.3" font-family="Times,serif" font-size="14.00">shogun</text>
</a>
</g>
</g>
<!-- shogun&#45;&gt;conda&#45;forge&#45;pinning -->
<g id="edge6" class="edge">
<title>shogun&#45;&gt;conda&#45;forge&#45;pinning</title>
<path fill="none" stroke="black" d="M388.16,-73.12C396.9,-64.24 407.98,-53.01 417.77,-43.08"/>
<polygon fill="black" stroke="black" points="420.42,-45.38 424.94,-35.8 415.43,-40.46 420.42,-45.38"/>
</g>
<!-- shogun&#45;cpp -->
<g id="node8" class="node">
<title>shogun&#45;cpp</title>
<g id="a_node8"><a xlink:href="https://github.com/conda-forge/shogun-cpp-feedstock/pull/39" xlink:title="shogun cpp">
<ellipse fill="#31688e" stroke="black" cx="353.5" cy="-162" rx="60" ry="18"/>
<text text-anchor="middle" x="353.5" y="-158.3" font-family="Times,serif" font-size="14.00" fill="white">shogun cpp</text>
</a>
</g>
</g>
<!-- shogun&#45;cpp&#45;&gt;conda&#45;forge&#45;pinning -->
<g id="edge7" class="edge">
<title>shogun&#45;cpp&#45;&gt;conda&#45;forge&#45;pinning</title>
<path fill="none" stroke="black" d="M339.22,-144.18C325.13,-125.44 307.71,-94.78 322.5,-72 333.25,-55.44 350.5,-44.02 368.58,-36.14"/>
<polygon fill="black" stroke="black" points="370.09,-39.31 378.07,-32.34 367.49,-32.81 370.09,-39.31"/>
</g>
<!-- shogun&#45;cpp&#45;&gt;shogun -->
<g id="edge8" class="edge">
<title>shogun&#45;cpp&#45;&gt;shogun</title>
<path fill="none" stroke="black" d="M358.2,-143.7C360.31,-135.9 362.86,-126.51 365.22,-117.83"/>
<polygon fill="black" stroke="black" points="368.62,-118.67 367.86,-108.1 361.86,-116.84 368.62,-118.67"/>
</g>
<!-- libhdfs3 -->
<g id="node9" class="node">
<title>libhdfs3</title>
<g id="a_node9"><a xlink:href="https://github.com/conda-forge/libhdfs3-feedstock/pull/32" xlink:title="libhdfs3">
<ellipse fill="#31688e" stroke="black" cx="441.5" cy="-378" rx="50.09" ry="18"/>
<text text-anchor="middle" x="441.5" y="-374.3" font-family="Times,serif" font-size="14.00" fill="white">libhdfs3</text>
</a>
</g>
</g>
<!-- libhdfs3&#45;&gt;conda&#45;forge&#45;pinning -->
<g id="edge9" class="edge">
<title>libhdfs3&#45;&gt;conda&#45;forge&#45;pinning</title>
<path fill="none" stroke="black" d="M441.5,-359.95C441.5,-333.29 441.5,-280.11 441.5,-235 441.5,-235 441.5,-235 441.5,-161 441.5,-121 441.5,-74.65 441.5,-46.08"/>
<polygon fill="black" stroke="black" points="445,-46.05 441.5,-36.05 438,-46.05 445,-46.05"/>
</g>
<!-- grpc&#45;cpp -->
<g id="node10" class="node">
<title>grpc&#45;cpp</title>
<g id="a_node10"><a xlink:href="https://github.com/conda-forge/grpc-cpp-feedstock/pull/61" xlink:title="grpc cpp">
<ellipse fill="#31688e" stroke="black" cx="626.5" cy="-234" rx="50.09" ry="18"/>
<text text-anchor="middle" x="626.5" y="-230.3" font-family="Times,serif" font-size="14.00" fill="white">grpc cpp</text>
</a>
</g>
</g>
<!-- grpc&#45;cpp&#45;&gt;arrow&#45;cpp -->
<g id="edge10" class="edge">
<title>grpc&#45;cpp&#45;&gt;arrow&#45;cpp</title>
<path fill="none" stroke="black" d="M614.6,-216.43C596.88,-191.77 563.43,-145.2 542.65,-116.27"/>
<polygon fill="black" stroke="black" points="545.32,-113.98 536.64,-107.9 539.63,-118.07 545.32,-113.98"/>
</g>
<!-- grpc&#45;cpp&#45;&gt;conda&#45;forge&#45;pinning -->
<g id="edge11" class="edge">
<title>grpc&#45;cpp&#45;&gt;conda&#45;forge&#45;pinning</title>
<path fill="none" stroke="black" d="M627.44,-215.56C628.23,-183.14 625.2,-113.15 588.5,-72 572,-53.49 548.54,-41.45 525.19,-33.6"/>
<polygon fill="black" stroke="black" points="526.16,-30.24 515.57,-30.6 524.07,-36.92 526.16,-30.24"/>
</g>
<!-- google&#45;cloud&#45;cpp -->
<g id="node11" class="node">
<title>google&#45;cloud&#45;cpp</title>
<g id="a_node11"><a xlink:href="https://github.com/conda-forge/google-cloud-cpp-feedstock" xlink:title="google cloud cpp">
<ellipse fill="#fde725" stroke="black" cx="724.5" cy="-90" rx="89.08" ry="18"/>
<text text-anchor="middle" x="724.5" y="-86.3" font-family="Times,serif" font-size="14.00">google cloud cpp</text>
</a>
</g>
</g>
<!-- grpc&#45;cpp&#45;&gt;google&#45;cloud&#45;cpp -->
<g id="edge12" class="edge">
<title>grpc&#45;cpp&#45;&gt;google&#45;cloud&#45;cpp</title>
<path fill="none" stroke="black" d="M631.34,-215.78C637.18,-196.95 648.27,-166.47 664.5,-144 672.46,-132.97 683.1,-122.64 693.21,-114.07"/>
<polygon fill="black" stroke="black" points="695.61,-116.63 701.14,-107.6 691.18,-111.21 695.61,-116.63"/>
</g>
<!-- googleapis&#45;cpp -->
<g id="node12" class="node">
<title>googleapis&#45;cpp</title>
<g id="a_node12"><a xlink:href="https://github.com/conda-forge/googleapis-cpp-feedstock" xlink:title="googleapis cpp">
<ellipse fill="#fde725" stroke="black" cx="752.5" cy="-162" rx="79.5" ry="18"/>
<text text-anchor="middle" x="752.5" y="-158.3" font-family="Times,serif" font-size="14.00">googleapis cpp</text>
</a>
</g>
</g>
<!-- grpc&#45;cpp&#45;&gt;googleapis&#45;cpp -->
<g id="edge13" class="edge">
<title>grpc&#45;cpp&#45;&gt;googleapis&#45;cpp</title>
<path fill="none" stroke="black" d="M652.61,-218.5C670.61,-208.49 694.82,-195.05 714.89,-183.89"/>
<polygon fill="black" stroke="black" points="716.75,-186.87 723.79,-178.95 713.35,-180.75 716.75,-186.87"/>
</g>
<!-- google&#45;cloud&#45;cpp&#45;&gt;conda&#45;forge&#45;pinning -->
<g id="edge14" class="edge">
<title>google&#45;cloud&#45;cpp&#45;&gt;conda&#45;forge&#45;pinning</title>
<path fill="none" stroke="black" d="M670.6,-75.67C624.54,-64.28 558.06,-47.83 508.57,-35.59"/>
<polygon fill="black" stroke="black" points="509.14,-32.13 498.59,-33.12 507.46,-38.92 509.14,-32.13"/>
</g>
<!-- googleapis&#45;cpp&#45;&gt;conda&#45;forge&#45;pinning -->
<g id="edge15" class="edge">
<title>googleapis&#45;cpp&#45;&gt;conda&#45;forge&#45;pinning</title>
<path fill="none" stroke="black" d="M784.61,-145.44C798.99,-136.63 814.49,-124.11 822.5,-108 829.62,-93.67 833.01,-84.07 822.5,-72 788.37,-32.8 654.89,-21.67 555.49,-18.98"/>
<polygon fill="black" stroke="black" points="555.46,-15.47 545.38,-18.73 555.29,-22.47 555.46,-15.47"/>
</g>
<!-- googleapis&#45;cpp&#45;&gt;google&#45;cloud&#45;cpp -->
<g id="edge16" class="edge">
<title>googleapis&#45;cpp&#45;&gt;google&#45;cloud&#45;cpp</title>
<path fill="none" stroke="black" d="M745.72,-144.05C742.57,-136.18 738.75,-126.62 735.22,-117.79"/>
<polygon fill="black" stroke="black" points="738.37,-116.26 731.41,-108.28 731.87,-118.86 738.37,-116.26"/>
</g>
<!-- gazebo -->
<g id="node13" class="node">
<title>gazebo</title>
<g id="a_node13"><a xlink:href="https://github.com/conda-forge/gazebo-feedstock/pull/17" xlink:title="gazebo">
<ellipse fill="#31688e" stroke="black" cx="910.5" cy="-90" rx="40.5" ry="18"/>
<text text-anchor="middle" x="910.5" y="-86.3" font-family="Times,serif" font-size="14.00" fill="white">gazebo</text>
</a>
</g>
</g>
<!-- gazebo&#45;&gt;conda&#45;forge&#45;pinning -->
<g id="edge17" class="edge">
<title>gazebo&#45;&gt;conda&#45;forge&#45;pinning</title>
<path fill="none" stroke="black" d="M879.34,-78.35C871.62,-75.99 863.31,-73.69 855.5,-72 750.53,-49.24 628.33,-35.07 544.04,-27.17"/>
<polygon fill="black" stroke="black" points="544.23,-23.67 533.95,-26.24 543.58,-30.64 544.23,-23.67"/>
</g>
<!-- go&#45;cockroach -->
<g id="node14" class="node">
<title>go&#45;cockroach</title>
<g id="a_node14"><a xlink:href="https://github.com/conda-forge/go-cockroach-feedstock/pull/6" xlink:title="go cockroach">
<ellipse fill="#31688e" stroke="black" cx="979.5" cy="-162" rx="69.59" ry="18"/>
<text text-anchor="middle" x="979.5" y="-158.3" font-family="Times,serif" font-size="14.00" fill="white">go cockroach</text>
</a>
</g>
</g>
<!-- go&#45;cockroach&#45;&gt;conda&#45;forge&#45;pinning -->
<g id="edge18" class="edge">
<title>go&#45;cockroach&#45;&gt;conda&#45;forge&#45;pinning</title>
<path fill="none" stroke="black" d="M981.28,-143.69C982.31,-123.3 980.49,-89.93 960.5,-72 930.71,-45.28 694.63,-30.19 551.33,-23.41"/>
<polygon fill="black" stroke="black" points="551.33,-19.91 541.18,-22.94 551.01,-26.9 551.33,-19.91"/>
</g>
</g>
</svg>
