<?xml version="1.0" encoding="UTF-8" standalone="no"?>
<!DOCTYPE svg PUBLIC "-//W3C//DTD SVG 1.1//EN"
 "http://www.w3.org/Graphics/SVG/1.1/DTD/svg11.dtd">
<!-- Generated by graphviz version 2.42.3 (20191010.1750)
 -->
<!-- Title: %3 Pages: 1 -->
<svg width="1021pt" height="116pt"
 viewBox="0.00 0.00 1021.14 116.00" xmlns="http://www.w3.org/2000/svg" xmlns:xlink="http://www.w3.org/1999/xlink">
<g id="graph0" class="graph" transform="scale(1 1) rotate(0) translate(4 112)">
<title>%3</title>
<polygon fill="white" stroke="transparent" points="-4,4 -4,-112 1017.14,-112 1017.14,4 -4,4"/>
<!-- batman -->
<g id="node1" class="node">
<title>batman</title>
<g id="a_node1"><a xlink:href="https://github.com/conda-forge/batman-feedstock" xlink:title="batman">
<ellipse fill="#35b779" stroke="black" cx="40.3" cy="-90" rx="40.09" ry="18"/>
<text text-anchor="middle" x="40.3" y="-86.3" font-family="Times,serif" font-size="14.00">batman</text>
</a>
</g>
</g>
<!-- conda&#45;forge&#45;pinning -->
<g id="node10" class="node">
<title>conda&#45;forge&#45;pinning</title>
<ellipse fill="none" stroke="black" cx="473.3" cy="-18" rx="103.18" ry="18"/>
<text text-anchor="middle" x="473.3" y="-14.3" font-family="Times,serif" font-size="14.00">conda&#45;forge&#45;pinning</text>
</g>
<!-- batman&#45;&gt;conda&#45;forge&#45;pinning -->
<g id="edge1" class="edge">
<title>batman&#45;&gt;conda&#45;forge&#45;pinning</title>
<path fill="none" stroke="black" d="M70.17,-77.81C76.73,-75.64 83.69,-73.56 90.3,-72 184.69,-49.64 294.56,-35.63 372.35,-27.68"/>
<polygon fill="black" stroke="black" points="373.03,-31.13 382.63,-26.64 372.33,-24.16 373.03,-31.13"/>
</g>
<!-- otfftw -->
<g id="node2" class="node">
<title>otfftw</title>
<g id="a_node2"><a xlink:href="https://github.com/conda-forge/otfftw-feedstock" xlink:title="otfftw">
<ellipse fill="#35b779" stroke="black" cx="139.3" cy="-90" rx="40.09" ry="18"/>
<text text-anchor="middle" x="139.3" y="-86.3" font-family="Times,serif" font-size="14.00">otfftw</text>
</a>
</g>
</g>
<!-- otfftw&#45;&gt;conda&#45;forge&#45;pinning -->
<g id="edge2" class="edge">
<title>otfftw&#45;&gt;conda&#45;forge&#45;pinning</title>
<path fill="none" stroke="black" d="M169.14,-77.85C175.41,-75.73 182.03,-73.66 188.3,-72 253.93,-54.62 329.53,-40.84 386.37,-31.69"/>
<polygon fill="black" stroke="black" points="387.07,-35.12 396.4,-30.09 385.97,-28.21 387.07,-35.12"/>
</g>
<!-- otmixmod -->
<g id="node3" class="node">
<title>otmixmod</title>
<g id="a_node3"><a xlink:href="https://github.com/conda-forge/otmixmod-feedstock" xlink:title="otmixmod">
<ellipse fill="#35b779" stroke="black" cx="247.3" cy="-90" rx="50.09" ry="18"/>
<text text-anchor="middle" x="247.3" y="-86.3" font-family="Times,serif" font-size="14.00">otmixmod</text>
</a>
</g>
</g>
<!-- otmixmod&#45;&gt;conda&#45;forge&#45;pinning -->
<g id="edge3" class="edge">
<title>otmixmod&#45;&gt;conda&#45;forge&#45;pinning</title>
<path fill="none" stroke="black" d="M283.86,-77.68C319.36,-66.68 373.83,-49.81 415.26,-36.98"/>
<polygon fill="black" stroke="black" points="416.44,-40.28 424.95,-33.97 414.37,-33.59 416.44,-40.28"/>
</g>
<!-- otmorris -->
<g id="node4" class="node">
<title>otmorris</title>
<g id="a_node4"><a xlink:href="https://github.com/conda-forge/otmorris-feedstock" xlink:title="otmorris">
<ellipse fill="#35b779" stroke="black" cx="365.3" cy="-90" rx="50.09" ry="18"/>
<text text-anchor="middle" x="365.3" y="-86.3" font-family="Times,serif" font-size="14.00">otmorris</text>
</a>
</g>
</g>
<!-- otmorris&#45;&gt;conda&#45;forge&#45;pinning -->
<g id="edge4" class="edge">
<title>otmorris&#45;&gt;conda&#45;forge&#45;pinning</title>
<path fill="none" stroke="black" d="M388.47,-73.98C403.21,-64.42 422.57,-51.88 439.08,-41.18"/>
<polygon fill="black" stroke="black" points="441.41,-43.84 447.9,-35.46 437.61,-37.96 441.41,-43.84"/>
</g>
<!-- otpmml -->
<g id="node5" class="node">
<title>otpmml</title>
<g id="a_node5"><a xlink:href="https://github.com/conda-forge/otpmml-feedstock" xlink:title="otpmml">
<ellipse fill="#35b779" stroke="black" cx="473.3" cy="-90" rx="40.09" ry="18"/>
<text text-anchor="middle" x="473.3" y="-86.3" font-family="Times,serif" font-size="14.00">otpmml</text>
</a>
</g>
</g>
<!-- otpmml&#45;&gt;conda&#45;forge&#45;pinning -->
<g id="edge5" class="edge">
<title>otpmml&#45;&gt;conda&#45;forge&#45;pinning</title>
<path fill="none" stroke="black" d="M473.3,-71.7C473.3,-63.98 473.3,-54.71 473.3,-46.11"/>
<polygon fill="black" stroke="black" points="476.8,-46.1 473.3,-36.1 469.8,-46.1 476.8,-46.1"/>
</g>
<!-- otrobopt -->
<g id="node6" class="node">
<title>otrobopt</title>
<g id="a_node6"><a xlink:href="https://github.com/conda-forge/otrobopt-feedstock" xlink:title="otrobopt">
<ellipse fill="#35b779" stroke="black" cx="581.3" cy="-90" rx="50.09" ry="18"/>
<text text-anchor="middle" x="581.3" y="-86.3" font-family="Times,serif" font-size="14.00">otrobopt</text>
</a>
</g>
</g>
<!-- otrobopt&#45;&gt;conda&#45;forge&#45;pinning -->
<g id="edge6" class="edge">
<title>otrobopt&#45;&gt;conda&#45;forge&#45;pinning</title>
<path fill="none" stroke="black" d="M558.13,-73.98C543.38,-64.42 524.02,-51.88 507.52,-41.18"/>
<polygon fill="black" stroke="black" points="508.99,-37.96 498.69,-35.46 505.18,-43.84 508.99,-37.96"/>
</g>
<!-- otsvm -->
<g id="node7" class="node">
<title>otsvm</title>
<g id="a_node7"><a xlink:href="https://github.com/conda-forge/otsvm-feedstock/pull/22" xlink:title="otsvm">
<ellipse fill="#31688e" stroke="black" cx="684.3" cy="-90" rx="35.19" ry="18"/>
<text text-anchor="middle" x="684.3" y="-86.3" font-family="Times,serif" font-size="14.00" fill="white">otsvm</text>
</a>
</g>
</g>
<!-- otsvm&#45;&gt;conda&#45;forge&#45;pinning -->
<g id="edge7" class="edge">
<title>otsvm&#45;&gt;conda&#45;forge&#45;pinning</title>
<path fill="none" stroke="black" d="M657.4,-78.31C651.77,-76.16 645.86,-73.96 640.3,-72 604.8,-59.52 564.61,-46.73 532.56,-36.84"/>
<polygon fill="black" stroke="black" points="533.47,-33.46 522.88,-33.86 531.42,-40.15 533.47,-33.46"/>
</g>
<!-- otsubsetinverse -->
<g id="node8" class="node">
<title>otsubsetinverse</title>
<g id="a_node8"><a xlink:href="https://github.com/conda-forge/otsubsetinverse-feedstock/pull/12" xlink:title="otsubsetinverse">
<ellipse fill="#31688e" stroke="black" cx="821.3" cy="-90" rx="83.69" ry="18"/>
<text text-anchor="middle" x="821.3" y="-86.3" font-family="Times,serif" font-size="14.00" fill="white">otsubsetinverse</text>
</a>
</g>
</g>
<!-- otsubsetinverse&#45;&gt;conda&#45;forge&#45;pinning -->
<g id="edge8" class="edge">
<title>otsubsetinverse&#45;&gt;conda&#45;forge&#45;pinning</title>
<path fill="none" stroke="black" d="M762.26,-77.13C703.27,-65.26 612.36,-46.97 548.29,-34.08"/>
<polygon fill="black" stroke="black" points="548.74,-30.61 538.25,-32.06 547.36,-37.47 548.74,-30.61"/>
</g>
<!-- otagrum -->
<g id="node9" class="node">
<title>otagrum</title>
<g id="a_node9"><a xlink:href="https://github.com/conda-forge/otagrum-feedstock" xlink:title="otagrum">
<ellipse fill="#35b779" stroke="black" cx="968.3" cy="-90" rx="44.69" ry="18"/>
<text text-anchor="middle" x="968.3" y="-86.3" font-family="Times,serif" font-size="14.00">otagrum</text>
</a>
</g>
</g>
<!-- otagrum&#45;&gt;conda&#45;forge&#45;pinning -->
<g id="edge9" class="edge">
<title>otagrum&#45;&gt;conda&#45;forge&#45;pinning</title>
<path fill="none" stroke="black" d="M935.43,-77.59C928.51,-75.49 921.21,-73.49 914.3,-72 800.7,-47.51 668.03,-33.49 578.11,-26.1"/>
<polygon fill="black" stroke="black" points="578.15,-22.59 567.9,-25.27 577.59,-29.57 578.15,-22.59"/>
</g>
</g>
</svg>
