<?xml version="1.0" encoding="UTF-8" standalone="no"?>
<!DOCTYPE svg PUBLIC "-//W3C//DTD SVG 1.1//EN"
 "http://www.w3.org/Graphics/SVG/1.1/DTD/svg11.dtd">
<!-- Generated by graphviz version 2.42.3 (20191010.1750)
 -->
<!-- Title: %3 Pages: 1 -->
<svg width="215pt" height="116pt"
 viewBox="0.00 0.00 214.68 116.00" xmlns="http://www.w3.org/2000/svg" xmlns:xlink="http://www.w3.org/1999/xlink">
<g id="graph0" class="graph" transform="scale(1 1) rotate(0) translate(4 112)">
<title>%3</title>
<polygon fill="white" stroke="transparent" points="-4,4 -4,-112 210.68,-112 210.68,4 -4,4"/>
<!-- batman -->
<g id="node1" class="node">
<title>batman</title>
<g id="a_node1"><a xlink:href="https://github.com/conda-forge/batman-feedstock/pull/18" xlink:title="batman">
<ellipse fill="#31688e" stroke="black" cx="52.34" cy="-90" rx="40.09" ry="18"/>
<text text-anchor="middle" x="52.34" y="-86.3" font-family="Times,serif" font-size="14.00" fill="white">batman</text>
</a>
</g>
</g>
<!-- conda&#45;forge&#45;pinning -->
<g id="node3" class="node">
<title>conda&#45;forge&#45;pinning</title>
<ellipse fill="none" stroke="black" cx="103.34" cy="-18" rx="103.18" ry="18"/>
<text text-anchor="middle" x="103.34" y="-14.3" font-family="Times,serif" font-size="14.00">conda&#45;forge&#45;pinning</text>
</g>
<!-- batman&#45;&gt;conda&#45;forge&#45;pinning -->
<g id="edge1" class="edge">
<title>batman&#45;&gt;conda&#45;forge&#45;pinning</title>
<path fill="none" stroke="black" d="M64.17,-72.76C70.3,-64.35 77.92,-53.89 84.81,-44.44"/>
<polygon fill="black" stroke="black" points="87.81,-46.27 90.86,-36.12 82.15,-42.15 87.81,-46.27"/>
</g>
<!-- otagrum -->
<g id="node2" class="node">
<title>otagrum</title>
<g id="a_node2"><a xlink:href="https://github.com/conda-forge/otagrum-feedstock/pull/11" xlink:title="otagrum">
<ellipse fill="#31688e" stroke="black" cx="155.34" cy="-90" rx="44.69" ry="18"/>
<text text-anchor="middle" x="155.34" y="-86.3" font-family="Times,serif" font-size="14.00" fill="white">otagrum</text>
</a>
</g>
</g>
<!-- otagrum&#45;&gt;conda&#45;forge&#45;pinning -->
<g id="edge2" class="edge">
<title>otagrum&#45;&gt;conda&#45;forge&#45;pinning</title>
<path fill="none" stroke="black" d="M143.02,-72.41C136.76,-63.99 129.03,-53.58 122.06,-44.2"/>
<polygon fill="black" stroke="black" points="124.71,-41.9 115.94,-35.96 119.09,-46.07 124.71,-41.9"/>
</g>
</g>
</svg>
