<?xml version="1.0" encoding="UTF-8" standalone="no"?>
<!DOCTYPE svg PUBLIC "-//W3C//DTD SVG 1.1//EN"
 "http://www.w3.org/Graphics/SVG/1.1/DTD/svg11.dtd">
<!-- Generated by graphviz version 2.42.3 (20191010.1750)
 -->
<!-- Title: %3 Pages: 1 -->
<svg width="1573pt" height="592pt"
 viewBox="0.00 0.00 1573.00 592.00" xmlns="http://www.w3.org/2000/svg" xmlns:xlink="http://www.w3.org/1999/xlink">
<g id="graph0" class="graph" transform="scale(1 1) rotate(0) translate(4 588)">
<title>%3</title>
<polygon fill="white" stroke="transparent" points="-4,4 -4,-588 1569,-588 1569,4 -4,4"/>
<!-- r&#45;fst -->
<g id="node1" class="node">
<title>r&#45;fst</title>
<g id="a_node1"><a xlink:href="https://github.com/conda-forge/r-fst-feedstock/pull/11" xlink:title="r fst">
<ellipse fill="#31688e" stroke="black" cx="610.5" cy="-90" rx="35.19" ry="18"/>
<text text-anchor="middle" x="610.5" y="-86.3" font-family="Times,serif" font-size="14.00" fill="white">r fst</text>
</a>
</g>
</g>
<!-- r&#45;disk.frame -->
<g id="node2" class="node">
<title>r&#45;disk.frame</title>
<g id="a_node2"><a xlink:href="https://github.com/conda-forge/r-disk.frame-feedstock" xlink:title="r disk frame">
<ellipse fill="#fde725" stroke="black" cx="610.5" cy="-18" rx="69.59" ry="18"/>
<text text-anchor="middle" x="610.5" y="-14.3" font-family="Times,serif" font-size="14.00">r disk frame</text>
</a>
</g>
</g>
<!-- r&#45;fst&#45;&gt;r&#45;disk.frame -->
<g id="edge1" class="edge">
<title>r&#45;fst&#45;&gt;r&#45;disk.frame</title>
<path fill="none" stroke="black" d="M610.5,-71.7C610.5,-63.98 610.5,-54.71 610.5,-46.11"/>
<polygon fill="black" stroke="black" points="614,-46.1 610.5,-36.1 607,-46.1 614,-46.1"/>
</g>
<!-- r&#45;hive -->
<g id="node3" class="node">
<title>r&#45;hive</title>
<g id="a_node3"><a xlink:href="https://github.com/conda-forge/r-hive-feedstock" xlink:title="r hive">
<ellipse fill="#fde725" stroke="black" cx="112.5" cy="-494" rx="40.5" ry="18"/>
<text text-anchor="middle" x="112.5" y="-490.3" font-family="Times,serif" font-size="14.00">r hive</text>
</a>
</g>
</g>
<!-- r&#45;rjava -->
<g id="node4" class="node">
<title>r&#45;rjava</title>
<g id="a_node4"><a xlink:href="https://github.com/conda-forge/r-rjava-feedstock" xlink:title="r rjava">
<ellipse fill="#35b779" stroke="black" cx="547.5" cy="-566" rx="45" ry="18"/>
<text text-anchor="middle" x="547.5" y="-562.3" font-family="Times,serif" font-size="14.00">r rjava</text>
</a>
</g>
</g>
<!-- r&#45;rjava&#45;&gt;r&#45;hive -->
<g id="edge2" class="edge">
<title>r&#45;rjava&#45;&gt;r&#45;hive</title>
<path fill="none" stroke="black" d="M504.07,-561.24C433.06,-554.58 287.94,-538.83 167.5,-512 162.87,-510.97 158.06,-509.73 153.3,-508.41"/>
<polygon fill="black" stroke="black" points="154.26,-505.04 143.68,-505.59 152.29,-511.76 154.26,-505.04"/>
</g>
<!-- r&#45;xlsx -->
<g id="node5" class="node">
<title>r&#45;xlsx</title>
<g id="a_node5"><a xlink:href="https://github.com/conda-forge/r-xlsx-feedstock" xlink:title="r xlsx">
<ellipse fill="#fde725" stroke="black" cx="421.5" cy="-350" rx="40.5" ry="18"/>
<text text-anchor="middle" x="421.5" y="-346.3" font-family="Times,serif" font-size="14.00">r xlsx</text>
</a>
</g>
</g>
<!-- r&#45;rjava&#45;&gt;r&#45;xlsx -->
<g id="edge3" class="edge">
<title>r&#45;rjava&#45;&gt;r&#45;xlsx</title>
<path fill="none" stroke="black" d="M542.78,-547.89C532.54,-511.5 507.79,-427.81 490.5,-404 480.91,-390.79 467.12,-379.29 454.39,-370.41"/>
<polygon fill="black" stroke="black" points="456.07,-367.32 445.8,-364.69 452.19,-373.15 456.07,-367.32"/>
</g>
<!-- r&#45;xlsxjars -->
<g id="node6" class="node">
<title>r&#45;xlsxjars</title>
<g id="a_node6"><a xlink:href="https://github.com/conda-forge/r-xlsxjars-feedstock" xlink:title="r xlsxjars">
<ellipse fill="#fde725" stroke="black" cx="421.5" cy="-422" rx="60" ry="18"/>
<text text-anchor="middle" x="421.5" y="-418.3" font-family="Times,serif" font-size="14.00">r xlsxjars</text>
</a>
</g>
</g>
<!-- r&#45;rjava&#45;&gt;r&#45;xlsxjars -->
<g id="edge4" class="edge">
<title>r&#45;rjava&#45;&gt;r&#45;xlsxjars</title>
<path fill="none" stroke="black" d="M531.22,-549.09C520.78,-538.74 507.08,-524.82 495.5,-512 476.34,-490.79 455.63,-465.68 441.01,-447.55"/>
<polygon fill="black" stroke="black" points="443.73,-445.35 434.74,-439.75 438.27,-449.74 443.73,-445.35"/>
</g>
<!-- r&#45;xlconnectjars -->
<g id="node7" class="node">
<title>r&#45;xlconnectjars</title>
<g id="a_node7"><a xlink:href="https://github.com/conda-forge/r-xlconnectjars-feedstock" xlink:title="r xlconnectjars">
<ellipse fill="#fde725" stroke="black" cx="86.5" cy="-350" rx="84" ry="18"/>
<text text-anchor="middle" x="86.5" y="-346.3" font-family="Times,serif" font-size="14.00">r xlconnectjars</text>
</a>
</g>
</g>
<!-- r&#45;rjava&#45;&gt;r&#45;xlconnectjars -->
<g id="edge5" class="edge">
<title>r&#45;rjava&#45;&gt;r&#45;xlconnectjars</title>
<path fill="none" stroke="black" d="M503.32,-562.32C422.55,-556.74 254.85,-541.85 205.5,-512 152.26,-479.8 115.29,-413.91 97.87,-377.19"/>
<polygon fill="black" stroke="black" points="101.04,-375.7 93.67,-368.09 94.68,-378.64 101.04,-375.7"/>
</g>
<!-- r&#45;xlconnect -->
<g id="node8" class="node">
<title>r&#45;xlconnect</title>
<g id="a_node8"><a xlink:href="https://github.com/conda-forge/r-xlconnect-feedstock" xlink:title="r xlconnect">
<ellipse fill="#fde725" stroke="black" cx="64.5" cy="-278" rx="64.5" ry="18"/>
<text text-anchor="middle" x="64.5" y="-274.3" font-family="Times,serif" font-size="14.00">r xlconnect</text>
</a>
</g>
</g>
<!-- r&#45;rjava&#45;&gt;r&#45;xlconnect -->
<g id="edge6" class="edge">
<title>r&#45;rjava&#45;&gt;r&#45;xlconnect</title>
<path fill="none" stroke="black" d="M503.41,-562.29C430.59,-556.98 289.44,-542.92 251.5,-512 184.71,-457.57 238.84,-394.47 179.5,-332 163.22,-314.86 140.33,-302.77 119.25,-294.51"/>
<polygon fill="black" stroke="black" points="120.31,-291.17 109.72,-290.98 117.88,-297.73 120.31,-291.17"/>
</g>
<!-- r&#45;rcdklibs -->
<g id="node9" class="node">
<title>r&#45;rcdklibs</title>
<g id="a_node9"><a xlink:href="https://github.com/conda-forge/r-rcdklibs-feedstock" xlink:title="r rcdklibs">
<ellipse fill="#fde725" stroke="black" cx="207.5" cy="-278" rx="60" ry="18"/>
<text text-anchor="middle" x="207.5" y="-274.3" font-family="Times,serif" font-size="14.00">r rcdklibs</text>
</a>
</g>
</g>
<!-- r&#45;rjava&#45;&gt;r&#45;rcdklibs -->
<g id="edge7" class="edge">
<title>r&#45;rjava&#45;&gt;r&#45;rcdklibs</title>
<path fill="none" stroke="black" d="M503.71,-561.81C436.69,-556.05 313.1,-541.64 281.5,-512 221.11,-455.36 262.54,-409.54 233.5,-332 230.1,-322.93 225.68,-313.34 221.44,-304.85"/>
<polygon fill="black" stroke="black" points="224.48,-303.11 216.8,-295.81 218.25,-306.31 224.48,-303.11"/>
</g>
<!-- r&#45;rcdk -->
<g id="node10" class="node">
<title>r&#45;rcdk</title>
<g id="a_node10"><a xlink:href="https://github.com/conda-forge/r-rcdk-feedstock" xlink:title="r rcdk">
<ellipse fill="#fde725" stroke="black" cx="196.5" cy="-206" rx="40.5" ry="18"/>
<text text-anchor="middle" x="196.5" y="-202.3" font-family="Times,serif" font-size="14.00">r rcdk</text>
</a>
</g>
</g>
<!-- r&#45;rjava&#45;&gt;r&#45;rcdk -->
<g id="edge8" class="edge">
<title>r&#45;rjava&#45;&gt;r&#45;rcdk</title>
<path fill="none" stroke="black" d="M502.98,-562.7C459.64,-558.41 393.86,-546.27 348.5,-512 311.77,-484.25 295.5,-469.04 295.5,-423 295.5,-423 295.5,-423 295.5,-349 295.5,-308.55 299.27,-293.43 276.5,-260 265.99,-244.58 249.36,-232.5 233.98,-223.8"/>
<polygon fill="black" stroke="black" points="235.6,-220.69 225.13,-219.07 232.3,-226.87 235.6,-220.69"/>
</g>
<!-- r&#45;rchoicedialogs -->
<g id="node11" class="node">
<title>r&#45;rchoicedialogs</title>
<g id="a_node11"><a xlink:href="https://github.com/conda-forge/r-rchoicedialogs-feedstock" xlink:title="r rchoicedialogs">
<ellipse fill="#fde725" stroke="black" cx="344.5" cy="-206" rx="89.08" ry="18"/>
<text text-anchor="middle" x="344.5" y="-202.3" font-family="Times,serif" font-size="14.00">r rchoicedialogs</text>
</a>
</g>
</g>
<!-- r&#45;rjava&#45;&gt;r&#45;rchoicedialogs -->
<g id="edge9" class="edge">
<title>r&#45;rjava&#45;&gt;r&#45;rchoicedialogs</title>
<path fill="none" stroke="black" d="M507.75,-557.44C445.86,-543.11 333.5,-505.71 333.5,-423 333.5,-423 333.5,-423 333.5,-349 333.5,-308.88 337.92,-262.57 341.16,-234.03"/>
<polygon fill="black" stroke="black" points="344.64,-234.36 342.33,-224.02 337.69,-233.54 344.64,-234.36"/>
</g>
<!-- r&#45;rwekajars -->
<g id="node12" class="node">
<title>r&#45;rwekajars</title>
<g id="a_node12"><a xlink:href="https://github.com/conda-forge/r-rwekajars-feedstock" xlink:title="r rwekajars">
<ellipse fill="#fde725" stroke="black" cx="738.5" cy="-494" rx="64.5" ry="18"/>
<text text-anchor="middle" x="738.5" y="-490.3" font-family="Times,serif" font-size="14.00">r rwekajars</text>
</a>
</g>
</g>
<!-- r&#45;rjava&#45;&gt;r&#45;rwekajars -->
<g id="edge10" class="edge">
<title>r&#45;rjava&#45;&gt;r&#45;rwekajars</title>
<path fill="none" stroke="black" d="M579.47,-553.28C610.05,-542.08 656.53,-525.04 691.35,-512.28"/>
<polygon fill="black" stroke="black" points="692.66,-515.53 700.84,-508.8 690.25,-508.96 692.66,-515.53"/>
</g>
<!-- r&#45;rweka -->
<g id="node13" class="node">
<title>r&#45;rweka</title>
<g id="a_node13"><a xlink:href="https://github.com/conda-forge/r-rweka-feedstock" xlink:title="r rweka">
<ellipse fill="#fde725" stroke="black" cx="758.5" cy="-422" rx="45" ry="18"/>
<text text-anchor="middle" x="758.5" y="-418.3" font-family="Times,serif" font-size="14.00">r rweka</text>
</a>
</g>
</g>
<!-- r&#45;rjava&#45;&gt;r&#45;rweka -->
<g id="edge11" class="edge">
<title>r&#45;rjava&#45;&gt;r&#45;rweka</title>
<path fill="none" stroke="black" d="M566.37,-549.36C589.02,-530.9 628.47,-499.7 664.5,-476 683.29,-463.64 705.14,-451.21 723.03,-441.5"/>
<polygon fill="black" stroke="black" points="724.84,-444.5 732,-436.69 721.53,-438.34 724.84,-444.5"/>
</g>
<!-- r&#45;subspace -->
<g id="node14" class="node">
<title>r&#45;subspace</title>
<g id="a_node14"><a xlink:href="https://github.com/conda-forge/r-subspace-feedstock" xlink:title="r subspace">
<ellipse fill="#fde725" stroke="black" cx="635.5" cy="-422" rx="60" ry="18"/>
<text text-anchor="middle" x="635.5" y="-418.3" font-family="Times,serif" font-size="14.00">r subspace</text>
</a>
</g>
</g>
<!-- r&#45;rjava&#45;&gt;r&#45;subspace -->
<g id="edge12" class="edge">
<title>r&#45;rjava&#45;&gt;r&#45;subspace</title>
<path fill="none" stroke="black" d="M557.77,-548.43C572.99,-523.88 601.66,-477.6 619.61,-448.65"/>
<polygon fill="black" stroke="black" points="622.73,-450.25 625.03,-439.9 616.78,-446.56 622.73,-450.25"/>
</g>
<!-- r&#45;rmcfs -->
<g id="node15" class="node">
<title>r&#45;rmcfs</title>
<g id="a_node15"><a xlink:href="https://github.com/conda-forge/r-rmcfs-feedstock" xlink:title="r rmcfs">
<ellipse fill="#fde725" stroke="black" cx="525.5" cy="-350" rx="45" ry="18"/>
<text text-anchor="middle" x="525.5" y="-346.3" font-family="Times,serif" font-size="14.00">r rmcfs</text>
</a>
</g>
</g>
<!-- r&#45;rjava&#45;&gt;r&#45;rmcfs -->
<g id="edge13" class="edge">
<title>r&#45;rjava&#45;&gt;r&#45;rmcfs</title>
<path fill="none" stroke="black" d="M545.74,-547.85C541.93,-510.83 532.92,-423.18 528.32,-378.39"/>
<polygon fill="black" stroke="black" points="531.78,-377.82 527.27,-368.23 524.81,-378.54 531.78,-377.82"/>
</g>
<!-- r&#45;rjdbc -->
<g id="node16" class="node">
<title>r&#45;rjdbc</title>
<g id="a_node16"><a xlink:href="https://github.com/conda-forge/r-rjdbc-feedstock" xlink:title="r rjdbc">
<ellipse fill="#fde725" stroke="black" cx="952.5" cy="-278" rx="45" ry="18"/>
<text text-anchor="middle" x="952.5" y="-274.3" font-family="Times,serif" font-size="14.00">r rjdbc</text>
</a>
</g>
</g>
<!-- r&#45;rjava&#45;&gt;r&#45;rjdbc -->
<g id="edge14" class="edge">
<title>r&#45;rjava&#45;&gt;r&#45;rjdbc</title>
<path fill="none" stroke="black" d="M591.77,-562.24C669.11,-556.7 824.86,-542.06 869.5,-512 938.02,-465.85 950.43,-357.48 952.37,-306.47"/>
<polygon fill="black" stroke="black" points="955.87,-306.3 952.64,-296.21 948.87,-306.11 955.87,-306.3"/>
</g>
<!-- r&#45;tabulizer -->
<g id="node17" class="node">
<title>r&#45;tabulizer</title>
<g id="a_node17"><a xlink:href="https://github.com/conda-forge/r-tabulizer-feedstock" xlink:title="r tabulizer">
<ellipse fill="#fde725" stroke="black" cx="1081.5" cy="-134" rx="64.5" ry="18"/>
<text text-anchor="middle" x="1081.5" y="-130.3" font-family="Times,serif" font-size="14.00">r tabulizer</text>
</a>
</g>
</g>
<!-- r&#45;rjava&#45;&gt;r&#45;tabulizer -->
<g id="edge15" class="edge">
<title>r&#45;rjava&#45;&gt;r&#45;tabulizer</title>
<path fill="none" stroke="black" d="M592.58,-564.94C661.62,-563.4 796.56,-554.59 901.5,-512 964.36,-486.49 1025.5,-490.84 1025.5,-423 1025.5,-423 1025.5,-423 1025.5,-277 1025.5,-236.55 1028.38,-225.1 1044.5,-188 1048.79,-178.12 1055.07,-168.2 1061.24,-159.65"/>
<polygon fill="black" stroke="black" points="1064.07,-161.71 1067.29,-151.62 1058.48,-157.5 1064.07,-161.71"/>
</g>
<!-- r&#45;tabulizerjars -->
<g id="node18" class="node">
<title>r&#45;tabulizerjars</title>
<g id="a_node18"><a xlink:href="https://github.com/conda-forge/r-tabulizerjars-feedstock" xlink:title="r tabulizerjars">
<ellipse fill="#fde725" stroke="black" cx="1137.5" cy="-206" rx="84" ry="18"/>
<text text-anchor="middle" x="1137.5" y="-202.3" font-family="Times,serif" font-size="14.00">r tabulizerjars</text>
</a>
</g>
</g>
<!-- r&#45;rjava&#45;&gt;r&#45;tabulizerjars -->
<g id="edge16" class="edge">
<title>r&#45;rjava&#45;&gt;r&#45;tabulizerjars</title>
<path fill="none" stroke="black" d="M592.8,-564.87C699.79,-563.83 964.74,-556.67 1039.5,-512 1080.67,-487.4 1100.5,-470.95 1100.5,-423 1100.5,-423 1100.5,-423 1100.5,-349 1100.5,-307.71 1115.33,-261.77 1126.22,-233.63"/>
<polygon fill="black" stroke="black" points="1129.56,-234.7 1130.01,-224.11 1123.06,-232.11 1129.56,-234.7"/>
</g>
<!-- r&#45;destinie -->
<g id="node19" class="node">
<title>r&#45;destinie</title>
<g id="a_node19"><a xlink:href="https://github.com/conda-forge/r-destinie-feedstock" xlink:title="r destinie">
<ellipse fill="#fde725" stroke="black" cx="625.5" cy="-278" rx="60" ry="18"/>
<text text-anchor="middle" x="625.5" y="-274.3" font-family="Times,serif" font-size="14.00">r destinie</text>
</a>
</g>
</g>
<!-- r&#45;rjava&#45;&gt;r&#45;destinie -->
<g id="edge17" class="edge">
<title>r&#45;rjava&#45;&gt;r&#45;destinie</title>
<path fill="none" stroke="black" d="M591.17,-561.56C661.82,-555.26 797.14,-539.86 835.5,-512 894.39,-469.23 895.62,-438.56 913.5,-368 917.43,-352.49 923.74,-344.29 913.5,-332 886.18,-299.19 770.74,-286.62 694.57,-281.85"/>
<polygon fill="black" stroke="black" points="694.74,-278.36 684.55,-281.26 694.33,-285.35 694.74,-278.36"/>
</g>
<!-- r&#45;noisefiltersr -->
<g id="node20" class="node">
<title>r&#45;noisefiltersr</title>
<g id="a_node20"><a xlink:href="https://github.com/conda-forge/r-noisefiltersr-feedstock" xlink:title="r noisefiltersr">
<ellipse fill="#fde725" stroke="black" cx="820.5" cy="-350" rx="84" ry="18"/>
<text text-anchor="middle" x="820.5" y="-346.3" font-family="Times,serif" font-size="14.00">r noisefiltersr</text>
</a>
</g>
</g>
<!-- r&#45;rjava&#45;&gt;r&#45;noisefiltersr -->
<g id="edge18" class="edge">
<title>r&#45;rjava&#45;&gt;r&#45;noisefiltersr</title>
<path fill="none" stroke="black" d="M591.72,-562.49C659.27,-557.66 783.33,-544.5 811.5,-512 843.57,-475 836.02,-413.41 828.02,-378.09"/>
<polygon fill="black" stroke="black" points="831.33,-376.92 825.56,-368.04 824.53,-378.58 831.33,-376.92"/>
</g>
<!-- r&#45;xlsx&#45;&gt;r&#45;destinie -->
<g id="edge19" class="edge">
<title>r&#45;xlsx&#45;&gt;r&#45;destinie</title>
<path fill="none" stroke="black" d="M452.48,-338.37C485.88,-326.91 539.44,-308.53 578.12,-295.26"/>
<polygon fill="black" stroke="black" points="579.29,-298.56 587.62,-292 577.02,-291.93 579.29,-298.56"/>
</g>
<!-- r&#45;xlsxjars&#45;&gt;r&#45;xlsx -->
<g id="edge20" class="edge">
<title>r&#45;xlsxjars&#45;&gt;r&#45;xlsx</title>
<path fill="none" stroke="black" d="M421.5,-403.7C421.5,-395.98 421.5,-386.71 421.5,-378.11"/>
<polygon fill="black" stroke="black" points="425,-378.1 421.5,-368.1 418,-378.1 425,-378.1"/>
</g>
<!-- r&#45;xlconnectjars&#45;&gt;r&#45;xlconnect -->
<g id="edge21" class="edge">
<title>r&#45;xlconnectjars&#45;&gt;r&#45;xlconnect</title>
<path fill="none" stroke="black" d="M81.06,-331.7C78.61,-323.9 75.66,-314.51 72.93,-305.83"/>
<polygon fill="black" stroke="black" points="76.21,-304.59 69.88,-296.1 69.54,-306.69 76.21,-304.59"/>
</g>
<!-- r&#45;rcdklibs&#45;&gt;r&#45;rcdk -->
<g id="edge22" class="edge">
<title>r&#45;rcdklibs&#45;&gt;r&#45;rcdk</title>
<path fill="none" stroke="black" d="M204.78,-259.7C203.57,-251.98 202.11,-242.71 200.76,-234.11"/>
<polygon fill="black" stroke="black" points="204.2,-233.44 199.19,-224.1 197.28,-234.53 204.2,-233.44"/>
</g>
<!-- r&#45;rwekajars&#45;&gt;r&#45;rweka -->
<g id="edge23" class="edge">
<title>r&#45;rwekajars&#45;&gt;r&#45;rweka</title>
<path fill="none" stroke="black" d="M743.44,-475.7C745.67,-467.9 748.35,-458.51 750.83,-449.83"/>
<polygon fill="black" stroke="black" points="754.23,-450.68 753.61,-440.1 747.5,-448.76 754.23,-450.68"/>
</g>
<!-- r&#45;rweka&#45;&gt;r&#45;noisefiltersr -->
<g id="edge24" class="edge">
<title>r&#45;rweka&#45;&gt;r&#45;noisefiltersr</title>
<path fill="none" stroke="black" d="M772.88,-404.76C780.48,-396.18 789.98,-385.46 798.48,-375.86"/>
<polygon fill="black" stroke="black" points="801.32,-377.93 805.33,-368.12 796.08,-373.29 801.32,-377.93"/>
</g>
<!-- r&#45;fselector -->
<g id="node21" class="node">
<title>r&#45;fselector</title>
<g id="a_node21"><a xlink:href="https://github.com/conda-forge/r-fselector-feedstock" xlink:title="r fselector">
<ellipse fill="#fde725" stroke="black" cx="653.5" cy="-350" rx="64.5" ry="18"/>
<text text-anchor="middle" x="653.5" y="-346.3" font-family="Times,serif" font-size="14.00">r fselector</text>
</a>
</g>
</g>
<!-- r&#45;rweka&#45;&gt;r&#45;fselector -->
<g id="edge25" class="edge">
<title>r&#45;rweka&#45;&gt;r&#45;fselector</title>
<path fill="none" stroke="black" d="M736.23,-406.15C721.6,-396.4 702.23,-383.48 685.9,-372.6"/>
<polygon fill="black" stroke="black" points="687.46,-369.43 677.19,-366.8 683.57,-375.26 687.46,-369.43"/>
</g>
<!-- r&#45;tabulizerjars&#45;&gt;r&#45;tabulizer -->
<g id="edge26" class="edge">
<title>r&#45;tabulizerjars&#45;&gt;r&#45;tabulizer</title>
<path fill="none" stroke="black" d="M1123.94,-188.05C1117.13,-179.54 1108.75,-169.07 1101.25,-159.68"/>
<polygon fill="black" stroke="black" points="1103.91,-157.41 1094.93,-151.79 1098.45,-161.78 1103.91,-157.41"/>
</g>
<!-- rpy2 -->
<g id="node22" class="node">
<title>rpy2</title>
<g id="a_node22"><a xlink:href="https://github.com/conda-forge/rpy2-feedstock/pull/55" xlink:title="rpy2">
<ellipse fill="#31688e" stroke="black" cx="1485.5" cy="-386" rx="30.59" ry="18"/>
<text text-anchor="middle" x="1485.5" y="-382.3" font-family="Times,serif" font-size="14.00" fill="white">rpy2</text>
</a>
</g>
</g>
<!-- iterativewgcna -->
<g id="node23" class="node">
<title>iterativewgcna</title>
<g id="a_node23"><a xlink:href="https://github.com/conda-forge/iterativewgcna-feedstock" xlink:title="iterativewgcna">
<ellipse fill="#fde725" stroke="black" cx="1485.5" cy="-314" rx="79.5" ry="18"/>
<text text-anchor="middle" x="1485.5" y="-310.3" font-family="Times,serif" font-size="14.00">iterativewgcna</text>
</a>
</g>
</g>
<!-- rpy2&#45;&gt;iterativewgcna -->
<g id="edge27" class="edge">
<title>rpy2&#45;&gt;iterativewgcna</title>
<path fill="none" stroke="black" d="M1485.5,-367.7C1485.5,-359.98 1485.5,-350.71 1485.5,-342.11"/>
<polygon fill="black" stroke="black" points="1489,-342.1 1485.5,-332.1 1482,-342.1 1489,-342.1"/>
</g>
<!-- r&#45;rvaidememoire -->
<g id="node24" class="node">
<title>r&#45;rvaidememoire</title>
<g id="a_node24"><a xlink:href="https://github.com/conda-forge/r-rvaidememoire-feedstock" xlink:title="r rvaidememoire">
<ellipse fill="#35b779" stroke="black" cx="1313.5" cy="-422" rx="84" ry="18"/>
<text text-anchor="middle" x="1313.5" y="-418.3" font-family="Times,serif" font-size="14.00">r rvaidememoire</text>
</a>
</g>
</g>
<!-- r&#45;googlesheets4 -->
<g id="node25" class="node">
<title>r&#45;googlesheets4</title>
<g id="a_node25"><a xlink:href="https://github.com/conda-forge/r-googlesheets4-feedstock/pull/1" xlink:title="r googlesheets4">
<ellipse fill="#31688e" stroke="black" cx="1313.5" cy="-350" rx="84" ry="18"/>
<text text-anchor="middle" x="1313.5" y="-346.3" font-family="Times,serif" font-size="14.00" fill="white">r googlesheets4</text>
</a>
</g>
</g>
<!-- r&#45;rvaidememoire&#45;&gt;r&#45;googlesheets4 -->
<!-- r&#45;bayeslogit -->
<g id="node28" class="node">
<title>r&#45;bayeslogit</title>
<g id="a_node28"><a xlink:href="https://github.com/conda-forge/r-bayeslogit-feedstock/pull/1" xlink:title="r bayeslogit">
<ellipse fill="#31688e" stroke="black" cx="1313.5" cy="-278" rx="69.59" ry="18"/>
<text text-anchor="middle" x="1313.5" y="-274.3" font-family="Times,serif" font-size="14.00" fill="white">r bayeslogit</text>
</a>
</g>
</g>
<!-- r&#45;googlesheets4&#45;&gt;r&#45;bayeslogit -->
<!-- r&#45;rxode -->
<g id="node26" class="node">
<title>r&#45;rxode</title>
<g id="a_node26"><a xlink:href="https://github.com/conda-forge/r-rxode-feedstock/pull/3" xlink:title="r rxode">
<ellipse fill="#31688e" stroke="black" cx="1313.5" cy="-90" rx="45" ry="18"/>
<text text-anchor="middle" x="1313.5" y="-86.3" font-family="Times,serif" font-size="14.00" fill="white">r rxode</text>
</a>
</g>
</g>
<!-- r&#45;nlmixr -->
<g id="node27" class="node">
<title>r&#45;nlmixr</title>
<g id="a_node27"><a xlink:href="https://github.com/conda-forge/r-nlmixr-feedstock" xlink:title="r nlmixr">
<ellipse fill="#fde725" stroke="black" cx="1313.5" cy="-18" rx="50.09" ry="18"/>
<text text-anchor="middle" x="1313.5" y="-14.3" font-family="Times,serif" font-size="14.00">r nlmixr</text>
</a>
</g>
</g>
<!-- r&#45;rxode&#45;&gt;r&#45;nlmixr -->
<g id="edge29" class="edge">
<title>r&#45;rxode&#45;&gt;r&#45;nlmixr</title>
<path fill="none" stroke="black" d="M1313.5,-71.7C1313.5,-63.98 1313.5,-54.71 1313.5,-46.11"/>
<polygon fill="black" stroke="black" points="1317,-46.1 1313.5,-36.1 1310,-46.1 1317,-46.1"/>
</g>
</g>
</svg>
