<?xml version="1.0" encoding="UTF-8" standalone="no"?>
<!DOCTYPE svg PUBLIC "-//W3C//DTD SVG 1.1//EN"
 "http://www.w3.org/Graphics/SVG/1.1/DTD/svg11.dtd">
<!-- Generated by graphviz version 2.42.3 (20191010.1750)
 -->
<!-- Title: %3 Pages: 1 -->
<svg width="2021pt" height="476pt"
 viewBox="0.00 0.00 2021.32 476.00" xmlns="http://www.w3.org/2000/svg" xmlns:xlink="http://www.w3.org/1999/xlink">
<g id="graph0" class="graph" transform="scale(1 1) rotate(0) translate(4 472)">
<title>%3</title>
<polygon fill="white" stroke="transparent" points="-4,4 -4,-472 2017.32,-472 2017.32,4 -4,4"/>
<!-- r&#45;fst -->
<g id="node1" class="node">
<title>r&#45;fst</title>
<g id="a_node1"><a xlink:href="https://github.com/conda-forge/r-fst-feedstock/pull/11" xlink:title="r fst">
<ellipse fill="#31688e" stroke="black" cx="38.27" cy="-162" rx="35.19" ry="18"/>
<text text-anchor="middle" x="38.27" y="-158.3" font-family="Times,serif" font-size="14.00" fill="white">r fst</text>
</a>
</g>
</g>
<!-- r&#45;disk.frame -->
<g id="node2" class="node">
<title>r&#45;disk.frame</title>
<g id="a_node2"><a xlink:href="https://github.com/conda-forge/r-disk.frame-feedstock" xlink:title="r disk frame">
<ellipse fill="#fde725" stroke="black" cx="87.27" cy="-90" rx="69.59" ry="18"/>
<text text-anchor="middle" x="87.27" y="-86.3" font-family="Times,serif" font-size="14.00">r disk frame</text>
</a>
</g>
</g>
<!-- r&#45;fst&#45;&gt;r&#45;disk.frame -->
<g id="edge1" class="edge">
<title>r&#45;fst&#45;&gt;r&#45;disk.frame</title>
<path fill="none" stroke="black" d="M49.64,-144.76C55.52,-136.35 62.85,-125.89 69.47,-116.44"/>
<polygon fill="black" stroke="black" points="72.42,-118.32 75.29,-108.12 66.68,-114.31 72.42,-118.32"/>
</g>
<!-- conda&#45;forge&#45;pinning -->
<g id="node3" class="node">
<title>conda&#45;forge&#45;pinning</title>
<ellipse fill="none" stroke="black" cx="823.27" cy="-18" rx="103.5" ry="18"/>
<text text-anchor="middle" x="823.27" y="-14.3" font-family="Times,serif" font-size="14.00">conda&#45;forge&#45;pinning</text>
</g>
<!-- r&#45;fst&#45;&gt;conda&#45;forge&#45;pinning -->
<g id="edge2" class="edge">
<title>r&#45;fst&#45;&gt;conda&#45;forge&#45;pinning</title>
<path fill="none" stroke="black" d="M24.51,-145.15C9.23,-125.61 -10.9,-92.46 8.27,-72 31.95,-46.73 494.29,-29.16 711.86,-22.26"/>
<polygon fill="black" stroke="black" points="712.15,-25.75 722.03,-21.93 711.93,-18.75 712.15,-25.75"/>
</g>
<!-- r&#45;disk.frame&#45;&gt;conda&#45;forge&#45;pinning -->
<g id="edge3" class="edge">
<title>r&#45;disk.frame&#45;&gt;conda&#45;forge&#45;pinning</title>
<path fill="none" stroke="black" d="M138.19,-77.69C149.07,-75.56 160.52,-73.52 171.27,-72 361.09,-45.17 584.07,-30.68 713.94,-23.92"/>
<polygon fill="black" stroke="black" points="714.48,-27.4 724.29,-23.39 714.12,-20.41 714.48,-27.4"/>
</g>
<!-- r&#45;hive -->
<g id="node4" class="node">
<title>r&#45;hive</title>
<g id="a_node4"><a xlink:href="https://github.com/conda-forge/r-hive-feedstock" xlink:title="r hive">
<ellipse fill="#fde725" stroke="black" cx="154.27" cy="-234" rx="40.5" ry="18"/>
<text text-anchor="middle" x="154.27" y="-230.3" font-family="Times,serif" font-size="14.00">r hive</text>
</a>
</g>
</g>
<!-- r&#45;hive&#45;&gt;conda&#45;forge&#45;pinning -->
<g id="edge4" class="edge">
<title>r&#45;hive&#45;&gt;conda&#45;forge&#45;pinning</title>
<path fill="none" stroke="black" d="M154.43,-215.98C155.74,-182.33 163.91,-107.49 209.27,-72 247.84,-41.83 545.15,-27.71 711.49,-22.11"/>
<polygon fill="black" stroke="black" points="711.88,-25.6 721.76,-21.77 711.65,-18.6 711.88,-25.6"/>
</g>
<!-- r&#45;rjava -->
<g id="node5" class="node">
<title>r&#45;rjava</title>
<g id="a_node5"><a xlink:href="https://github.com/conda-forge/r-rjava-feedstock" xlink:title="r rjava">
<ellipse fill="#35b779" stroke="black" cx="837.27" cy="-450" rx="45" ry="18"/>
<text text-anchor="middle" x="837.27" y="-446.3" font-family="Times,serif" font-size="14.00">r rjava</text>
</a>
</g>
</g>
<!-- r&#45;rjava&#45;&gt;conda&#45;forge&#45;pinning -->
<g id="edge5" class="edge">
<title>r&#45;rjava&#45;&gt;conda&#45;forge&#45;pinning</title>
<path fill="none" stroke="black" d="M792.01,-448.54C656.59,-446.69 261.56,-437.74 223.27,-396 173.77,-342.04 222.94,-113.5 283.27,-72 317.94,-48.16 567.19,-31.78 714.65,-24.06"/>
<polygon fill="black" stroke="black" points="714.84,-27.56 724.65,-23.54 714.48,-20.57 714.84,-27.56"/>
</g>
<!-- r&#45;rjava&#45;&gt;r&#45;hive -->
<g id="edge6" class="edge">
<title>r&#45;rjava&#45;&gt;r&#45;hive</title>
<path fill="none" stroke="black" d="M791.98,-448.34C652.4,-445.9 235.49,-435.36 190.27,-396 152.19,-362.85 149.49,-299.02 151.49,-262.48"/>
<polygon fill="black" stroke="black" points="155.01,-262.3 152.23,-252.08 148.03,-261.8 155.01,-262.3"/>
</g>
<!-- r&#45;xlsx -->
<g id="node6" class="node">
<title>r&#45;xlsx</title>
<g id="a_node6"><a xlink:href="https://github.com/conda-forge/r-xlsx-feedstock" xlink:title="r xlsx">
<ellipse fill="#fde725" stroke="black" cx="516.27" cy="-306" rx="40.5" ry="18"/>
<text text-anchor="middle" x="516.27" y="-302.3" font-family="Times,serif" font-size="14.00">r xlsx</text>
</a>
</g>
</g>
<!-- r&#45;rjava&#45;&gt;r&#45;xlsx -->
<g id="edge7" class="edge">
<title>r&#45;rjava&#45;&gt;r&#45;xlsx</title>
<path fill="none" stroke="black" d="M794.86,-443.92C751.19,-437.41 682.1,-423.52 628.27,-396 606.08,-384.65 604.72,-375.59 585.27,-360 571.96,-349.33 556.97,-337.76 544.37,-328.16"/>
<polygon fill="black" stroke="black" points="546.15,-325.12 536.07,-321.86 541.92,-330.69 546.15,-325.12"/>
</g>
<!-- r&#45;xlsxjars -->
<g id="node7" class="node">
<title>r&#45;xlsxjars</title>
<g id="a_node7"><a xlink:href="https://github.com/conda-forge/r-xlsxjars-feedstock" xlink:title="r xlsxjars">
<ellipse fill="#fde725" stroke="black" cx="516.27" cy="-378" rx="60" ry="18"/>
<text text-anchor="middle" x="516.27" y="-374.3" font-family="Times,serif" font-size="14.00">r xlsxjars</text>
</a>
</g>
</g>
<!-- r&#45;rjava&#45;&gt;r&#45;xlsxjars -->
<g id="edge8" class="edge">
<title>r&#45;rjava&#45;&gt;r&#45;xlsxjars</title>
<path fill="none" stroke="black" d="M798.3,-440.82C749.6,-430.55 663.7,-412.31 590.27,-396 584.5,-394.72 578.48,-393.36 572.48,-392"/>
<polygon fill="black" stroke="black" points="572.96,-388.52 562.43,-389.71 571.41,-395.35 572.96,-388.52"/>
</g>
<!-- r&#45;xlconnectjars -->
<g id="node8" class="node">
<title>r&#45;xlconnectjars</title>
<g id="a_node8"><a xlink:href="https://github.com/conda-forge/r-xlconnectjars-feedstock" xlink:title="r xlconnectjars">
<ellipse fill="#fde725" stroke="black" cx="316.27" cy="-378" rx="84" ry="18"/>
<text text-anchor="middle" x="316.27" y="-374.3" font-family="Times,serif" font-size="14.00">r xlconnectjars</text>
</a>
</g>
</g>
<!-- r&#45;rjava&#45;&gt;r&#45;xlconnectjars -->
<g id="edge9" class="edge">
<title>r&#45;rjava&#45;&gt;r&#45;xlconnectjars</title>
<path fill="none" stroke="black" d="M794.55,-444.32C718.12,-435.8 552.99,-416.71 414.27,-396 405.77,-394.73 396.87,-393.31 388.05,-391.85"/>
<polygon fill="black" stroke="black" points="388.59,-388.39 378.15,-390.19 387.43,-395.3 388.59,-388.39"/>
</g>
<!-- r&#45;xlconnect -->
<g id="node9" class="node">
<title>r&#45;xlconnect</title>
<g id="a_node9"><a xlink:href="https://github.com/conda-forge/r-xlconnect-feedstock" xlink:title="r xlconnect">
<ellipse fill="#fde725" stroke="black" cx="354.27" cy="-306" rx="64.5" ry="18"/>
<text text-anchor="middle" x="354.27" y="-302.3" font-family="Times,serif" font-size="14.00">r xlconnect</text>
</a>
</g>
</g>
<!-- r&#45;rjava&#45;&gt;r&#45;xlconnect -->
<g id="edge10" class="edge">
<title>r&#45;rjava&#45;&gt;r&#45;xlconnect</title>
<path fill="none" stroke="black" d="M792.98,-446.42C704.16,-440.7 507.59,-425.08 447.27,-396 446.21,-395.49 405.97,-356.82 378.78,-330.63"/>
<polygon fill="black" stroke="black" points="381.13,-328.03 371.5,-323.61 376.27,-333.07 381.13,-328.03"/>
</g>
<!-- r&#45;rcdklibs -->
<g id="node10" class="node">
<title>r&#45;rcdklibs</title>
<g id="a_node10"><a xlink:href="https://github.com/conda-forge/r-rcdklibs-feedstock" xlink:title="r rcdklibs">
<ellipse fill="#fde725" stroke="black" cx="730.27" cy="-378" rx="60" ry="18"/>
<text text-anchor="middle" x="730.27" y="-374.3" font-family="Times,serif" font-size="14.00">r rcdklibs</text>
</a>
</g>
</g>
<!-- r&#45;rjava&#45;&gt;r&#45;rcdklibs -->
<g id="edge11" class="edge">
<title>r&#45;rjava&#45;&gt;r&#45;rcdklibs</title>
<path fill="none" stroke="black" d="M814.84,-434.33C799.71,-424.43 779.5,-411.2 762.63,-400.17"/>
<polygon fill="black" stroke="black" points="764.44,-397.17 754.16,-394.63 760.61,-403.03 764.44,-397.17"/>
</g>
<!-- r&#45;rcdk -->
<g id="node11" class="node">
<title>r&#45;rcdk</title>
<g id="a_node11"><a xlink:href="https://github.com/conda-forge/r-rcdk-feedstock" xlink:title="r rcdk">
<ellipse fill="#fde725" stroke="black" cx="692.27" cy="-306" rx="40.5" ry="18"/>
<text text-anchor="middle" x="692.27" y="-302.3" font-family="Times,serif" font-size="14.00">r rcdk</text>
</a>
</g>
</g>
<!-- r&#45;rjava&#45;&gt;r&#45;rcdk -->
<g id="edge12" class="edge">
<title>r&#45;rjava&#45;&gt;r&#45;rcdk</title>
<path fill="none" stroke="black" d="M833.76,-431.95C828.97,-412.43 818.66,-380.51 799.27,-360 789.13,-349.27 757.12,-334.06 730.74,-322.69"/>
<polygon fill="black" stroke="black" points="731.89,-319.37 721.32,-318.68 729.16,-325.82 731.89,-319.37"/>
</g>
<!-- r&#45;rchoicedialogs -->
<g id="node12" class="node">
<title>r&#45;rchoicedialogs</title>
<g id="a_node12"><a xlink:href="https://github.com/conda-forge/r-rchoicedialogs-feedstock" xlink:title="r rchoicedialogs">
<ellipse fill="#fde725" stroke="black" cx="840.27" cy="-306" rx="89.08" ry="18"/>
<text text-anchor="middle" x="840.27" y="-302.3" font-family="Times,serif" font-size="14.00">r rchoicedialogs</text>
</a>
</g>
</g>
<!-- r&#45;rjava&#45;&gt;r&#45;rchoicedialogs -->
<g id="edge13" class="edge">
<title>r&#45;rjava&#45;&gt;r&#45;rchoicedialogs</title>
<path fill="none" stroke="black" d="M837.63,-431.87C838.15,-407.67 839.08,-363.21 839.69,-334.39"/>
<polygon fill="black" stroke="black" points="843.2,-334.26 839.91,-324.19 836.2,-334.11 843.2,-334.26"/>
</g>
<!-- r&#45;rwekajars -->
<g id="node13" class="node">
<title>r&#45;rwekajars</title>
<g id="a_node13"><a xlink:href="https://github.com/conda-forge/r-rwekajars-feedstock" xlink:title="r rwekajars">
<ellipse fill="#fde725" stroke="black" cx="886.27" cy="-234" rx="64.5" ry="18"/>
<text text-anchor="middle" x="886.27" y="-230.3" font-family="Times,serif" font-size="14.00">r rwekajars</text>
</a>
</g>
</g>
<!-- r&#45;rjava&#45;&gt;r&#45;rwekajars -->
<g id="edge14" class="edge">
<title>r&#45;rjava&#45;&gt;r&#45;rwekajars</title>
<path fill="none" stroke="black" d="M855.9,-433.57C880.31,-412.02 921.91,-370.3 938.27,-324 943.61,-308.91 944.32,-302.81 938.27,-288 933.6,-276.56 925.12,-266.25 916.36,-257.83"/>
<polygon fill="black" stroke="black" points="918.45,-255.01 908.67,-250.94 913.78,-260.22 918.45,-255.01"/>
</g>
<!-- r&#45;rweka -->
<g id="node14" class="node">
<title>r&#45;rweka</title>
<g id="a_node14"><a xlink:href="https://github.com/conda-forge/r-rweka-feedstock" xlink:title="r rweka">
<ellipse fill="#fde725" stroke="black" cx="886.27" cy="-162" rx="45" ry="18"/>
<text text-anchor="middle" x="886.27" y="-158.3" font-family="Times,serif" font-size="14.00">r rweka</text>
</a>
</g>
</g>
<!-- r&#45;rjava&#45;&gt;r&#45;rweka -->
<g id="edge15" class="edge">
<title>r&#45;rjava&#45;&gt;r&#45;rweka</title>
<path fill="none" stroke="black" d="M866.7,-436.08C884.65,-426.99 906.99,-413.37 922.27,-396 945.52,-369.57 946.82,-358.17 955.27,-324 966.81,-277.37 981.09,-258.79 959.27,-216 951.75,-201.23 937.97,-189.62 924.39,-181.07"/>
<polygon fill="black" stroke="black" points="925.97,-177.94 915.57,-175.9 922.43,-183.98 925.97,-177.94"/>
</g>
<!-- r&#45;subspace -->
<g id="node15" class="node">
<title>r&#45;subspace</title>
<g id="a_node15"><a xlink:href="https://github.com/conda-forge/r-subspace-feedstock" xlink:title="r subspace">
<ellipse fill="#fde725" stroke="black" cx="1121.27" cy="-234" rx="60" ry="18"/>
<text text-anchor="middle" x="1121.27" y="-230.3" font-family="Times,serif" font-size="14.00">r subspace</text>
</a>
</g>
</g>
<!-- r&#45;rjava&#45;&gt;r&#45;subspace -->
<g id="edge16" class="edge">
<title>r&#45;rjava&#45;&gt;r&#45;subspace</title>
<path fill="none" stroke="black" d="M882.47,-448.56C928.78,-445.82 1000.43,-434.94 1047.27,-396 1089.04,-361.27 1108.39,-297.86 1116.38,-261.85"/>
<polygon fill="black" stroke="black" points="1119.81,-262.55 1118.43,-252.04 1112.96,-261.12 1119.81,-262.55"/>
</g>
<!-- r&#45;rmcfs -->
<g id="node16" class="node">
<title>r&#45;rmcfs</title>
<g id="a_node16"><a xlink:href="https://github.com/conda-forge/r-rmcfs-feedstock" xlink:title="r rmcfs">
<ellipse fill="#fde725" stroke="black" cx="1190.27" cy="-162" rx="45" ry="18"/>
<text text-anchor="middle" x="1190.27" y="-158.3" font-family="Times,serif" font-size="14.00">r rmcfs</text>
</a>
</g>
</g>
<!-- r&#45;rjava&#45;&gt;r&#45;rmcfs -->
<g id="edge17" class="edge">
<title>r&#45;rjava&#45;&gt;r&#45;rmcfs</title>
<path fill="none" stroke="black" d="M882.04,-447.9C932.74,-444.76 1016.13,-433.68 1076.27,-396 1145.45,-352.66 1163.45,-329.1 1190.27,-252 1197.16,-232.21 1196.75,-208.41 1194.84,-190.4"/>
<polygon fill="black" stroke="black" points="1198.29,-189.76 1193.55,-180.29 1191.34,-190.65 1198.29,-189.76"/>
</g>
<!-- r&#45;rjdbc -->
<g id="node17" class="node">
<title>r&#45;rjdbc</title>
<g id="a_node17"><a xlink:href="https://github.com/conda-forge/r-rjdbc-feedstock" xlink:title="r rjdbc">
<ellipse fill="#fde725" stroke="black" cx="1260.27" cy="-90" rx="45" ry="18"/>
<text text-anchor="middle" x="1260.27" y="-86.3" font-family="Times,serif" font-size="14.00">r rjdbc</text>
</a>
</g>
</g>
<!-- r&#45;rjava&#45;&gt;r&#45;rjdbc -->
<g id="edge18" class="edge">
<title>r&#45;rjava&#45;&gt;r&#45;rjdbc</title>
<path fill="none" stroke="black" d="M882.24,-449.01C939.96,-447.18 1041.54,-437.63 1116.27,-396 1219.75,-338.35 1249.61,-181.35 1257.58,-118.02"/>
<polygon fill="black" stroke="black" points="1261.07,-118.35 1258.76,-108.01 1254.12,-117.53 1261.07,-118.35"/>
</g>
<!-- r&#45;tabulizer -->
<g id="node18" class="node">
<title>r&#45;tabulizer</title>
<g id="a_node18"><a xlink:href="https://github.com/conda-forge/r-tabulizer-feedstock" xlink:title="r tabulizer">
<ellipse fill="#fde725" stroke="black" cx="1333.27" cy="-306" rx="64.5" ry="18"/>
<text text-anchor="middle" x="1333.27" y="-302.3" font-family="Times,serif" font-size="14.00">r tabulizer</text>
</a>
</g>
</g>
<!-- r&#45;rjava&#45;&gt;r&#45;tabulizer -->
<g id="edge19" class="edge">
<title>r&#45;rjava&#45;&gt;r&#45;tabulizer</title>
<path fill="none" stroke="black" d="M881.95,-447.26C975.87,-442.99 1190.38,-429.72 1254.27,-396 1281.65,-381.55 1304.04,-353.53 1317.9,-332.77"/>
<polygon fill="black" stroke="black" points="1321.02,-334.4 1323.49,-324.1 1315.13,-330.61 1321.02,-334.4"/>
</g>
<!-- r&#45;tabulizerjars -->
<g id="node19" class="node">
<title>r&#45;tabulizerjars</title>
<g id="a_node19"><a xlink:href="https://github.com/conda-forge/r-tabulizerjars-feedstock" xlink:title="r tabulizerjars">
<ellipse fill="#fde725" stroke="black" cx="1390.27" cy="-378" rx="84" ry="18"/>
<text text-anchor="middle" x="1390.27" y="-374.3" font-family="Times,serif" font-size="14.00">r tabulizerjars</text>
</a>
</g>
</g>
<!-- r&#45;rjava&#45;&gt;r&#45;tabulizerjars -->
<g id="edge20" class="edge">
<title>r&#45;rjava&#45;&gt;r&#45;tabulizerjars</title>
<path fill="none" stroke="black" d="M880.35,-444.79C961.25,-436.71 1141.35,-417.86 1292.27,-396 1300.78,-394.77 1309.68,-393.37 1318.5,-391.92"/>
<polygon fill="black" stroke="black" points="1319.12,-395.37 1328.41,-390.27 1317.97,-388.46 1319.12,-395.37"/>
</g>
<!-- r&#45;destinie -->
<g id="node20" class="node">
<title>r&#45;destinie</title>
<g id="a_node20"><a xlink:href="https://github.com/conda-forge/r-destinie-feedstock" xlink:title="r destinie">
<ellipse fill="#fde725" stroke="black" cx="537.27" cy="-234" rx="60" ry="18"/>
<text text-anchor="middle" x="537.27" y="-230.3" font-family="Times,serif" font-size="14.00">r destinie</text>
</a>
</g>
</g>
<!-- r&#45;rjava&#45;&gt;r&#45;destinie -->
<g id="edge21" class="edge">
<title>r&#45;rjava&#45;&gt;r&#45;destinie</title>
<path fill="none" stroke="black" d="M794.99,-443.75C757.21,-437.4 701.73,-423.89 661.27,-396 634.27,-377.39 581.08,-300.88 553.98,-260.39"/>
<polygon fill="black" stroke="black" points="556.76,-258.25 548.31,-251.87 550.94,-262.13 556.76,-258.25"/>
</g>
<!-- r&#45;noisefiltersr -->
<g id="node21" class="node">
<title>r&#45;noisefiltersr</title>
<g id="a_node21"><a xlink:href="https://github.com/conda-forge/r-noisefiltersr-feedstock" xlink:title="r noisefiltersr">
<ellipse fill="#fde725" stroke="black" cx="1037.27" cy="-90" rx="84" ry="18"/>
<text text-anchor="middle" x="1037.27" y="-86.3" font-family="Times,serif" font-size="14.00">r noisefiltersr</text>
</a>
</g>
</g>
<!-- r&#45;rjava&#45;&gt;r&#45;noisefiltersr -->
<g id="edge22" class="edge">
<title>r&#45;rjava&#45;&gt;r&#45;noisefiltersr</title>
<path fill="none" stroke="black" d="M875.06,-439.97C932.02,-423.85 1033.27,-384.32 1033.27,-307 1033.27,-307 1033.27,-307 1033.27,-233 1033.27,-192.98 1034.88,-146.64 1036.06,-118.07"/>
<polygon fill="black" stroke="black" points="1039.55,-118.18 1036.48,-108.04 1032.56,-117.89 1039.55,-118.18"/>
</g>
<!-- r&#45;xlsx&#45;&gt;conda&#45;forge&#45;pinning -->
<g id="edge23" class="edge">
<title>r&#45;xlsx&#45;&gt;conda&#45;forge&#45;pinning</title>
<path fill="none" stroke="black" d="M497.05,-290.06C486.36,-280.49 474.08,-267.06 468.27,-252 462.52,-237.07 463.15,-231.16 468.27,-216 494.08,-139.71 510.28,-115.17 578.27,-72 619.17,-46.03 670.83,-32.62 716.16,-25.77"/>
<polygon fill="black" stroke="black" points="716.92,-29.19 726.33,-24.32 715.94,-22.26 716.92,-29.19"/>
</g>
<!-- r&#45;xlsx&#45;&gt;r&#45;destinie -->
<g id="edge24" class="edge">
<title>r&#45;xlsx&#45;&gt;r&#45;destinie</title>
<path fill="none" stroke="black" d="M521.36,-288.05C523.69,-280.26 526.53,-270.82 529.15,-262.08"/>
<polygon fill="black" stroke="black" points="532.57,-262.86 532.09,-252.28 525.86,-260.85 532.57,-262.86"/>
</g>
<!-- r&#45;xlsxjars&#45;&gt;conda&#45;forge&#45;pinning -->
<g id="edge25" class="edge">
<title>r&#45;xlsxjars&#45;&gt;conda&#45;forge&#45;pinning</title>
<path fill="none" stroke="black" d="M495.46,-360.91C484.79,-351.41 472.72,-338.44 466.27,-324 453.19,-294.68 461.61,-284.08 460.27,-252 456.73,-166.87 454.98,-118.67 526.27,-72 558.29,-51.04 650.52,-36.74 723.8,-28.32"/>
<polygon fill="black" stroke="black" points="724.46,-31.77 734,-27.18 723.68,-24.82 724.46,-31.77"/>
</g>
<!-- r&#45;xlsxjars&#45;&gt;r&#45;xlsx -->
<g id="edge26" class="edge">
<title>r&#45;xlsxjars&#45;&gt;r&#45;xlsx</title>
<path fill="none" stroke="black" d="M516.27,-359.7C516.27,-351.98 516.27,-342.71 516.27,-334.11"/>
<polygon fill="black" stroke="black" points="519.77,-334.1 516.27,-324.1 512.77,-334.1 519.77,-334.1"/>
</g>
<!-- r&#45;xlconnectjars&#45;&gt;conda&#45;forge&#45;pinning -->
<g id="edge27" class="edge">
<title>r&#45;xlconnectjars&#45;&gt;conda&#45;forge&#45;pinning</title>
<path fill="none" stroke="black" d="M302.11,-359.85C294.58,-349.93 285.78,-336.89 280.27,-324 264.39,-286.8 261.27,-275.45 261.27,-235 261.27,-235 261.27,-235 261.27,-161 261.27,-99.14 311.42,-96.37 368.27,-72 428.67,-46.11 600.71,-31.56 715.07,-24.5"/>
<polygon fill="black" stroke="black" points="715.5,-27.98 725.27,-23.88 715.07,-20.99 715.5,-27.98"/>
</g>
<!-- r&#45;xlconnectjars&#45;&gt;r&#45;xlconnect -->
<g id="edge28" class="edge">
<title>r&#45;xlconnectjars&#45;&gt;r&#45;xlconnect</title>
<path fill="none" stroke="black" d="M325.47,-360.05C329.84,-352.01 335.16,-342.2 340.04,-333.23"/>
<polygon fill="black" stroke="black" points="343.2,-334.73 344.89,-324.28 337.05,-331.39 343.2,-334.73"/>
</g>
<!-- r&#45;xlconnect&#45;&gt;conda&#45;forge&#45;pinning -->
<g id="edge29" class="edge">
<title>r&#45;xlconnect&#45;&gt;conda&#45;forge&#45;pinning</title>
<path fill="none" stroke="black" d="M351.41,-287.83C345.25,-244.46 335.92,-129.85 397.27,-72 441.01,-30.75 598.82,-20.45 709.55,-18.46"/>
<polygon fill="black" stroke="black" points="709.83,-21.96 719.78,-18.3 709.72,-14.96 709.83,-21.96"/>
</g>
<!-- r&#45;rcdklibs&#45;&gt;conda&#45;forge&#45;pinning -->
<g id="edge30" class="edge">
<title>r&#45;rcdklibs&#45;&gt;conda&#45;forge&#45;pinning</title>
<path fill="none" stroke="black" d="M691.52,-364C673.13,-355.66 652.89,-342.79 642.27,-324 634.4,-310.07 638.51,-303.55 642.27,-288 667.65,-183.09 683.85,-154.64 753.27,-72 762.98,-60.45 775.64,-49.91 787.53,-41.32"/>
<polygon fill="black" stroke="black" points="789.78,-44.01 795.99,-35.43 785.78,-38.27 789.78,-44.01"/>
</g>
<!-- r&#45;rcdklibs&#45;&gt;r&#45;rcdk -->
<g id="edge31" class="edge">
<title>r&#45;rcdklibs&#45;&gt;r&#45;rcdk</title>
<path fill="none" stroke="black" d="M721.07,-360.05C716.64,-351.89 711.22,-341.91 706.29,-332.82"/>
<polygon fill="black" stroke="black" points="709.23,-330.91 701.39,-323.79 703.08,-334.25 709.23,-330.91"/>
</g>
<!-- r&#45;rcdk&#45;&gt;conda&#45;forge&#45;pinning -->
<g id="edge32" class="edge">
<title>r&#45;rcdk&#45;&gt;conda&#45;forge&#45;pinning</title>
<path fill="none" stroke="black" d="M695.78,-287.88C704.48,-247.87 729.68,-146.01 774.27,-72 780.41,-61.81 788.74,-51.89 796.78,-43.44"/>
<polygon fill="black" stroke="black" points="799.47,-45.7 804.02,-36.13 794.5,-40.77 799.47,-45.7"/>
</g>
<!-- r&#45;rchoicedialogs&#45;&gt;conda&#45;forge&#45;pinning -->
<g id="edge33" class="edge">
<title>r&#45;rchoicedialogs&#45;&gt;conda&#45;forge&#45;pinning</title>
<path fill="none" stroke="black" d="M829.72,-287.88C823.87,-277.75 816.87,-264.5 812.27,-252 789.65,-190.47 787.43,-173.17 780.27,-108 778.53,-92.1 774.92,-87.08 780.27,-72 783.93,-61.68 790.56,-51.9 797.53,-43.61"/>
<polygon fill="black" stroke="black" points="800.15,-45.94 804.23,-36.16 794.94,-41.26 800.15,-45.94"/>
</g>
<!-- r&#45;rwekajars&#45;&gt;conda&#45;forge&#45;pinning -->
<g id="edge34" class="edge">
<title>r&#45;rwekajars&#45;&gt;conda&#45;forge&#45;pinning</title>
<path fill="none" stroke="black" d="M865.96,-216.62C841.05,-194.94 800.48,-154.04 787.27,-108 782.86,-92.62 782.57,-87.29 787.27,-72 790.28,-62.22 795.78,-52.62 801.59,-44.33"/>
<polygon fill="black" stroke="black" points="804.47,-46.33 807.66,-36.23 798.87,-42.13 804.47,-46.33"/>
</g>
<!-- r&#45;rwekajars&#45;&gt;r&#45;rweka -->
<g id="edge35" class="edge">
<title>r&#45;rwekajars&#45;&gt;r&#45;rweka</title>
<path fill="none" stroke="black" d="M886.27,-215.7C886.27,-207.98 886.27,-198.71 886.27,-190.11"/>
<polygon fill="black" stroke="black" points="889.77,-190.1 886.27,-180.1 882.77,-190.1 889.77,-190.1"/>
</g>
<!-- r&#45;rweka&#45;&gt;conda&#45;forge&#45;pinning -->
<g id="edge36" class="edge">
<title>r&#45;rweka&#45;&gt;conda&#45;forge&#45;pinning</title>
<path fill="none" stroke="black" d="M851.74,-150.37C831.71,-142.22 808.15,-128.78 796.27,-108 784.91,-88.12 794.42,-62.96 805.16,-44.47"/>
<polygon fill="black" stroke="black" points="808.14,-46.31 810.45,-35.97 802.19,-42.61 808.14,-46.31"/>
</g>
<!-- r&#45;rweka&#45;&gt;r&#45;noisefiltersr -->
<g id="edge37" class="edge">
<title>r&#45;rweka&#45;&gt;r&#45;noisefiltersr</title>
<path fill="none" stroke="black" d="M914.67,-147.83C937.2,-137.39 969.03,-122.64 994.61,-110.78"/>
<polygon fill="black" stroke="black" points="996.12,-113.93 1003.73,-106.55 993.18,-107.58 996.12,-113.93"/>
</g>
<!-- r&#45;fselector -->
<g id="node22" class="node">
<title>r&#45;fselector</title>
<g id="a_node22"><a xlink:href="https://github.com/conda-forge/r-fselector-feedstock" xlink:title="r fselector">
<ellipse fill="#fde725" stroke="black" cx="870.27" cy="-90" rx="64.5" ry="18"/>
<text text-anchor="middle" x="870.27" y="-86.3" font-family="Times,serif" font-size="14.00">r fselector</text>
</a>
</g>
</g>
<!-- r&#45;rweka&#45;&gt;r&#45;fselector -->
<g id="edge38" class="edge">
<title>r&#45;rweka&#45;&gt;r&#45;fselector</title>
<path fill="none" stroke="black" d="M882.4,-144.05C880.62,-136.26 878.46,-126.82 876.46,-118.08"/>
<polygon fill="black" stroke="black" points="879.86,-117.24 874.22,-108.28 873.04,-118.8 879.86,-117.24"/>
</g>
<!-- r&#45;subspace&#45;&gt;conda&#45;forge&#45;pinning -->
<g id="edge39" class="edge">
<title>r&#45;subspace&#45;&gt;conda&#45;forge&#45;pinning</title>
<path fill="none" stroke="black" d="M1123.52,-215.97C1128.51,-176.8 1139.38,-82.81 1130.27,-72 1105.18,-42.21 1011.14,-29.16 933.68,-23.45"/>
<polygon fill="black" stroke="black" points="933.58,-19.93 923.36,-22.72 933.09,-26.92 933.58,-19.93"/>
</g>
<!-- r&#45;rmcfs&#45;&gt;conda&#45;forge&#45;pinning -->
<g id="edge40" class="edge">
<title>r&#45;rmcfs&#45;&gt;conda&#45;forge&#45;pinning</title>
<path fill="none" stroke="black" d="M1190.19,-143.71C1189.1,-123.34 1183.99,-90.01 1163.27,-72 1129.55,-42.69 1019.16,-29.54 933.21,-23.67"/>
<polygon fill="black" stroke="black" points="933.33,-20.17 923.12,-23 932.87,-27.15 933.33,-20.17"/>
</g>
<!-- r&#45;rjdbc&#45;&gt;conda&#45;forge&#45;pinning -->
<g id="edge41" class="edge">
<title>r&#45;rjdbc&#45;&gt;conda&#45;forge&#45;pinning</title>
<path fill="none" stroke="black" d="M1225.85,-78.2C1217.84,-75.93 1209.3,-73.71 1201.27,-72 1106.84,-51.88 997.44,-37.49 920.72,-28.83"/>
<polygon fill="black" stroke="black" points="920.91,-25.33 910.58,-27.7 920.13,-32.29 920.91,-25.33"/>
</g>
<!-- r&#45;tabulizer&#45;&gt;conda&#45;forge&#45;pinning -->
<g id="edge42" class="edge">
<title>r&#45;tabulizer&#45;&gt;conda&#45;forge&#45;pinning</title>
<path fill="none" stroke="black" d="M1338.22,-288.04C1349.59,-245.16 1372.33,-131.6 1314.27,-72 1288.17,-45.21 1069.5,-30.31 932.92,-23.55"/>
<polygon fill="black" stroke="black" points="932.99,-20.05 922.83,-23.05 932.65,-27.04 932.99,-20.05"/>
</g>
<!-- r&#45;tabulizerjars&#45;&gt;conda&#45;forge&#45;pinning -->
<g id="edge43" class="edge">
<title>r&#45;tabulizerjars&#45;&gt;conda&#45;forge&#45;pinning</title>
<path fill="none" stroke="black" d="M1396.92,-359.63C1400.48,-349.42 1404.48,-336.17 1406.27,-324 1408.61,-308.17 1408.48,-303.85 1406.27,-288 1392.39,-188.58 1418.99,-134.29 1340.27,-72 1309.01,-47.26 1074.44,-31.42 932.23,-23.98"/>
<polygon fill="black" stroke="black" points="932.32,-20.48 922.15,-23.46 931.96,-27.47 932.32,-20.48"/>
</g>
<!-- r&#45;tabulizerjars&#45;&gt;r&#45;tabulizer -->
<g id="edge44" class="edge">
<title>r&#45;tabulizerjars&#45;&gt;r&#45;tabulizer</title>
<path fill="none" stroke="black" d="M1376.47,-360.05C1369.54,-351.54 1361.01,-341.07 1353.37,-331.68"/>
<polygon fill="black" stroke="black" points="1355.97,-329.33 1346.94,-323.79 1350.54,-333.75 1355.97,-329.33"/>
</g>
<!-- r&#45;destinie&#45;&gt;conda&#45;forge&#45;pinning -->
<g id="edge45" class="edge">
<title>r&#45;destinie&#45;&gt;conda&#45;forge&#45;pinning</title>
<path fill="none" stroke="black" d="M540.11,-215.95C546.53,-182.91 565.34,-110.1 611.27,-72 640.9,-47.42 680.34,-34 717.17,-26.76"/>
<polygon fill="black" stroke="black" points="718.27,-30.11 727.47,-24.87 717.01,-23.23 718.27,-30.11"/>
</g>
<!-- r&#45;noisefiltersr&#45;&gt;conda&#45;forge&#45;pinning -->
<g id="edge46" class="edge">
<title>r&#45;noisefiltersr&#45;&gt;conda&#45;forge&#45;pinning</title>
<path fill="none" stroke="black" d="M993.19,-74.58C960.2,-63.79 914.83,-48.95 879.27,-37.32"/>
<polygon fill="black" stroke="black" points="880.11,-33.91 869.52,-34.13 877.93,-40.56 880.11,-33.91"/>
</g>
<!-- r&#45;fselector&#45;&gt;conda&#45;forge&#45;pinning -->
<g id="edge52" class="edge">
<title>r&#45;fselector&#45;&gt;conda&#45;forge&#45;pinning</title>
<path fill="none" stroke="black" d="M858.89,-72.05C853.38,-63.84 846.63,-53.79 840.5,-44.66"/>
<polygon fill="black" stroke="black" points="843.35,-42.63 834.87,-36.28 837.54,-46.53 843.35,-42.63"/>
</g>
<!-- rpy2 -->
<g id="node23" class="node">
<title>rpy2</title>
<g id="a_node23"><a xlink:href="https://github.com/conda-forge/rpy2-feedstock/pull/55" xlink:title="rpy2">
<ellipse fill="#31688e" stroke="black" cx="1501.27" cy="-162" rx="30.59" ry="18"/>
<text text-anchor="middle" x="1501.27" y="-158.3" font-family="Times,serif" font-size="14.00" fill="white">rpy2</text>
</a>
</g>
</g>
<!-- rpy2&#45;&gt;conda&#45;forge&#45;pinning -->
<g id="edge47" class="edge">
<title>rpy2&#45;&gt;conda&#45;forge&#45;pinning</title>
<path fill="none" stroke="black" d="M1482.08,-147.94C1466.94,-137.47 1445.43,-122.24 1427.27,-108 1407.93,-92.83 1407.9,-81.6 1385.27,-72 1306.89,-38.74 1075.96,-26.21 935.7,-21.6"/>
<polygon fill="black" stroke="black" points="935.45,-18.09 925.34,-21.26 935.23,-25.08 935.45,-18.09"/>
</g>
<!-- iterativewgcna -->
<g id="node24" class="node">
<title>iterativewgcna</title>
<g id="a_node24"><a xlink:href="https://github.com/conda-forge/iterativewgcna-feedstock" xlink:title="iterativewgcna">
<ellipse fill="#fde725" stroke="black" cx="1516.27" cy="-90" rx="79.5" ry="18"/>
<text text-anchor="middle" x="1516.27" y="-86.3" font-family="Times,serif" font-size="14.00">iterativewgcna</text>
</a>
</g>
</g>
<!-- rpy2&#45;&gt;iterativewgcna -->
<g id="edge48" class="edge">
<title>rpy2&#45;&gt;iterativewgcna</title>
<path fill="none" stroke="black" d="M1504.9,-144.05C1506.57,-136.26 1508.6,-126.82 1510.47,-118.08"/>
<polygon fill="black" stroke="black" points="1513.9,-118.79 1512.57,-108.28 1507.05,-117.32 1513.9,-118.79"/>
</g>
<!-- iterativewgcna&#45;&gt;conda&#45;forge&#45;pinning -->
<g id="edge49" class="edge">
<title>iterativewgcna&#45;&gt;conda&#45;forge&#45;pinning</title>
<path fill="none" stroke="black" d="M1458.36,-77.56C1446.77,-75.51 1434.66,-73.54 1423.27,-72 1251.21,-48.73 1049.95,-33.35 929.74,-25.41"/>
<polygon fill="black" stroke="black" points="929.65,-21.9 919.44,-24.74 929.19,-28.88 929.65,-21.9"/>
</g>
<!-- r&#45;rvaidememoire -->
<g id="node25" class="node">
<title>r&#45;rvaidememoire</title>
<g id="a_node25"><a xlink:href="https://github.com/conda-forge/r-rvaidememoire-feedstock" xlink:title="r rvaidememoire">
<ellipse fill="#35b779" stroke="black" cx="1697.27" cy="-90" rx="84" ry="18"/>
<text text-anchor="middle" x="1697.27" y="-86.3" font-family="Times,serif" font-size="14.00">r rvaidememoire</text>
</a>
</g>
</g>
<!-- r&#45;rvaidememoire&#45;&gt;conda&#45;forge&#45;pinning -->
<g id="edge50" class="edge">
<title>r&#45;rvaidememoire&#45;&gt;conda&#45;forge&#45;pinning</title>
<path fill="none" stroke="black" d="M1637.89,-77.11C1626.76,-75.18 1615.18,-73.36 1604.27,-72 1366.66,-42.32 1086.15,-28.39 934.36,-22.59"/>
<polygon fill="black" stroke="black" points="934.23,-19.08 924.1,-22.2 933.96,-26.07 934.23,-19.08"/>
</g>
<!-- r&#45;hiver -->
<g id="node26" class="node">
<title>r&#45;hiver</title>
<g id="a_node26"><a xlink:href="https://github.com/conda-forge/r-hiver-feedstock" xlink:title="r hiver">
<ellipse fill="#35b779" stroke="black" cx="1774.27" cy="-162" rx="45" ry="18"/>
<text text-anchor="middle" x="1774.27" y="-158.3" font-family="Times,serif" font-size="14.00">r hiver</text>
</a>
</g>
</g>
<!-- r&#45;hiver&#45;&gt;conda&#45;forge&#45;pinning -->
<g id="edge51" class="edge">
<title>r&#45;hiver&#45;&gt;conda&#45;forge&#45;pinning</title>
<path fill="none" stroke="black" d="M1784.69,-144.18C1795.54,-124.27 1808.62,-91.38 1790.27,-72 1761.31,-41.4 1184.71,-26.23 935.94,-21.08"/>
<polygon fill="black" stroke="black" points="935.85,-17.58 925.78,-20.87 935.71,-24.58 935.85,-17.58"/>
</g>
<!-- r&#45;littler -->
<g id="node27" class="node">
<title>r&#45;littler</title>
<g id="a_node27"><a xlink:href="https://github.com/conda-forge/r-littler-feedstock/pull/2" xlink:title="r littler">
<ellipse fill="#31688e" stroke="black" cx="1847.27" cy="-234" rx="54.69" ry="18"/>
<text text-anchor="middle" x="1847.27" y="-230.3" font-family="Times,serif" font-size="14.00" fill="white">r littler</text>
</a>
</g>
</g>
<!-- r&#45;littler&#45;&gt;conda&#45;forge&#45;pinning -->
<g id="edge53" class="edge">
<title>r&#45;littler&#45;&gt;conda&#45;forge&#45;pinning</title>
<path fill="none" stroke="black" d="M1849.23,-215.95C1852.02,-182.26 1852.7,-107.36 1809.27,-72 1775.88,-44.81 1187.29,-27.65 935.76,-21.53"/>
<polygon fill="black" stroke="black" points="935.58,-18.02 925.5,-21.28 935.41,-25.02 935.58,-18.02"/>
</g>
<!-- r&#45;rxode -->
<g id="node28" class="node">
<title>r&#45;rxode</title>
<g id="a_node28"><a xlink:href="https://github.com/conda-forge/r-rxode-feedstock/pull/3" xlink:title="r rxode">
<ellipse fill="#31688e" stroke="black" cx="1941.27" cy="-162" rx="45" ry="18"/>
<text text-anchor="middle" x="1941.27" y="-158.3" font-family="Times,serif" font-size="14.00" fill="white">r rxode</text>
</a>
</g>
</g>
<!-- r&#45;rxode&#45;&gt;conda&#45;forge&#45;pinning -->
<g id="edge54" class="edge">
<title>r&#45;rxode&#45;&gt;conda&#45;forge&#45;pinning</title>
<path fill="none" stroke="black" d="M1929.07,-144.64C1911.21,-121.23 1878.25,-80.09 1861.27,-72 1779.59,-33.06 1188.6,-22.6 936.61,-19.9"/>
<polygon fill="black" stroke="black" points="936.37,-16.4 926.33,-19.79 936.29,-23.4 936.37,-16.4"/>
</g>
<!-- r&#45;nlmixr -->
<g id="node29" class="node">
<title>r&#45;nlmixr</title>
<g id="a_node29"><a xlink:href="https://github.com/conda-forge/r-nlmixr-feedstock" xlink:title="r nlmixr">
<ellipse fill="#fde725" stroke="black" cx="1963.27" cy="-90" rx="50.09" ry="18"/>
<text text-anchor="middle" x="1963.27" y="-86.3" font-family="Times,serif" font-size="14.00">r nlmixr</text>
</a>
</g>
</g>
<!-- r&#45;rxode&#45;&gt;r&#45;nlmixr -->
<g id="edge55" class="edge">
<title>r&#45;rxode&#45;&gt;r&#45;nlmixr</title>
<path fill="none" stroke="black" d="M1946.6,-144.05C1949.05,-136.26 1952.01,-126.82 1954.76,-118.08"/>
<polygon fill="black" stroke="black" points="1958.18,-118.86 1957.84,-108.28 1951.51,-116.77 1958.18,-118.86"/>
</g>
<!-- r&#45;nlmixr&#45;&gt;conda&#45;forge&#45;pinning -->
<g id="edge56" class="edge">
<title>r&#45;nlmixr&#45;&gt;conda&#45;forge&#45;pinning</title>
<path fill="none" stroke="black" d="M1926.33,-77.77C1917.54,-75.5 1908.13,-73.38 1899.27,-72 1716.17,-43.5 1171.86,-27.37 935.21,-21.53"/>
<polygon fill="black" stroke="black" points="935.29,-18.03 925.21,-21.28 935.12,-25.03 935.29,-18.03"/>
</g>
</g>
</svg>
