<?xml version="1.0" encoding="UTF-8" standalone="no"?>
<!DOCTYPE svg PUBLIC "-//W3C//DTD SVG 1.1//EN"
 "http://www.w3.org/Graphics/SVG/1.1/DTD/svg11.dtd">
<!-- Generated by graphviz version 2.42.3 (20191010.1750)
 -->
<!-- Title: %3 Pages: 1 -->
<svg width="902pt" height="188pt"
 viewBox="0.00 0.00 902.09 188.00" xmlns="http://www.w3.org/2000/svg" xmlns:xlink="http://www.w3.org/1999/xlink">
<g id="graph0" class="graph" transform="scale(1 1) rotate(0) translate(4 184)">
<title>%3</title>
<polygon fill="white" stroke="transparent" points="-4,4 -4,-184 898.09,-184 898.09,4 -4,4"/>
<!-- root_numpy -->
<g id="node1" class="node">
<title>root_numpy</title>
<g id="a_node1"><a xlink:href="https://github.com/conda-forge/root_numpy-feedstock" xlink:title="root_numpy">
<ellipse fill="#fde725" stroke="black" cx="59.79" cy="-90" rx="59.59" ry="18"/>
<text text-anchor="middle" x="59.79" y="-86.3" font-family="Times,serif" font-size="14.00">root_numpy</text>
</a>
</g>
</g>
<!-- root -->
<g id="node2" class="node">
<title>root</title>
<g id="a_node2"><a xlink:href="https://github.com/conda-forge/root-feedstock" xlink:title="root">
<ellipse fill="#35b779" stroke="black" cx="481.79" cy="-162" rx="30.59" ry="18"/>
<text text-anchor="middle" x="481.79" y="-158.3" font-family="Times,serif" font-size="14.00">root</text>
</a>
</g>
</g>
<!-- root&#45;&gt;root_numpy -->
<g id="edge8" class="edge">
<title>root&#45;&gt;root_numpy</title>
<path fill="none" stroke="black" d="M451.88,-157.46C390.84,-150.02 247.65,-131.51 128.79,-108 123.78,-107.01 118.58,-105.89 113.39,-104.72"/>
<polygon fill="black" stroke="black" points="113.99,-101.26 103.46,-102.4 112.41,-108.08 113.99,-101.26"/>
</g>
<!-- rapidsim -->
<g id="node3" class="node">
<title>rapidsim</title>
<g id="a_node3"><a xlink:href="https://github.com/conda-forge/rapidsim-feedstock" xlink:title="rapidsim">
<ellipse fill="#fde725" stroke="black" cx="187.79" cy="-90" rx="50.09" ry="18"/>
<text text-anchor="middle" x="187.79" y="-86.3" font-family="Times,serif" font-size="14.00">rapidsim</text>
</a>
</g>
</g>
<!-- root&#45;&gt;rapidsim -->
<g id="edge7" class="edge">
<title>root&#45;&gt;rapidsim</title>
<path fill="none" stroke="black" d="M453.45,-155.17C409.16,-145.93 320.93,-127.02 246.79,-108 242.95,-107.01 238.99,-105.96 235.01,-104.87"/>
<polygon fill="black" stroke="black" points="235.73,-101.44 225.16,-102.12 233.85,-108.18 235.73,-101.44"/>
</g>
<!-- fwlite -->
<g id="node4" class="node">
<title>fwlite</title>
<g id="a_node4"><a xlink:href="https://github.com/conda-forge/fwlite-feedstock" xlink:title="fwlite">
<ellipse fill="#fde725" stroke="black" cx="295.79" cy="-90" rx="40.09" ry="18"/>
<text text-anchor="middle" x="295.79" y="-86.3" font-family="Times,serif" font-size="14.00">fwlite</text>
</a>
</g>
</g>
<!-- root&#45;&gt;fwlite -->
<g id="edge1" class="edge">
<title>root&#45;&gt;fwlite</title>
<path fill="none" stroke="black" d="M456.71,-151.56C425.49,-139.81 371.81,-119.61 335.11,-105.79"/>
<polygon fill="black" stroke="black" points="336.29,-102.5 325.7,-102.25 333.83,-109.05 336.29,-102.5"/>
</g>
<!-- ostaphep -->
<g id="node5" class="node">
<title>ostaphep</title>
<g id="a_node5"><a xlink:href="https://github.com/conda-forge/ostaphep-feedstock" xlink:title="ostaphep">
<ellipse fill="#fde725" stroke="black" cx="403.79" cy="-90" rx="50.09" ry="18"/>
<text text-anchor="middle" x="403.79" y="-86.3" font-family="Times,serif" font-size="14.00">ostaphep</text>
</a>
</g>
</g>
<!-- root&#45;&gt;ostaphep -->
<g id="edge6" class="edge">
<title>root&#45;&gt;ostaphep</title>
<path fill="none" stroke="black" d="M465.63,-146.5C455.09,-137.04 441.11,-124.49 429.11,-113.72"/>
<polygon fill="black" stroke="black" points="431.35,-111.02 421.57,-106.95 426.67,-116.23 431.35,-111.02"/>
</g>
<!-- lhcb&#45;simpletools -->
<g id="node6" class="node">
<title>lhcb&#45;simpletools</title>
<g id="a_node6"><a xlink:href="https://github.com/conda-forge/lhcb-simpletools-feedstock" xlink:title="lhcb simpletools">
<ellipse fill="#fde725" stroke="black" cx="560.79" cy="-90" rx="89.08" ry="18"/>
<text text-anchor="middle" x="560.79" y="-86.3" font-family="Times,serif" font-size="14.00">lhcb simpletools</text>
</a>
</g>
</g>
<!-- root&#45;&gt;lhcb&#45;simpletools -->
<g id="edge4" class="edge">
<title>root&#45;&gt;lhcb&#45;simpletools</title>
<path fill="none" stroke="black" d="M498.16,-146.5C508.62,-137.23 522.41,-125.01 534.39,-114.4"/>
<polygon fill="black" stroke="black" points="536.79,-116.95 541.95,-107.7 532.14,-111.71 536.79,-116.95"/>
</g>
<!-- gwollum -->
<g id="node7" class="node">
<title>gwollum</title>
<g id="a_node7"><a xlink:href="https://github.com/conda-forge/gwollum-feedstock" xlink:title="gwollum">
<ellipse fill="#fde725" stroke="black" cx="712.79" cy="-90" rx="44.69" ry="18"/>
<text text-anchor="middle" x="712.79" y="-86.3" font-family="Times,serif" font-size="14.00">gwollum</text>
</a>
</g>
</g>
<!-- root&#45;&gt;gwollum -->
<g id="edge2" class="edge">
<title>root&#45;&gt;gwollum</title>
<path fill="none" stroke="black" d="M508.52,-153.13C543.2,-142.87 605.59,-124.34 658.79,-108 662.14,-106.97 665.59,-105.9 669.07,-104.82"/>
<polygon fill="black" stroke="black" points="670.33,-108.1 678.83,-101.77 668.24,-101.42 670.33,-108.1"/>
</g>
<!-- omicron -->
<g id="node8" class="node">
<title>omicron</title>
<g id="a_node8"><a xlink:href="https://github.com/conda-forge/omicron-feedstock" xlink:title="omicron">
<ellipse fill="#fde725" stroke="black" cx="748.79" cy="-18" rx="44.69" ry="18"/>
<text text-anchor="middle" x="748.79" y="-14.3" font-family="Times,serif" font-size="14.00">omicron</text>
</a>
</g>
</g>
<!-- root&#45;&gt;omicron -->
<g id="edge5" class="edge">
<title>root&#45;&gt;omicron</title>
<path fill="none" stroke="black" d="M512.37,-160.05C579.16,-157.25 734.67,-146.66 766.79,-108 781.43,-90.39 773.67,-64.12 764.21,-44.68"/>
<polygon fill="black" stroke="black" points="767.27,-42.98 759.52,-35.75 761.07,-46.23 767.27,-42.98"/>
</g>
<!-- hammer -->
<g id="node9" class="node">
<title>hammer</title>
<g id="a_node9"><a xlink:href="https://github.com/conda-forge/hammer-feedstock" xlink:title="hammer">
<ellipse fill="#fde725" stroke="black" cx="853.79" cy="-90" rx="40.09" ry="18"/>
<text text-anchor="middle" x="853.79" y="-86.3" font-family="Times,serif" font-size="14.00">hammer</text>
</a>
</g>
</g>
<!-- root&#45;&gt;hammer -->
<g id="edge3" class="edge">
<title>root&#45;&gt;hammer</title>
<path fill="none" stroke="black" d="M511.45,-157.47C568.01,-150.42 695.02,-133.09 799.79,-108 804.16,-106.95 808.69,-105.74 813.18,-104.45"/>
<polygon fill="black" stroke="black" points="814.3,-107.77 822.88,-101.55 812.29,-101.06 814.3,-107.77"/>
</g>
<!-- gwollum&#45;&gt;omicron -->
<g id="edge9" class="edge">
<title>gwollum&#45;&gt;omicron</title>
<path fill="none" stroke="black" d="M721.51,-72.05C725.71,-63.89 730.84,-53.91 735.51,-44.82"/>
<polygon fill="black" stroke="black" points="738.7,-46.28 740.16,-35.79 732.47,-43.08 738.7,-46.28"/>
</g>
</g>
</svg>
