<?xml version="1.0" encoding="UTF-8" standalone="no"?>
<!DOCTYPE svg PUBLIC "-//W3C//DTD SVG 1.1//EN"
 "http://www.w3.org/Graphics/SVG/1.1/DTD/svg11.dtd">
<!-- Generated by graphviz version 2.42.3 (20191010.1750)
 -->
<!-- Title: %3 Pages: 1 -->
<svg width="382pt" height="232pt"
 viewBox="0.00 0.00 382.39 232.00" xmlns="http://www.w3.org/2000/svg" xmlns:xlink="http://www.w3.org/1999/xlink">
<g id="graph0" class="graph" transform="scale(1 1) rotate(0) translate(4 228)">
<title>%3</title>
<polygon fill="white" stroke="transparent" points="-4,4 -4,-228 378.39,-228 378.39,4 -4,4"/>
<!-- mayavi -->
<g id="node1" class="node">
<title>mayavi</title>
<g id="a_node1"><a xlink:href="https://github.com/conda-forge/mayavi-feedstock/pull/43" xlink:title="mayavi">
<ellipse fill="#31688e" stroke="black" cx="334.1" cy="-134" rx="40.09" ry="18"/>
<text text-anchor="middle" x="334.1" y="-130.3" font-family="Times,serif" font-size="14.00" fill="white">mayavi</text>
</a>
</g>
</g>
<!-- occt -->
<g id="node2" class="node">
<title>occt</title>
<g id="a_node2"><a xlink:href="https://github.com/conda-forge/occt-feedstock/pull/44" xlink:title="occt">
<ellipse fill="#31688e" stroke="black" cx="66.1" cy="-206" rx="30.59" ry="18"/>
<text text-anchor="middle" x="66.1" y="-202.3" font-family="Times,serif" font-size="14.00" fill="white">occt</text>
</a>
</g>
</g>
<!-- smesh -->
<g id="node3" class="node">
<title>smesh</title>
<g id="a_node3"><a xlink:href="https://github.com/conda-forge/smesh-feedstock" xlink:title="smesh">
<ellipse fill="#fde725" stroke="black" cx="35.1" cy="-134" rx="35.19" ry="18"/>
<text text-anchor="middle" x="35.1" y="-130.3" font-family="Times,serif" font-size="14.00">smesh</text>
</a>
</g>
</g>
<!-- occt&#45;&gt;smesh -->
<g id="edge2" class="edge">
<title>occt&#45;&gt;smesh</title>
<path fill="none" stroke="black" d="M58.75,-188.41C55.17,-180.34 50.79,-170.43 46.77,-161.35"/>
<polygon fill="black" stroke="black" points="49.86,-159.68 42.61,-151.96 43.46,-162.52 49.86,-159.68"/>
</g>
<!-- freecad -->
<g id="node4" class="node">
<title>freecad</title>
<g id="a_node4"><a xlink:href="https://github.com/conda-forge/freecad-feedstock" xlink:title="freecad">
<ellipse fill="#fde725" stroke="black" cx="66.1" cy="-62" rx="44.69" ry="18"/>
<text text-anchor="middle" x="66.1" y="-58.3" font-family="Times,serif" font-size="14.00">freecad</text>
</a>
</g>
</g>
<!-- occt&#45;&gt;freecad -->
<g id="edge1" class="edge">
<title>occt&#45;&gt;freecad</title>
<path fill="none" stroke="black" d="M71.37,-188.01C74.29,-177.7 77.62,-164.23 79.1,-152 81.02,-136.12 81.02,-131.88 79.1,-116 78.06,-107.4 76.1,-98.19 74.02,-89.89"/>
<polygon fill="black" stroke="black" points="77.34,-88.75 71.37,-79.99 70.57,-90.56 77.34,-88.75"/>
</g>
<!-- smesh&#45;&gt;freecad -->
<g id="edge3" class="edge">
<title>smesh&#45;&gt;freecad</title>
<path fill="none" stroke="black" d="M42.6,-116.05C46.18,-107.97 50.54,-98.12 54.53,-89.11"/>
<polygon fill="black" stroke="black" points="57.81,-90.35 58.66,-79.79 51.41,-87.52 57.81,-90.35"/>
</g>
<!-- bonsu -->
<g id="node5" class="node">
<title>bonsu</title>
<g id="a_node5"><a xlink:href="https://github.com/conda-forge/bonsu-feedstock" xlink:title="bonsu">
<ellipse fill="#35b779" stroke="black" cx="202.1" cy="-18" rx="35.19" ry="18"/>
<text text-anchor="middle" x="202.1" y="-14.3" font-family="Times,serif" font-size="14.00">bonsu</text>
</a>
</g>
</g>
<!-- topologytoolkit -->
<g id="node6" class="node">
<title>topologytoolkit</title>
<g id="a_node6"><a xlink:href="https://github.com/conda-forge/topologytoolkit-feedstock/pull/6" xlink:title="topologytoolkit">
<ellipse fill="#31688e" stroke="black" cx="202.1" cy="-134" rx="83.69" ry="18"/>
<text text-anchor="middle" x="202.1" y="-130.3" font-family="Times,serif" font-size="14.00" fill="white">topologytoolkit</text>
</a>
</g>
</g>
<!-- damask -->
<g id="node7" class="node">
<title>damask</title>
<g id="a_node7"><a xlink:href="https://github.com/conda-forge/damask-feedstock" xlink:title="damask">
<ellipse fill="#35b779" stroke="black" cx="55.1" cy="-18" rx="40.09" ry="18"/>
<text text-anchor="middle" x="55.1" y="-14.3" font-family="Times,serif" font-size="14.00">damask</text>
</a>
</g>
</g>
</g>
</svg>
