<?xml version="1.0" encoding="UTF-8" standalone="no"?>
<!DOCTYPE svg PUBLIC "-//W3C//DTD SVG 1.1//EN"
 "http://www.w3.org/Graphics/SVG/1.1/DTD/svg11.dtd">
<!-- Generated by graphviz version 2.42.3 (20191010.1750)
 -->
<!-- Title: %3 Pages: 1 -->
<svg width="327pt" height="232pt"
 viewBox="0.00 0.00 327.19 232.00" xmlns="http://www.w3.org/2000/svg" xmlns:xlink="http://www.w3.org/1999/xlink">
<g id="graph0" class="graph" transform="scale(1 1) rotate(0) translate(4 228)">
<title>%3</title>
<polygon fill="white" stroke="transparent" points="-4,4 -4,-228 323.19,-228 323.19,4 -4,4"/>
<!-- mayavi -->
<g id="node1" class="node">
<title>mayavi</title>
<g id="a_node1"><a xlink:href="https://github.com/conda-forge/mayavi-feedstock/pull/43" xlink:title="mayavi">
<ellipse fill="#31688e" stroke="black" cx="282.15" cy="-134" rx="37.09" ry="18"/>
<text text-anchor="middle" x="282.15" y="-130.3" font-family="Times,serif" font-size="14.00" fill="white">mayavi</text>
</a>
</g>
</g>
<!-- occt -->
<g id="node2" class="node">
<title>occt</title>
<g id="a_node2"><a xlink:href="https://github.com/conda-forge/occt-feedstock/pull/44" xlink:title="occt">
<ellipse fill="#31688e" stroke="black" cx="63.15" cy="-206" rx="27" ry="18"/>
<text text-anchor="middle" x="63.15" y="-202.3" font-family="Times,serif" font-size="14.00" fill="white">occt</text>
</a>
</g>
</g>
<!-- smesh -->
<g id="node3" class="node">
<title>smesh</title>
<g id="a_node3"><a xlink:href="https://github.com/conda-forge/smesh-feedstock" xlink:title="smesh">
<ellipse fill="#fde725" stroke="black" cx="33.15" cy="-134" rx="33.29" ry="18"/>
<text text-anchor="middle" x="33.15" y="-130.3" font-family="Times,serif" font-size="14.00">smesh</text>
</a>
</g>
</g>
<!-- occt&#45;&gt;smesh -->
<g id="edge2" class="edge">
<title>occt&#45;&gt;smesh</title>
<path fill="none" stroke="black" d="M56.04,-188.41C52.58,-180.34 48.33,-170.43 44.44,-161.35"/>
<polygon fill="black" stroke="black" points="47.57,-159.77 40.41,-151.96 41.14,-162.53 47.57,-159.77"/>
</g>
<!-- freecad -->
<g id="node4" class="node">
<title>freecad</title>
<g id="a_node4"><a xlink:href="https://github.com/conda-forge/freecad-feedstock" xlink:title="freecad">
<ellipse fill="#fde725" stroke="black" cx="63.15" cy="-62" rx="36.29" ry="18"/>
<text text-anchor="middle" x="63.15" y="-58.3" font-family="Times,serif" font-size="14.00">freecad</text>
</a>
</g>
</g>
<!-- occt&#45;&gt;freecad -->
<g id="edge1" class="edge">
<title>occt&#45;&gt;freecad</title>
<path fill="none" stroke="black" d="M68.02,-187.98C70.71,-177.67 73.78,-164.19 75.15,-152 76.92,-136.1 76.92,-131.9 75.15,-116 74.19,-107.43 72.39,-98.22 70.46,-89.93"/>
<polygon fill="black" stroke="black" points="73.81,-88.89 68.02,-80.02 67.02,-90.57 73.81,-88.89"/>
</g>
<!-- smesh&#45;&gt;freecad -->
<g id="edge3" class="edge">
<title>smesh&#45;&gt;freecad</title>
<path fill="none" stroke="black" d="M40.26,-116.41C43.72,-108.34 47.96,-98.43 51.85,-89.35"/>
<polygon fill="black" stroke="black" points="55.16,-90.53 55.88,-79.96 48.72,-87.77 55.16,-90.53"/>
</g>
<!-- bonsu -->
<g id="node5" class="node">
<title>bonsu</title>
<g id="a_node5"><a xlink:href="https://github.com/conda-forge/bonsu-feedstock/pull/9" xlink:title="bonsu">
<ellipse fill="#31688e" stroke="black" cx="49.15" cy="-18" rx="31.7" ry="18"/>
<text text-anchor="middle" x="49.15" y="-14.3" font-family="Times,serif" font-size="14.00" fill="white">bonsu</text>
</a>
</g>
</g>
<!-- topologytoolkit -->
<g id="node6" class="node">
<title>topologytoolkit</title>
<g id="a_node6"><a xlink:href="https://github.com/conda-forge/topologytoolkit-feedstock/pull/6" xlink:title="topologytoolkit">
<ellipse fill="#31688e" stroke="black" cx="172.15" cy="-134" rx="64.99" ry="18"/>
<text text-anchor="middle" x="172.15" y="-130.3" font-family="Times,serif" font-size="14.00" fill="white">topologytoolkit</text>
</a>
</g>
</g>
</g>
</svg>
